<svg width="18" height="16" fill="none" xmlns="http://www.w3.org/2000/svg"><path d="M6.59 14.407H1.298a.479.479 0 100 .957H6.59a.479.479 0 100-.957zm-5.292-.957h3.374a.479.479 0 100-.957H1.298a.479.479 0 100 .957zm0-1.914h1.456a.479.479 0 100-.957H1.298a.479.479 0 100 .957zm15.884.478c0-.639-.25-1.24-.702-1.691a2.383 2.383 0 00-1.695-.7c-1.415 0-2.033-.437-2.414-.818-.4-.398-.297-1.258-.198-1.672l2.663-2.657a.478.478 0 000-.677L11.808.777a.48.48 0 00-.678 0L4.899 6.995l-.94.514a.48.48 0 00-.109.081c-.56.56-.56 1.47 0 2.03l5.053 5.043c.453.452 1.055.7 1.695.7h5.146a1.442 1.442 0 001.438-1.456v-1.893zm-4.171-1.702v.583a.479.479 0 00.959 0v-.364c.255.032.527.048.815.048a1.435 1.435 0 011.438 1.436v.478h-5.266l-5.09-5.11 2.824-2.82c.265.362.305.636.346.923.05.336.105.716.484 1.095.48.48 1.16.666 1.645.739a4.44 4.44 0 00-.036.396c-.024.542.07 1.009.273 1.378l-.38.379a.478.478 0 10.679.676l.352-.351c.286.217.603.388.957.514zm-1.542-8.52l2.35 2.345L11.552 6.4c-.316-.024-.976-.12-1.353-.496-.148-.148-.171-.27-.213-.556-.054-.37-.124-.857-.612-1.466l2.095-2.09zm4.754 12.143a.48.48 0 01-.48.472h-5.145a1.43 1.43 0 01-1.017-.42L4.528 8.943a.475.475 0 01-.038-.634l.614-.336 5.314 5.335a.48.48 0 00.34.14h5.465v.488z" fill="#231F20"/></svg>