<svg width="18" height="7" fill="none" xmlns="http://www.w3.org/2000/svg"><path d="M14.625 3.016a1.547 1.547 0 100 3.094 1.547 1.547 0 000-3.094zm0 2.25a.703.703 0 110-1.406.703.703 0 010 1.406zM3.937 3.016a1.547 1.547 0 100 3.093 1.547 1.547 0 000-3.093zm0 2.25a.703.703 0 110-1.407.703.703 0 010 1.407z" fill="#231F20"/><path d="M17.803 3.79c-.045-.078-1.118-1.9-3.178-1.9-1.99 0-3.031-.445-3.166-.508-.23-.15-1.849-1.179-3.021-1.179H5.062c-1.138 0-2.697.97-2.997 1.164l-1.636.545a.422.422 0 00-.288.4v2.25a.422.422 0 00.339.414l1.634.327a1.969 1.969 0 113.527.244h7.28a1.968 1.968 0 113.408 0h1.108a.422.422 0 00.422-.422V4a.422.422 0 00-.056-.21zm-9.366.632H6.75a.422.422 0 010-.844h1.688a.422.422 0 110 .844zm1.688 0a.422.422 0 110-.844.422.422 0 010 .844zm.189-2.435a.422.422 0 01-.189.044H6.75a.422.422 0 01-.133-.021c-.021-.007-1.639-.541-2.68-.541H2.6c.63-.353 1.652-.844 2.462-.844h3.375c.908 0 2.081.615 2.673.964l-.796.398zm1.498 2.435a.422.422 0 110-.844.422.422 0 010 .844z" fill="#231F20"/></svg>