<svg width="18" height="18" fill="none" xmlns="http://www.w3.org/2000/svg"><path d="M2.857 4.71A7.425 7.425 0 001.5 9c0 1.598.502 3.075 1.357 4.29A4.512 4.512 0 006 9a4.512 4.512 0 00-3.143-4.29zm12.285 0A4.512 4.512 0 0012 9a4.512 4.512 0 003.143 4.29A7.425 7.425 0 0016.5 9a7.425 7.425 0 00-1.357-4.29z" fill="#231F20"/><path d="M10.5 9a6.001 6.001 0 013.592-5.498A7.464 7.464 0 009 1.5a7.464 7.464 0 00-5.092 2.002 6.001 6.001 0 010 10.996A7.464 7.464 0 009 16.5a7.464 7.464 0 005.092-2.002A6.001 6.001 0 0110.5 9z" fill="#231F20"/></svg>