<svg width="14" height="16" fill="none" xmlns="http://www.w3.org/2000/svg"><path d="M7.66 1.73c.578 0 1.05.473 1.05 1.05 0 .578-.473 1.05-1.05 1.05a1.04 1.04 0 01-1.035-1.05c0-.577.457-1.05 1.035-1.05zm1.59 7.02h1.125v4.5H9.25v-4.5zm0-3.375h1.125V6.5H9.25V5.375zM5.53.95L4 .53 2.545 5.435l-1.62 2.13 2.452.712L5.53.95zm7.222 11.963c-.27.284-.592.712-.952.862a2.304 2.304 0 01-1.05.225H8.125l-.053-2.25a.899.899 0 00-.112-.375L6.16 8.18l.66-2.055c.322.584.647 1.167.975 1.747a.66.66 0 00.473.226h1.657a.608.608 0 00.607-.608.598.598 0 00-.562-.593L8.717 6.8 7.3 4.25s-.3-.435-.945-.435c-.653 0-.855.315-.983.75L2.5 14H.25v1.5h10.5c1.027 0 1.898-.495 2.625-1.223l-.623-1.364zm-7.44-3.12l1.403 2.25L6.813 14h-3l1.5-4.207z" fill="#231F20"/></svg>