<svg width="18" height="18" fill="none" xmlns="http://www.w3.org/2000/svg"><path d="M8.25 11.56V15h1.5v-3.44c0-.394-.16-.781-.44-1.06L7.81 9l1.94-1.94 1.5 1.5c.279.28.666.44 1.06.44H15V7.5h-2.69L9.53 4.72a.75.75 0 00-1.06 0L6 7.19a1.49 1.49 0 00-.44 1.06c0 .4.156.777.44 1.06l2.25 2.25zM12 5.25a1.5 1.5 0 100-3 1.5 1.5 0 000 3z" fill="#231F20"/><path d="M13.5 10.5c-1.655 0-3 1.345-3 3s1.345 3 3 3 3-1.345 3-3-1.345-3-3-3zm0 4.5c-.827 0-1.5-.673-1.5-1.5s.673-1.5 1.5-1.5 1.5.673 1.5 1.5-.673 1.5-1.5 1.5zm-9 1.5c1.654 0 3-1.345 3-3s-1.346-3-3-3c-1.655 0-3 1.345-3 3s1.345 3 3 3zm0-4.5c.827 0 1.5.673 1.5 1.5S5.327 15 4.5 15 3 14.327 3 13.5 3.673 12 4.5 12z" fill="#231F20"/></svg>