<svg width="18" height="7" fill="none" xmlns="http://www.w3.org/2000/svg"><path fill-rule="evenodd" clip-rule="evenodd" d="M6.377 1.03c-.525.212-2.153 1.108-3.018 1.662-.298.192-.43.372-.61.834l-.228.59-.83.243c-.997.291-1.026.395-.29 1.06l.463.418 12.232-2.321 1.134-.84C18.087.563 17.846.433 12.887 1.41l-3.666.723-.46-.365C7.52.784 7.222.692 6.377 1.031zm.908.02c.186.028 1.465 1.03 1.492 1.168.05.251-.44.03-1.148-.52-.738-.575-.816-.72-.344-.649zm-.02.742c.396.284.724.54.731.57.013.057-2.689.726-2.759.683-.294-.184.144-1.186.643-1.471.662-.379.526-.4 1.385.218zM2.927 6.714l9.047-1.804.977-.69L2.385 6.252l.542.462z" fill="#231F20"/></svg>