<svg width="14" height="18" fill="none" xmlns="http://www.w3.org/2000/svg"><path fill-rule="evenodd" clip-rule="evenodd" d="M10.249.878a.91.91 0 00-.165.136 82.76 82.76 0 00-1.231 1.89L7.681 4.727c-.005.006-.227.06-.493.12a49.89 49.89 0 01-.983.206c-.275.054-.69.111-.922.127-.28.02-.487.052-.613.096a4.131 4.131 0 00-.465.214c-.151.082-.469.258-.705.392l-.431.244-.64-.657a36.678 36.678 0 01-.932-.987c-.16-.182-.338-.36-.395-.395a1.006 1.006 0 00-.208-.094.434.434 0 00-.226.003.334.334 0 00-.174.113c-.036.055-.047.12-.035.207.01.07.06.22.114.335.053.114.244.428.424.698.18.27.502.734.716 1.032.213.297.5.675.637.84.137.163.3.33.363.368a.317.317 0 00.24.055c.068-.01.388-.136.711-.282.323-.145.684-.313.803-.372a1.32 1.32 0 01.258-.108c.03 0 .076.151.146.474l.285 1.304.182.83.39-.02c.216-.01.498-.035.628-.055a7.041 7.041 0 001.07-.265 5.27 5.27 0 00.506-.216c.154-.076.322-.176.373-.221l.092-.082.198-1.474.197-1.475.874-1.718c.48-.945.96-1.898 1.063-2.117.143-.3.193-.443.203-.578.01-.144 0-.194-.054-.262a.585.585 0 00-.176-.137.647.647 0 00-.234-.052.491.491 0 00-.22.06zm2.605.638c-.01.26-.043.632-.072.826-.03.194-.102.543-.161.775-.06.232-.16.564-.225.738-.064.174-.182.45-.26.612a7.57 7.57 0 01-.632 1.067c-.073.098-.237.303-.366.457a6.18 6.18 0 01-.482.504 8.102 8.102 0 01-.485.402c-.131.098-.25.178-.265.178-.014 0-.026.016-.026.036 0 .02.074.157.164.304.144.235.171.264.225.235.033-.018.201-.139.373-.268a7.363 7.363 0 001.153-1.125 8.111 8.111 0 00.851-1.316c.097-.194.227-.476.289-.626.061-.15.165-.446.23-.657.064-.212.152-.559.195-.77.042-.212.092-.507.11-.656.019-.149.043-.468.055-.709l.02-.438-.076-.02a2.084 2.084 0 00-.337-.022h-.26l-.018.473zm-7.339.693c-.098.04-.232.116-.298.167a1.31 1.31 0 00-.367.528 1.965 1.965 0 00-.055.26 1.16 1.16 0 00.018.337c.021.104.067.245.102.314.035.068.127.193.205.276.087.093.22.187.342.243.171.079.24.092.473.09a1.14 1.14 0 00.457-.073c.116-.046.245-.131.346-.23.09-.088.2-.239.248-.342a1.04 1.04 0 00.098-.458c.009-.223-.002-.308-.061-.466a1.012 1.012 0 00-.268-.387 1.015 1.015 0 00-.38-.265 1.144 1.144 0 00-.433-.069c-.184 0-.294.02-.427.075zm4.252 6.3c-.088.045-.26.183-.381.306a4.796 4.796 0 01-.46.4c-.133.098-.365.24-.518.316a8.148 8.148 0 01-.806.315c-.29.097-.697.214-.902.259a9.333 9.333 0 01-.802.13c-.235.026-.499.052-.584.056l-.156.008-.43 1.043c-.237.574-.668 1.635-.957 2.358a84.942 84.942 0 00-.675 1.732 9.103 9.103 0 00-.21.658 2.197 2.197 0 00-.062.434c0 .12.02.235.056.304a.56.56 0 00.165.185.517.517 0 00.506.01c.056-.034.16-.136.231-.225.07-.09.363-.621.65-1.181.286-.56.793-1.574 1.125-2.253l.604-1.236.232-.023c.127-.013.353-.04.502-.06.15-.02.42-.076.601-.124l.33-.086.009 2.596.008 2.596.09.077a.31.31 0 00.21.078.399.399 0 00.193-.052.428.428 0 00.12-.16c.037-.088.045-.562.045-2.749V11.58l.136-.068a6.57 6.57 0 00.615-.44 9.09 9.09 0 01.498-.371c.01 0 .152.516.316 1.147.165.63.342 1.253.393 1.382.052.13.148.315.212.413a.955.955 0 00.217.238.48.48 0 00.211.06.379.379 0 00.185-.05.524.524 0 00.127-.152c.043-.08.055-.185.056-.488 0-.336-.04-.628-.312-2.305-.191-1.174-.336-1.973-.372-2.054a1.2 1.2 0 00-.149-.238.821.821 0 00-.212-.169.665.665 0 00-.309-.061.697.697 0 00-.346.084z" fill="#231F20"/></svg>