<svg width="18" height="13" fill="none" xmlns="http://www.w3.org/2000/svg"><path fill-rule="evenodd" clip-rule="evenodd" d="M10.363.32c-.025.04-.297.747-.605 1.573-.309.827-.597 1.467-.642 1.423-.044-.044-.336-.713-.649-1.488S7.831.396 7.747.368c-.238-.082-1.29.25-1.406.444-.057.096-.269.201-.469.235-.858.143-1.592.82-2.373 2.191a57.35 57.35 0 01-1.513 2.431C.7 7.622.746 7.539.887 7.69c.196.21 2.108 1.189 2.32 1.189.15 0 .408-.375 1.048-1.517.467-.835.88-1.518.917-1.518.169 0 .211 1.24.047 1.386-.22.196-.22 1.017.002 1.213.148.132.137.288-.122 1.587-.337 1.697-.42 1.553 1.073 1.873.877.187 1.049.255 1.131.447.12.282-.226.313 3.119-.278 3.411-.603 3.065-.338 2.716-2.08-.734-3.67-.354-4.846.864-2.678 1.02 1.816.81 1.723 2.218.972 1.415-.754 1.402-.59.191-2.43a61.291 61.291 0 01-1.66-2.667c-.706-1.24-1.344-1.864-2.188-2.14-.281-.092-.583-.24-.672-.329-.26-.263-1.421-.566-1.528-.4zm.858.782c.1.104.474.275.83.38.939.277 1.339.616 1.927 1.634.28.484.982 1.615 1.56 2.515.58.899 1.053 1.673 1.053 1.72 0 .081-1.225.77-1.37.77-.041 0-.544-.836-1.118-1.856-1.444-2.569-1.404-2.577-1.845.41l-.06.402H8.49l.827-2.205c.454-1.212.967-2.6 1.138-3.082.322-.906.447-1.019.766-.688zM8.153 2.689l.673 1.681-.504 1.354-.504 1.353H6.032l-.075-.545c-.366-2.674-.42-2.68-1.817-.196A90.78 90.78 0 013.076 8.2c-.018.018-.368-.144-.777-.36l-.744-.393 1.177-1.82c.648-1.002 1.343-2.13 1.544-2.506.464-.867 1.057-1.35 1.955-1.591.369-.1.698-.251.757-.35.282-.466.474-.217 1.165 1.51zm-.961 5.033c0 .191-.302.303-.816.303-.549 0-.758-.095-.626-.284.078-.112 1.442-.13 1.442-.02zm1.417.375c.163.247.586.846.94 1.33.566.775.71 1.137.415 1.045-.086-.027-2.024-2.692-2.024-2.784 0-.218.43.045.67.409zm3.656-.261c0 .184-2.761.263-3.002.086-.325-.24-.097-.28 1.427-.255 1.316.022 1.575.05 1.575.169zm-4.584.82c-.132.352-.47.657-.6.542-.091-.081-.048-.207.172-.502.29-.388.569-.415.428-.04zm-1.346.226c-.287.358-.234.49.307.759.234.117.453.303.486.413.082.269.08 1.48 0 1.48-.072 0-1.304-.27-1.5-.329-.085-.025-.047-.4.134-1.3.14-.694.254-1.274.254-1.287 0-.013.124-.024.275-.024h.275l-.231.288zm5.973.21c.359 1.613.413 1.982.293 2.017-.55.161-4.594.806-4.658.743-.221-.216-.217-2.255.005-2.499.202-.223.223-.227.344-.066.07.094.403.553.74 1.02.684.95.7.957 1.397.565.621-.35.62-.402-.013-1.307-.284-.403-.55-.787-.594-.852-.062-.092.195-.119 1.148-.119h1.227l.11.498z" fill="#231F20"/></svg>