<svg width="16" height="12" fill="none" xmlns="http://www.w3.org/2000/svg"><path d="M15.185 9.068l-.818-5.745A2.997 2.997 0 0011.397.75H4.604a2.997 2.997 0 00-2.97 2.572L.815 9.069a1.909 1.909 0 003.24 1.62L5.75 9h4.5l1.688 1.688a1.91 1.91 0 003.248-1.62zM7.25 5.25h-1.5v1.5H5v-1.5H3.5V4.5H5V3h.75v1.5h1.5v.75zm3-.75a.752.752 0 01-.75-.75c0-.413.338-.75.75-.75s.75.337.75.75c0 .412-.338.75-.75.75zm1.5 2.25A.752.752 0 0111 6c0-.412.338-.75.75-.75s.75.338.75.75-.338.75-.75.75z" fill="#231F20"/></svg>