<svg width="18" height="18" fill="none" xmlns="http://www.w3.org/2000/svg"><path d="M18 .745L17.255 0l-3.01 3.01a3.404 3.404 0 00-2.163-.648 3.403 3.403 0 00-2.458 1.233l-.023.028L7.87 6.42l-2.75 4.129-2.162-.721L0 12.785l3.477 1.738L5.215 18l2.957-2.957-.72-2.162 4.127-2.752 2.798-1.73.028-.022a3.403 3.403 0 001.233-2.459 3.405 3.405 0 00-.647-2.164L18 .745zm-7.88 4.041l3.094 3.094-.92.569L9.55 5.707l.57-.92zm-8.341 7.71l1.463-1.463 1.808.603.284.285-1.568 1.568-1.987-.993zm3.725 3.725l-.993-1.987 1.568-1.568.285.284.603 1.809-1.463 1.462zm5.506-6.979l-4.118 2.746-.88-.88 2.74-4.11.23-.37 2.39 2.39-.354.22-.008.004zm3.576-3.375a2.314 2.314 0 01-.525 1.37l-3.298-3.298c.385-.316.858-.5 1.37-.525a2.315 2.315 0 011.77.684 2.32 2.32 0 01.683 1.77z" fill="#231F20"/></svg>