<svg width="18" height="16" fill="none" xmlns="http://www.w3.org/2000/svg"><path fill-rule="evenodd" clip-rule="evenodd" d="M1.095.817l-.445.446L6.943 7.55c3.461 3.458 6.383 6.343 6.493 6.41 1.976 1.218 4.44-.585 3.862-2.825-.267-1.037-1.326-1.902-2.328-1.902h-.158v.618c0 .456.015.622.057.633.032.008.16.04.286.069 1.459.343 1.155 2.519-.351 2.521-.579.002-.116.428-7.005-6.453L1.539.371l-.444.446zm12.038 2.855l-3.21 3.21.458.456.457.456 3.22-3.22 3.22-3.22-.444-.446c-.244-.245-.454-.446-.468-.446-.013 0-1.468 1.444-3.233 3.21zM2.393 9.35c-1.815.62-2.349 2.9-.993 4.245.83.825 2.013.98 3.1.405.242-.127 3.55-3.356 3.55-3.463 0-.027-.194-.243-.433-.481l-.434-.432L5.55 11.25c-1.758 1.752-1.792 1.779-2.275 1.81-1.584.103-1.874-2.225-.318-2.548l.251-.052V9.234h-.24a2.275 2.275 0 00-.575.116zm6.32 3.761c-.94.247-1.292 1.394-.644 2.1 1.002 1.092 2.739-.116 2.068-1.44-.253-.499-.898-.798-1.424-.66z" fill="#231F20"/></svg>