<svg width="16" height="18" fill="none" xmlns="http://www.w3.org/2000/svg"><path fill-rule="evenodd" clip-rule="evenodd" d="M13.738.459a1.796 1.796 0 00-1.4 1.86c.11 1.825 2.567 2.317 3.394.68.67-1.325-.531-2.856-1.994-2.54zM.548 3.052c-.311.09-.64.857-.45 1.048.191.19.39.108.58-.239l.11-.2h1.667c1.133 0 1.701-.012 1.774-.037.274-.096.259-.488-.022-.565-.138-.039-3.53-.045-3.66-.007zm6.22.471c-.71.182-.787.883-.168 1.54 1.419 1.506 3.851 1.86 5.992.875.155-.072.287-.13.292-.13.107 0-.413.76-.708 1.033-2.097 1.95-6.375.89-7.896-1.957-.35-.655-.346-.653-1.704-.652-1.4 0-1.64.11-1.648.754-.008.612.287.785 1.345.787l.71.002.175.274c1.237 1.946 3.204 3.109 5.538 3.274l.35.025.983 1.543.985 1.543-.502 1.477c-.66 1.944-.668 2.128-.106 2.404.191.095 2.182.123 2.43.035.954-.338.544-1.464-.55-1.509-.236-.01-.429-.027-.429-.039 0-.011.174-.531.386-1.155.539-1.58.603-1.237-.568-3.07-.476-.743-.858-1.36-.85-1.368.01-.008.155-.052.326-.098 1.782-.476 3.062-1.827 3.457-3.648.08-.365.085-.557.023-.729l-.043-.117-.35.011a2.336 2.336 0 01-1.428-.389l-.172-.112-.243.157c-.959.62-2.468.831-3.468.487-.54-.186-.896-.436-1.393-.98-.212-.232-.505-.334-.765-.268zm6.973 12.923c-.096.04-.136.088-.272.342l-.104.192H9.906l-.082.083a.3.3 0 00.004.423l.087.082 1.855.009c2.16.01 1.923.057 2.199-.428.276-.485.155-.86-.228-.703z" fill="#231F20"/></svg>