<svg width="18" height="18" fill="none" xmlns="http://www.w3.org/2000/svg"><path fill-rule="evenodd" clip-rule="evenodd" d="M8.423.698c-7.038.598-10.28 8.917-5.466 14.026 4.523 4.8 12.65 2.595 14.149-3.838C18.366 5.476 13.897.232 8.423.697zm1.476 1.22c.922.122 2.531.653 2.326.768-.358.2.99 1.38 1.683 1.473.129.017.152.009.179-.064.112-.303 1.28 1.487 1.647 2.525 2.483 7.015-6.262 12.687-11.653 7.557C-.882 9.454 3.12 1.024 9.9 1.92zm-2.288.243c-1.11.196-1.27.599-.248.625.994.026 2-.36 1.536-.589-.123-.06-1.01-.086-1.288-.036zm5.136.649c.48.23 1.005.637 1.242.965.174.24.121.226-.192-.05a8.168 8.168 0 00-1.152-.851c-.36-.221-.302-.258.102-.064zM4.162 3.956c-.179.12-.51.527-.7.86-.49.858-.427 1.366.106.858.77-.735 1.267-2.172.594-1.718zm2.504.864c-.742.371-1.055 1.242-.606 1.69.604.605 1.898-.144 1.898-1.098 0-.637-.627-.925-1.292-.592zm6.164 1.1c-.94.392-.21 1.984.911 1.986 1.32.003.793-1.969-.54-2.016a1.293 1.293 0 00-.371.03zM9.324 8.447c-.716.18-1.11.983-.804 1.638.536 1.143 2.243.773 2.243-.486 0-.76-.717-1.333-1.439-1.152zm-7.21.097c-.141.171-.058 1.035.159 1.633.281.778.573.836.57.113-.003-.905-.479-2.046-.729-1.746zm2.961 1.55c-.911.413-.175 1.977.93 1.978 1.32 0 .795-1.966-.539-2.017-.178-.007-.32.008-.39.04zm10.02.96c-.377.408-.788 1.706-.632 1.997.203.38.899-.858.96-1.707.033-.461-.08-.56-.328-.29zm-3.567 1.367c-1.225.396-1.464 1.589-.316 1.58.758-.007 1.47-.555 1.47-1.132 0-.43-.549-.644-1.154-.448zm-5.93 2.21c-.288.218.909.882 1.759.976.829.091.286-.523-.776-.879-.419-.14-.868-.184-.984-.097z" fill="#231F20"/></svg>