<svg width="16" height="16" fill="none" xmlns="http://www.w3.org/2000/svg"><path d="M8 .5C3.86.5.5 3.86.5 8c0 4.14 3.36 7.5 7.5 7.5 4.14 0 7.5-3.36 7.5-7.5C15.5 3.86 12.14.5 8 .5zm.75 2.475l1.012-.712a6.007 6.007 0 013.285 2.505l-.292 1.005-1.013.345L8.75 4.024v-1.05zm-2.513-.712l1.013.712v1.05L4.258 6.117l-1.013-.345-.292-1.005a6.077 6.077 0 013.284-2.505zm-1.927 9.57l-.855.075A5.953 5.953 0 012 8c0-.09.007-.173.015-.263l.75-.547 1.035.36 1.095 3.255-.585 1.027zm5.565 1.86A5.99 5.99 0 018 14a5.99 5.99 0 01-1.875-.307l-.518-1.118.48-.825H9.92l.48.832-.525 1.11zm-.172-3.443H6.298L5.285 7.235 8 5.33l2.723 1.905-1.02 3.015zm2.842 1.658l-.855-.075-.592-1.028 1.095-3.255 1.042-.353.75.548c.008.082.015.165.015.255a5.954 5.954 0 01-1.455 3.908z" fill="#231F20"/></svg>