<svg width="18" height="8" fill="none" xmlns="http://www.w3.org/2000/svg"><path fill-rule="evenodd" clip-rule="evenodd" d="M.356 2.808v2.578h1.742v.282c.004 1.814 2.15 2.711 3.417 1.428 1.252-1.267.29-3.518-1.46-3.41-.22.014-.202-.004.162-.16 1.035-.444 2.135-.757 3.058-.868l.435-.053.128-.017V4.27l.608-.02c1.128-.04 3.743.111 3.853.222a.944.944 0 01-.107.196c-.205.325-.262.52-.28.965l-.016.4H6.65l-.022.163a2.55 2.55 0 01-.292.8l-.102.164h6.284l.162.124c1.307 1.002 3.217.063 3.22-1.583 0-.292-.024-.283.314-.104.286.153.345.235.274.38a.996.996 0 00-.06.226 2.671 2.671 0 01-.253.744l-.097.179h1.565V5.12l-.236-.175c-1.455-1.077-4.157-1.73-7.443-1.8L9 3.125v-1.74l-.794.02c-1.6.039-3.304.46-4.704 1.165a3.262 3.262 0 01-.255.12c-.009 0-.02-.318-.027-.707l-.011-.708-.107-.222A1.322 1.322 0 002.448.38l-.26-.129-.916-.01L.356.228v2.579zM2.022 1.44c.054.054.06.182.069 1.44l.01 1.38h-.288c-.231 0-.292-.01-.309-.053-.03-.079-.025-2.797.005-2.827.049-.05.45-.003.513.06zm2.37 3.44c.6.18.766 1.037.282 1.46-.532.467-1.365.145-1.438-.555-.065-.627.53-1.092 1.156-.905zm9.89.042c.821.382.531 1.633-.379 1.633-.92 0-1.201-1.232-.375-1.644.198-.099.529-.094.753.01z" fill="#231F20"/></svg>