<svg width="17" height="18" fill="none" xmlns="http://www.w3.org/2000/svg"><path fill-rule="evenodd" clip-rule="evenodd" d="M10.091 2.722c-1.832-.655-3.956-.84-6.485-.48A.75.75 0 013.394.758c2.72-.39 5.097-.2 7.202.551 2.107.753 3.896 2.053 5.465 3.818a.75.75 0 11-1.122.996c-1.43-1.61-3.017-2.747-4.848-3.401zm4.878 5.063a.75.75 0 01-.102 1.055L12.6 10.704a.75.75 0 01-.353.16l-4.032.673-.565 1.976.56 2.237h3.539a.75.75 0 010 1.5H7.625a.75.75 0 01-.728-.568l-.637-2.55-2.351-.523-1.613 3.226a.75.75 0 01-1.342-.67l1.875-3.75a.75.75 0 01.834-.397l2.685.597.366-1.28-5.352-2.008a.75.75 0 11.526-1.404l5.812 2.18 4.104-.685 2.11-1.736a.75.75 0 011.055.103z" fill="#231F20"/><path d="M6.843 6.207A1.636 1.636 0 119.157 8.52a1.636 1.636 0 01-2.314-2.314z" fill="#231F20"/></svg>