<svg width="18" height="18" fill="none" xmlns="http://www.w3.org/2000/svg"><path d="M10.703 4.5a1.504 1.504 0 00.547 2.048A1.504 1.504 0 0013.297 6a1.504 1.504 0 00-.547-2.047 1.504 1.504 0 00-2.047.547z" fill="#231F20"/><path d="M11.88 7.808L9.93 6.683a3.749 3.749 0 01-1.365-5.115L7.268.817c-1.193 2.054-.818 4.59.727 6.232l-3.862 6.69 1.297.75 1.125-1.95 1.298.75-2.25 3.9 1.297.75 4.717-8.168a3.75 3.75 0 01.233 4.095l1.298.75c1.2-2.062.96-4.935-1.268-6.81zM9.563 2.85c.54.308 1.222.127 1.537-.413A1.128 1.128 0 0010.688.9a1.126 1.126 0 00-1.125 1.95z" fill="#231F20"/></svg>