<svg width="17" height="16" fill="none" xmlns="http://www.w3.org/2000/svg"><path fill-rule="evenodd" clip-rule="evenodd" d="M2.787 2.658v2.149h1.045v-1.99l.32.037c.29.033.326.092.411.675.051.351.167.982.258 1.4.091.42.3 1.057.465 1.417.165.36.54.921.832 1.247.293.326.735.696.982.822l.448.229v1.145c0 1.09.013 1.149.262 1.215.143.039.633.071 1.088.072.455 0 .991-.031 1.19-.071l.364-.073V8.58l.526-.279a3.67 3.67 0 00.872-.673c.19-.216.498-.695.684-1.065.187-.37.427-1.007.534-1.417.107-.41.228-1.086.27-1.5.07-.716.092-.758.394-.792l.32-.037v1.99h1.045V.51h-1.045v1.858H3.832V.51H2.787v2.148zm9.475 1.917c.088-.416.16-.978.162-1.25l.002-.493h-3.42c-2.076 0-3.445.044-3.488.113-.038.061-.038.388 0 .725.038.338.2 1.035.359 1.55.177.568.459 1.156.72 1.5.236.311.676.717.978.902.353.216.776.36 1.186.402.54.056.736.017 1.285-.251.357-.175.824-.499 1.04-.72.215-.222.531-.7.703-1.063.172-.363.385-1 .473-1.415z" fill="#231F20"/><path fill-rule="evenodd" clip-rule="evenodd" d="M1.626 2.658v1.103h.813V1.555h-.813v1.103zm13.82 0v1.103h.812V1.555h-.813v1.103zm-14.517 0c0 .284.053.407.174.407.122 0 .174-.123.174-.407s-.052-.406-.174-.406c-.121 0-.174.122-.174.406zm15.677 0c0 .284.053.407.175.407.121 0 .174-.123.174-.407s-.053-.406-.174-.406c-.122 0-.175.122-.175.406zM5.481 10.985c-.098.098-.14.752-.14 2.202 0 1.92.016 2.071.226 2.183.123.066.28.12.348.12.068 0 .228-.104.356-.232.204-.204.232-.387.232-1.504V12.48l.494.193c.37.144.882.192 2.061.194 1.153.001 1.697-.047 2.057-.183.27-.1.517-.156.552-.122.034.035.062.653.062 1.375 0 1.178.023 1.324.225 1.432.123.066.28.12.348.12.068 0 .228-.104.356-.232.213-.212.232-.387.232-2.064 0-1.47-.035-1.884-.18-2.09-.1-.143-.288-.259-.418-.259s-.392.11-.58.245c-.19.135-.668.344-1.064.464a6.111 6.111 0 01-1.6.22c-.583 0-1.113-.079-1.56-.233a7.31 7.31 0 01-1.07-.465c-.216-.127-.484-.23-.595-.23a.556.556 0 00-.342.139z" fill="#231F20"/><path d="M7.962 4.35c-.262.231-.436.51-.49.785-.047.234-.07.53-.05.659.019.127.11.378.202.556.092.179.335.427.54.552.204.124.554.226.778.227.223 0 .585-.092.803-.203.218-.112.493-.385.61-.608.117-.223.213-.554.213-.737 0-.183-.084-.51-.187-.726a1.76 1.76 0 00-.565-.627c-.236-.146-.58-.234-.913-.234-.43 0-.612.069-.94.357z" fill="#231F20"/></svg>