<svg width="18" height="18" fill="none" xmlns="http://www.w3.org/2000/svg"><path d="M9 13.347a1.92 1.92 0 00-1.918 1.917A1.92 1.92 0 009 17.182a1.92 1.92 0 001.918-1.918A1.92 1.92 0 009 13.347zM7.095 6l-.657-.7-1.864 1.865c.266.177.521.376.77.587L7.094 6zm5.806 6.169l-5.148-5.47-1.691 1.69 5.555 5.064L12.9 12.17zm3.327 4.872l.813-.813a.48.48 0 00-.678-.678l-.143.143-2.661-2.826-1.233 1.233 3.239 2.955a.48.48 0 00.663-.014zM1.43 5.499c.157.156.322.268.49.334.538.208 1.185.498 1.803.827l2.118-2.118a2.099 2.099 0 01-.053-1.715c.22-.525.125-.982-.29-1.396C4.565.496 2.892.648 1.77 1.77.648 2.89.496 4.564 1.43 5.499zm8.228 1.825l1.593 1.692.687-.627-1.69-1.69-.59.625zm3.768-.159l-1.864-1.864-.657.699 1.752 1.752c.248-.211.503-.41.77-.587zm2.654-1.332c.168-.066.333-.178.49-.334.934-.935.782-2.608-.34-3.73C15.11.65 13.436.497 12.501 1.432c-.414.414-.509.871-.29 1.396a2.099 2.099 0 01-.052 1.715l2.118 2.118c.618-.33 1.265-.619 1.803-.827zm-7.792 5.883L6.801 10.36l-1.702 1.81 1.284 1.284 1.905-1.737zm-6.516 5.325a.48.48 0 00.664.014L5.674 14.1l-1.233-1.233-2.661 2.826-.143-.143a.48.48 0 00-.678.678l.813.813z" fill="#231F20"/></svg>