<svg width="18" height="18" fill="none" xmlns="http://www.w3.org/2000/svg"><path d="M14.919 3.047A7.468 7.468 0 009.603.844c-2.98 0-5.914.793-8.487 2.295a.478.478 0 00-.097.75l1.02 1.022A10.172 10.172 0 00.88 9.625v1.606c0 1.358.914 2.558 2.223 2.919l10.575 2.909a2.722 2.722 0 003.444-2.626V8.365a7.472 7.472 0 00-2.202-5.318zm-3.212 8.975V7.59l4.459 1.115v4.99l-4.459-1.672zm-1.92-.72a.478.478 0 01-.31-.447V7.643c0-.31.293-.539.594-.463l.68.17v4.314l-.963-.362zM14.4 16.2c-.159 0-.316-.02-.469-.063L3.356 13.228a2.076 2.076 0 01-1.522-1.997V9.625c0-1.597.42-3.175 1.211-4.562a.478.478 0 00-.077-.575l-.826-.827A15.9 15.9 0 019.602 1.8c3.399 0 6.202 2.597 6.531 5.91l-5.83-1.457a1.433 1.433 0 00-1.78 1.39v3.212c0 .597.37 1.132.93 1.342l6.691 2.51A1.77 1.77 0 0114.4 16.2z" fill="#231F20"/></svg>