<svg width="8" height="18" fill="none" xmlns="http://www.w3.org/2000/svg"><path d="M1.893 0A1.864 1.864 0 00.028 1.863v14.272A1.866 1.866 0 001.893 18h4.21a1.87 1.87 0 001.868-1.865V1.863A1.866 1.866 0 006.107 0H1.893zm0 .438H4.3c-.465.178-.53.381-.547 1.024-.08.008-.244-.065-.188.326 0 0 .032.26.135.214-.1.689.017.743-.698.774l-.035.05c-.712.07-.937-.02-1.537 1.202 0 0-.155.379-.201.536-.148.311-.506.996-.615 1.439-.034.15-.105.198-.007.415.139.313-.093.395.712.372v.185s-.214.185-.259.299c-.046.11-.17.667-.165.927.014.688.575 1.262.744 1.948l.369.053c.212.475 1.121 1.766 1.307 1.936.043.12.274.266.409.413.112.106.769.825 1.54 1.27-.005-.002.123.257.187.463-.256.206.24.582.39 1.207.01.08-.142.166.086.37-.017.943-.302 1.44.18 1.7H1.893a1.424 1.424 0 01-1.425-1.425V1.864A1.425 1.425 0 011.893.437zM4.745.44h1.36A1.425 1.425 0 017.53 1.863v6.895a1.24 1.24 0 00-.165-.298c0-.191-.204-.187-.259-.258-.053-.06.05-.096-.305-.176-.068-.038-.119-.56-.119-.56-.052-.336-.171-.566-.35-.92-.09-.183-.133-.752-.229-1.04.053-1.325-.37-1.71-.712-1.927-.13-.083-.197-.143-.325-.218L5.061 3.3c-.1-.095-.301-.198-.467-.271-.051-.053-.028-.165.007-.208.113-.014.261-.267.385-.527.097.007.13-.088.16-.142.104-.167.217-.31.073-.407.326-.583.115-.976-.06-.99-.071-.147-.195-.238-.413-.316zm.413 4.753c.045.24.255 1.447.342 1.64.092.194.401.788.547 1.155a1.268 1.268 0 00-.186 2.407 1.269 1.269 0 001.2-.122c.21-.142.373-.345.467-.582v6.443a1.415 1.415 0 01-1.198 1.408h-.013c.625-.377.24-1.095.12-1.517-.009-.024.01-.055.02-.075.034-.06-.034-.192-.034-.192-.074-.068-.095-.421-.137-.58-.066-.268.118-.728.118-.885 0-.154-.117-.368-.333-.643-.052-.059-.208-1.395-.347-1.735-.193-.467-.254-.394-.48-.95-.18-.393-.041-.97-.442-2.313.003.005.09-.085.09-.085s-.317-1.162-.421-1.481c-.105-.32-.289-.342-.289-.342s.002-.129.009-.162c.015-.053.387-1.025.418-1.055.001-.023.538-.386.549-.334z" fill="#231F20"/></svg>