<svg width="16" height="16" fill="none" xmlns="http://www.w3.org/2000/svg"><path d="M2.478.636A1.85 1.85 0 00.636 2.478 1.85 1.85 0 002.478 4.32a1.85 1.85 0 001.84-1.842A1.85 1.85 0 002.479.636zm7.326.557a5.747 5.747 0 00-.575.039c-1.516.177-2.93.954-4.009 2.033-.758.755-1.385 1.842-1.592 3.856a.54.54 0 00-.019.058v.019a.658.658 0 00-.038.096c-.003.014.002.022 0 .038v.077a.686.686 0 00.057.23c.031.552.108 1.116.307 1.65h-.019c.01.053.072.316.077.575.002.195-.068.372-.077.423-.374.371-.822.76-1.246 1.093-.425.334-.792.621-1.056.883h-.018a1.43 1.43 0 00-.366 1.265c.094.43.34.801.671 1.132.33.329.703.573 1.132.671.43.099.95-.028 1.285-.364.269-.269.528-.647.863-1.074.336-.427.717-.89 1.093-1.267-.043.043.144-.057.384-.057.194 0 .355.019.479.038l.115.02c.535.198 1.099.273 1.65.306.007 0 .012.02.02.02a.607.607 0 00.134.018.547.547 0 00.057.02h.116a.69.69 0 00.115-.019c.024-.002.033-.017.057-.02h.02c1.848-.153 3.087-.822 3.874-1.611 1.079-1.079 1.855-2.494 2.033-4.009.177-1.516-.295-3.134-1.63-4.47-1.168-1.168-2.552-1.679-3.894-1.67zm-7.326.671c.345 0 .613.269.613.614a.606.606 0 01-.613.614.606.606 0 01-.614-.614c0-.346.269-.614.614-.614zm7.326.556c1.036-.019 2.073.348 3.03 1.305 1.096 1.093 1.406 2.29 1.266 3.472-.139 1.182-.76 2.372-1.669 3.28-.61.612-1.497 1.09-3.049 1.229L4.856 7.178c.18-1.731.606-2.39 1.246-3.03.909-.91 2.076-1.55 3.261-1.689.149-.017.292-.036.44-.039h.001zM5.143 9.231l2.186 2.168a3.855 3.855 0 00-.671-.057c-.374.001-.849.024-1.246.421-.423.43-.82.886-1.19 1.363-.343.435-.647.839-.786.978-.072.072-.037.06-.135.038-.098-.021-.297-.143-.517-.364-.216-.216-.324-.415-.346-.518-.021-.103-.043-.075.02-.135.129-.129.52-.44.959-.786.438-.346.94-.749 1.38-1.19.425-.424.43-.916.423-1.304-.005-.295-.05-.468-.077-.614z" fill="#231F20"/></svg>