<svg width="16" height="16" fill="none" xmlns="http://www.w3.org/2000/svg"><path d="M14.367 1.632c-.42-.42-1.612-.727-3.12-.727-2.31 0-5.362.72-7.484 2.842-3.518 3.525-3.188 9.555-2.13 10.62.42.42 1.612.728 3.12.728 2.31 0 5.362-.72 7.485-2.843 3.517-3.525 3.187-9.555 2.13-10.62zM4.82 4.82c1.98-1.98 4.763-2.34 6.022-2.393a17.253 17.253 0 00-4.957 3.458 17.405 17.405 0 00-3.457 4.973c.067-1.86.652-4.306 2.392-6.038zm6.36 6.36c-1.98 1.98-4.762 2.34-6.022 2.393a17.252 17.252 0 004.957-3.458 17.597 17.597 0 003.465-4.973c-.075 1.86-.66 4.305-2.4 6.038z" fill="#231F20"/></svg>