<svg width="13" height="18" fill="none" xmlns="http://www.w3.org/2000/svg"><path d="M3.375 10.875L0 14.25l1.125 1.125L3.75 12.75h1.5l-1.875-1.875zM8.25.75c-.825 0-1.5.675-1.5 1.5s.675 1.5 1.5 1.5 1.5-.675 1.5-1.5-.675-1.5-1.5-1.5zm4.5 15.008L10.5 18l-2.242-2.258v-1.117L2.933 9.308a4.249 4.249 0 01-.683.052V7.74c1.245.023 2.707-.652 3.503-1.53l1.05-1.162c.142-.158.322-.285.517-.375.217-.105.465-.173.72-.173h.023c.93.008 1.687.765 1.687 1.695v4.313c0 .63-.262 1.207-.69 1.62L6.375 9.442V7.74a7.274 7.274 0 01-1.718 1.043L9.375 13.5H10.5l2.25 2.258z" fill="#231F20"/></svg>