<svg width="18" height="18" fill="none" xmlns="http://www.w3.org/2000/svg"><path d="M17.25 8.25h-.788A7.513 7.513 0 009.75 1.537V0h-1.5v1.538A7.513 7.513 0 001.537 8.25H0v1.5h1.538a7.513 7.513 0 006.712 6.712V18h1.5v-1.538a7.513 7.513 0 006.712-6.712H18v-1.5h-.75zm-6.958 0a1.496 1.496 0 00-.542-.542V5.91a3.186 3.186 0 012.34 2.339h-1.798zm1.797 1.5a3.185 3.185 0 01-2.339 2.34v-1.798c.225-.13.412-.317.542-.542h1.797zM8.25 3.053v1.704A4.318 4.318 0 004.757 8.25H3.052A6.005 6.005 0 018.25 3.053zM7.708 8.25H5.91a3.187 3.187 0 012.34-2.34v1.798c-.225.13-.412.317-.542.542zm.542 2.042v1.797A3.185 3.185 0 015.91 9.75h1.798c.13.225.317.412.542.542zM3.053 9.75h1.704a4.318 4.318 0 003.493 3.493v1.705A6.005 6.005 0 013.053 9.75zm6.697 5.197v-1.704a4.319 4.319 0 003.493-3.493h1.705a6.005 6.005 0 01-5.198 5.197zm3.493-6.697A4.318 4.318 0 009.75 4.757V3.052a6.005 6.005 0 015.197 5.198h-1.704z" fill="#231F20"/></svg>