<svg width="12" height="18" fill="none" xmlns="http://www.w3.org/2000/svg"><path d="M11.835 13.793a.504.504 0 01.165.367c0 .09-.045.217-.135.33a2.967 2.967 0 01-1.088.93c-.442.217-.914.33-1.425.33H2.647c-.532 0-1.02-.113-1.454-.33a2.932 2.932 0 01-1.095-.93.62.62 0 01-.098-.33.55.55 0 01.15-.367.479.479 0 01.382-.165c.173 0 .316.075.428.247a2.32 2.32 0 001.192.78l2.213-2.685-.96-2.918c-.135-.427-.075-.802.165-1.177l1.68-2.73H3.6L2.25 7.327 1.058 6.57l1.754-2.82H6.84c.315 0 .563.09.765.262.195.18.33.338.397.465l.36.863a3.421 3.421 0 001.163 1.41 3.18 3.18 0 001.748.517v1.425c-.818 0-1.56-.202-2.25-.6a4.555 4.555 0 01-1.62-1.56L6.12 8.557l3.038 1.89v4.246h.194c.338 0 .646-.068.945-.233.3-.165.548-.353.743-.585.113-.172.248-.248.398-.248.15 0 .284.06.397.165zM7.77 11.438L5.288 9.884 6 12.24l-2.07 2.453h3.84v-3.255zM8.25.75c-.825 0-1.5.675-1.5 1.5s.675 1.5 1.5 1.5a1.5 1.5 0 001.5-1.5c0-.833-.668-1.5-1.5-1.5zM3 16.125a.567.567 0 00-.563.563c0 .307.256.562.563.562a.567.567 0 00.563-.563.567.567 0 00-.563-.562zm6 0a.567.567 0 00-.563.563c0 .307.256.562.563.562a.567.567 0 00.563-.563.567.567 0 00-.563-.562z" fill="#231F20"/></svg>