<svg width="18" height="18" fill="none" xmlns="http://www.w3.org/2000/svg"><path fill-rule="evenodd" clip-rule="evenodd" d="M11.346 1.146c0 .157.693 1.413 2.414 4.374.24.413.286.445.445.309.097-.083.262-.182.365-.219.159-.056-.052-.428-1.331-2.356-1.445-2.177-1.893-2.675-1.893-2.108zm-2.929.282c-.538.24-.67.455-4.298 7.01-4.08 7.375-3.356 7.988-3.047 8.288.31.3 2.649.304 4.354.369 1.401.053 3.59 0 3.59 0s4.091.154 6.913-.322c.255-.043.984-.292 1.228-.41.243-.117.936-.324-3.461-8.268C9.793 1.146 9.334 1.02 8.417 1.428zM9.35 2.53c.145.162 6.293 11.2 6.888 12.366.267.523.277.736.045.992-.26.287-14.224.305-14.54.019-.355-.32-.222-.602 3.275-6.92 3.588-6.483 3.685-6.644 3.985-6.644.1 0 .255.084.347.187zm-.846 2.525c-1.105.481-.716 2.188.5 2.188 1.23 0 1.603-1.72.475-2.192-.441-.184-.542-.184-.975.004zm6.062 1.182c-.395.276-.28.646.701 2.273 1.119 1.854 1.115 1.851 1.762 1.406.64-.44.655-.377-.474-2.042-1.342-1.98-1.415-2.04-1.99-1.637zm-7.894 1.81a1.154 1.154 0 00.14 1.87c1.205.736 2.409-.96 1.327-1.87a1.068 1.068 0 00-.733-.272c-.285 0-.51.084-.734.273zm3.12.09c-.973.973.229 2.497 1.403 1.78.995-.606.556-2.142-.613-2.142-.345 0-.499.07-.79.362zm-4.578 2.608c-.996.607-.556 2.143.613 2.143.345 0 .499-.07.79-.363.973-.972-.229-2.496-1.403-1.78zm3.195 0a1.154 1.154 0 00-.14 1.87c.92.774 2.256-.223 1.793-1.34-.156-.377-.667-.73-1.059-.73-.146 0-.414.09-.594.2zm3.174.013c-.191.117-.395.335-.452.486-.537 1.41 1.389 2.34 2.08 1.003.547-1.058-.605-2.113-1.628-1.49zm-8.106 2.828c-1.004.845-.004 2.426 1.212 1.918.834-.348.925-1.635.145-2.039-.46-.237-.987-.19-1.357.121zm3.195 0c-.653.55-.519 1.537.26 1.907 1.168.554 2.197-.903 1.283-1.817-.468-.468-1.053-.502-1.543-.09zm3.12.09c-.915.914.115 2.37 1.283 1.817 1.123-.533.75-2.18-.493-2.18-.345 0-.499.07-.79.363zm3.377-.214c-.774.43-.682 1.695.148 2.042 1.216.508 2.216-1.073 1.213-1.918a1.246 1.246 0 00-1.361-.124z" fill="#231F20"/></svg>