<svg width="16" height="16" fill="none" xmlns="http://www.w3.org/2000/svg"><path fill-rule="evenodd" clip-rule="evenodd" d="M.031 8A7.967 7.967 0 018 .031 7.967 7.967 0 0115.969 8 7.967 7.967 0 018 15.969 7.967 7.967 0 01.031 8zM8 .969A7.03 7.03 0 00.969 8 7.03 7.03 0 008 15.031 7.03 7.03 0 0015.031 8 7.03 7.03 0 008 .969z" fill="#231F20"/><path fill-rule="evenodd" clip-rule="evenodd" d="M2.57 2.317a.469.469 0 01.511.102 8.452 8.452 0 011.445 1.919l1.014-.507a.469.469 0 01.42.838l-1.034.517c.292.731.477 1.517.528 2.345H6.5a.469.469 0 010 .938H5.455a7.558 7.558 0 01-.518 2.35l1.023.512a.469.469 0 01-.42.838l-1.001-.5a8.211 8.211 0 01-1.46 1.916.469.469 0 01-.798-.335V2.75c0-.19.114-.36.29-.433zm1.525 8.082c.23-.603.375-1.248.42-1.93H3.5a.467.467 0 01-.281-.094v1.875a.469.469 0 01.49-.044l.386.193zm-.805.645A.468.468 0 013.22 11v.998c.176-.24.337-.49.48-.75l-.409-.204zm-.071-3.42a.467.467 0 01.281-.093h1.015a6.611 6.611 0 00-.431-1.924l-.374.187a.469.469 0 01-.491-.044v1.875zm0-2.624a.471.471 0 01.071-.044l.397-.198a7.259 7.259 0 00-.468-.738V5zm10.21-2.683c.175.072.29.243.29.433v10.5a.469.469 0 01-.797.335 8.212 8.212 0 01-1.46-1.917l-1.002.501a.469.469 0 11-.42-.838l1.023-.511a7.56 7.56 0 01-.518-2.351H9.5a.469.469 0 110-.938h1.046a7.543 7.543 0 01.528-2.345L10.04 4.67a.469.469 0 11.42-.838l1.014.507a8.456 8.456 0 011.444-1.92.469.469 0 01.511-.101zm-1.513 3.29a6.612 6.612 0 00-.43 1.924H12.5c.105 0 .203.035.281.094V5.75a.469.469 0 01-.49.044l-.375-.187zm.794-.651l-.397-.198c.141-.256.298-.502.468-.738V5a.47.47 0 00-.071-.044zm.071 3.419a.467.467 0 01-.281.094h-1.016a6.65 6.65 0 00.42 1.93l.386-.193a.469.469 0 01.491.044V8.375zm0 2.625a.466.466 0 01-.071.044l-.41.205c.144.26.305.51.481.75V11z" fill="#231F20"/></svg>