<svg width="18" height="18" fill="none" xmlns="http://www.w3.org/2000/svg"><path fill-rule="evenodd" clip-rule="evenodd" d="M6.476.544a.384.384 0 00-.107.59c.102.11.216.144.687.204 3.135.397 3.652 1.402 1.416 2.75-.817.492-2.67 1.256-3.74 1.541-.055.015-.208.06-.339.1a19.882 19.882 0 01-.94.269l-.51.135c-.32.085-.308.083-.822.205l-.696.166c-.14.034-.353.083-.473.108-.417.089-.575.398-.345.673.122.145.297.154.767.037.168-.042.374-.091.458-.11.084-.018.206-.047.272-.064a53.963 53.963 0 001.713-.439l.339-.097a33.98 33.98 0 00.907-.27c3.512-1.063 5.557-2.417 5.555-3.68-.002-1.108-.99-1.739-3.24-2.064-.859-.125-.78-.12-.902-.054zM11.073.54c-.248.108-.33.395-.167.587.085.1.162.14.407.204 2.936.77 4.863 2.225 5.287 3.992.12.503.131.599.113 1.015-.017.404-.04.566-.124.86l-.067.237c-.17.604-.747 1.766-1.426 2.871a75.64 75.64 0 01-1.429 2.137l-.325.448c-.528.733-1.794 2.405-2.263 2.99-.251.312-.479.603-.726.929-.195.256-.197.398-.005.58.217.205.448.16.664-.13.053-.07.242-.312.42-.535a64.617 64.617 0 00.945-1.21 119.53 119.53 0 001.86-2.489c.301-.415 1.537-2.245 1.537-2.276 0-.01.079-.143.174-.297.096-.155.213-.35.26-.434a29.9 29.9 0 01.192-.338c.338-.582.797-1.622.94-2.128.724-2.566-.7-4.934-3.78-6.282a15.543 15.543 0 00-2.373-.777 1.84 1.84 0 00-.114.046zm1.956 3.391c-.116.058-.233.212-.238.315 0 .03-.048.165-.104.3-.183.443-.068.744.285.744.246 0 .368-.167.554-.755l.085-.27-.07-.146c-.109-.22-.302-.292-.512-.188zM10.547 7.19c-.138.116-.282.239-.32.274-.036.034-.236.19-.442.344-.507.38-.575.548-.324.798.228.228.338.195.934-.285.902-.726 1.006-.846.93-1.076-.11-.339-.412-.36-.778-.055zM6.785 9.81c-1.39.73-1.598.908-1.443 1.234.121.253.333.28.692.087 1.434-.771 1.603-.937 1.318-1.291-.118-.147-.324-.158-.567-.03zm-4.196 2.12c-.73.278-.892.445-.737.756.13.26.322.28.794.08.606-.258.792-.69.365-.85-.175-.064-.222-.063-.422.014z" fill="#231F20"/></svg>