<svg width="16" height="17" fill="none" xmlns="http://www.w3.org/2000/svg"><path d="M15.5 16.25v-1.5c-1.057.037-2.085-.075-3-.75-1.32.938-3.172.938-4.5 0-1.327.938-3.18.938-4.5 0-.915.675-1.942.787-3 .75v1.5c1.028.038 2.085-.045 3-.563 1.38.75 3.112.75 4.5 0 1.387.75 3.12.75 4.5 0 .915.518 1.973.6 3 .563zm-1.125-8.273V6.463c-1.32.007-2.625-.713-3.24-1.905l-.668-1.163a1.59 1.59 0 00-.915-.667l-4.177-.773-2.625 1.83L3.598 5l2.115-1.425 1.514.247-1.62 1.088c-.45.308-.697.84-.607 1.372l.397 2.325c-1.057-.412-3.99-1.357-4.147.316.27 1.83 2.303 3.067 3.795 4.192 1.08.352 2.25-.18 2.955-1.02.99 1.275 2.918 1.5 4.125.405-.352-.315-.75-.637-1.125-.9V8.713l-2.857-2.25L9.83 5.33c.885 1.612 2.67 2.67 4.545 2.647zM9.5 9.5v1.102c0-.03-1.755-.982-1.643-.922l-.81-.405-.314-1.965L9.5 9.5zm3.75-7.875c0 .833-.668 1.5-1.5 1.5s-1.5-.667-1.5-1.5a1.5 1.5 0 113 0z" fill="#231F20"/></svg>