<svg width="18" height="8" fill="none" xmlns="http://www.w3.org/2000/svg"><path fill-rule="evenodd" clip-rule="evenodd" d="M3.06.224c-.073.083-.43.7-.793 1.372-.362.67-.66 1.295-.66 1.387 0 .092.317.69.704 1.331.386.64.764 1.213.84 1.273.074.06.22.108.32.108.103 0 .27-.09.374-.2.104-.11.189-.27.189-.353 0-.084-.275-.611-.611-1.172l-.61-1.02.557-1.028c.306-.565.581-1.11.612-1.209.035-.117-.009-.26-.127-.41-.118-.15-.264-.23-.42-.23a.563.563 0 00-.374.151zm8.923 0c-.073.083-.43.7-.793 1.372-.362.67-.66 1.293-.66 1.383 0 .09.315.69.7 1.332.384.642.762 1.216.84 1.276.076.06.223.108.325.108.101 0 .27-.09.373-.2.103-.11.188-.27.188-.353 0-.084-.274-.611-.61-1.172l-.61-1.02.556-1.028c.307-.565.582-1.11.612-1.209.036-.117-.008-.26-.126-.41-.118-.15-.264-.23-.421-.23-.132 0-.3.068-.374.151zM5.075 3.511c-.166.083-.39.283-.498.445a1.193 1.193 0 00-.197.649c0 .199.075.476.17.631.092.152.263.339.38.415.116.076.35.16.518.188.215.035.419-.005.683-.132.21-.101.448-.304.54-.459.09-.153.163-.438.163-.634 0-.197-.074-.485-.165-.641a1.399 1.399 0 00-.488-.449c-.177-.09-.43-.164-.563-.164-.133 0-.377.068-.543.151zm8.922 0c-.165.083-.39.283-.498.445a1.194 1.194 0 00-.196.649c0 .199.075.476.17.631.092.152.263.339.38.415.116.076.35.16.518.188.215.035.419-.005.682-.132.21-.101.448-.304.54-.459.09-.153.164-.438.164-.634a1.49 1.49 0 00-.166-.641 1.398 1.398 0 00-.487-.449c-.177-.09-.43-.164-.563-.164a1.49 1.49 0 00-.543.151zM.348 5.616c-.032.052-.024.127.017.166.04.04.35.11.689.157a5.6 5.6 0 011.17.317c.305.128.75.312.988.409.276.112.716.191 1.217.219.447.025.985 0 1.252-.057.258-.055.83-.254 1.27-.442.44-.188 1.075-.384 1.41-.436a3.69 3.69 0 011.236.002c.36.056.94.24 1.37.432.409.184.986.382 1.283.44.31.061.86.088 1.295.063.559-.031.902-.105 1.318-.28.31-.131.817-.328 1.126-.438.31-.11.797-.232 1.083-.271.372-.052.52-.11.52-.202 0-.09-.11-.14-.347-.16-.19-.015-.56.019-.823.076-.262.058-.812.255-1.222.44a5.46 5.46 0 01-1.39.424 4.503 4.503 0 01-1.208.01c-.31-.045-.937-.239-1.393-.432-.455-.194-.998-.392-1.207-.44-.21-.048-.672-.087-1.03-.087-.357 0-.82.04-1.03.087-.208.048-.738.24-1.177.427-.439.187-1.062.381-1.384.433a3.951 3.951 0 01-1.238.003 5.457 5.457 0 01-1.398-.425c-.41-.184-.953-.378-1.205-.432a4.753 4.753 0 00-.797-.097c-.185 0-.363.042-.395.094zm.012.932c-.033.054-.039.133-.012.176.026.043.292.106.59.14.297.034.775.15 1.06.26.287.108.774.307 1.084.442.52.228.644.246 1.646.245 1.03 0 1.115-.015 1.775-.29.382-.16.908-.369 1.17-.465.355-.131.686-.176 1.3-.176.613 0 .944.045 1.299.176.262.096.788.302 1.17.457.547.222.857.29 1.476.323.442.024.987 0 1.25-.057.257-.055.81-.254 1.23-.443a5.87 5.87 0 011.478-.452c.53-.08.716-.142.716-.238 0-.104-.127-.128-.656-.12-.577.008-.769.058-1.598.414-.568.243-1.175.437-1.531.487a4.352 4.352 0 01-1.202-.003c-.35-.05-.957-.234-1.418-.43-.443-.188-.976-.381-1.185-.43a5.953 5.953 0 00-1.03-.087c-.357 0-.82.04-1.03.088-.208.048-.741.241-1.185.43-.46.195-1.068.38-1.418.429-.4.056-.816.058-1.201.003-.354-.05-.961-.243-1.52-.482-.722-.31-1.07-.41-1.563-.447-.427-.032-.654-.016-.695.05z" fill="#231F20"/></svg>