<svg width="15" height="18" fill="none" xmlns="http://www.w3.org/2000/svg"><path fill-rule="evenodd" clip-rule="evenodd" d="M2.633.733c-.122.021-.33.09-.462.155a2.08 2.08 0 00-.457.335c-.12.12-.274.333-.343.473-.11.225-.125.309-.125.716 0 .428.01.483.149.765.087.177.238.386.36.499.116.106.328.249.472.316.229.107.319.123.722.122.406 0 .49-.015.715-.125.14-.069.353-.223.473-.343.12-.12.27-.324.333-.453s.134-.352.158-.496a1.765 1.765 0 000-.52 2.377 2.377 0 00-.155-.503 1.884 1.884 0 00-.32-.454 2.076 2.076 0 00-.436-.323 2.152 2.152 0 00-.521-.164A3.349 3.349 0 002.88.691l-.247.042zm6.692 1.395c-.089.032-.824.48-1.634.993l-1.472.935L5 4.505c-.672.247-1.294.48-1.383.519a2.24 2.24 0 00-.35.21c-.119.086-.636.73-1.367 1.702C1.25 7.796.679 8.57.627 8.655a.737.737 0 00-.095.372c0 .204.047.287.782 1.393.539.81.83 1.206.933 1.268.082.05.229.091.326.091a.923.923 0 00.333-.073.666.666 0 00.243-.219c.048-.08.1-.2.116-.27a.672.672 0 00-.032-.303c-.034-.1-.272-.556-.53-1.015-.257-.46-.468-.852-.468-.873 0-.02.2-.275.443-.564.244-.29.464-.534.488-.543.025-.01.17.104.32.253.152.149.603.612 1.002 1.03l.727.76.079 3.429c.069 3.01.088 3.45.155 3.59a.791.791 0 00.234.265c.106.07.225.104.368.104.13 0 .27-.036.36-.09a.703.703 0 00.22-.232c.047-.091.24-1.308.532-3.35.281-1.969.48-3.227.516-3.26.031-.03 1.435-1.292 3.119-2.806a368.478 368.478 0 003.23-2.924.976.976 0 00.219-.352.643.643 0 00.008-.321 1.5 1.5 0 00-.095-.242.645.645 0 00-.2-.19.75.75 0 00-.382-.09c-.16 0-.271.028-.346.086-.06.047-1.321.923-2.802 1.947a834.849 834.849 0 01-2.744 1.892c-.027.017-.372-.28-.774-.665-.583-.56-.712-.706-.663-.75.033-.031.392-.26.797-.51.51-.314 1.085-.732 1.875-1.364.647-.519 1.168-.97 1.208-1.048a.87.87 0 00.07-.334.744.744 0 00-.09-.345.668.668 0 00-.218-.213 1.224 1.224 0 00-.267-.093.669.669 0 00-.3.032z" fill="#231F20"/></svg>