<svg width="16" height="18" fill="none" xmlns="http://www.w3.org/2000/svg"><path d="M13.64 1.867C11.885.113 8.675.466 6.477 2.663c-1.2 1.2-1.89 2.902-1.905 4.095-.014 1.184.196 2.917-1.012 4.125l-3.18 3.18 1.065 1.064 3.18-3.18c1.207-1.207 2.94-.997 4.125-1.012 1.185-.015 2.895-.705 4.095-1.905 2.19-2.197 2.55-5.407.795-7.162zM6.74 8.76c-1.147-1.147-.788-3.457.795-5.04 1.582-1.583 3.885-1.943 5.04-.795 1.148 1.147.788 3.458-.795 5.04-1.582 1.582-3.885 1.943-5.04.795zm5.76 3.99c.398 0 .78.158 1.057.443a1.503 1.503 0 010 2.122 1.5 1.5 0 01-1.057.435c-.398 0-.78-.158-1.057-.443a1.503 1.503 0 010-2.122 1.5 1.5 0 011.057-.435zm0-1.5a2.998 2.998 0 00-2.123 5.122 2.999 2.999 0 002.123.878 2.998 2.998 0 001.149-5.773 2.998 2.998 0 00-1.149-.227z" fill="#231F20"/></svg>