<svg width="17" height="18" fill="none" xmlns="http://www.w3.org/2000/svg"><path d="M12.188 3.09c.749 0 1.35-.61 1.35-1.363 0-.754-.601-1.367-1.35-1.367-.745 0-1.347.613-1.347 1.367 0 .753.602 1.362 1.347 1.362zM6.463 8.622l4.852-3.172a1.381 1.381 0 00.06-2.283 1.347 1.347 0 00-1.51-.039L6.288 5.467a1.347 1.347 0 00-.466.508L2.098 13.4a.893.893 0 00.383 1.193.873.873 0 001.18-.387l2.802-5.583zm9.45-.52a1.396 1.396 0 00.439-1.91l-.471.29a.832.832 0 01-.262 1.144L.72 17.168l.295.472 14.898-9.537z" fill="#231F20"/></svg>