<svg width="18" height="8" fill="none" xmlns="http://www.w3.org/2000/svg"><path d="M4.731.882h2.098s-1.395 4.98-1.464 5.249c-.132.517-.264.987-1.532.987-1.528 0-2.415-.006-2.833 0-.523.005-1.14-.475-.972-1.098L1.461.882H3.6S2.4 5.165 2.374 5.275c-.021.111-.142.418.524.423.48.01.517-.116.602-.423C3.701 4.584 4.73.882 4.73.882h.001zm7.704 0l-.38 1.368H7.489L7.87.882h4.566zM6.132 7.118l1.094-3.933h4.565l-.38 1.367H8.963L8.25 7.118H6.132zm8.603-4.039c-.195.718-.37 1.33-.566 2.054-.037.127-.122.312-.095.427.058.275.967.17 1.294.17h1.459c-.116.459-.248.907-.375 1.357h-3.473c-.506-.048-1.167-.265-1.103-.92.02-.205.117-.437.18-.665.312-1.115.622-2.23.93-3.347.131-.486.237-.898.622-1.093.25-.127.646-.163.941-.18H18c-.122.455-.248.909-.375 1.358h-1.982c-.238 0-.502-.027-.634.063-.143.106-.221.581-.274.776z" fill="#231F20"/></svg>