<svg width="16" height="16" fill="none" xmlns="http://www.w3.org/2000/svg"><path d="M3.5 2.007C1.685 3.38.5 5.547.5 8c0 1.095.24 2.137.667 3.082L3.5 9.732V2.008zm3.75 5.558V.537A7.488 7.488 0 005 1.13v7.74l2.25-1.305zM8 8.863l-6.082 3.51a7.418 7.418 0 001.635 1.65l6.697-3.855L8 8.863zm.75-3.893v2.595l6.082 3.51a7.482 7.482 0 00.615-2.235L8.75 4.97zM5.053 14.9A7.54 7.54 0 008 15.5c2.505 0 4.717-1.238 6.082-3.12l-2.332-1.35-6.697 3.87zM15.44 7.107C15.028 3.635 12.245.883 8.75.537v2.7l6.69 3.87z" fill="#231F20"/></svg>