<svg width="16" height="16" fill="none" xmlns="http://www.w3.org/2000/svg"><path d="M14 11h1.5v1.5H14c-1.05 0-2.1-.3-3-.75a6.52 6.52 0 01-6 0c-.9.45-1.95.75-3 .75H.5V11H2c1.05 0 2.1-.375 3-.975a5.184 5.184 0 006 0c.9.6 1.95.975 3 .975zM8.75 6.95c.45-.225.975-.45 1.5-.525v.225c.225.75.225 1.425.15 2.175-.675.375-1.5.6-2.25.6.375-.75.6-1.65.6-2.475zM8.675 1.7c-1.05.3-1.95.825-2.7 1.575-.3-.75-.45-1.5-.45-2.25 1.65-.75 3.525-.675 5.175.15.225.075.45.15.6.3-.9-.075-1.8 0-2.625.225zM4.1 8.975c-.45.225-.9.375-1.35.45C2.225 8.45 2 7.4 2 6.35c.375.75.9 1.5 1.5 2.1.225.15.375.375.6.525zm9.15.45c-.45-.075-.9-.225-1.275-.375.15-.9.075-1.8-.15-2.7.825.075 1.575.3 2.25.75-.075.75-.3 1.425-.675 2.1l-.15.225zM4.55 7.4c-.9-.825-1.425-2.025-1.65-3.225L2.825 3.5C3.2 2.9 3.575 2.45 4.1 2a5.497 5.497 0 001.05 2.85c.525.825 1.275 1.575 2.1 2.025 0 .6-.15 1.2-.375 1.8C5.975 8.45 5.225 8 4.55 7.4zm4.575-4.275c1.125-.3 2.4-.225 3.525.15l.6.3c.3.525.45 1.125.6 1.725-1.875-.825-4.05-.675-5.85.3-.525-.225-.9-.6-1.275-1.05l.075-.075c.675-.6 1.425-1.125 2.325-1.35zm1.875 9.9c.9.6 1.95.975 3 .975h1.5v1.5H14c-1.05 0-2.1-.3-3-.75a6.52 6.52 0 01-6 0c-.9.45-1.95.75-3 .75H.5V14H2c1.05 0 2.1-.375 3-.975a5.184 5.184 0 006 0z" fill="#231F20"/></svg>