<svg width="150" height="150" viewBox="0 0 150 150" fill="none" xmlns="http://www.w3.org/2000/svg">
<g clip-path="url(#clip0_477_28596)">
<path d="M122.327 100.477L106.317 94.9056C105.146 94.5073 103.846 94.8247 102.999 95.7398C95.1491 104.312 85.1329 109.03 74.7995 109.03C64.4661 109.03 54.4499 104.312 46.6002 95.7462C45.7599 94.8311 44.4526 94.5137 43.2822 94.912L27.2716 100.483C11.0182 106.129 0.0994873 121.486 0.0994873 138.698V143.268C0.0994873 144.986 1.49398 146.38 3.21208 146.38H146.387C148.105 146.38 149.5 144.986 149.5 143.268V138.698C149.499 121.486 138.581 106.129 122.327 100.477Z" fill="#3C3C3B"/>
<path d="M65.462 53.005H59.2371C57.519 53.005 56.1245 54.3995 56.1245 56.1176C56.1245 57.8357 57.519 59.2302 59.2371 59.2302H65.462C67.1801 59.2302 68.5746 57.8357 68.5746 56.1176C68.5746 54.3995 67.1801 53.005 65.462 53.005Z" fill="#3C3C3B"/>
<path d="M90.3623 53.005H84.1374C82.4193 53.005 81.0248 54.3995 81.0248 56.1176C81.0248 57.8357 82.4193 59.2302 84.1374 59.2302H90.3623C92.0804 59.2302 93.4749 57.8357 93.4749 56.1176C93.4749 54.3995 92.0804 53.005 90.3623 53.005Z" fill="#3C3C3B"/>
<path d="M107.96 64.9384C106.28 64.5214 104.605 65.536 104.188 67.2106C99.8303 84.7776 88.0216 96.5802 74.7997 96.5802C61.5778 96.5802 49.769 84.7776 45.4113 67.2106C44.9944 65.536 43.3011 64.5214 41.639 64.9384C39.9708 65.3492 38.9559 67.0425 39.3668 68.7107C44.428 89.1038 58.6645 102.805 74.7997 102.805C90.9349 102.805 105.171 89.1038 110.232 68.7107C110.643 67.0425 109.629 65.3492 107.96 64.9384Z" fill="#3C3C3B"/>
<path d="M74.7997 3.2052C54.226 3.2052 38.1095 19.6144 38.1095 40.5552C38.1095 42.2733 39.504 43.6678 41.2221 43.6678C42.9402 43.6678 44.3347 42.2733 44.3347 40.5552C44.3347 23.1002 57.7121 9.4301 74.7997 9.4301C91.8874 9.4301 105.265 23.1002 105.265 40.5552C105.265 42.2733 106.659 43.6678 108.377 43.6678C110.095 43.6678 111.49 42.2733 111.49 40.5552C111.49 19.6141 95.3735 3.2052 74.7997 3.2052Z" fill="#3C3C3B"/>
<path d="M98.3117 69.0842C96.8676 68.1317 94.9502 68.5178 93.9978 69.9493L89.6217 76.5168C89.0428 77.3884 88.0717 77.9049 87.032 77.9049H85.8867C84.4549 77.9049 83.2162 76.9338 82.7181 75.1036L80.782 70.4784C80.2965 69.3205 79.1699 68.5674 77.9122 68.5674H71.6873C70.43 68.5674 69.303 69.3205 68.8114 70.4848L66.7323 75.5518C66.3836 76.9399 65.1449 77.911 63.7131 77.911H62.5678C61.5281 77.911 60.557 77.3942 59.9781 76.5229L55.602 69.9555C54.6496 68.5175 52.7199 68.1379 51.2881 69.0903C49.8562 70.0427 49.4705 71.9724 50.4229 73.4042L54.799 79.9717C56.5358 82.5739 59.4429 84.1301 62.5678 84.1301H63.7131C68.0083 84.1301 71.7308 81.2229 72.6272 77.5066L73.7602 74.7926H75.858L76.8291 77.0584C77.8687 81.2229 81.5973 84.1301 85.8864 84.1301H87.0317C90.1566 84.1301 93.0638 82.5739 94.8005 79.9656L99.1766 73.3981C100.129 71.9665 99.7436 70.0366 98.3117 69.0842Z" fill="#3C3C3B"/>
<path d="M65.1073 67.1233C64.3042 65.6045 62.4367 65.0069 60.9054 65.81C58.6956 66.9678 51.4806 68.5677 43.6745 68.5677C41.9564 68.5677 40.5619 69.9622 40.5619 71.6803C40.5619 73.3984 41.9564 74.7927 43.6745 74.7927C52.4392 74.7927 60.5815 73.006 63.7936 71.3252C65.3188 70.5286 65.9042 68.6486 65.1073 67.1233Z" fill="#3C3C3B"/>
<path d="M105.925 68.5677C98.1186 68.5677 90.9039 66.9678 88.6938 65.81C87.1686 65.0069 85.2889 65.6045 84.492 67.1233C83.6951 68.6486 84.2804 70.5283 85.8054 71.3252C89.0175 73.006 97.1597 74.7927 105.924 74.7927C107.643 74.7927 109.037 73.3982 109.037 71.6801C109.037 69.9619 107.643 68.5677 105.925 68.5677Z" fill="#3C3C3B"/>
<path d="M70.6107 44.4209C68.0149 42.1799 54.7122 31.3423 47.7026 38.3515C46.4888 39.5654 46.4888 41.5388 47.7026 42.7527C48.9165 43.9666 50.8899 43.9666 52.1038 42.7527C54.1268 40.7419 61.877 45.1119 66.5457 49.1334C67.1372 49.6438 67.853 49.893 68.5752 49.893C69.4468 49.893 70.3181 49.5256 70.9343 48.8098C72.0548 47.5084 71.9116 45.5475 70.6107 44.4209Z" fill="#3C3C3B"/>
<path d="M101.897 38.3576C94.8938 31.3606 81.5847 42.186 78.9888 44.427C77.6877 45.5536 77.5447 47.5145 78.6652 48.8156C79.2815 49.5253 80.1467 49.8927 81.0244 49.8927C81.7466 49.8927 82.4685 49.6437 83.0539 49.1395C87.7288 45.1119 95.4914 40.7544 97.4958 42.7588C98.7097 43.9727 100.683 43.9727 101.897 42.7588C103.111 41.5449 103.111 39.5715 101.897 38.3576Z" fill="#3C3C3B"/>
<path d="M110.363 22.1726C97.0604 15.929 75.7335 15.6614 74.775 15.655C73.8724 15.6612 52.5456 15.929 39.2426 22.1726C38.1034 22.7081 37.3999 23.872 37.4498 25.1233L39.2799 68.0883C39.3546 69.8125 40.8547 71.1822 42.5232 71.0702C44.2413 70.9955 45.5734 69.545 45.4987 67.8269L43.7619 26.9972C55.9692 22.1169 74.6317 21.8802 74.7685 21.8802C74.9678 21.8802 93.6242 22.1169 105.838 26.9972L104.101 67.8269C104.026 69.545 105.358 70.9955 107.076 71.0702C107.12 71.0702 107.17 71.0702 107.213 71.0702C108.869 71.0702 110.251 69.7629 110.326 68.0883L112.15 25.1233C112.2 23.872 111.496 22.7081 110.363 22.1726Z" fill="#3C3C3B"/>
<path d="M78.4228 84.1675C76.7234 83.8625 75.1235 85.0326 74.8434 86.7259L74.7999 86.9813L74.7564 86.7324C74.4763 85.0391 72.8641 83.869 71.1769 84.1739C69.4836 84.454 68.3383 86.0601 68.6185 87.7534L71.7311 106.428C71.98 107.928 73.275 109.03 74.7999 109.03C76.3248 109.03 77.6198 107.928 77.8687 106.422L80.9813 87.7469C81.2676 86.0536 80.1161 84.4476 78.4228 84.1675Z" fill="#3C3C3B"/>
<path d="M106.311 21.3509C99.681 9.99035 87.8971 3.2052 74.7998 3.2052C61.7025 3.2052 49.9185 9.99035 43.2889 21.3509C42.6353 22.4588 42.7412 23.8595 43.5442 24.8618C44.3473 25.8702 45.6919 26.2811 46.9119 25.8889C58.9698 22.0792 74.669 21.8799 74.7688 21.8799C74.9244 21.8799 90.6052 22.0728 102.688 25.8889C102.993 25.9884 103.31 26.0322 103.622 26.0322C104.549 26.0322 105.452 25.6152 106.056 24.8618C106.859 23.8598 106.964 22.4591 106.311 21.3509Z" fill="#3C3C3B"/>
</g>
<defs>
<clipPath id="clip0_477_28596">
<rect width="149.4" height="149.4" fill="white" transform="translate(0.0996094 0.0925903)"/>
</clipPath>
</defs>
</svg>
