<svg width="128" height="146" viewBox="0 0 128 146" fill="none" xmlns="http://www.w3.org/2000/svg">
<path d="M38.5797 26.0063H42.8248V34.834C42.8248 37.195 44.7235 39.1055 47.0699 39.1055H64.0504C66.3968 39.1055 68.2955 37.195 68.2955 34.834V26.0063H72.5406C74.2568 26.0063 75.8074 24.9677 76.4623 23.3699C77.1214 21.7724 76.7566 19.9368 75.5419 18.7146L58.5615 1.34386C56.9033 -0.324581 54.2167 -0.324581 52.5586 1.34386L35.5781 18.7146C34.3634 19.9368 33.9986 21.7721 34.6578 23.3699C35.3129 24.9677 36.8635 26.0063 38.5797 26.0063Z" fill="#3C3C3B"/>
<path d="M93.7656 77.5488C75.0093 77.5488 59.8047 92.8479 59.8047 111.721C59.8047 130.593 75.0093 145.893 93.7656 145.893C112.522 145.893 127.727 130.593 127.727 111.721C127.727 92.8479 112.522 77.5488 93.7656 77.5488ZM100.879 127.093C99.9595 127.556 98.9956 127.92 98.0093 128.196V129.376C98.0093 131.735 96.1086 133.647 93.7642 133.647C91.4198 133.647 89.5191 131.735 89.5191 129.376V128.329C87.752 127.881 86.104 127.129 84.708 126.075C82.8325 124.66 82.4521 121.983 83.8589 120.095C85.2658 118.209 87.9266 117.826 89.8021 119.241C91.5001 120.523 94.7661 120.618 97.0819 119.452C98.0127 118.984 98.5151 118.42 98.5151 118.128C98.5151 117.616 98.5151 117.538 97.9502 117.234C96.8425 116.639 94.8841 116.274 92.9899 115.92C90.4612 115.448 87.8465 114.96 85.5808 113.743C82.2721 111.966 80.5231 109.051 80.5231 105.313C80.5231 101.571 82.7535 98.3023 86.6423 96.3459C87.5641 95.882 88.5303 95.515 89.5191 95.239V94.0649C89.5191 91.7059 91.4198 89.7935 93.7642 89.7935C96.1086 89.7935 98.0093 91.7059 98.0093 94.0649V95.1109C99.7767 95.5588 101.424 96.312 102.82 97.3654C104.696 98.781 105.076 101.458 103.669 103.345C102.263 105.233 99.6024 105.615 97.7263 104.2C96.0257 102.916 92.757 102.821 90.4392 103.987C89.503 104.458 89.0134 105.01 89.0134 105.313C89.0134 105.824 89.0134 105.903 89.5782 106.206C90.6859 106.801 92.6446 107.167 94.5385 107.52C97.0672 107.993 99.6819 108.481 101.948 109.697C105.256 111.474 107.005 114.39 107.005 118.128C107.006 121.867 104.772 125.134 100.879 127.093Z" fill="#3C3C3B"/>
<path d="M21.5991 60.4629H98.0112C100.356 60.4629 102.256 58.5505 102.256 56.1915V51.92C102.256 49.561 100.356 47.6485 98.0112 47.6485H21.5991C19.2547 47.6485 17.354 49.561 17.354 51.92V56.1915C17.354 58.5505 19.2547 60.4629 21.5991 60.4629Z" fill="#3C3C3B"/>
<path d="M8.86328 137.35V141.621C8.86328 143.98 10.764 145.893 13.1084 145.893H68.5576C63.9522 142.442 60.1248 138.089 57.2197 133.078H13.1084C10.764 133.078 8.86328 134.991 8.86328 137.35Z" fill="#3C3C3B"/>
<path d="M8.86328 94.6348V98.9062C8.86328 101.265 10.764 103.178 13.1084 103.178H52.1725C53.1073 98.5623 54.9319 94.3098 57.2197 90.3633H13.1084C10.764 90.3633 8.86328 92.2758 8.86328 94.6348Z" fill="#3C3C3B"/>
<path d="M4.61841 124.535H53.4823C52.1977 120.464 51.3147 116.214 51.3147 111.721H4.61841C2.27397 111.721 0.373291 113.633 0.373291 115.992V120.264C0.373291 122.623 2.27397 124.535 4.61841 124.535Z" fill="#3C3C3B"/>
<path d="M4.61841 81.8203H63.5262C71.2328 73.9297 81.9291 69.0059 93.7659 69.0059H4.61841C2.27397 69.0059 0.373291 70.9183 0.373291 73.2773V77.5488C0.373291 79.9078 2.27397 81.8203 4.61841 81.8203Z" fill="#3C3C3B"/>
</svg>
