<svg width="94" height="143" viewBox="0 0 94 143" fill="none" xmlns="http://www.w3.org/2000/svg">
<path d="M83.9572 63.1816H82.5792V36.2718C82.5792 16.6535 66.6184 0.692627 47 0.692627C27.3817 0.692627 11.4203 16.6535 11.4203 36.2718V63.1816H10.0423C4.58362 63.1816 0.1427 67.6228 0.1427 73.0812V126.896C0.1427 137.702 8.9337 146.493 19.7386 146.493H74.2606C85.0658 146.493 93.8565 137.702 93.8565 126.896V73.0812C93.8568 67.6228 89.4159 63.1816 83.9572 63.1816ZM32.6624 36.118C32.6624 28.2121 39.0941 21.7804 47 21.7804C54.906 21.7804 61.3377 28.2121 61.3377 36.118V63.1816H32.6624V36.118ZM62.659 99.461L45.2422 115.577C45.2069 115.61 45.1687 115.638 45.1328 115.669C45.0821 115.713 45.0317 115.757 44.9796 115.798C44.9218 115.844 44.8626 115.886 44.8031 115.928C44.7487 115.966 44.6949 116.005 44.6393 116.041C44.5772 116.08 44.5143 116.116 44.4508 116.152C44.3953 116.184 44.3403 116.216 44.2836 116.245C44.2164 116.279 44.1481 116.309 44.0795 116.34C44.0242 116.364 43.9701 116.39 43.914 116.412C43.8406 116.441 43.7662 116.466 43.6916 116.49C43.6387 116.508 43.5865 116.528 43.5327 116.543C43.4519 116.566 43.3701 116.584 43.2881 116.603C43.2394 116.614 43.1916 116.627 43.1426 116.637C43.0498 116.654 42.9564 116.666 42.863 116.677C42.8239 116.682 42.7852 116.689 42.7465 116.693C42.6138 116.706 42.4805 116.712 42.3472 116.712C42.347 116.712 42.347 116.712 42.347 116.712C42.3467 116.712 42.3464 116.712 42.3464 116.712C42.2063 116.712 42.0662 116.705 41.9266 116.691C41.8856 116.687 41.8452 116.679 41.8048 116.673C41.7065 116.661 41.608 116.648 41.5106 116.629C41.4596 116.618 41.4101 116.604 41.3597 116.592C41.2731 116.571 41.1871 116.551 41.1017 116.525C41.0461 116.509 40.9923 116.487 40.9374 116.468C40.8591 116.44 40.7808 116.414 40.7036 116.382C40.6455 116.357 40.5894 116.329 40.5321 116.302C40.4607 116.268 40.3895 116.235 40.3194 116.198C40.2605 116.166 40.2035 116.13 40.1457 116.095C40.0805 116.055 40.0153 116.016 39.9515 115.973C39.8934 115.934 39.8379 115.891 39.7815 115.848C39.7211 115.803 39.6611 115.757 39.6027 115.708C39.5483 115.662 39.4962 115.613 39.4435 115.564C39.4062 115.529 39.3669 115.498 39.331 115.462L31.7212 107.852C30.0556 106.187 30.0556 103.486 31.7212 101.821C33.3865 100.155 36.0872 100.155 37.7528 101.821L42.4612 106.529L56.8663 93.1993C58.5957 91.5992 61.2935 91.7043 62.8934 93.4331C64.4929 95.1625 64.3881 97.8609 62.659 99.461Z" fill="#3C3C3B"/>
</svg>
