<svg width="60" height="71" fill="none" xmlns="http://www.w3.org/2000/svg"><path d="M17.189 11.604c0-3.795 3.364-6.882 7.5-6.882.367 0 .727.025 1.08.072-1.613 1.876-2.58 4.24-2.58 6.81v9.636h4.5v-9.636c0-1.92.863-3.659 2.25-4.908 1.387 1.25 2.25 2.988 2.25 4.908v9.636h-4.5v8.258h-4.5V21.24h-6v49.553h42.105L56.839 21.24h-8.9v8.258h-4.5V21.24h-6.75v-9.636c0-2.57-.967-4.934-2.58-6.81 0 0 .508-.137 1.78-.137 4.135 0 7.55 3.152 7.55 6.947v9.636h4.5v-9.636c0-6.072-5.383-11.011-12-11.011h-.75c-1.882 0-3.663.4-5.25 1.112a12.816 12.816 0 00-5.25-1.112c-6.617 0-12 4.94-12 11.011v9.636h4.5v-9.636z" fill="#DFB504"/><path d="M12.689 21.24h-9.65L.584 70.793H12.69V21.24z" fill="#DFB504"/></svg>