<svg width="75" height="68" fill="none" xmlns="http://www.w3.org/2000/svg"><path d="M8.07 29.305c-4.289 0-7.78 3.282-7.78 7.313v23.4c0 4.03 3.491 7.312 7.78 7.312h9.338a8.052 8.052 0 004.668-1.48V29.305H8.07zm66.919 10.969c0-1.758-.741-3.396-2.027-4.604 1.454-1.495 2.195-3.498 1.992-5.584-.364-3.718-3.928-6.63-8.117-6.63H47.611c.953-2.718 2.478-7.7 2.478-11.7 0-6.345-5.737-11.7-9.338-11.7-3.234 0-5.543 1.71-5.643 1.78a1.44 1.44 0 00-.582 1.144v9.92l-8.964 18.249-.373.178v31.35c2.533 1.124 5.74 1.73 7.78 1.73h28.57c3.39 0 6.356-2.148 7.053-5.11a6.225 6.225 0 00-.563-4.394c2.3-1.088 3.847-3.314 3.847-5.853a6.174 6.174 0 00-.731-2.925c2.3-1.088 3.844-3.314 3.844-5.85z" fill="#DFB504"/></svg>