<svg width="59" height="71" fill="none" xmlns="http://www.w3.org/2000/svg"><path d="M7.712 19.981c0-4.325 3.92-7.843 8.74-7.843 4.819 0 8.74 3.518 8.74 7.843v6.322c2.428-.667 4.2-2.696 4.2-5.09v-15.3c0-2.934-2.66-5.321-5.93-5.321H9.441c-3.27 0-5.93 2.387-5.93 5.321v15.298c0 2.395 1.771 4.424 4.2 5.09v-6.32zM52.52.593H38.5c-3.27 0-5.93 2.387-5.93 5.321v15.298c0 2.935 2.66 5.322 5.93 5.322h14.02c3.27 0 5.93-2.387 5.93-5.322V5.914c0-2.934-2.66-5.321-5.93-5.321z" fill="#DFB504"/><path d="M41.66 33.656c-2.321 0-4.202 1.688-4.202 3.77v-1.92c0-2.083-1.88-3.77-4.201-3.77-2.32 0-4.202 1.687-4.202 3.77V33.89c0-1.98-1.701-3.603-3.863-3.757a5.084 5.084 0 00-.338-.013c-1.693 0-3.152.9-3.817 2.196a3.434 3.434 0 00-.384 1.574V19.981c0-2.082-1.881-3.77-4.201-3.77-2.32 0-4.202 1.688-4.202 3.77v32.37l-.181-.02-2.589-9.943c-.528-2.027-2.788-3.288-5.047-2.814-2.373 0-3.872 1.697-3.333 3.771l3.001 11.527c1.57 9.02 9.693 15.92 9.693 15.92H39.32c4.265-5.821 6.538-12.636 6.54-19.604l.002-13.762c0-2.082-1.881-3.77-4.201-3.77z" fill="#DFB504"/></svg>