<svg width="150" height="50" viewBox="0 0 150 50" fill="none" xmlns="http://www.w3.org/2000/svg">
<path d="M138.055 0.000162499H11.9518C11.4921 0.000162499 11.038 0.0001625 10.5796 0.00266249C10.1958 0.00516248 9.81509 0.012425 9.42764 0.0185374C8.58593 0.0284147 7.74619 0.102257 6.91573 0.239424C6.08644 0.379577 5.28313 0.643805 4.53296 1.02317C3.78372 1.40575 3.09911 1.90287 2.50397 2.49649C1.90571 3.08845 1.40702 3.77267 1.02706 4.52285C0.646059 5.27153 0.38187 6.07382 0.243619 6.90199C0.104055 7.72912 0.028954 8.56579 0.0189907 9.40448C0.0073581 9.78773 0.00612966 10.1723 0 10.5556V39.4483C0.00612966 39.8364 0.0073581 40.2124 0.0189907 40.6007C0.0289571 41.4393 0.104058 42.2759 0.243619 43.103C0.381488 43.9317 0.645693 44.7344 1.02706 45.4834C1.40685 46.2311 1.90561 46.9126 2.50397 47.5013C3.09685 48.0975 3.7819 48.595 4.53296 48.9746C5.28312 49.355 6.08635 49.6208 6.91573 49.7631C7.74633 49.8992 8.58598 49.9731 9.42764 49.9841C9.81509 49.9926 10.1958 49.9975 10.5796 49.9975C11.038 50 11.4922 50 11.9518 50H138.055C138.505 50 138.963 50 139.414 49.9975C139.796 49.9975 140.187 49.9926 140.569 49.9841C141.409 49.9737 142.247 49.8998 143.076 49.7631C143.908 49.6198 144.715 49.3541 145.468 48.9746C146.219 48.5948 146.903 48.0973 147.495 47.5013C148.092 46.9103 148.592 46.2293 148.977 45.4834C149.355 44.7339 149.617 43.9312 149.753 43.103C149.892 42.2758 149.97 41.4394 149.985 40.6007C149.99 40.2124 149.99 39.8364 149.99 39.4483C150 38.9942 150 38.5425 150 38.081V11.9203C150 11.4625 150 11.0084 149.99 10.5556C149.99 10.1723 149.99 9.78773 149.985 9.40443C149.97 8.56566 149.892 7.72918 149.753 6.90194C149.616 6.07424 149.355 5.27202 148.977 4.5228C148.203 3.01915 146.976 1.79519 145.468 1.02306C144.715 0.64462 143.908 0.380462 143.076 0.239312C142.248 0.101541 141.409 0.0276721 140.569 0.0183624C140.187 0.0122625 139.796 0.00493748 139.414 0.00249999C138.963 0 138.505 0 138.055 0V0.000162499Z" fill="#A6A6A6"/>
<path d="M10.5851 48.9062C10.2032 48.9062 9.83048 48.9013 9.45156 48.8928C8.66659 48.8826 7.88345 48.8145 7.10858 48.689C6.38604 48.5649 5.6861 48.334 5.03184 48.0041C4.38357 47.6769 3.79231 47.2478 3.28068 46.7333C2.76166 46.2249 2.32954 45.6353 2.00147 44.9877C1.66977 44.336 1.44022 43.6374 1.32081 42.9162C1.19186 42.1414 1.12208 41.3579 1.1121 40.5725C1.10415 40.3089 1.09375 39.4311 1.09375 39.4311V10.5555C1.09375 10.5555 1.10483 9.69126 1.11216 9.43734C1.12172 8.6532 1.19109 7.87092 1.31966 7.09727C1.43929 6.37417 1.66902 5.67354 2.00089 5.01965C2.32776 4.37254 2.75748 3.78244 3.27338 3.27222C3.7887 2.75714 4.38186 2.32587 5.03122 1.99413C5.68398 1.66524 6.3826 1.43604 7.10367 1.31421C7.8811 1.18742 8.66695 1.11887 9.45464 1.10913L10.5857 1.09387H139.407L140.552 1.10975C141.332 1.119 142.111 1.18693 142.881 1.31298C143.609 1.43634 144.315 1.66714 144.976 1.99779C146.277 2.66635 147.335 3.72407 148.003 5.0227C148.329 5.67208 148.556 6.36699 148.674 7.08384C148.804 7.86384 148.877 8.65227 148.892 9.44285C148.895 9.79684 148.895 10.1771 148.895 10.5555C148.905 11.0243 148.905 11.4704 148.905 11.9202V38.081C148.905 38.5351 148.905 38.9782 148.895 39.425C148.895 39.8315 148.895 40.2039 148.89 40.5871C148.876 41.3636 148.804 42.1379 148.676 42.904C148.559 43.6303 148.331 44.3344 147.999 44.9915C147.669 45.632 147.239 46.2166 146.726 46.7236C146.214 47.2408 145.622 47.6724 144.972 48.0017C144.314 48.3342 143.609 48.5659 142.881 48.689C142.106 48.8152 141.323 48.8833 140.538 48.8928C140.171 48.9013 139.786 48.9062 139.413 48.9062L138.054 48.9087L10.5851 48.9062Z" fill="black"/>
<path d="M31.0476 25.376C31.0611 24.3327 31.339 23.3097 31.8555 22.4023C32.3719 21.4949 33.1102 20.7324 34.0016 20.186C33.4353 19.3795 32.6883 18.7158 31.8198 18.2477C30.9514 17.7795 29.9854 17.5197 28.9986 17.4889C26.8937 17.2686 24.853 18.7449 23.7804 18.7449C22.687 18.7449 21.0355 17.5108 19.2571 17.5472C18.1068 17.5843 16.9857 17.9179 16.0031 18.5154C15.0205 19.113 14.2099 19.9542 13.6502 20.9571C11.226 25.1426 13.0342 31.2939 15.3565 34.6771C16.5184 36.3338 17.8763 38.1844 19.6531 38.1187C21.3918 38.0468 22.0411 37.0131 24.1399 37.0131C26.2192 37.0131 26.8284 38.1187 28.6412 38.077C30.5069 38.0468 31.6824 36.413 32.8035 34.7406C33.6383 33.5601 34.2807 32.2555 34.7069 30.875C33.623 30.4178 32.698 29.6526 32.0473 28.6747C31.3965 27.6969 31.0489 26.5496 31.0476 25.376Z" fill="white"/>
<path d="M27.6238 15.2637C28.641 14.046 29.1422 12.4807 29.0208 10.9005C27.4667 11.0632 26.0311 11.8039 25.0001 12.975C24.496 13.547 24.11 14.2126 23.864 14.9335C23.618 15.6545 23.5169 16.4167 23.5665 17.1767C24.3438 17.1847 25.1129 17.0166 25.8156 16.6853C26.5184 16.3539 27.1367 15.8679 27.6238 15.2637Z" fill="white"/>
<path d="M53.0262 33.923H47.0928L45.6679 38.1186H43.1548L48.7748 22.5961H51.3858L57.0058 38.1186H54.4498L53.0262 33.923ZM47.7073 31.987H52.4105L50.092 25.1779H50.0271L47.7073 31.987Z" fill="white"/>
<path d="M69.143 32.4622C69.143 35.9791 67.2554 38.2386 64.4068 38.2386C63.6853 38.2762 62.9676 38.1105 62.3361 37.7603C61.7046 37.4101 61.1847 36.8897 60.8361 36.2586H60.7822V41.864H58.4526V26.8031H60.7075V28.6854H60.7504C61.1151 28.0573 61.6437 27.5396 62.28 27.1873C62.9164 26.8349 63.6366 26.6612 64.364 26.6846C67.2443 26.6847 69.143 28.9551 69.143 32.4622ZM66.7486 32.4622C66.7486 30.171 65.5612 28.6646 63.7495 28.6646C61.9696 28.6646 60.7724 30.2027 60.7724 32.4622C60.7724 34.7425 61.9696 36.2696 63.7495 36.2696C65.5612 36.2696 66.7486 34.7742 66.7486 32.4622Z" fill="white"/>
<path d="M81.6342 32.4622C81.6342 35.979 79.7466 38.2386 76.8981 38.2386C76.1765 38.2762 75.4588 38.1104 74.8273 37.7603C74.1958 37.4101 73.676 36.8897 73.3273 36.2586H73.2734V41.864H70.9438V26.803H73.1987V28.6854H73.2415C73.6062 28.0573 74.1349 27.5395 74.7712 27.1872C75.4075 26.8349 76.1277 26.6612 76.8552 26.6846C79.7356 26.6846 81.6342 28.9551 81.6342 32.4622ZM79.2398 32.4622C79.2398 30.171 78.0524 28.6646 76.2407 28.6646C74.4608 28.6646 73.2636 30.2027 73.2636 32.4622C73.2636 34.7425 74.4608 36.2696 76.2407 36.2696C78.0524 36.2696 79.2398 34.7742 79.2398 32.4622H79.2398Z" fill="white"/>
<path d="M89.89 33.7952C90.0626 35.3345 91.5622 36.3452 93.6114 36.3452C95.5749 36.3452 96.9875 35.3344 96.9875 33.9465C96.9875 32.7417 96.1355 32.0203 94.1182 31.5259L92.1008 31.0412C89.2425 30.3528 87.9155 29.0198 87.9155 26.8567C87.9155 24.1785 90.256 22.3389 93.5795 22.3389C96.8688 22.3389 99.1236 24.1785 99.1995 26.8567H96.8479C96.7072 25.3076 95.4231 24.3726 93.5465 24.3726C91.6699 24.3726 90.3858 25.3186 90.3858 26.6956C90.3858 27.793 91.2059 28.4387 93.2123 28.933L94.9273 29.353C98.121 30.1061 99.448 31.3855 99.448 33.6559C99.448 36.56 97.1283 38.3788 93.4387 38.3788C89.9867 38.3788 87.6559 36.6027 87.5054 33.7951L89.89 33.7952Z" fill="white"/>
<path d="M104.476 24.125V26.8032H106.634V28.6428H104.476V34.8818C104.476 35.851 104.908 36.3027 105.856 36.3027C106.113 36.2982 106.368 36.2803 106.623 36.2489V38.0776C106.196 38.157 105.763 38.193 105.329 38.185C103.031 38.185 102.135 37.3244 102.135 35.1296V28.6428H100.485V26.8032H102.135V24.125H104.476Z" fill="white"/>
<path d="M107.883 32.4621C107.883 28.9013 109.986 26.6638 113.266 26.6638C116.556 26.6638 118.65 28.9013 118.65 32.4621C118.65 36.0326 116.567 38.2604 113.266 38.2604C109.965 38.2604 107.883 36.0326 107.883 32.4621ZM116.276 32.4621C116.276 30.0195 115.153 28.5778 113.266 28.5778C111.378 28.5778 110.257 30.0304 110.257 32.4621C110.257 34.9145 111.378 36.3451 113.266 36.3451C115.153 36.3451 116.276 34.9145 116.276 32.4621H116.276Z" fill="white"/>
<path d="M120.57 26.8029H122.792V28.7292H122.846C122.996 28.1276 123.35 27.5959 123.847 27.2236C124.344 26.8512 124.955 26.6609 125.576 26.6845C125.844 26.6836 126.112 26.7127 126.374 26.7712V28.944C126.035 28.8408 125.682 28.7934 125.327 28.8037C124.989 28.79 124.651 28.8495 124.338 28.9781C124.025 29.1067 123.744 29.3014 123.513 29.5487C123.282 29.7961 123.108 30.0903 123.002 30.4111C122.896 30.732 122.862 31.0718 122.9 31.4074V38.12H120.57L120.57 26.8029Z" fill="white"/>
<path d="M137.114 34.7961C136.801 36.8505 134.795 38.2604 132.228 38.2604C128.926 38.2604 126.877 36.0546 126.877 32.5158C126.877 28.966 128.937 26.6638 132.13 26.6638C135.27 26.6638 137.244 28.8146 137.244 32.246V33.0419H129.229V33.1823C129.192 33.5988 129.244 34.0184 129.382 34.4132C129.52 34.808 129.741 35.1689 130.03 35.4721C130.318 35.7753 130.668 36.0138 131.057 36.1716C131.445 36.3295 131.862 36.4032 132.281 36.3878C132.832 36.4393 133.384 36.3121 133.857 36.0253C134.329 35.7385 134.696 35.3074 134.902 34.796L137.114 34.7961ZM129.24 31.4184H134.913C134.934 31.0439 134.877 30.6691 134.746 30.3176C134.615 29.9661 134.412 29.6454 134.151 29.3757C133.889 29.106 133.575 28.8931 133.227 28.7503C132.879 28.6076 132.506 28.538 132.13 28.5461C131.75 28.5438 131.374 28.6165 131.023 28.7599C130.672 28.9034 130.353 29.1147 130.084 29.3817C129.816 29.6488 129.603 29.9662 129.458 30.3158C129.313 30.6654 129.239 31.0401 129.24 31.4184V31.4184Z" fill="white"/>
<path d="M46.0515 14.067H47.0516C47.2238 14.0884 47.3985 14.074 47.5648 14.0247C47.7311 13.9754 47.8854 13.8923 48.0179 13.7806C48.1503 13.6689 48.2582 13.531 48.3346 13.3757C48.411 13.2203 48.4543 13.0509 48.4618 12.8781C48.4618 12.1902 47.9428 11.7459 47.0626 11.7459C46.8862 11.7213 46.7067 11.7322 46.5346 11.778C46.3625 11.8237 46.2014 11.9034 46.0607 12.0123C45.92 12.1212 45.8026 12.2571 45.7155 12.412C45.6283 12.5669 45.5732 12.7376 45.5533 12.9141H44.4552C44.4741 12.5937 44.5589 12.2806 44.7044 11.9944C44.8499 11.7081 45.0529 11.4548 45.3009 11.2502C45.5488 11.0455 45.8363 10.894 46.1455 10.805C46.4547 10.7159 46.779 10.6913 47.0981 10.7327C48.5707 10.7327 49.6076 11.5548 49.6076 12.7383C49.6111 13.1348 49.4781 13.5204 49.2308 13.8309C48.9835 14.1414 48.6369 14.3579 48.2488 14.4442V14.5321C48.7089 14.5525 49.1421 14.7536 49.4538 15.0916C49.7656 15.4296 49.9305 15.8769 49.9124 16.3357C49.8784 16.6656 49.7786 16.9853 49.6191 17.2763C49.4595 17.5672 49.2433 17.8234 48.9831 18.0299C48.7229 18.2365 48.424 18.3891 48.1039 18.479C47.7838 18.5688 47.4489 18.594 47.1189 18.5531C46.7883 18.5981 46.4519 18.5762 46.1299 18.4887C45.8078 18.4013 45.5068 18.2501 45.2446 18.0441C44.9824 17.8381 44.7645 17.5817 44.6039 17.2899C44.4432 16.9982 44.3431 16.6772 44.3096 16.3461H45.4248C45.4921 17.0596 46.1494 17.5198 47.1189 17.5198C48.0885 17.5198 48.7213 17.0029 48.7213 16.2741C48.7213 15.535 48.1252 15.0797 47.0834 15.0797H46.0515V14.067Z" fill="white"/>
<path d="M51.1792 16.7806C51.1792 15.7674 51.9369 15.1833 53.2786 15.1003L54.8075 15.0124V14.5265C54.8075 13.9321 54.4146 13.5964 53.6519 13.5964C53.0301 13.5964 52.6004 13.824 52.4756 14.222H51.3971C51.5109 13.2552 52.4241 12.6351 53.7046 12.6351C55.1197 12.6351 55.9178 13.3376 55.9178 14.5265V18.3724H54.8442V17.5813H54.7561C54.5772 17.8651 54.326 18.0964 54.0281 18.2517C53.7303 18.4069 53.3964 18.4806 53.0607 18.4651C52.8237 18.4897 52.5842 18.4645 52.3577 18.3911C52.1311 18.3177 51.9224 18.1978 51.7452 18.0391C51.5679 17.8804 51.4259 17.6864 51.3285 17.4696C51.231 17.2529 51.1801 17.0181 51.1792 16.7806ZM54.8075 16.2996V15.829L53.4291 15.9169C52.6518 15.9688 52.2992 16.2325 52.2992 16.7287C52.2992 17.2353 52.7399 17.5301 53.3459 17.5301C53.5235 17.548 53.7028 17.5301 53.8733 17.4775C54.0438 17.4249 54.2019 17.3386 54.3383 17.2238C54.4747 17.109 54.5865 16.968 54.6671 16.8093C54.7477 16.6505 54.7955 16.4772 54.8075 16.2996Z" fill="white"/>
<path d="M58.8742 13.6788V18.3724H57.7603V12.7438H61.4768V13.6788L58.8742 13.6788Z" fill="white"/>
<path d="M68.2277 15.5555C68.2277 17.3438 67.3206 18.465 65.8957 18.465C65.5459 18.4888 65.1966 18.4125 64.8888 18.245C64.5811 18.0775 64.3278 17.8258 64.1586 17.5196H64.0705V20.2436H62.9565V12.7436H64.0289V13.6738H64.1121C64.2843 13.3569 64.5409 13.0935 64.8537 12.9129C65.1665 12.7323 65.5233 12.6414 65.8847 12.6503C67.3206 12.6502 68.2277 13.7665 68.2277 15.5555ZM67.0819 15.5555C67.0819 14.3665 66.5175 13.6481 65.5737 13.6481C64.6361 13.6481 64.0497 14.3818 64.0497 15.5604C64.0497 16.7335 64.6361 17.4677 65.5688 17.4677C66.5175 17.4677 67.0819 16.7493 67.0819 15.5555Z" fill="white"/>
<path d="M69.7111 20.3884V19.432C69.8317 19.4473 69.9531 19.4542 70.0746 19.4527C70.312 19.4703 70.5474 19.3998 70.7359 19.2548C70.9243 19.1098 71.0524 18.9006 71.0956 18.6672L71.1788 18.3932L69.1357 12.7438H70.3489L71.764 17.2146H71.8521L73.2623 12.7438H74.4436L72.3394 18.605C71.857 19.9746 71.3233 20.414 70.1726 20.414C70.0796 20.414 69.8152 20.4037 69.7111 20.3884Z" fill="white"/>
<path d="M75.3115 16.7752H76.4206C76.5295 17.2714 76.996 17.5302 77.6484 17.5302C78.3902 17.5302 78.8456 17.2043 78.8456 16.6977C78.8456 16.1551 78.4367 15.8963 77.6484 15.8963H76.8037V15.0333H77.6337C78.307 15.0333 78.6497 14.7751 78.6497 14.3045C78.6497 13.8913 78.318 13.5758 77.6337 13.5758C77.0106 13.5758 76.5552 13.8395 76.483 14.2838H75.4095C75.4897 13.7732 75.7677 13.3145 76.1837 13.0062C76.5996 12.6979 77.1203 12.5647 77.6337 12.6352C78.9753 12.6352 79.7429 13.2401 79.7429 14.191C79.7491 14.4558 79.6641 14.7147 79.5018 14.9245C79.3396 15.1342 79.1101 15.2821 78.8517 15.3434V15.4313C79.1594 15.4708 79.4418 15.6217 79.6453 15.8551C79.8488 16.0886 79.9594 16.3884 79.9559 16.6977C79.9559 17.7677 79.0427 18.4757 77.6484 18.4757C76.4157 18.4756 75.4144 17.9123 75.3115 16.7752Z" fill="white"/>
<path d="M81.5601 18.3724V12.7438H82.6642V16.6152H82.7524L85.3536 12.7438H86.4578V18.3724H85.3536V14.4802H85.2704L82.6642 18.3724L81.5601 18.3724Z" fill="white"/>
<path d="M92.5407 13.6788H90.7633V18.3724H89.6481V13.6788H87.8706V12.7438H92.5407V13.6788Z" fill="white"/>
<path d="M98.5409 16.8527C98.3891 17.3671 98.0609 17.812 97.6137 18.1096C97.1664 18.4072 96.6285 18.5387 96.0939 18.4811C95.722 18.4909 95.3524 18.4199 95.0109 18.273C94.6693 18.126 94.3638 17.9068 94.1158 17.6303C93.8677 17.3539 93.6829 17.027 93.5742 16.6722C93.4656 16.3174 93.4356 15.9433 93.4865 15.5758C93.437 15.2072 93.4674 14.8323 93.5758 14.4765C93.6843 14.1206 93.8681 13.7922 94.1148 13.5133C94.3616 13.2345 94.6656 13.0118 95.0062 12.8603C95.3468 12.7088 95.716 12.632 96.089 12.6352C97.6595 12.6352 98.6082 13.7052 98.6082 15.4727V15.8603H94.6225V15.9225C94.6048 16.1291 94.6307 16.3371 94.6985 16.5332C94.7663 16.7292 94.8744 16.9089 95.016 17.0608C95.1575 17.2126 95.3294 17.3333 95.5205 17.415C95.7116 17.4966 95.9178 17.5375 96.1257 17.535C96.392 17.5668 96.6617 17.5189 96.9006 17.3973C97.1395 17.2758 97.3368 17.0862 97.4674 16.8527L98.5409 16.8527ZM94.6224 15.0387H97.4722C97.4863 14.8499 97.4606 14.6603 97.3968 14.4819C97.333 14.3036 97.2326 14.1405 97.1018 14.0032C96.9711 13.8659 96.813 13.7574 96.6378 13.6846C96.4625 13.6118 96.2739 13.5764 96.0841 13.5806C95.8913 13.578 95.7 13.6139 95.5215 13.6863C95.3429 13.7587 95.1808 13.866 95.0445 14.0019C94.9082 14.1378 94.8007 14.2996 94.7282 14.4777C94.6557 14.6558 94.6198 14.8466 94.6225 15.0387H94.6224Z" fill="white"/>
<path d="M103.264 12.7438H105.809C106.913 12.7438 107.561 13.3016 107.561 14.175C107.563 14.4522 107.469 14.7215 107.295 14.9379C107.122 15.1543 106.879 15.3047 106.607 15.364V15.4519C106.937 15.4726 107.246 15.6189 107.471 15.8603C107.695 16.1018 107.818 16.4201 107.814 16.7495C107.814 17.7315 107.074 18.3724 105.835 18.3724H103.264V12.7438ZM104.368 13.5964V15.0539H105.473C106.146 15.0539 106.468 14.7958 106.468 14.3197C106.468 13.8808 106.187 13.5964 105.596 13.5964L104.368 13.5964ZM104.368 15.8706V17.5198H105.689C106.348 17.5198 106.7 17.2299 106.7 16.6976C106.7 16.1343 106.301 15.8706 105.55 15.8706L104.368 15.8706Z" fill="white"/>
</svg>
