<svg width="173" height="50" viewBox="0 0 173 50" fill="none" xmlns="http://www.w3.org/2000/svg">
<path d="M166.593 50H6.40741C2.88333 50 0 47.1875 0 43.75V6.25C0 2.8125 2.88333 0 6.40741 0H166.593C170.117 0 173 2.8125 173 6.25V43.75C173 47.1875 170.117 50 166.593 50Z" fill="black"/>
<path d="M166.593 0H6.40741C2.88333 0 0 2.8125 0 6.25V43.75C0 47.1875 2.88333 50 6.40741 50H166.593C170.117 50 173 47.1875 173 43.75V6.25C173 2.8125 170.117 0 166.593 0ZM166.593 1C169.561 1 171.975 3.3555 171.975 6.25V43.75C171.975 46.645 169.561 49.0005 166.593 49.0005H6.40741C3.44001 49.0005 1.02519 46.645 1.02519 43.75V6.25C1.02519 3.3555 3.44001 1 6.40741 1H166.593Z" fill="#A6A6A6"/>
<path d="M137.036 37.5001H139.428V21.8736H137.036V37.5001ZM158.574 27.5026L155.833 34.2774H155.751L152.906 27.5026H150.331L154.597 36.9717L152.164 42.2388H154.659L161.233 27.5026H158.574ZM145.014 35.7252C144.229 35.7252 143.138 35.3433 143.138 34.3981C143.138 33.1919 144.498 32.7296 145.672 32.7296C146.724 32.7296 147.218 32.9507 147.857 33.2526C147.671 34.6998 146.394 35.7252 145.014 35.7252ZM145.302 27.1607C143.571 27.1607 141.778 27.9048 141.036 29.5533L143.158 30.4176C143.612 29.5533 144.456 29.2716 145.343 29.2716C146.58 29.2716 147.837 29.9957 147.857 31.2823V31.4429C147.424 31.2017 146.498 30.8399 145.363 30.8399C143.076 30.8399 140.746 32.0659 140.746 34.3579C140.746 36.4488 142.622 37.7959 144.724 37.7959C146.332 37.7959 147.218 37.0923 147.775 36.2682H147.857V37.4742H150.165V31.4829C150.165 28.7091 148.043 27.1607 145.302 27.1607ZM130.524 29.4048H127.123V24.0484H130.524C132.312 24.0484 133.327 25.4922 133.327 26.7266C133.327 27.9376 132.312 29.4048 130.524 29.4048ZM130.462 21.8736H124.733V37.5001H127.123V31.5797H130.462C133.113 31.5797 135.718 29.7081 135.718 26.7266C135.718 23.7452 133.113 21.8736 130.462 21.8736ZM99.2186 35.7281C97.5667 35.7281 96.1836 34.3789 96.1836 32.5259C96.1836 30.6534 97.5667 29.2838 99.2186 29.2838C100.85 29.2838 102.13 30.6534 102.13 32.5259C102.13 34.3789 100.85 35.7281 99.2186 35.7281ZM101.964 28.3776H101.882C101.345 27.7534 100.312 27.1896 99.0119 27.1896C96.2867 27.1896 93.7889 29.5254 93.7889 32.5259C93.7889 35.5064 96.2867 37.8223 99.0119 37.8223C100.312 37.8223 101.345 37.2583 101.882 36.6143H101.964V37.3794C101.964 39.4137 100.85 40.5011 99.0534 40.5011C97.5877 40.5011 96.6792 39.4737 96.3072 38.6079L94.2224 39.4537C94.8211 40.8633 96.4109 42.5953 99.0534 42.5953C101.861 42.5953 104.235 40.9839 104.235 37.0572V27.5118H101.964V28.3776ZM105.887 37.5001H108.282V21.8731H105.887V37.5001ZM111.812 32.3448C111.75 30.2906 113.443 29.2437 114.661 29.2437C115.611 29.2437 116.416 29.7066 116.684 30.3717L111.812 32.3448ZM119.244 30.5728C118.791 29.3843 117.407 27.1896 114.578 27.1896C111.771 27.1896 109.438 29.3443 109.438 32.5059C109.438 35.4864 111.75 37.8223 114.847 37.8223C117.345 37.8223 118.791 36.3321 119.389 35.4663L117.531 34.2578C116.912 35.1441 116.065 35.7281 114.847 35.7281C113.629 35.7281 112.762 35.1842 112.204 34.1172L119.492 31.1768L119.244 30.5728ZM61.1827 28.8208V31.0762H66.7155C66.5503 32.3448 66.1168 33.2711 65.4561 33.9156C64.6512 34.7012 63.3917 35.5669 61.1827 35.5669C57.7762 35.5669 55.1131 32.8887 55.1131 29.5659C55.1131 26.2432 57.7762 23.5646 61.1827 23.5646C63.0202 23.5646 64.3618 24.2696 65.3529 25.1758L66.9839 23.5851C65.6008 22.2959 63.7631 21.3092 61.1827 21.3092C56.5167 21.3092 52.5942 25.0147 52.5942 29.5659C52.5942 34.1172 56.5167 37.8223 61.1827 37.8223C63.7016 37.8223 65.6008 37.0172 67.087 35.5064C68.6148 34.0162 69.0898 31.9219 69.0898 30.2306C69.0898 29.7066 69.0487 29.2237 68.9657 28.8208H61.1827ZM75.3801 35.7281C73.7282 35.7281 72.3035 34.3989 72.3035 32.5059C72.3035 30.5928 73.7282 29.2838 75.3801 29.2838C77.0314 29.2838 78.4561 30.5928 78.4561 32.5059C78.4561 34.3989 77.0314 35.7281 75.3801 35.7281ZM75.3801 27.1896C72.3656 27.1896 69.9087 29.4248 69.9087 32.5059C69.9087 35.5669 72.3656 37.8223 75.3801 37.8223C78.394 37.8223 80.8509 35.5669 80.8509 32.5059C80.8509 29.4248 78.394 27.1896 75.3801 27.1896ZM87.3148 35.7281C85.6635 35.7281 84.2388 34.3989 84.2388 32.5059C84.2388 30.5928 85.6635 29.2838 87.3148 29.2838C88.9663 29.2838 90.3909 30.5928 90.3909 32.5059C90.3909 34.3989 88.9663 35.7281 87.3148 35.7281ZM87.3148 27.1896C84.3004 27.1896 81.8441 29.4248 81.8441 32.5059C81.8441 35.5669 84.3004 37.8223 87.3148 37.8223C90.3289 37.8223 92.7857 35.5669 92.7857 32.5059C92.7857 29.4248 90.3289 27.1896 87.3148 27.1896Z" fill="white"/>
<path d="M13.4681 40.4868L13.3729 40.398C12.9999 40.0131 12.7798 39.4155 12.7798 38.6416V38.8237V11.1787C12.7798 11.1762 12.7798 11.1743 12.7798 11.1723C12.7798 11.1747 12.7798 11.1767 12.7798 11.1792V11.3618C12.7798 10.5238 13.0365 9.8926 13.4665 9.5141L29.3438 25.001L13.4681 40.4868ZM12.7798 11.1708C12.7798 11.102 12.7817 11.0351 12.7853 10.9692C12.7817 11.0346 12.7798 11.102 12.7798 11.1708ZM12.7853 10.9662C12.7853 10.9653 12.7853 10.9643 12.7857 10.9633C12.7853 10.9643 12.7853 10.9653 12.7853 10.9662ZM12.7857 10.9575C12.7857 10.957 12.7857 10.9565 12.7857 10.956C12.7857 10.9565 12.7857 10.957 12.7857 10.9575Z" fill="url(#paint0_linear_2311_7959)"/>
<path d="M34.6359 30.3481L34.7566 30.2812L41.0267 26.8061C41.6245 26.4746 42.023 26.0727 42.2217 25.6474C42.0235 26.0727 41.6249 26.4751 41.0267 26.8066L34.7566 30.2817L34.6359 30.3481ZM34.6374 30.1649L29.3442 25.0009L34.6369 19.8378L41.0267 23.3788C41.8382 23.8286 42.2937 24.4082 42.3699 25.0004C42.3699 25.0009 42.3699 25.0019 42.3699 25.0028C42.2937 25.5937 41.8382 26.1738 41.0267 26.6234L34.6374 30.1649Z" fill="url(#paint1_linear_2311_7959)"/>
<path d="M14.6003 41.0766C14.1568 41.0766 13.7698 40.936 13.468 40.6703L13.4685 40.6698C13.7703 40.9355 14.1578 41.0766 14.6013 41.0766C14.6398 41.0766 14.6788 41.0756 14.7184 41.0737C14.6783 41.0756 14.6387 41.0766 14.6003 41.0766ZM14.6008 40.8935C14.1573 40.894 13.7703 40.7528 13.4685 40.4872V40.4868L29.3443 25.001L34.6374 30.165L16.0364 40.4741C15.5218 40.7587 15.0342 40.8935 14.6008 40.8935ZM13.464 40.667C13.4359 40.6421 13.4084 40.6157 13.3813 40.5883L13.464 40.667Z" fill="url(#paint2_linear_2311_7959)"/>
<path d="M29.3441 25.0009L13.4668 9.51401C13.7686 9.24889 14.1551 9.10826 14.5981 9.10826C15.0326 9.10826 15.5206 9.24351 16.0363 9.52864L34.6367 19.8378L29.3441 25.0009ZM34.7564 19.7211L16.0363 9.34613C15.5206 9.06088 15.0326 8.92564 14.5981 8.92564C14.596 8.92564 14.5946 8.92564 14.5926 8.92564C14.5951 8.92564 14.5971 8.92564 14.6001 8.92564C15.0337 8.92564 15.5211 9.06038 16.0363 9.34563L34.7564 19.7211Z" fill="url(#paint3_linear_2311_7959)"/>
<path d="M14.7182 41.0737C15.1211 41.0512 15.5672 40.916 16.0362 40.6567L34.6356 30.3481L16.0362 40.6567C15.5676 40.9165 15.1211 41.0512 14.7182 41.0737ZM13.4677 40.6704L13.4638 40.667C13.4652 40.668 13.4667 40.6694 13.4677 40.6704ZM13.3811 40.5884L13.373 40.5806V40.5801C13.3761 40.583 13.3786 40.5859 13.3811 40.5884Z" fill="black"/>
<path d="M34.6357 30.3481L34.7567 30.2807L34.6357 30.3481Z" fill="url(#paint4_linear_2311_7959)"/>
<path d="M14.6011 41.0766C14.1576 41.0766 13.7701 40.9355 13.4683 40.6698L13.4677 40.6703C13.4667 40.6693 13.4652 40.668 13.4638 40.667L13.3811 40.5883C13.3786 40.5858 13.3761 40.583 13.373 40.5801L13.4683 40.4872C13.7701 40.7528 14.1571 40.894 14.6006 40.8935C15.034 40.8935 15.5216 40.7587 16.0362 40.4741L34.6372 30.165L34.7564 30.2812L34.6356 30.3481L16.0362 40.6567C15.5672 40.916 15.1211 41.0512 14.7182 41.0737C14.6786 41.0756 14.6395 41.0766 14.6011 41.0766Z" fill="url(#paint5_linear_2311_7959)"/>
<path d="M13.3721 40.5807C12.9996 40.1958 12.7798 39.5982 12.7798 38.8243V38.8238C12.7798 39.5982 12.9996 40.1953 13.3721 40.5802V40.5807Z" fill="black"/>
<path d="M13.3721 40.58C12.9996 40.1951 12.7798 39.598 12.7798 38.8236V38.6415C12.7798 39.4154 12.9996 40.013 13.3721 40.3979L13.4671 40.4868L13.3721 40.58Z" fill="url(#paint6_linear_2311_7959)"/>
<path d="M13.373 40.58L13.4682 40.4864V40.4867L13.373 40.58Z" fill="url(#paint7_linear_2311_7959)"/>
<path d="M42.2217 25.6475C42.3201 25.4365 42.3696 25.2197 42.3696 25.0028C42.3696 25.0025 42.3696 25.002 42.3696 25.002C42.3696 25.2192 42.3201 25.436 42.2217 25.6475Z" fill="black"/>
<path d="M34.7564 30.2811L34.6372 30.1648L41.0265 26.6233C41.838 26.1737 42.2935 25.5936 42.3697 25.0027C42.3697 25.2196 42.3201 25.4363 42.2215 25.6473C42.0228 26.0726 41.6244 26.4745 41.0265 26.806L34.7564 30.2811Z" fill="url(#paint8_linear_2311_7959)"/>
<path d="M42.3697 25.0009V25.0004C42.3691 24.3465 41.9211 23.6928 41.0265 23.1966L34.7564 19.7215H34.7559L34.7564 19.7211L41.0265 23.1961C41.9222 23.6923 42.3707 24.347 42.3697 25.0009Z" fill="#404040"/>
<path d="M42.3697 25.0005C42.2936 24.4082 41.838 23.8286 41.0266 23.3789L34.6367 19.8379L34.7559 19.7216H34.7564L41.0266 23.1967C41.9212 23.6929 42.3692 24.3466 42.3697 25.0005Z" fill="url(#paint9_linear_2311_7959)"/>
<path d="M12.7798 11.1724C12.7798 11.1719 12.7798 11.1714 12.7798 11.1709C12.7798 11.1714 12.7798 11.1719 12.7798 11.1724ZM12.7853 10.9692C12.7853 10.9682 12.7853 10.9672 12.7853 10.9662C12.7853 10.9672 12.7853 10.9682 12.7853 10.9692ZM12.7857 10.9634C12.7857 10.9614 12.7857 10.9595 12.7857 10.9575C12.7857 10.9595 12.7857 10.9614 12.7857 10.9634ZM12.7857 10.956C12.8599 9.67187 13.5757 8.93011 14.5883 8.92574C14.1493 8.92824 13.7669 9.06886 13.4676 9.33199V9.33149L13.464 9.33499C13.4324 9.36274 13.4025 9.39211 13.3729 9.42236C13.0365 9.76949 12.8243 10.2895 12.7857 10.956Z" fill="#404040"/>
<path d="M12.7798 11.3618V11.1791C12.7798 11.1766 12.7798 11.1746 12.7798 11.1723C12.7798 11.1718 12.7798 11.1713 12.7798 11.1708C12.7798 11.1019 12.7817 11.0345 12.7853 10.9691C12.7853 10.9681 12.7853 10.9671 12.7853 10.9661C12.7853 10.9653 12.7853 10.9643 12.7857 10.9633C12.7857 10.9613 12.7857 10.9594 12.7857 10.9574C12.7857 10.9569 12.7857 10.9564 12.7857 10.9559C12.8242 10.2894 13.0361 9.76938 13.3721 9.42226L13.4656 9.51401C13.0361 9.89251 12.7798 10.5238 12.7798 11.3618ZM13.463 9.33488L13.4666 9.33138C13.4656 9.33288 13.4641 9.33388 13.463 9.33488Z" fill="url(#paint10_linear_2311_7959)"/>
<path d="M34.6367 19.8378L16.0362 9.52868C15.5206 9.24355 15.0326 9.1083 14.598 9.1083C14.155 9.1083 13.7685 9.24892 13.4667 9.51405L13.373 9.4223C13.4026 9.39205 13.4326 9.36267 13.4642 9.33492C13.4652 9.33392 13.4667 9.33292 13.4677 9.33192C13.7671 9.0688 14.1495 8.92817 14.5885 8.92567C14.5896 8.92567 14.591 8.92567 14.5925 8.92567C14.5946 8.92567 14.596 8.92567 14.598 8.92567C15.0326 8.92567 15.5206 9.06092 16.0362 9.34617L34.7564 19.7212L34.7558 19.7215L34.6367 19.8378Z" fill="url(#paint11_linear_2311_7959)"/>
<path d="M55.7401 12.4585C55.755 13.645 55.5113 14.602 55.0106 15.3286H58.8976V9.67133H55.7401V12.4585ZM53.968 17.8417H53.0234V15.3286H53.7753C54.441 14.769 54.7664 13.813 54.7529 12.4585V8.74995H59.8863V15.3286H60.7449V17.8417H59.7998V16.25H53.968V17.8417Z" fill="white"/>
<path d="M55.7403 12.4584L55.6121 12.4599L55.6131 12.5609C55.6126 13.6835 55.3724 14.58 54.9042 15.2586L54.7702 15.4535H59.026V9.54627H55.6121V12.4594V12.4599L55.7403 12.4584H55.8684V9.79627H58.7697V15.2035H55.0109V15.3285L55.1171 15.3979C55.6211 14.6664 55.8694 13.7171 55.8694 12.5609L55.8684 12.4569L55.7403 12.4584H55.8684H55.7403ZM53.9682 17.8416V17.7166H53.1518V15.4535H53.7755H53.823L53.8591 15.4233C54.5518 14.8403 54.8818 13.869 54.8818 12.5404L54.8813 12.4574V12.4584V8.87489H59.7584V15.4535H60.617V17.7166H59.9282V16.2499V16.1249H53.8401V17.8416H53.9682V17.7166V17.8416H54.0964V16.3749H59.6719V17.8416V17.9666H60.7451H60.8732V15.2035H60.0147V8.62489H54.625V12.4589V12.4594L54.6255 12.5404C54.625 13.8339 54.3036 14.7211 53.6918 15.2333L53.7755 15.3285V15.2035H53.0237H52.8955V17.9666H53.9682H54.0964V17.8416H53.9682Z" fill="white"/>
<path d="M63.5413 14.6529C64.1109 15.2149 64.8068 15.4956 65.6303 15.4956C66.4536 15.4956 67.1505 15.2149 67.7186 14.6529C68.2883 14.0909 68.5736 13.3725 68.5736 12.5C68.5736 11.6275 68.2883 10.9091 67.7186 10.3471C67.1505 9.78514 66.4536 9.50439 65.6303 9.50439C64.8068 9.50439 64.1109 9.78514 63.5413 10.3471C62.9731 10.9091 62.6879 11.6275 62.6879 12.5C62.6879 13.3725 62.9731 14.0909 63.5413 14.6529ZM68.4495 15.2808C67.6936 16.039 66.754 16.4175 65.6303 16.4175C64.5064 16.4175 63.5663 16.039 62.8119 15.2808C62.0561 14.5234 61.6792 13.5963 61.6792 12.5C61.6792 11.4038 62.0561 10.4765 62.8119 9.71926C63.5663 8.96089 64.5064 8.58201 65.6303 8.58201C66.7475 8.58201 67.6851 8.96289 68.4444 9.72414C69.2028 10.4854 69.5822 11.4106 69.5822 12.5C69.5822 13.5963 69.2043 14.5234 68.4495 15.2808Z" fill="white"/>
<path d="M63.5415 14.6526L63.4504 14.7405C64.0405 15.325 64.7769 15.6219 65.6305 15.6204C66.4834 15.6219 67.2213 15.325 67.8099 14.7405C68.4041 14.1555 68.703 13.3986 68.7019 12.4998C68.703 11.6009 68.4041 10.844 67.8099 10.259C67.2213 9.67452 66.4834 9.37764 65.6305 9.37914C64.7769 9.37764 64.0405 9.67452 63.4504 10.259C62.8577 10.844 62.5589 11.6009 62.5599 12.4998C62.5589 13.3986 62.8577 14.1555 63.4504 14.7405L63.5415 14.6526L63.6332 14.5648C63.0894 14.0251 62.8176 13.3464 62.8162 12.4998C62.8176 11.6531 63.0894 10.9744 63.6332 10.4348H63.6327C64.1813 9.89527 64.8365 9.63064 65.6305 9.62914C66.4239 9.63064 67.0806 9.89527 67.6277 10.4348L67.6297 10.4368L67.6277 10.4348C68.1728 10.9744 68.4442 11.6531 68.4456 12.4998C68.4442 13.3464 68.1728 14.0251 67.6277 14.5648C67.0806 15.1043 66.4239 15.3689 65.6305 15.3704C64.8365 15.3689 64.1813 15.1043 63.6327 14.5648L63.5415 14.6526ZM68.4497 15.2805L68.3581 15.1936C67.6237 15.928 66.7247 16.2908 65.6305 16.2923C64.5357 16.2908 63.6371 15.928 62.9037 15.1936C62.1709 14.4568 61.809 13.5681 61.8076 12.4998C61.809 11.4314 62.1709 10.5428 62.9037 9.80589C63.6371 9.07152 64.5357 8.70827 65.6305 8.70677C66.7182 8.70827 67.6147 9.07302 68.3531 9.81126C69.0889 10.5515 69.4529 11.4388 69.4543 12.4998C69.4529 13.5681 69.09 14.4568 68.3581 15.1936L68.4497 15.2805L68.5418 15.3674C69.3187 14.5891 69.7116 13.6238 69.7106 12.4998C69.7116 11.3821 69.3177 10.4188 68.5368 9.63701C67.7558 8.85226 66.7778 8.45539 65.6305 8.45677C64.4772 8.45539 63.4959 8.85039 62.7201 9.63214V9.63164C61.9416 10.4104 61.5502 11.3758 61.5513 12.4998C61.5502 13.6238 61.9416 14.5891 62.7201 15.3679V15.3674C63.4959 16.1491 64.4772 16.5433 65.6305 16.5423C66.7833 16.5433 67.7644 16.1491 68.5418 15.3674L68.4497 15.2805Z" fill="white"/>
<path d="M74.5562 16.4175C73.4249 16.4175 72.4763 16.044 71.7104 15.2964C70.943 14.5494 70.5615 13.6171 70.5615 12.5C70.5615 11.3828 70.943 10.4506 71.7104 9.70364C72.4763 8.95601 73.4249 8.58201 74.5562 8.58201C75.715 8.58201 76.6571 8.99076 77.3804 9.80764L76.6921 10.4575C76.1706 9.82176 75.4572 9.50439 74.5562 9.50439C73.7177 9.50439 73.0103 9.78026 72.4347 10.332C71.858 10.8838 71.5702 11.6065 71.5702 12.5C71.5702 13.3935 71.858 14.1168 72.4347 14.668C73.0103 15.2198 73.7177 15.4956 74.5562 15.4956C75.4797 15.4956 76.2667 15.1328 76.9188 14.4068L77.6057 15.0766C77.2543 15.4888 76.8148 15.8154 76.2841 16.0556C75.755 16.2969 75.1779 16.4175 74.5562 16.4175Z" fill="white"/>
<path d="M74.5554 16.4173V16.2923C73.4527 16.2908 72.5441 15.9319 71.8002 15.2078C71.0568 14.4826 70.6899 13.5891 70.6889 12.4998C70.6899 11.4104 71.0568 10.5169 71.8002 9.79177C72.5441 9.06714 73.4527 8.70827 74.5554 8.70677C75.6838 8.70877 76.5808 9.09839 77.2825 9.88889L77.3797 9.80739L77.2906 9.71752L76.6023 10.3679L76.6914 10.4573L76.7915 10.3791C76.2479 9.71414 75.4865 9.37727 74.5554 9.37914C73.6878 9.37814 72.9415 9.66877 72.3443 10.2424C71.7411 10.8181 71.4397 11.5808 71.4413 12.4998C71.4397 13.4188 71.7411 14.1824 72.3443 14.7571C72.9415 15.3308 73.6878 15.6214 74.5554 15.6204C75.514 15.6219 76.3445 15.238 77.0142 14.489L76.9181 14.4065L76.8275 14.4949L77.5143 15.1648L77.605 15.0764L77.5063 14.9969C77.1669 15.3943 76.7444 15.7088 76.2293 15.9421C75.7172 16.1755 75.1607 16.2918 74.5554 16.2923V16.4173V16.5423C75.1941 16.5423 75.7909 16.4183 76.3374 16.1688C76.8841 15.9216 77.3397 15.5833 77.7035 15.1565L77.7781 15.0691L77.0088 14.3181L76.9117 14.2234L76.8216 14.324C76.1878 15.0276 75.444 15.3689 74.5554 15.3704C73.7455 15.3689 73.0782 15.1081 72.524 14.5784H72.5236C71.973 14.051 71.6986 13.3679 71.6976 12.4998C71.6986 11.6316 71.973 10.9495 72.5236 10.4211H72.524C73.0782 9.89139 73.7455 9.63064 74.5554 9.62914C75.4259 9.63114 76.0911 9.92902 76.5913 10.5354L76.6793 10.6429L77.4687 9.89726L77.5559 9.81514L77.4768 9.72589C76.7324 8.88214 75.7448 8.45539 74.5554 8.45677C73.395 8.45577 72.4064 8.84502 71.619 9.61502C70.8276 10.3835 70.4311 11.3553 70.4326 12.4998C70.4311 13.6443 70.8276 14.616 71.619 15.385C72.4064 16.1545 73.395 16.5433 74.5554 16.5423V16.4173Z" fill="white"/>
<path d="M81.6014 16.2498H80.6128V9.67119H78.4653V8.74982H83.7489V9.67119H81.6014V16.2498Z" fill="white"/>
<path d="M81.6016 16.2501V16.1251H80.7412V9.54644H78.5937V8.87506H83.6209V9.54644H81.4734V16.2501H81.6016V16.1251V16.2501H81.7297V9.79644H83.8772V8.75006V8.62506H78.3374V9.67144V9.79644H80.4849V16.3751H81.6016H81.7297V16.2501H81.6016Z" fill="white"/>
<path d="M90.5322 8.75001L87.6229 15.0766C87.2209 15.9708 86.6247 16.4175 85.8298 16.4175C85.5935 16.4175 85.3391 16.3619 85.0664 16.25L85.3241 15.3594C85.4893 15.4506 85.661 15.4956 85.8398 15.4956C86.0691 15.4956 86.2467 15.4521 86.3719 15.3653C86.4971 15.2779 86.6132 15.1181 86.7208 14.8881L87.0001 14.2905L84.4121 8.75001H85.572L87.4727 13.0551H87.5152L89.3718 8.75001H90.5322Z" fill="white"/>
<path d="M90.5323 8.74974L90.4151 8.69849L87.5058 15.0256L87.5053 15.0266C87.1098 15.8932 86.5697 16.2879 85.8299 16.2922C85.6141 16.2922 85.3767 16.2415 85.116 16.1345L85.0665 16.2497L85.19 16.2839L85.4473 15.3932L85.3242 15.3591L85.2617 15.468C85.4439 15.5686 85.6385 15.6209 85.8399 15.6204C86.0846 15.6204 86.2898 15.575 86.4465 15.4665C86.6007 15.3576 86.7243 15.1804 86.8375 14.9401L87.1169 14.3425L87.1408 14.2902L84.6114 8.87474H85.488L87.3881 13.1799H87.5153H87.6004L89.457 8.87474H90.5323V8.74974V8.62474H89.3719H89.2868L87.3966 13.0066L87.5153 13.0549V12.9299H87.4727V13.0549L87.5904 13.0056L85.6566 8.62474H84.4122H84.2129L86.859 14.2902L86.6043 14.8361C86.5026 15.0554 86.3935 15.197 86.2974 15.2629C86.2038 15.3289 86.0531 15.3709 85.8399 15.3704C85.6831 15.3704 85.5355 15.3317 85.3872 15.2502L85.2451 15.1721L84.9433 16.2156L84.9122 16.322L85.0169 16.365C85.3016 16.4816 85.5725 16.5422 85.8299 16.5422C86.6792 16.5461 87.332 16.0471 87.74 15.1267L87.7395 15.1276L90.73 8.62474H90.5323V8.74974Z" fill="white"/>
<path d="M91.6509 16.2498V8.74982H97.2138V16.2498H96.2253V9.67119H92.638V16.2498H91.6509Z" fill="white"/>
<path d="M91.6506 16.2501H91.7788V8.87506H97.085V16.1251H96.3531V9.54644H92.5096V16.1251H91.6506V16.2501H91.7788H91.6506V16.3751H92.6377H92.7659V9.79644H96.0968V16.3751H97.2135H97.3417V8.62506H91.5225V16.3751H91.6506V16.2501Z" fill="white"/>
<path d="M98.9746 16.2498V8.74982H99.9623V11.9652H103.807V8.74982H104.795V16.2498H103.807V12.8661H99.9623V16.2498H98.9746Z" fill="white"/>
<path d="M98.9748 16.2501H99.103V8.87506H99.8343V12.0904H103.935V8.87506H104.667V16.1251H103.935V12.7413H99.8343V16.1251H98.9748V16.2501H99.103H98.9748V16.3751H99.9625H100.091V12.9913H103.679V16.3751H104.796H104.924V8.62506H103.807H103.679V11.8404H100.091V8.62506H98.9748H98.8467V16.3751H98.9748V16.2501Z" fill="white"/>
<path d="M107.936 14.6529C108.506 15.2149 109.201 15.4956 110.025 15.4956C110.848 15.4956 111.545 15.2149 112.113 14.6529C112.683 14.0909 112.968 13.3725 112.968 12.5C112.968 11.6275 112.683 10.9091 112.113 10.3471C111.545 9.78514 110.848 9.50439 110.025 9.50439C109.201 9.50439 108.506 9.78514 107.936 10.3471C107.368 10.9091 107.082 11.6275 107.082 12.5C107.082 13.3725 107.368 14.0909 107.936 14.6529ZM112.844 15.2808C112.089 16.039 111.149 16.4175 110.025 16.4175C108.901 16.4175 107.961 16.039 107.207 15.2808C106.451 14.5234 106.074 13.5963 106.074 12.5C106.074 11.4038 106.451 10.4765 107.207 9.71926C107.961 8.96089 108.901 8.58201 110.025 8.58201C111.143 8.58201 112.08 8.96289 112.839 9.72414C113.597 10.4854 113.977 11.4106 113.977 12.5C113.977 13.5963 113.599 14.5234 112.844 15.2808Z" fill="white"/>
<path d="M107.936 14.6526L107.845 14.7405C108.435 15.325 109.171 15.6219 110.025 15.6204C110.878 15.6219 111.615 15.325 112.205 14.7405C112.798 14.1555 113.097 13.3986 113.096 12.4998C113.097 11.6009 112.798 10.844 112.205 10.259C111.615 9.67452 110.878 9.37764 110.025 9.37914C109.171 9.37764 108.435 9.67452 107.845 10.259C107.252 10.844 106.953 11.6009 106.954 12.4998C106.953 13.3986 107.252 14.1555 107.845 14.7405L107.936 14.6526L108.027 14.5648C107.484 14.0251 107.212 13.3464 107.21 12.4998C107.212 11.6531 107.484 10.9744 108.027 10.4348C108.575 9.89527 109.231 9.63064 110.025 9.62914C110.818 9.63064 111.475 9.89527 112.022 10.4348L112.026 10.4388L112.022 10.4348C112.567 10.9744 112.839 11.6531 112.84 12.4998C112.839 13.3464 112.567 14.0251 112.022 14.5648C111.475 15.1043 110.818 15.3689 110.025 15.3704C109.231 15.3689 108.575 15.1043 108.027 14.5648L107.936 14.6526ZM112.844 15.2805L112.752 15.1936C112.018 15.928 111.119 16.2908 110.025 16.2923C108.93 16.2908 108.031 15.928 107.298 15.1936L107.294 15.1898L107.298 15.1936C106.565 14.4568 106.203 13.5681 106.202 12.4998C106.203 11.4314 106.565 10.5428 107.298 9.80589C108.031 9.07152 108.93 8.70827 110.025 8.70677C111.112 8.70827 112.009 9.07302 112.747 9.81126C113.483 10.5515 113.847 11.4388 113.848 12.4998C113.847 13.5681 113.484 14.4568 112.752 15.1936L112.844 15.2805L112.936 15.3674C113.713 14.5891 114.106 13.6238 114.105 12.4998C114.106 11.3821 113.712 10.4188 112.931 9.63701C112.15 8.85226 111.172 8.45539 110.025 8.45677C108.871 8.45539 107.891 8.85039 107.114 9.63214V9.63164C106.336 10.4104 105.944 11.3758 105.945 12.4998C105.944 13.6238 106.336 14.5891 107.114 15.3679V15.3674C107.891 16.1491 108.871 16.5433 110.025 16.5423C111.178 16.5433 112.159 16.1491 112.936 15.3674L112.844 15.2805Z" fill="white"/>
<path d="M119.003 15.3284H120.991C121.37 15.3284 121.678 15.1991 121.915 14.9398C122.151 14.6824 122.269 14.3992 122.269 14.0916C122.269 13.7844 122.147 13.5037 121.903 13.2488C121.661 12.9939 121.341 12.8661 120.947 12.8661H119.003V15.3284ZM119.003 11.9652H120.797C121.17 11.9652 121.469 11.8456 121.694 11.6038C121.92 11.3631 122.033 11.0999 122.033 10.8133C122.033 10.5272 121.924 10.2644 121.705 10.0282C121.487 9.79031 121.199 9.67119 120.841 9.67119H119.003V11.9652ZM118.017 16.2498V8.74982H120.797C121.398 8.74982 121.92 8.94419 122.36 9.33082C122.8 9.71907 123.021 10.2058 123.021 10.7923C123.021 11.1482 122.926 11.4627 122.735 11.7352C122.547 12.0076 122.294 12.2137 121.979 12.3533V12.3948C122.357 12.5203 122.67 12.7371 122.913 13.0442C123.155 13.3518 123.278 13.7083 123.278 14.1131C123.278 14.7273 123.048 15.2371 122.585 15.6419C122.124 16.0472 121.578 16.2498 120.947 16.2498H118.017Z" fill="white"/>
<path d="M119.004 15.3287V15.4537H120.991C121.4 15.4552 121.752 15.3087 122.01 15.0234C122.264 14.7486 122.398 14.4312 122.397 14.0918C122.398 13.7521 122.259 13.4361 121.997 13.1637C121.732 12.8828 121.369 12.7398 120.948 12.7413H118.875V15.4537H119.004V15.3287H119.132V12.9913H120.948C121.314 12.9927 121.59 13.1061 121.81 13.3341C122.036 13.5723 122.139 13.8179 122.141 14.0918C122.139 14.3677 122.038 14.6168 121.819 14.8569C121.605 15.0894 121.341 15.2017 120.991 15.2037H119.004V15.3287H119.132H119.004ZM119.004 11.9654V12.0904H120.798C121.197 12.0918 121.541 11.9571 121.79 11.6881V11.6886C122.032 11.4307 122.161 11.1328 122.161 10.8136C122.161 10.4962 122.037 10.1993 121.8 9.94443V9.94493C121.56 9.68018 121.227 9.54493 120.841 9.54643H118.875V12.0904H119.004V11.9654H119.132V9.79643H120.841C121.171 9.79843 121.414 9.90093 121.609 10.1114L121.61 10.1123L121.609 10.1119C121.81 10.3307 121.904 10.5592 121.905 10.8136C121.904 11.0669 121.807 11.2964 121.6 11.5196V11.5201C121.397 11.7344 121.142 11.8389 120.798 11.8404H119.004V11.9654H119.132H119.004ZM118.017 16.2501H118.145V8.87506H120.798C121.37 8.87606 121.855 9.05668 122.274 9.42393C122.69 9.79206 122.892 10.2369 122.893 10.7926C122.893 11.1271 122.804 11.4137 122.63 11.6651C122.453 11.9191 122.221 12.1084 121.925 12.2398L121.851 12.2731V12.3951V12.4844L121.937 12.5132C122.294 12.6324 122.583 12.8326 122.812 13.1212L122.813 13.1226L122.812 13.1207C123.038 13.4078 123.15 13.7329 123.15 14.1133C123.149 14.6973 122.936 15.1646 122.499 15.5494C122.059 15.9347 121.55 16.1241 120.948 16.1251H118.017V16.2501H118.145H118.017V16.3751H120.948C121.606 16.3761 122.188 16.1602 122.671 15.7349C123.158 15.3106 123.408 14.7583 123.407 14.1133C123.408 13.6842 123.275 13.2964 123.015 12.9683L123.013 12.9668L123.015 12.9678C122.757 12.6427 122.421 12.4092 122.02 12.2769L121.979 12.3951H122.107V12.3536H121.979L122.032 12.4673C122.366 12.3194 122.64 12.0972 122.842 11.8052V11.8057C123.047 11.5123 123.149 11.1699 123.149 10.7926C123.15 10.1758 122.912 9.64656 122.446 9.23831L122.443 9.23593L122.446 9.23831C121.984 8.83156 121.427 8.62406 120.798 8.62506H117.889V16.3751H118.017V16.2501Z" fill="white"/>
<defs>
<linearGradient id="paint0_linear_2311_7959" x1="27.936" y1="10.8871" x2="6.96436" y2="32.3869" gradientUnits="userSpaceOnUse">
<stop stop-color="#00A0FF"/>
<stop offset="0.00657445" stop-color="#00A1FF"/>
<stop offset="0.2601" stop-color="#00BEFF"/>
<stop offset="0.5122" stop-color="#00D2FF"/>
<stop offset="0.7604" stop-color="#00DFFF"/>
<stop offset="1" stop-color="#00E3FF"/>
</linearGradient>
<linearGradient id="paint1_linear_2311_7959" x1="43.3585" y1="25.0017" x2="12.3505" y2="25.0017" gradientUnits="userSpaceOnUse">
<stop stop-color="#FFE000"/>
<stop offset="0.4087" stop-color="#FFBD00"/>
<stop offset="0.7754" stop-color="#FFA500"/>
<stop offset="1" stop-color="#FF9C00"/>
</linearGradient>
<linearGradient id="paint2_linear_2311_7959" x1="31.8157" y1="27.8701" x2="3.37664" y2="57.0254" gradientUnits="userSpaceOnUse">
<stop stop-color="#FF3A44"/>
<stop offset="1" stop-color="#C31162"/>
</linearGradient>
<linearGradient id="paint3_linear_2311_7959" x1="9.35158" y1="0.220136" x2="22.0508" y2="13.2392" gradientUnits="userSpaceOnUse">
<stop stop-color="#32A071"/>
<stop offset="0.0685" stop-color="#2DA771"/>
<stop offset="0.4762" stop-color="#15CF74"/>
<stop offset="0.8009" stop-color="#06E775"/>
<stop offset="1" stop-color="#00F076"/>
</linearGradient>
<linearGradient id="paint4_linear_2311_7959" x1="43.3769" y1="24.963" x2="12.303" y2="24.963" gradientUnits="userSpaceOnUse">
<stop stop-color="#CCB300"/>
<stop offset="0.4087" stop-color="#CC9700"/>
<stop offset="0.7754" stop-color="#CC8400"/>
<stop offset="1" stop-color="#CC7D00"/>
</linearGradient>
<linearGradient id="paint5_linear_2311_7959" x1="31.8155" y1="27.8701" x2="3.37641" y2="57.0254" gradientUnits="userSpaceOnUse">
<stop stop-color="#CC2E36"/>
<stop offset="1" stop-color="#9C0E4E"/>
</linearGradient>
<linearGradient id="paint6_linear_2311_7959" x1="27.9156" y1="10.887" x2="6.94327" y2="32.3586" gradientUnits="userSpaceOnUse">
<stop stop-color="#008DE0"/>
<stop offset="0.00657445" stop-color="#008DE0"/>
<stop offset="0.2601" stop-color="#00A7E0"/>
<stop offset="0.5122" stop-color="#00B8E0"/>
<stop offset="0.7604" stop-color="#00C4E0"/>
<stop offset="1" stop-color="#00C7E0"/>
</linearGradient>
<linearGradient id="paint7_linear_2311_7959" x1="31.8009" y1="27.8157" x2="3.23699" y2="56.9512" gradientUnits="userSpaceOnUse">
<stop stop-color="#E0333C"/>
<stop offset="1" stop-color="#AB0F56"/>
</linearGradient>
<linearGradient id="paint8_linear_2311_7959" x1="43.3583" y1="25.0016" x2="12.3503" y2="25.0016" gradientUnits="userSpaceOnUse">
<stop stop-color="#E0C500"/>
<stop offset="0.4087" stop-color="#E0A600"/>
<stop offset="0.7754" stop-color="#E09100"/>
<stop offset="1" stop-color="#E08900"/>
</linearGradient>
<linearGradient id="paint9_linear_2311_7959" x1="43.3584" y1="25.0017" x2="12.3503" y2="25.0017" gradientUnits="userSpaceOnUse">
<stop stop-color="#FFE840"/>
<stop offset="0.4087" stop-color="#FFCE40"/>
<stop offset="0.7754" stop-color="#FFBC40"/>
<stop offset="1" stop-color="#FFB540"/>
</linearGradient>
<linearGradient id="paint10_linear_2311_7959" x1="27.9156" y1="10.887" x2="6.94328" y2="32.3586" gradientUnits="userSpaceOnUse">
<stop stop-color="#40B8FF"/>
<stop offset="0.00657445" stop-color="#40B9FF"/>
<stop offset="0.2601" stop-color="#40CEFF"/>
<stop offset="0.5122" stop-color="#40DDFF"/>
<stop offset="0.7604" stop-color="#40E7FF"/>
<stop offset="1" stop-color="#40EAFF"/>
</linearGradient>
<linearGradient id="paint11_linear_2311_7959" x1="9.3515" y1="0.220174" x2="22.0507" y2="13.2392" gradientUnits="userSpaceOnUse">
<stop stop-color="#65B895"/>
<stop offset="0.0685" stop-color="#62BD95"/>
<stop offset="0.4762" stop-color="#50DB97"/>
<stop offset="0.8009" stop-color="#44ED98"/>
<stop offset="1" stop-color="#40F498"/>
</linearGradient>
</defs>
</svg>
