<svg width="74" height="65" fill="none" xmlns="http://www.w3.org/2000/svg"><path d="M64.476 49.237h-3.155a2.28 2.28 0 00-1.514-1.648 30.322 30.322 0 00-18.285 0 2.28 2.28 0 00-1.514 1.648h-6.314a2.28 2.28 0 00-1.513-1.648 30.322 30.322 0 00-18.286 0c-.777.246-1.326.884-1.514 1.648H9.223a3.069 3.069 0 100 6.14h3.07v.617c0 3.785 2.793 6.974 6.642 7.59l5.627.897a8.047 8.047 0 006.526-1.814c1.713-1.461 2.692-3.564 2.692-5.774v-1.516h6.14v1.516c0 2.21.978 4.313 2.691 5.774a8.053 8.053 0 005.228 1.919c.433 0 .866-.034 1.298-.105l5.627-.896c3.85-.614 6.643-3.806 6.643-7.591v-.617h3.07a3.069 3.069 0 100-6.14zM52.197 16.598v-4.396a8.415 8.415 0 00-3.944-7.158 8.375 8.375 0 00-8.15-.467l-.952.273a4.73 4.73 0 00-4.72-4.727h-4.489c-4.656 0-8.441 3.794-8.441 8.457v8.018C8.829 18.54.013 22.796.013 27.75c0 6.78 16.494 12.279 36.836 12.279 20.343 0 36.836-5.498 36.836-12.28 0-4.953-8.816-9.208-21.488-11.151z" fill="#DFB504"/></svg>