<svg width="69" height="68" fill="none" xmlns="http://www.w3.org/2000/svg"><path d="M12.238 54.922v6.982a4.655 4.655 0 009.31 0V44.447c0-.642-.52-1.163-1.163-1.163h-6.983c-.643 0-1.164.52-1.164 1.163v10.474zm5.819-28.11a2.997 2.997 0 002.328-2.73 2.997 2.997 0 00-2.328-2.73v5.46zm-4.655-10.877a2.997 2.997 0 002.328 2.73v-5.46a2.997 2.997 0 00-2.328 2.73z" fill="#DFB504"/><path d="M16.893 3.715C7.895 3.715.6 11.009.6 20.008.6 29.006 7.895 36.3 16.893 36.3c8.999 0 16.294-7.295 16.294-16.293S25.892 3.715 16.893 3.715zm5.82 20.366a5.417 5.417 0 01-4.656 5.131v.106a1.164 1.164 0 11-2.327 0v-.106a5.417 5.417 0 01-4.655-5.13 1.164 1.164 0 112.327 0 2.997 2.997 0 002.328 2.73v-5.746a5.417 5.417 0 01-4.655-5.131 5.417 5.417 0 014.655-5.132v-.105a1.164 1.164 0 112.327 0v.105a5.417 5.417 0 014.655 5.132 1.164 1.164 0 11-2.327 0 2.997 2.997 0 00-2.328-2.73v5.745a5.417 5.417 0 014.655 5.131zm30.257 8.612V66.56c0 .642-.52 1.163-1.163 1.163h-6.983a1.164 1.164 0 01-1.164-1.163V46.508a36.216 36.216 0 009.31-13.815zm13.966-6.866h-6.982c-.643 0-1.164.52-1.164 1.164V66.56c0 .642.52 1.163 1.164 1.163h6.982c.643 0 1.164-.52 1.164-1.163V26.99c0-.642-.52-1.163-1.164-1.163zM37.842 50.883V66.56c0 .642-.521 1.163-1.164 1.163h-6.982a1.164 1.164 0 01-1.164-1.163V54.852a34.83 34.83 0 009.31-3.969z" fill="#DFB504"/><path d="M26.204 43.423A24.419 24.419 0 0043.66 20.008v-4.655h-5.818a1.164 1.164 0 01-.885-1.92L47.431.63a1.164 1.164 0 011.77 0l10.473 12.801a1.164 1.164 0 01-.884 1.92h-5.82v4.656c.012 15.95-11.158 29.723-26.766 33.005v-9.59zm-5.819-5.133v2.666h-6.983v-2.665c2.306.45 4.677.45 6.983 0z" fill="#DFB504"/></svg>