<svg width="67" height="75" fill="none" xmlns="http://www.w3.org/2000/svg"><path d="M7.505 41.1h2.636c.728 0 1.318.59 1.318 1.318v7.907c0 .728-.59 1.318-1.318 1.318H7.505c-.728 0-1.318-.59-1.318-1.318v-7.907c0-.728.59-1.318 1.318-1.318zm0-26.358h2.636c.728 0 1.318.59 1.318 1.318v7.908c0 .727-.59 1.317-1.318 1.317H7.505c-.728 0-1.318-.59-1.318-1.317V16.06c0-.727.59-1.318 1.318-1.318zm24.34 23.327a5.271 5.271 0 116.893-2.859 5.28 5.28 0 01-6.893 2.859zM61.317 71.41a2.636 2.636 0 01-2.635 2.636H45.723a2.636 2.636 0 01-2.636-2.635v-2.636h18.23v2.636zm-36.68 0a2.636 2.636 0 01-2.635 2.636H9.043a2.636 2.636 0 01-2.636-2.635v-2.636h18.23v2.636z" fill="#DFB504"/><path d="M4.87.246h57.762A3.954 3.954 0 0166.585 4.2v57.986a3.954 3.954 0 01-3.953 3.953H4.87a3.954 3.954 0 01-3.954-3.953V4.2A3.954 3.954 0 014.87.246zM3.552 23.968a3.954 3.954 0 003.954 3.953v10.543a3.954 3.954 0 00-3.954 3.954v7.907a3.954 3.954 0 003.954 3.954v1.317a3.954 3.954 0 003.953 3.954h44.808a3.954 3.954 0 003.953-3.953V43.736a1.318 1.318 0 00-2.636 0v11.86c0 .728-.59 1.318-1.317 1.318H11.459c-.728 0-1.318-.59-1.318-1.318V54.28a3.953 3.953 0 003.954-3.954v-7.907a3.954 3.954 0 00-3.954-3.954V27.921a3.954 3.954 0 003.954-3.953V16.06a3.954 3.954 0 00-3.954-3.954v-1.318c0-.728.59-1.318 1.318-1.318h44.808c.727 0 1.317.59 1.317 1.318v26.357a1.318 1.318 0 002.636 0V10.79a3.954 3.954 0 00-3.953-3.953H11.459a3.954 3.954 0 00-3.953 3.953v1.318a3.954 3.954 0 00-3.954 3.954v7.907zm43.49-9.225h5.271v5.271a1.318 1.318 0 002.636 0v-6.59c0-.727-.59-1.317-1.318-1.317h-6.59a1.318 1.318 0 000 2.636zm-7.128 3.84a15.814 15.814 0 108.559 8.558 15.705 15.705 0 00-8.559-8.558z" fill="#DFB504"/><path d="M45.328 36.515a1.318 1.318 0 10-1.01 2.434l1.158.48a13.065 13.065 0 01-5.374 5.376l-.48-1.159a1.318 1.318 0 10-2.434 1.01l.478 1.157a13.058 13.058 0 01-7.601 0l.478-1.157a1.318 1.318 0 10-2.434-1.01l-.48 1.157a13.064 13.064 0 01-5.375-5.374l1.158-.48a1.318 1.318 0 10-1.01-2.434l-1.156.479a13.058 13.058 0 010-7.602l1.157.479a1.318 1.318 0 101.01-2.434l-1.158-.48a13.063 13.063 0 015.375-5.376l.48 1.159a1.318 1.318 0 102.433-1.01l-.478-1.157a13.058 13.058 0 017.601 0l-.478 1.157a1.318 1.318 0 102.434 1.01l.48-1.157a13.064 13.064 0 015.375 5.374l-1.158.48a1.318 1.318 0 101.01 2.433l1.156-.478a13.058 13.058 0 010 7.602l-1.157-.479zm-8.434-10.627a7.907 7.907 0 104.274 10.336 7.914 7.914 0 00-4.274-10.336z" fill="#DFB504"/></svg>