<svg width="75" height="76" fill="none" xmlns="http://www.w3.org/2000/svg"><g clip-path="url(#clip0_440_28800)" fill="#DFB504"><path d="M48.422 35.462V21.525c0-.57-.454-1.032-1.015-1.032H20.816c-.561 0-1.016.462-1.016 1.032V49.21c0 .917.726 1.663 1.623 1.677.892-.02 1.616-.767 1.616-1.677V38.971c.081-1.967 1.663-3.508 3.6-3.508h21.783zm-9.802-9.764a1.044 1.044 0 01.139-1.454 1.004 1.004 0 011.429.142l1.522 1.88 1.522-1.88c.356-.44.997-.503 1.43-.142.432.363.495 1.014.139 1.454l-1.775 2.193 1.775 2.193c.356.44.293 1.091-.14 1.453-.433.363-1.073.3-1.429-.141l-1.522-1.88-1.522 1.88c-.355.44-.997.503-1.43.141a1.043 1.043 0 01-.138-1.453l1.775-2.193-1.775-2.193zm-8.606 1.688c0-1.861 1.49-3.377 3.322-3.377 1.83 0 3.32 1.516 3.32 3.377v3.354c0 .57-.453 1.032-1.015 1.032-.56 0-1.015-.461-1.015-1.032v-.801h-2.581v.801c0 .57-.455 1.032-1.016 1.032-.56 0-1.015-.461-1.015-1.032v-3.354zm-4.392 4.386c-.56 0-1.016-.461-1.016-1.032v-4.666h-1.29a1.023 1.023 0 01-1.015-1.033c0-.57.454-1.032 1.015-1.032h4.612c.561 0 1.016.463 1.016 1.032 0 .571-.455 1.033-1.016 1.033h-1.29v4.666c0 .57-.455 1.032-1.016 1.032z"/><path d="M26.645 37.527h-.007a1.58 1.58 0 00-1.57 1.51V49.21c0 .602-.142 1.172-.393 1.678h3.543v-11.76c0-.883-.706-1.6-1.573-1.6zm7.981-10.141c0-.723-.58-1.312-1.29-1.312-.713 0-1.292.589-1.292 1.312v.488h2.582v-.488zm18.125 10.141H29.887c.232.483.362 1.026.362 1.6V54.56c0 .57.454 1.033 1.015 1.033h22.044c.561 0 1.016-.462 1.016-1.033V39.126c0-.882-.706-1.6-1.573-1.6zm-18.291 5.29h7.869c.561 0 1.015.463 1.015 1.033 0 .57-.454 1.032-1.015 1.032H34.46c-.56 0-1.015-.462-1.015-1.032 0-.57.455-1.032 1.015-1.032zm7.918 7.639c-.049.002.43.001-7.918.001-.56 0-1.015-.462-1.015-1.032 0-.57.455-1.032 1.015-1.032h7.869c.562 0 1.015.462 1.015 1.032 0 .555-.43 1.006-.966 1.03zm8.506.001h-3.858a1.024 1.024 0 01-1.016-1.032c0-.564.448-1.032 1.016-1.032h3.858c.56 0 1.016.461 1.016 1.032 0 .57-.455 1.032-1.016 1.032zm0-5.575h-3.858a1.024 1.024 0 01-1.016-1.032c0-.57.454-1.032 1.016-1.032h3.858c.56 0 1.016.462 1.016 1.032 0 .57-.455 1.032-1.016 1.032z"/></g><circle cx="37.35" cy="38.043" r="34.2" stroke="#DFB504" stroke-width="6.3"/><path d="M3.6 21.843l64.8 33.3" stroke="#DFB504" stroke-width="3.6"/><defs><clipPath id="clip0_440_28800"><path fill="#fff" transform="translate(19.8 20.493)" d="M0 0h34.525v35.1H0z"/></clipPath></defs></svg>