<svg width="75" height="76" fill="none" xmlns="http://www.w3.org/2000/svg"><circle cx="37.35" cy="37.737" r="34.2" stroke="#DFB504" stroke-width="6.3"/><path d="M3.6 21.537l64.8 33.3" stroke="#DFB504" stroke-width="3.6"/><path d="M30.653 31.14h3.122v17.556h-3.122V31.14zm0 19.976h14.21V55.1h-14.21v-3.983zm5.544-19.976h3.122v17.556h-3.123V31.14zm5.543 0h3.122v17.556H41.74V31.14zm6.221-3.456l-10.203-4.103-10.203 4.103v1.036H47.96v-1.036zM17.1 55.1h11.132V31.14H17.1V55.1zm4.355-20.455h2.421v6.503h-2.42v-6.503zm0 10.044h2.421v6.503h-2.42v-6.503zM47.283 31.14V55.1h11.134V31.14H47.283zm6.778 20.052H51.64v-6.503h2.42v6.503zm0-10.044H51.64v-6.503h2.42v6.503zm-15.093-19.69v-2.499l5.99.072v-5.144h-8.41v7.571l1.21-.487 1.21.487z" fill="#DFB504"/></svg>