<svg width="74" height="75" fill="none" xmlns="http://www.w3.org/2000/svg"><path d="M52.187 15.75l.015.015 7.538-7.63C58.063 7.263 51.129.055 36.925.039 23.64.026 14.94 7.687 14.061 8.134l7.848 7.944c-1.319 2.836-.542 5.646 1.22 7.432 1.988 2.013 4.932 2.386 7.341 1.235l6.43 6.509 6.121-6.196-.016-.015c-2.526-2.562-2.528-6.728-.002-9.293a6.447 6.447 0 019.184 0zm5.801 6.5c-2.801-1.335-5.577-.548-7.34 1.235-1.99 2.013-2.358 4.993-1.222 7.432l-6.429 6.51 6.12 6.196.016-.017a6.451 6.451 0 019.18-.002c2.531 2.565 2.531 6.735 0 9.298l-.016.015 7.538 7.631C71 52.21 73.797 47.592 73.8 37.426c.004-13.45-7.524-22.231-7.966-23.121l-7.847 7.945zM0 37.426c-.004 13.45 7.523 22.232 7.966 23.122l7.847-7.945c2.8 1.335 5.577.548 7.34-1.235 1.99-2.013 2.358-4.993 1.22-7.432l6.43-6.51-6.12-6.196-.015.016a6.452 6.452 0 01-9.18.003c-2.532-2.565-2.532-6.735 0-9.298l.015-.015-7.538-7.631C2.801 22.643.003 27.26 0 37.426zm50.672 13.917c-1.99-2.014-4.933-2.387-7.342-1.236L36.9 43.6l-6.12 6.195.015.016c2.526 2.561 2.528 6.727.003 9.293a6.446 6.446 0 01-9.184 0l-.015-.016-7.539 7.631c8.248 5.236 12.81 8.066 22.865 8.063 13.26-.005 21.934-7.614 22.815-8.063l-7.848-7.944c1.318-2.836.54-5.646-1.22-7.431z" fill="#DFB504"/></svg>