<svg width="59" height="71" viewBox="0 0 59 71" fill="none" xmlns="http://www.w3.org/2000/svg">
<path d="M7.71163 19.9812C7.71163 15.6564 11.6324 12.1376 16.4518 12.1376C21.2707 12.1376 25.192 15.6564 25.192 19.9812V26.3027C27.6196 25.6364 29.3914 23.6071 29.3914 21.2125V5.91409C29.3914 2.97962 26.7311 0.592529 23.4614 0.592529H9.44224C6.17258 0.592529 3.51221 2.97962 3.51221 5.91409V21.2125C3.51221 23.6071 5.2834 25.6364 7.71163 26.3027V19.9812Z" fill="#DFB504"/>
<path d="M52.5195 0.592529H38.4998C35.2301 0.592529 32.5703 2.97962 32.5703 5.91409V21.2125C32.5703 24.147 35.2301 26.534 38.4998 26.534H52.5195C55.7892 26.534 58.4496 24.147 58.4496 21.2125V5.91409C58.4496 2.97962 55.7892 0.592529 52.5195 0.592529Z" fill="#DFB504"/>
<path d="M41.6596 33.6557C39.3388 33.6557 37.4584 35.3439 37.4584 37.4262V35.5056C37.4584 33.4233 35.5774 31.7351 33.2566 31.7351C30.9364 31.7351 29.0554 33.4227 29.0554 35.5056V33.8903C29.0554 31.9097 27.354 30.2874 25.1919 30.1326C25.0804 30.1252 24.9682 30.1198 24.8542 30.1198C23.1606 30.1198 21.7021 31.0201 21.0373 32.3157C20.7914 32.795 20.653 33.3279 20.653 33.8903V19.9812C20.653 17.8989 18.772 16.2107 16.4518 16.2107C14.1315 16.2107 12.2505 17.8989 12.2505 19.9812V52.3519L12.0685 52.331L9.48037 42.3884C8.95223 40.3607 6.69229 39.1005 4.43294 39.5744C2.06021 39.5744 0.560545 41.2712 1.10002 43.345L4.10114 54.8723C5.67063 63.8915 13.7944 70.7925 13.7944 70.7925H39.3191C43.5842 64.9707 45.8573 58.156 45.8585 51.188L45.8608 37.4262C45.8608 35.3439 43.9798 33.6557 41.6596 33.6557Z" fill="#DFB504"/>
</svg>
