<svg width="75" height="68" viewBox="0 0 75 68" fill="none" xmlns="http://www.w3.org/2000/svg">
<path d="M8.07026 29.3052C3.78129 29.3052 0.289062 32.587 0.289062 36.6176V60.0177C0.289062 64.0483 3.78129 67.3301 8.07026 67.3301H17.4078C19.1602 67.3301 20.7723 66.7744 22.0765 65.85V29.3052H8.07026Z" fill="#DFB504"/>
<path d="M74.9887 40.2739C74.9887 38.516 74.248 36.8779 72.9624 35.6699C74.416 34.1753 75.1568 32.1715 74.9544 30.0861C74.5902 26.3684 71.0264 23.4551 66.837 23.4551H47.6111C48.5635 20.7377 50.0886 15.7565 50.0886 11.7551C50.0886 5.4108 44.3523 0.0551758 40.7511 0.0551758C37.5173 0.0551758 35.2077 1.7663 35.1082 1.8365C34.741 2.11442 34.5262 2.53562 34.5262 2.98013V12.8988L25.5622 31.1479L25.1887 31.3263V62.6764C27.7222 63.7996 30.9281 64.4051 32.9699 64.4051H61.5396C64.9291 64.4051 67.8954 62.2581 68.5925 59.2952C68.9504 57.7712 68.7419 56.2356 68.0292 54.9018C70.3293 53.8137 71.8762 51.5877 71.8762 49.0489C71.8762 48.0134 71.6241 47.0218 71.1448 46.1239C73.4449 45.0358 74.9887 42.8098 74.9887 40.2739Z" fill="#DFB504"/>
</svg>
