<svg width="60" height="71" viewBox="0 0 60 71" fill="none" xmlns="http://www.w3.org/2000/svg">
<path d="M17.189 11.6043C17.189 7.80936 20.5535 4.72194 24.689 4.72194C25.0559 4.72194 25.4163 4.74741 25.7694 4.79434C24.1557 6.66978 23.189 9.0347 23.189 11.6043V21.2396H27.689V11.6043C27.689 9.6837 28.5516 7.94522 29.939 6.69552C31.3263 7.94522 32.189 9.6837 32.189 11.6043V21.2396H27.689V29.4984H23.189V21.2396H17.189V70.7925H59.2935L56.8389 21.2396H47.939V29.4984H43.439V21.2396H36.689V11.6043C36.689 9.0347 35.7222 6.66978 34.1085 4.79434C34.1085 4.79434 34.6167 4.65738 35.8884 4.65738C40.0239 4.65738 43.439 7.80936 43.439 11.6043V21.2396H47.939V11.6043C47.939 5.53241 42.5558 0.592529 35.939 0.592529H35.189C33.3072 0.592529 31.5258 0.993082 29.939 1.70458C28.3521 0.993082 26.5707 0.592529 24.689 0.592529C18.0722 0.592529 12.689 5.53241 12.689 11.6043V21.2396H17.189V11.6043Z" fill="#DFB504"/>
<path d="M12.689 21.2397H3.03907L0.584473 70.7927H12.689V21.2397Z" fill="#DFB504"/>
</svg>
