<svg width="14" height="16" fill="none" xmlns="http://www.w3.org/2000/svg"><path d="M14 3.715h-3.523c.185-.316.291-.682.291-1.074A2.15 2.15 0 008.616.5C7.973.5 7.395.783 7 1.23A2.152 2.152 0 005.384.5a2.15 2.15 0 00-2.152 2.141c0 .392.106.758.291 1.074H0v3.211h1.077V15.5h11.846V6.926H14v-3.21zM8.616 1.567c.595 0 1.08.482 1.08 1.074 0 .593-.485 1.074-1.08 1.074h-1.08V2.641c0-.592.485-1.074 1.08-1.074zM7.54 5.86H6.459V4.783h1.082v1.076zM4.305 2.64c0-.592.484-1.074 1.08-1.074.594 0 1.079.482 1.079 1.074v1.074h-1.08c-.595 0-1.08-.482-1.08-1.074zM1.073 5.86V4.783h4.313v1.076H1.073zm1.077 8.574V6.926h3.236v7.507H2.15zm4.31 0V6.926h1.08v7.507H6.46zm5.39 0H8.614V6.926h3.236v7.507zm1.077-8.574H8.614V4.783h4.313v1.076z" fill="#231F20" fill-opacity=".9"/></svg>