<svg width="24" height="24" fill="none" xmlns="http://www.w3.org/2000/svg"><path d="M6.667 12h10.658v7.613H6.667V12zm5.33 1.903c.47 0 .922.2 1.255.558.333.357.52.84.52 1.346 0 .504-.187.989-.52 1.345a1.718 1.718 0 01-1.256.558c-.471 0-.923-.2-1.256-.558a1.974 1.974 0 01-.52-1.345c0-.505.187-.99.52-1.346a1.719 1.719 0 011.256-.558zm-2.962-.634c0 .336-.124.66-.347.897a1.146 1.146 0 01-.837.372v2.538c.314 0 .615.133.837.371.223.238.347.56.347.897h5.922c0-.336.125-.659.347-.897.222-.238.523-.371.837-.371v-2.538c-.314 0-.615-.134-.837-.372a1.316 1.316 0 01-.347-.897H9.035zM12 10l4-4.846h-3.333V1.5h-1.334v3.654H8L12 10z" fill="#000"/></svg>