<svg width="24" height="24" fill="none" xmlns="http://www.w3.org/2000/svg"><path d="M6.667 12h10.666v7.619H6.667V12zM12 13.905c.472 0 .924.2 1.257.558.334.357.52.841.52 1.347 0 .505-.186.99-.52 1.346a1.72 1.72 0 01-1.257.558c-.471 0-.924-.2-1.257-.558a1.976 1.976 0 01-.52-1.346c0-.506.187-.99.52-1.347A1.72 1.72 0 0112 13.905zm-2.963-.635c0 .337-.125.66-.347.898a1.147 1.147 0 01-.838.372v2.54c.314 0 .616.133.838.371.222.238.347.561.347.898h5.926c0-.337.125-.66.347-.898.222-.238.524-.372.838-.372v-2.54c-.314 0-.616-.133-.838-.371a1.318 1.318 0 01-.347-.898H9.037zM12 1.5L8 6.346h3.333V10h1.334V6.346H16L12 1.5z" fill="#000"/></svg>