<svg width="16" height="13" fill="none" xmlns="http://www.w3.org/2000/svg"><path d="M15.845 1.5c-.578.262-1.2.435-1.845.518A3.224 3.224 0 0015.41.233a6.48 6.48 0 01-2.04.787C12.778.375 11.945 0 11 0a3.214 3.214 0 00-3.202 3.217c0 .256.03.503.082.736A9.146 9.146 0 011.25.593a3.183 3.183 0 00-.435 1.612c0 1.117.563 2.107 1.433 2.67-.533 0-1.028-.15-1.463-.375v.022a3.22 3.22 0 002.58 3.158c-.472.13-.967.147-1.448.053a3.21 3.21 0 003 2.234 6.39 6.39 0 01-3.997 1.38 6.54 6.54 0 01-.765-.044A9.108 9.108 0 005.09 12.75c5.91 0 9.158-4.905 9.158-9.158 0-.142 0-.277-.008-.42.63-.45 1.17-1.02 1.605-1.672z" fill="#000"/></svg>