<svg width="128" height="146" fill="none" xmlns="http://www.w3.org/2000/svg"><path d="M38.58 26.006h4.245v8.828c0 2.361 1.898 4.271 4.245 4.271h16.98c2.347 0 4.246-1.91 4.246-4.271v-8.828h4.245a4.24 4.24 0 003.921-2.636 4.286 4.286 0 00-.92-4.655L58.562 1.344a4.225 4.225 0 00-6.003 0l-16.98 17.37a4.286 4.286 0 00-.921 4.656 4.24 4.24 0 003.922 2.636zm55.186 51.543c-18.757 0-33.961 15.299-33.961 34.172 0 18.872 15.204 34.172 33.96 34.172 18.757 0 33.962-15.3 33.962-34.172 0-18.873-15.205-34.172-33.961-34.172zm7.113 49.544c-.92.463-1.883.827-2.87 1.103v1.18c0 2.359-1.9 4.271-4.245 4.271-2.344 0-4.245-1.912-4.245-4.271v-1.047c-1.767-.448-3.415-1.2-4.811-2.254a4.289 4.289 0 01-.85-5.98 4.23 4.23 0 015.944-.854c1.698 1.282 4.964 1.377 7.28.211.93-.468 1.433-1.032 1.433-1.324 0-.512 0-.59-.565-.894-1.108-.595-3.066-.96-4.96-1.314-2.529-.472-5.143-.96-7.41-2.177-3.308-1.777-5.057-4.692-5.057-8.43 0-3.742 2.23-7.01 6.12-8.967a15.875 15.875 0 012.876-1.107v-1.174c0-2.36 1.9-4.272 4.245-4.272s4.245 1.913 4.245 4.272v1.046c1.768.448 3.415 1.201 4.811 2.254a4.288 4.288 0 01.849 5.98 4.227 4.227 0 01-5.943.855c-1.7-1.284-4.969-1.379-7.287-.213-.936.471-1.426 1.023-1.426 1.326 0 .511 0 .59.565.893 1.108.595 3.067.961 4.96 1.314 2.53.473 5.144.961 7.41 2.177 3.308 1.777 5.057 4.693 5.057 8.431.001 3.739-2.233 7.006-6.126 8.965zM21.6 60.463h76.41c2.345 0 4.245-1.913 4.245-4.272V51.92c0-2.359-1.9-4.272-4.245-4.272H21.6c-2.344 0-4.245 1.913-4.245 4.272v4.271c0 2.36 1.9 4.272 4.245 4.272zM8.863 137.35v4.271c0 2.359 1.901 4.272 4.245 4.272h55.45c-4.606-3.451-8.433-7.804-11.338-12.815H13.108c-2.344 0-4.245 1.913-4.245 4.272zm0-42.715v4.271c0 2.359 1.901 4.272 4.245 4.272h39.064c.935-4.616 2.76-8.868 5.048-12.815H13.108c-2.344 0-4.245 1.913-4.245 4.272zm-4.245 29.9h48.864c-1.284-4.071-2.167-8.321-2.167-12.814H4.618c-2.344 0-4.245 1.912-4.245 4.271v4.272c0 2.359 1.901 4.271 4.245 4.271zm0-42.715h58.908c7.707-7.89 18.403-12.814 30.24-12.814H4.618c-2.344 0-4.245 1.912-4.245 4.271v4.272c0 2.359 1.901 4.271 4.245 4.271z" fill="#3C3C3B"/></svg>