<svg width="94" height="143" fill="none" xmlns="http://www.w3.org/2000/svg"><path d="M83.957 63.182H82.58v-26.91C82.58 16.654 66.62.692 47 .692c-19.618 0-35.58 15.962-35.58 35.58v26.91h-1.378c-5.458 0-9.9 4.44-9.9 9.9v53.814c0 10.806 8.792 19.597 19.597 19.597H74.26c10.805 0 19.596-8.791 19.596-19.597V73.081c0-5.458-4.441-9.9-9.9-9.9zM32.662 36.118c0-7.906 6.432-14.338 14.338-14.338 7.906 0 14.338 6.432 14.338 14.338v27.064H32.662V36.118zM62.66 99.461l-17.417 16.116c-.035.033-.073.061-.11.092-.05.044-.1.088-.152.129a3.788 3.788 0 01-.177.13c-.054.038-.108.077-.164.113a4.84 4.84 0 01-.188.111c-.056.032-.11.064-.167.093-.068.034-.136.064-.204.095-.056.024-.11.05-.166.072a3.62 3.62 0 01-.222.078c-.053.018-.105.038-.16.053-.08.023-.162.041-.244.06-.049.011-.096.024-.145.034a4.415 4.415 0 01-.28.04c-.04.005-.078.012-.117.016a4.207 4.207 0 01-.82-.002c-.04-.004-.08-.012-.121-.018a4.182 4.182 0 01-.294-.044c-.051-.011-.1-.025-.151-.037-.087-.021-.173-.041-.258-.067-.056-.016-.11-.038-.165-.057-.078-.028-.156-.054-.233-.086-.059-.025-.115-.053-.172-.08-.071-.034-.142-.067-.213-.104-.059-.032-.116-.068-.173-.103a4.858 4.858 0 01-.194-.122c-.059-.039-.114-.082-.17-.125a3.923 3.923 0 01-.18-.14c-.054-.046-.106-.095-.158-.144-.038-.035-.077-.066-.113-.102l-7.61-7.61a4.264 4.264 0 116.032-6.031l4.708 4.708 14.405-13.33a4.265 4.265 0 115.793 6.262z" fill="#3C3C3B"/></svg>