<svg width="150" height="150" fill="none" xmlns="http://www.w3.org/2000/svg"><g clip-path="url(#clip0_477_28596)" fill="#3C3C3B"><path d="M122.327 100.477l-16.01-5.571a3.138 3.138 0 00-3.318.834c-7.85 8.572-17.866 13.29-28.2 13.29-10.333 0-20.35-4.718-28.199-13.284a3.135 3.135 0 00-3.318-.834l-16.01 5.571C11.018 106.129.099 121.486.099 138.698v4.57a3.113 3.113 0 003.113 3.112h143.175a3.114 3.114 0 003.113-3.112v-4.57c-.001-17.212-10.919-32.569-27.173-38.221zM65.462 53.005h-6.225a3.114 3.114 0 000 6.225h6.225a3.114 3.114 0 000-6.225zm24.9 0h-6.225a3.114 3.114 0 000 6.225h6.225a3.114 3.114 0 000-6.225z"/><path d="M107.96 64.938a3.104 3.104 0 00-3.772 2.273C99.83 84.778 88.022 96.58 74.8 96.58c-13.222 0-25.031-11.803-29.389-29.37a3.112 3.112 0 00-3.772-2.273 3.116 3.116 0 00-2.272 3.773c5.061 20.393 19.297 34.094 35.433 34.094 16.135 0 30.371-13.701 35.432-34.094a3.115 3.115 0 00-2.272-3.773zM74.8 3.205c-20.574 0-36.69 16.41-36.69 37.35a3.114 3.114 0 006.225 0C44.335 23.1 57.712 9.43 74.8 9.43c17.087 0 30.465 13.67 30.465 31.125a3.113 3.113 0 006.225 0c0-20.94-16.116-37.35-36.69-37.35z"/><path d="M98.312 69.084a3.107 3.107 0 00-4.314.865l-4.376 6.568a3.104 3.104 0 01-2.59 1.388h-1.145c-1.432 0-2.67-.971-3.169-2.801l-1.936-4.626a3.108 3.108 0 00-2.87-1.91h-6.225a3.12 3.12 0 00-2.876 1.917l-2.079 5.067a3.11 3.11 0 01-3.019 2.359h-1.145a3.105 3.105 0 01-2.59-1.388l-4.376-6.567a3.104 3.104 0 00-4.314-.866 3.11 3.11 0 00-.865 4.314l4.376 6.568a9.329 9.329 0 007.769 4.158h1.145c4.295 0 8.018-2.907 8.914-6.623l1.133-2.714h2.098l.971 2.265a9.323 9.323 0 009.057 7.072h1.146a9.32 9.32 0 007.769-4.164l4.376-6.568a3.11 3.11 0 00-.865-4.314z"/><path d="M65.107 67.123a3.111 3.111 0 00-4.202-1.313c-2.21 1.158-9.424 2.758-17.23 2.758a3.114 3.114 0 000 6.225c8.764 0 16.907-1.787 20.119-3.468a3.11 3.11 0 001.313-4.202zm40.818 1.445c-7.806 0-15.021-1.6-17.231-2.758a3.11 3.11 0 00-4.202 1.313 3.111 3.111 0 001.313 4.202c3.212 1.681 11.355 3.468 20.119 3.468a3.114 3.114 0 00.001-6.225zM70.61 44.42c-2.595-2.24-15.898-13.078-22.907-6.069a3.115 3.115 0 000 4.402 3.115 3.115 0 004.4 0c2.024-2.011 9.774 2.359 14.443 6.38.591.51 1.307.76 2.03.76a3.114 3.114 0 002.035-5.472zm31.287-6.062c-7.003-6.997-20.312 3.828-22.908 6.069a3.114 3.114 0 00-.324 4.389 3.113 3.113 0 004.389.323c4.675-4.027 12.437-8.385 14.442-6.38a3.115 3.115 0 004.401 0 3.115 3.115 0 000-4.401z"/><path d="M110.363 22.173c-13.303-6.244-34.63-6.512-35.588-6.518-.903.006-22.23.274-35.532 6.518a3.123 3.123 0 00-1.793 2.95l1.83 42.965c.075 1.725 1.575 3.094 3.243 2.982a3.111 3.111 0 002.976-3.243l-1.737-40.83c12.207-4.88 30.87-5.117 31.007-5.117.199 0 18.855.237 31.069 5.117l-1.737 40.83a3.11 3.11 0 002.975 3.243h.137a3.121 3.121 0 003.113-2.982l1.824-42.965a3.128 3.128 0 00-1.787-2.95zm-31.94 61.995c-1.7-.306-3.3.865-3.58 2.558l-.043.255-.044-.249c-.28-1.693-1.892-2.863-3.58-2.558a3.114 3.114 0 00-2.558 3.58l3.113 18.674a3.11 3.11 0 006.138-.006l3.112-18.675a3.109 3.109 0 00-2.558-3.58z"/><path d="M106.311 21.35C99.681 9.99 87.897 3.206 74.8 3.206c-13.097 0-24.881 6.785-31.511 18.146a3.102 3.102 0 00.255 3.51 3.102 3.102 0 003.368 1.028c12.058-3.81 27.757-4.01 27.857-4.01.155 0 15.836.194 27.919 4.01a3.122 3.122 0 003.368-1.027 3.103 3.103 0 00.255-3.511z"/></g><defs><clipPath id="clip0_477_28596"><path fill="#fff" transform="translate(.1 .093)" d="M0 0h149.4v149.4H0z"/></clipPath></defs></svg>