<svg width="95" height="174" viewBox="0 0 95 174" fill="none" xmlns="http://www.w3.org/2000/svg">
<path d="M76.0005 85.4639H47.4055V107.637L76.0005 85.4639Z" fill="url(#paint0_linear_477_27339)"/>
<path d="M47.4633 155.542C46.2649 155.542 45.2856 154.56 45.2856 153.341V152.241C45.2856 151.03 46.2576 150.041 47.4633 150.041C48.6618 150.041 49.641 151.023 49.641 152.241V153.341C49.641 154.56 48.6618 155.542 47.4633 155.542ZM47.4633 143.455C46.2649 143.455 45.2856 142.473 45.2856 141.254V140.154C45.2856 138.943 46.2576 137.954 47.4633 137.954C48.6618 137.954 49.641 138.936 49.641 140.154V141.254C49.641 142.473 48.6618 143.455 47.4633 143.455ZM47.4633 131.368C46.2649 131.368 45.2856 130.386 45.2856 129.168V128.067C45.2856 126.857 46.2576 125.867 47.4633 125.867C48.6618 125.867 49.641 126.849 49.641 128.067V129.168C49.641 130.386 48.6618 131.368 47.4633 131.368ZM47.4633 119.281C46.2649 119.281 45.2856 118.299 45.2856 117.081V115.981C45.2856 114.77 46.2576 113.78 47.4633 113.78C48.6618 113.78 49.641 114.762 49.641 115.981V117.081C49.641 118.299 48.6618 119.281 47.4633 119.281Z" fill="url(#paint1_linear_477_27339)"/>
<path d="M47.4049 174C51.6103 174 55.0195 170.556 55.0195 166.306C55.0195 162.057 51.6103 158.613 47.4049 158.613C43.1995 158.613 39.7903 162.057 39.7903 166.306C39.7903 170.556 43.1995 174 47.4049 174Z" fill="url(#paint2_linear_477_27339)"/>
<path d="M47.5 95.9859C21.2654 95.9859 0 74.4999 0 47.993C0 21.4861 21.2654 0 47.5 0C73.7346 0 95 21.4861 95 47.993C95 74.4999 73.7346 95.9859 47.5 95.9859Z" fill="url(#paint3_linear_477_27339)"/>
<path d="M47.5 85.9814C68.3778 85.9814 85.3027 68.8809 85.3027 47.7863C85.3027 26.6918 68.3778 9.59131 47.5 9.59131C26.6221 9.59131 9.69727 26.6918 9.69727 47.7863C9.69727 68.8809 26.6221 85.9814 47.5 85.9814Z" fill="url(#paint4_linear_477_27339)"/>
<path d="M35.2569 43.7044C34.9072 44.114 34.4976 44.4237 34.028 44.6336C33.5684 44.8434 33.0638 44.9483 32.5143 44.9483C31.7949 44.9483 31.1355 44.7834 30.536 44.4537C29.9365 44.134 29.2521 43.5745 28.4828 42.7752C27.5136 42.6952 26.6444 42.4155 25.8751 41.9359C25.1057 41.4463 24.5062 40.8119 24.0766 40.0325C23.647 39.2432 23.4322 38.369 23.4322 37.4098C23.4322 36.3907 23.677 35.4715 24.1665 34.6522C24.6561 33.8229 25.3305 33.1785 26.1898 32.7189C27.049 32.2493 28.0132 32.0145 29.0823 32.0145C30.1514 32.0145 31.1155 32.2493 31.9748 32.7189C32.834 33.1785 33.5085 33.8179 33.998 34.6372C34.4876 35.4565 34.7324 36.3807 34.7324 37.4098C34.7324 38.2391 34.5675 39.0084 34.2378 39.7178C33.9081 40.4172 33.4485 41.0167 32.859 41.5163C32.2695 42.0058 31.5851 42.3605 30.8058 42.5803C31.0955 42.8901 31.3803 43.1149 31.6601 43.2548C31.9398 43.3946 32.2396 43.4646 32.5593 43.4646C33.2487 43.4646 33.8482 43.1848 34.3577 42.6253L35.2569 43.7044ZM25.3955 37.4098C25.3955 38.1092 25.5553 38.7437 25.8751 39.3132C26.1948 39.8727 26.6344 40.3123 27.1939 40.632C27.7534 40.9418 28.3829 41.0966 29.0823 41.0966C29.7817 41.0966 30.4111 40.9418 30.9707 40.632C31.5302 40.3123 31.9698 39.8727 32.2895 39.3132C32.6092 38.7437 32.7691 38.1092 32.7691 37.4098C32.7691 36.7104 32.6092 36.081 32.2895 35.5214C31.9698 34.9519 31.5302 34.5123 30.9707 34.2026C30.4111 33.8829 29.7817 33.723 29.0823 33.723C28.3829 33.723 27.7534 33.8829 27.1939 34.2026C26.6344 34.5123 26.1948 34.9519 25.8751 35.5214C25.5553 36.081 25.3955 36.7104 25.3955 37.4098ZM39.5287 32.1643V42.6553H37.5804V33.7979H35.3623V32.1643H39.5287ZM41.7747 37.7095H45.8961V39.2682H41.7747V37.7095ZM59.2743 43.7044C58.9246 44.114 58.5149 44.4237 58.0453 44.6336C57.5857 44.8434 57.0812 44.9483 56.5316 44.9483C55.8123 44.9483 55.1528 44.7834 54.5534 44.4537C53.9539 44.134 53.2695 43.5745 52.5001 42.7752C51.531 42.6952 50.6617 42.4155 49.8924 41.9359C49.123 41.4463 48.5236 40.8119 48.0939 40.0325C47.6643 39.2432 47.4495 38.369 47.4495 37.4098C47.4495 36.3907 47.6943 35.4715 48.1839 34.6522C48.6734 33.8229 49.3479 33.1785 50.2071 32.7189C51.0664 32.2493 52.0305 32.0145 53.0996 32.0145C54.1687 32.0145 55.1328 32.2493 55.9921 32.7189C56.8514 33.1785 57.5258 33.8179 58.0154 34.6372C58.5049 35.4565 58.7497 36.3807 58.7497 37.4098C58.7497 38.2391 58.5849 39.0084 58.2552 39.7178C57.9254 40.4172 57.4658 41.0167 56.8763 41.5163C56.2869 42.0058 55.6024 42.3605 54.8231 42.5803C55.1129 42.8901 55.3976 43.1149 55.6774 43.2548C55.9571 43.3946 56.2569 43.4646 56.5766 43.4646C57.266 43.4646 57.8655 43.1848 58.375 42.6253L59.2743 43.7044ZM49.4128 37.4098C49.4128 38.1092 49.5727 38.7437 49.8924 39.3132C50.2121 39.8727 50.6517 40.3123 51.2112 40.632C51.7708 40.9418 52.4002 41.0966 53.0996 41.0966C53.799 41.0966 54.4285 40.9418 54.988 40.632C55.5475 40.3123 55.9871 39.8727 56.3068 39.3132C56.6266 38.7437 56.7864 38.1092 56.7864 37.4098C56.7864 36.7104 56.6266 36.081 56.3068 35.5214C55.9871 34.9519 55.5475 34.5123 54.988 34.2026C54.4285 33.8829 53.799 33.723 53.0996 33.723C52.4002 33.723 51.7708 33.8829 51.2112 34.2026C50.6517 34.5123 50.2121 34.9519 49.8924 35.5214C49.5727 36.081 49.4128 36.7104 49.4128 37.4098ZM67.5176 41.0067V42.6553H59.7843V41.3514L63.9507 37.3948C64.4203 36.9452 64.735 36.5555 64.8949 36.2258C65.0647 35.8861 65.1497 35.5514 65.1497 35.2217C65.1497 34.7321 64.9848 34.3574 64.6551 34.0977C64.3254 33.8379 63.8408 33.708 63.2013 33.708C62.1323 33.708 61.313 34.0727 60.7435 34.8021L59.3796 33.753C59.7893 33.2034 60.3388 32.7788 61.0282 32.4791C61.7276 32.1693 62.5069 32.0145 63.3662 32.0145C64.5052 32.0145 65.4144 32.2842 66.0938 32.8238C66.7733 33.3633 67.113 34.0977 67.113 35.0269C67.113 35.5964 66.9931 36.1309 66.7533 36.6305C66.5135 37.13 66.0539 37.6996 65.3745 38.339L62.5719 41.0067H67.5176ZM69.9724 40.2723C70.3221 40.2723 70.6119 40.3872 70.8417 40.617C71.0715 40.8468 71.1864 41.1466 71.1864 41.5163C71.1864 41.6761 71.1614 41.846 71.1115 42.0258C71.0715 42.1957 70.9816 42.4554 70.8417 42.8051L70.0774 44.9183H68.8634L69.4629 42.6253C69.2431 42.5354 69.0682 42.3955 68.9383 42.2057C68.8184 42.0058 68.7585 41.776 68.7585 41.5163C68.7585 41.1466 68.8734 40.8468 69.1032 40.617C69.333 40.3872 69.6227 40.2723 69.9724 40.2723ZM37.4703 59.0067V60.6553H29.737V59.3514L33.9034 55.3948C34.373 54.9452 34.6878 54.5555 34.8476 54.2258C35.0175 53.8861 35.1024 53.5514 35.1024 53.2217C35.1024 52.7321 34.9375 52.3574 34.6078 52.0977C34.2781 51.8379 33.7935 51.708 33.1541 51.708C32.085 51.708 31.2657 52.0727 30.6962 52.8021L29.3324 51.753C29.742 51.2034 30.2916 50.7788 30.981 50.4791C31.6804 50.1693 32.4597 50.0145 33.3189 50.0145C34.4579 50.0145 35.3672 50.2842 36.0466 50.8238C36.726 51.3633 37.0657 52.0977 37.0657 53.0269C37.0657 53.5964 36.9458 54.1309 36.706 54.6305C36.4662 55.13 36.0066 55.6996 35.3272 56.339L32.5246 59.0067H37.4703ZM42.9272 60.8051C42.0879 60.8051 41.3385 60.5953 40.6791 60.1757C40.0197 59.7461 39.5001 59.1266 39.1204 58.3173C38.7408 57.498 38.5509 56.5288 38.5509 55.4098C38.5509 54.2908 38.7408 53.3266 39.1204 52.5173C39.5001 51.698 40.0197 51.0786 40.6791 50.6589C41.3385 50.2293 42.0879 50.0145 42.9272 50.0145C43.7664 50.0145 44.5158 50.2293 45.1752 50.6589C45.8446 51.0786 46.3692 51.698 46.7488 52.5173C47.1285 53.3266 47.3184 54.2908 47.3184 55.4098C47.3184 56.5288 47.1285 57.498 46.7488 58.3173C46.3692 59.1266 45.8446 59.7461 45.1752 60.1757C44.5158 60.5953 43.7664 60.8051 42.9272 60.8051ZM42.9272 59.1116C43.6765 59.1116 44.266 58.8019 44.6956 58.1824C45.1352 57.5629 45.3551 56.6387 45.3551 55.4098C45.3551 54.1809 45.1352 53.2567 44.6956 52.6372C44.266 52.0177 43.6765 51.708 42.9272 51.708C42.1878 51.708 41.5983 52.0177 41.1587 52.6372C40.7291 53.2567 40.5142 54.1809 40.5142 55.4098C40.5142 56.6387 40.7291 57.5629 41.1587 58.1824C41.5983 58.8019 42.1878 59.1116 42.9272 59.1116ZM56.1602 59.0067V60.6553H48.4269V59.3514L52.5933 55.3948C53.0629 54.9452 53.3776 54.5555 53.5375 54.2258C53.7074 53.8861 53.7923 53.5514 53.7923 53.2217C53.7923 52.7321 53.6274 52.3574 53.2977 52.0977C52.968 51.8379 52.4834 51.708 51.844 51.708C50.7749 51.708 49.9556 52.0727 49.3861 52.8021L48.0223 51.753C48.4319 51.2034 48.9814 50.7788 49.6709 50.4791C50.3702 50.1693 51.1496 50.0145 52.0088 50.0145C53.1478 50.0145 54.0571 50.2842 54.7365 50.8238C55.4159 51.3633 55.7556 52.0977 55.7556 53.0269C55.7556 53.5964 55.6357 54.1309 55.3959 54.6305C55.1561 55.13 54.6965 55.6996 54.0171 56.339L51.2145 59.0067H56.1602ZM64.8832 59.0067V60.6553H57.1499V59.3514L61.3163 55.3948C61.7858 54.9452 62.1006 54.5555 62.2604 54.2258C62.4303 53.8861 62.5152 53.5514 62.5152 53.2217C62.5152 52.7321 62.3504 52.3574 62.0206 52.0977C61.6909 51.8379 61.2063 51.708 60.5669 51.708C59.4978 51.708 58.6785 52.0727 58.109 52.8021L56.7452 51.753C57.1549 51.2034 57.7044 50.7788 58.3938 50.4791C59.0932 50.1693 59.8725 50.0145 60.7318 50.0145C61.8708 50.0145 62.78 50.2842 63.4594 50.8238C64.1388 51.3633 64.4785 52.0977 64.4785 53.0269C64.4785 53.5964 64.3586 54.1309 64.1188 54.6305C63.879 55.13 63.4194 55.6996 62.74 56.339L59.9374 59.0067H64.8832Z" fill="#3C3C3B"/>
<defs>
<linearGradient id="paint0_linear_477_27339" x1="45.3805" y1="103.679" x2="64.3677" y2="82.9238" gradientUnits="userSpaceOnUse">
<stop stop-color="#FFBE30"/>
<stop offset="1" stop-color="#FFE43A"/>
</linearGradient>
<linearGradient id="paint1_linear_477_27339" x1="45.2879" y1="134.665" x2="49.6383" y2="134.665" gradientUnits="userSpaceOnUse">
<stop stop-color="#FFBF45"/>
<stop offset="1" stop-color="#FFF29B"/>
</linearGradient>
<linearGradient id="paint2_linear_477_27339" x1="39.7835" y1="166.307" x2="55.0191" y2="166.307" gradientUnits="userSpaceOnUse">
<stop stop-color="#FFB700"/>
<stop offset="1" stop-color="#FFE436"/>
</linearGradient>
<linearGradient id="paint3_linear_477_27339" x1="0.00358077" y1="47.9968" x2="94.9966" y2="47.9968" gradientUnits="userSpaceOnUse">
<stop stop-color="#FFA700"/>
<stop offset="1" stop-color="#FFEC76"/>
</linearGradient>
<linearGradient id="paint4_linear_477_27339" x1="20.9924" y1="21.0008" x2="73.9518" y2="73.4162" gradientUnits="userSpaceOnUse">
<stop stop-color="#E5E6E1"/>
<stop offset="0.8446" stop-color="white"/>
</linearGradient>
</defs>
</svg>
