<svg width="95" height="174" viewBox="0 0 95 174" fill="none" xmlns="http://www.w3.org/2000/svg">
<path d="M48.9579 157.755C48.092 157.755 47.3884 157.017 47.3884 156.109V155.288C47.3884 154.38 48.092 153.643 48.9579 153.643C49.8239 153.643 50.5274 154.38 50.5274 155.288V156.109C50.5274 157.017 49.8239 157.755 48.9579 157.755ZM48.9579 148.71C48.092 148.71 47.3884 147.972 47.3884 147.064V146.243C47.3884 145.335 48.092 144.598 48.9579 144.598C49.8239 144.598 50.5274 145.335 50.5274 146.243V147.064C50.5274 147.972 49.8239 148.71 48.9579 148.71ZM48.9579 139.665C48.092 139.665 47.3884 138.927 47.3884 138.019V137.198C47.3884 136.29 48.092 135.553 48.9579 135.553C49.8239 135.553 50.5274 136.29 50.5274 137.198V138.019C50.5274 138.931 49.8239 139.665 48.9579 139.665ZM48.9579 130.62C48.092 130.62 47.3884 129.882 47.3884 128.974V128.153C47.3884 127.246 48.092 126.508 48.9579 126.508C49.8239 126.508 50.5274 127.246 50.5274 128.153V128.974C50.5274 129.886 49.8239 130.62 48.9579 130.62ZM48.9579 121.579C48.092 121.579 47.3884 120.841 47.3884 119.933V119.112C47.3884 118.204 48.092 117.467 48.9579 117.467C49.8239 117.467 50.5274 118.204 50.5274 119.112V119.933C50.5274 120.841 49.8239 121.579 48.9579 121.579Z" fill="url(#paint0_linear_477_27306)"/>
<path d="M79.7127 85.7886H48.395V110.983L79.7127 85.7886Z" fill="url(#paint1_linear_477_27306)"/>
<path d="M47.5 99.1875C21.3743 99.1875 0.19873 76.9819 0.19873 49.5938C0.19873 22.2056 21.3779 0 47.5 0C73.6222 0 94.8014 22.2056 94.8014 49.5938C94.8014 76.9857 73.6258 99.1875 47.5 99.1875Z" fill="url(#paint2_linear_477_27306)"/>
<path d="M48.9613 174C52.3993 174 55.1863 171.078 55.1863 167.475C55.1863 163.871 52.3993 160.95 48.9613 160.95C45.5233 160.95 42.7363 163.871 42.7363 167.475C42.7363 171.078 45.5233 174 48.9613 174Z" fill="url(#paint3_linear_477_27306)"/>
<path d="M46.1147 88.8453C66.9061 88.8453 83.7609 71.1736 83.7609 49.3745C83.7609 27.5755 66.9061 9.90381 46.1147 9.90381C25.3233 9.90381 8.46851 27.5755 8.46851 49.3745C8.46851 71.1736 25.3233 88.8453 46.1147 88.8453Z" fill="url(#paint4_linear_477_27306)"/>
<path d="M24.9658 56.7523C24.5894 57.2428 24.13 57.6166 23.5876 57.8735C23.0563 58.1305 22.4696 58.259 21.8276 58.259C20.9642 58.259 20.1838 58.0604 19.4865 57.6633C18.7891 57.2779 17.9921 56.5888 17.0955 55.596C16.0439 55.4558 15.103 55.0996 14.2728 54.5273C13.4537 53.955 12.8117 53.2192 12.3468 52.3198C11.8929 51.4088 11.666 50.4043 11.666 49.3064C11.666 48.1034 11.9372 47.0231 12.4796 46.0653C13.0331 45.0959 13.7913 44.3367 14.7543 43.7878C15.7284 43.2388 16.8188 42.9644 18.0253 42.9644C19.2319 42.9644 20.3167 43.2388 21.2797 43.7878C22.2427 44.3367 23.001 45.0959 23.5544 46.0653C24.1079 47.0231 24.3846 48.1034 24.3846 49.3064C24.3846 50.7314 24.0027 51.9811 23.2389 53.0556C22.4862 54.1302 21.4845 54.8777 20.2336 55.2981C20.5104 55.6018 20.776 55.8179 21.0306 55.9464C21.2963 56.0865 21.5786 56.1566 21.8774 56.1566C22.5969 56.1566 23.2279 55.8529 23.7703 55.2456L24.9658 56.7523ZM14.3891 49.3064C14.3891 50.0656 14.544 50.7431 14.854 51.3387C15.175 51.9344 15.6122 52.4016 16.1657 52.7403C16.7191 53.0673 17.339 53.2308 18.0253 53.2308C18.7116 53.2308 19.3315 53.0673 19.885 52.7403C20.4384 52.4016 20.8701 51.9344 21.1801 51.3387C21.5011 50.7431 21.6616 50.0656 21.6616 49.3064C21.6616 48.5473 21.5011 47.8698 21.1801 47.2742C20.8701 46.6785 20.4384 46.2172 19.885 45.8901C19.3315 45.5514 18.7116 45.3821 18.0253 45.3821C17.339 45.3821 16.7191 45.5514 16.1657 45.8901C15.6122 46.2172 15.175 46.6785 14.854 47.2742C14.544 47.8698 14.3891 48.5473 14.3891 49.3064Z" fill="#3C3C3B"/>
<path d="M34.1973 53.1257V55.4383H25.4138V53.5987L29.8969 49.1312C30.3728 48.6524 30.6939 48.2436 30.8599 47.9049C31.0259 47.5545 31.1089 47.2099 31.1089 46.8712C31.1089 46.3807 30.9484 46.0069 30.6274 45.75C30.3175 45.4813 29.8581 45.347 29.2493 45.347C28.7401 45.347 28.2807 45.4521 27.8712 45.6624C27.4616 45.8609 27.1185 46.1646 26.8417 46.5734L24.8825 45.2419C25.3363 44.5294 25.9617 43.9747 26.7587 43.5775C27.5557 43.1688 28.4689 42.9644 29.4984 42.9644C30.3618 42.9644 31.1145 43.1162 31.7565 43.4199C32.4096 43.7119 32.9132 44.1323 33.2675 44.6813C33.6327 45.2185 33.8154 45.8551 33.8154 46.5909C33.8154 47.2567 33.6826 47.8815 33.4169 48.4655C33.1512 49.0495 32.6365 49.7152 31.8727 50.4627L29.1995 53.1257H34.1973Z" fill="#3C3C3B"/>
<path d="M37.0135 52.1797C37.4784 52.1797 37.8603 52.3373 38.1591 52.6527C38.458 52.9564 38.6074 53.3593 38.6074 53.8615C38.6074 54.0951 38.5798 54.3287 38.5244 54.5623C38.4691 54.7959 38.3473 55.1463 38.1591 55.6135L37.2127 58.1363H35.5689L36.2995 55.3507C36.0228 55.2339 35.8014 55.047 35.6353 54.7901C35.4804 54.5214 35.4029 54.2119 35.4029 53.8615C35.4029 53.3593 35.5523 52.9564 35.8512 52.6527C36.1611 52.3373 36.5485 52.1797 37.0135 52.1797Z" fill="#3C3C3B"/>
<path d="M53.201 53.1257V55.4383H44.4175V53.5987L48.9006 49.1312C49.3765 48.6524 49.6976 48.2436 49.8636 47.9049C50.0296 47.5545 50.1127 47.2099 50.1127 46.8712C50.1127 46.3807 49.9522 46.0069 49.6311 45.75C49.3212 45.4813 48.8618 45.347 48.253 45.347C47.7438 45.347 47.2845 45.4521 46.8749 45.6624C46.4653 45.8609 46.1222 46.1646 45.8454 46.5734L43.8862 45.2419C44.34 44.5294 44.9654 43.9747 45.7624 43.5775C46.5594 43.1688 47.4726 42.9644 48.5021 42.9644C49.3655 42.9644 50.1182 43.1162 50.7602 43.4199C51.4133 43.7119 51.917 44.1323 52.2712 44.6813C52.6365 45.2185 52.8191 45.8551 52.8191 46.5909C52.8191 47.2567 52.6863 47.8815 52.4206 48.4655C52.1549 49.0495 51.6402 49.7152 50.8764 50.4627L48.2032 53.1257H53.201Z" fill="#3C3C3B"/>
<path d="M59.2596 55.6485C58.2966 55.6485 57.4387 55.3974 56.686 54.8952C55.9333 54.393 55.3411 53.6688 54.9094 52.7228C54.4887 51.765 54.2784 50.6263 54.2784 49.3064C54.2784 47.9866 54.4887 46.8537 54.9094 45.9076C55.3411 44.9499 55.9333 44.2199 56.686 43.7177C57.4387 43.2155 58.2966 42.9644 59.2596 42.9644C60.2226 42.9644 61.0805 43.2155 61.8332 43.7177C62.5859 44.2199 63.1726 44.9499 63.5932 45.9076C64.0249 46.8537 64.2408 47.9866 64.2408 49.3064C64.2408 50.6263 64.0249 51.765 63.5932 52.7228C63.1726 53.6688 62.5859 54.393 61.8332 54.8952C61.0805 55.3974 60.2226 55.6485 59.2596 55.6485ZM59.2596 53.2484C59.968 53.2484 60.5215 52.9272 60.92 52.2848C61.3296 51.6424 61.5343 50.6496 61.5343 49.3064C61.5343 47.9633 61.3296 46.9705 60.92 46.3281C60.5215 45.6857 59.968 45.3645 59.2596 45.3645C58.5622 45.3645 58.0088 45.6857 57.5992 46.3281C57.2007 46.9705 57.0015 47.9633 57.0015 49.3064C57.0015 50.6496 57.2007 51.6424 57.5992 52.2848C58.0088 52.9272 58.5622 53.2484 59.2596 53.2484Z" fill="#3C3C3B"/>
<path d="M74.1343 53.1257V55.4383H65.3508V53.5987L69.8338 49.1312C70.3098 48.6524 70.6308 48.2436 70.7969 47.9049C70.9629 47.5545 71.0459 47.2099 71.0459 46.8712C71.0459 46.3807 70.8854 46.0069 70.5644 45.75C70.2545 45.4813 69.7951 45.347 69.1863 45.347C68.6771 45.347 68.2177 45.4521 67.8082 45.6624C67.3986 45.8609 67.0554 46.1646 66.7787 46.5734L64.8195 45.2419C65.2733 44.5294 65.8987 43.9747 66.6957 43.5775C67.4927 43.1688 68.4059 42.9644 69.4353 42.9644C70.2987 42.9644 71.0515 43.1162 71.6935 43.4199C72.3466 43.7119 72.8502 44.1323 73.2044 44.6813C73.5697 45.2185 73.7524 45.8551 73.7524 46.5909C73.7524 47.2567 73.6195 47.8815 73.3539 48.4655C73.0882 49.0495 72.5735 49.7152 71.8097 50.4627L69.1365 53.1257H74.1343Z" fill="#3C3C3B"/>
<path d="M79.7272 43.1746V55.4383H77.0373V45.4521H74.7128V43.1746H79.7272Z" fill="#3C3C3B"/>
<defs>
<linearGradient id="paint0_linear_477_27306" x1="47.3907" y1="137.61" x2="50.5273" y2="137.61" gradientUnits="userSpaceOnUse">
<stop stop-color="#FFBF45"/>
<stop offset="1" stop-color="#FFF29B"/>
</linearGradient>
<linearGradient id="paint1_linear_477_27306" x1="46.18" y1="106.487" x2="67.8137" y2="83.6971" gradientUnits="userSpaceOnUse">
<stop stop-color="#FFBE30"/>
<stop offset="1" stop-color="#FFE43A"/>
</linearGradient>
<linearGradient id="paint2_linear_477_27306" x1="0.199452" y1="49.5943" x2="94.8027" y2="49.5943" gradientUnits="userSpaceOnUse">
<stop stop-color="#FFA700"/>
<stop offset="1" stop-color="#FFEC76"/>
</linearGradient>
<linearGradient id="paint3_linear_477_27306" x1="42.7379" y1="167.476" x2="55.1839" y2="167.476" gradientUnits="userSpaceOnUse">
<stop stop-color="#FFB700"/>
<stop offset="1" stop-color="#FFE436"/>
</linearGradient>
<linearGradient id="paint4_linear_477_27306" x1="19.7164" y1="21.6957" x2="74.3883" y2="73.8404" gradientUnits="userSpaceOnUse">
<stop stop-color="#E5E6E1"/>
<stop offset="0.8446" stop-color="white"/>
</linearGradient>
</defs>
</svg>
