<svg width="95" height="174" viewBox="0 0 95 174" fill="none" xmlns="http://www.w3.org/2000/svg">
<path d="M76.9622 84.0107H48.397V105.886L76.9622 84.0107Z" fill="url(#paint0_linear_477_29127)"/>
<path d="M47.8083 83.644C67.7931 83.644 83.994 67.4703 83.994 47.519C83.994 27.5678 67.7931 11.394 47.8083 11.394C27.8235 11.394 11.6226 27.5678 11.6226 47.519C11.6226 67.4703 27.8235 83.644 47.8083 83.644Z" fill="#6B6853"/>
<path d="M47.4997 85.5637C26.3161 85.5637 9.08252 68.3591 9.08252 47.211C9.08252 26.063 26.3161 8.8584 47.4997 8.8584C68.6833 8.8584 85.9168 26.063 85.9168 47.211C85.9168 68.3591 68.6833 85.5637 47.4997 85.5637ZM47.4997 10.0856C26.9919 10.0856 10.3118 26.7377 10.3118 47.211C10.3118 67.6844 26.9919 84.3364 47.4997 84.3364C68.0075 84.3364 84.6875 67.6844 84.6875 47.211C84.6875 26.7377 68.0075 10.0856 47.4997 10.0856Z" fill="url(#paint1_linear_477_29127)"/>
<path d="M48.8693 153.481C47.6575 153.481 46.6787 152.503 46.6787 151.294V150.2C46.6787 148.99 47.6575 148.013 48.8693 148.013C50.0811 148.013 51.0599 148.99 51.0599 150.2V151.294C51.0657 152.503 50.0811 153.481 48.8693 153.481ZM48.8693 141.447C47.6575 141.447 46.6787 140.47 46.6787 139.26V138.166C46.6787 136.957 47.6575 135.979 48.8693 135.979C50.0811 135.979 51.0599 136.957 51.0599 138.166V139.26C51.0657 140.464 50.0811 141.447 48.8693 141.447ZM48.8693 129.407C47.6575 129.407 46.6787 128.43 46.6787 127.22V126.127C46.6787 124.917 47.6575 123.94 48.8693 123.94C50.0811 123.94 51.0599 124.917 51.0599 126.127V127.22C51.0657 128.43 50.0811 129.407 48.8693 129.407ZM48.8693 117.373C47.6575 117.373 46.6787 116.396 46.6787 115.186V114.093C46.6787 112.883 47.6575 111.906 48.8693 111.906C50.0811 111.906 51.0599 112.883 51.0599 114.093V115.186C51.0657 116.39 50.0811 117.373 48.8693 117.373Z" fill="url(#paint2_linear_477_29127)"/>
<path d="M48.8113 174C53.0522 174 56.4901 170.568 56.4901 166.334C56.4901 162.101 53.0522 158.668 48.8113 158.668C44.5705 158.668 41.1326 162.101 41.1326 166.334C41.1326 170.568 44.5705 174 48.8113 174Z" fill="url(#paint3_linear_477_29127)"/>
<path d="M47.5 94.8405C21.2652 94.8405 0 73.611 0 47.4202C0 21.2295 21.2652 0 47.5 0C73.7348 0 95 21.2295 95 47.4202C95 73.611 73.7348 94.8405 47.5 94.8405Z" fill="url(#paint4_linear_477_29127)"/>
<path d="M47.4998 84.9468C68.3759 84.9468 85.2993 68.0518 85.2993 47.2107C85.2993 26.3696 68.3759 9.47461 47.4998 9.47461C26.6236 9.47461 9.7002 26.3696 9.7002 47.2107C9.7002 68.0518 26.6236 84.9468 47.4998 84.9468Z" fill="url(#paint5_linear_477_29127)"/>
<path d="M26.2704 55.229C25.8942 55.7004 25.435 56.0596 24.8928 56.3065C24.3616 56.5534 23.7751 56.6769 23.1334 56.6769C22.2703 56.6769 21.4901 56.4861 20.793 56.1045C20.0959 55.7341 19.2992 55.0719 18.4029 54.1179C17.3517 53.9832 16.4111 53.6409 15.5812 53.0909C14.7624 52.541 14.1206 51.8339 13.6559 50.9696C13.2022 50.0942 12.9753 49.129 12.9753 48.0739C12.9753 46.9179 13.2464 45.8797 13.7886 44.9594C14.3419 44.0278 15.0999 43.2983 16.0626 42.7708C17.0363 42.2432 18.1263 41.9795 19.3324 41.9795C20.5385 41.9795 21.6229 42.2432 22.5856 42.7708C23.5483 43.2983 24.3063 44.0278 24.8596 44.9594C25.4128 45.8797 25.6895 46.9179 25.6895 48.0739C25.6895 49.4432 25.3077 50.6442 24.5442 51.6767C23.7917 52.7093 22.7903 53.4276 21.5399 53.8317C21.8166 54.1235 22.0821 54.3311 22.3367 54.4546C22.6022 54.5893 22.8844 54.6566 23.1832 54.6566C23.9024 54.6566 24.5331 54.3648 25.0753 53.7812L26.2704 55.229ZM15.6974 48.0739C15.6974 48.8035 15.8523 49.4545 16.1622 50.0269C16.4831 50.5993 16.9201 51.0482 17.4734 51.3737C18.0267 51.688 18.6463 51.8451 19.3324 51.8451C20.0185 51.8451 20.6381 51.688 21.1914 51.3737C21.7447 51.0482 22.1762 50.5993 22.486 50.0269C22.8069 49.4545 22.9674 48.8035 22.9674 48.0739C22.9674 47.3444 22.8069 46.6934 22.486 46.121C22.1762 45.5486 21.7447 45.1053 21.1914 44.791C20.6381 44.4655 20.0185 44.3028 19.3324 44.3028C18.6463 44.3028 18.0267 44.4655 17.4734 44.791C16.9201 45.1053 16.4831 45.5486 16.1622 46.121C15.8523 46.6934 15.6974 47.3444 15.6974 48.0739Z" fill="#3C3C3B"/>
<path d="M32.1968 46.9796C33.2148 47.148 33.9949 47.5352 34.5371 48.1413C35.0793 48.7361 35.3504 49.4769 35.3504 50.3636C35.3504 51.0482 35.1734 51.6824 34.8193 52.266C34.4652 52.8384 33.923 53.2986 33.1927 53.6465C32.4734 53.9944 31.5882 54.1684 30.537 54.1684C29.7182 54.1684 28.9104 54.0618 28.1137 53.8485C27.328 53.624 26.6586 53.3098 26.1053 52.9057L27.151 50.8181C27.5936 51.1548 28.1026 51.4186 28.678 51.6094C29.2645 51.789 29.862 51.8788 30.4706 51.8788C31.1456 51.8788 31.6767 51.7497 32.064 51.4915C32.4513 51.2222 32.645 50.8462 32.645 50.3636C32.645 49.3983 31.9202 48.9157 30.4706 48.9157H29.2424V47.1143L31.6325 44.3701H26.6862V42.1815H34.8193V43.9492L32.1968 46.9796Z" fill="#3C3C3B"/>
<path d="M38.1355 50.835C38.6003 50.835 38.982 50.9865 39.2808 51.2895C39.5796 51.5813 39.729 51.9686 39.729 52.4512C39.729 52.6756 39.7013 52.9001 39.646 53.1246C39.5906 53.3491 39.4689 53.6858 39.2808 54.1347L38.3347 56.559H36.6915L37.4218 53.8822C37.1452 53.77 36.9239 53.5904 36.7579 53.3435C36.603 53.0853 36.5255 52.7879 36.5255 52.4512C36.5255 51.9686 36.6749 51.5813 36.9737 51.2895C37.2835 50.9865 37.6708 50.835 38.1355 50.835Z" fill="#3C3C3B"/>
<path d="M54.3174 51.7441V53.9664H45.537V52.1986L50.0185 47.9056C50.4943 47.4454 50.8152 47.0526 50.9811 46.7271C51.1471 46.3904 51.2301 46.0593 51.2301 45.7338C51.2301 45.2624 51.0697 44.9033 50.7488 44.6563C50.4389 44.3982 49.9797 44.2691 49.3711 44.2691C48.8621 44.2691 48.4029 44.3701 47.9935 44.5722C47.5841 44.763 47.2411 45.0548 46.9644 45.4476L45.0058 44.1681C45.4595 43.4835 46.0847 42.9503 46.8814 42.5687C47.6781 42.1759 48.591 41.9795 49.6201 41.9795C50.4832 41.9795 51.2357 42.1254 51.8774 42.4172C52.5303 42.6978 53.0338 43.1019 53.3879 43.6294C53.753 44.1457 53.9356 44.7573 53.9356 45.4644C53.9356 46.1042 53.8028 46.7047 53.5373 47.2658C53.2717 47.827 52.7571 48.4668 51.9936 49.1851L49.3213 51.7441H54.3174Z" fill="#3C3C3B"/>
<path d="M60.3738 54.1684C59.4111 54.1684 58.5536 53.9271 57.8011 53.4445C57.0487 52.9618 56.4567 52.266 56.0251 51.3569C55.6047 50.4365 55.3944 49.3422 55.3944 48.0739C55.3944 46.8057 55.6047 45.717 56.0251 44.8079C56.4567 43.8875 57.0487 43.186 57.8011 42.7034C58.5536 42.2208 59.4111 41.9795 60.3738 41.9795C61.3365 41.9795 62.1941 42.2208 62.9465 42.7034C63.699 43.186 64.2854 43.8875 64.7059 44.8079C65.1375 45.717 65.3533 46.8057 65.3533 48.0739C65.3533 49.3422 65.1375 50.4365 64.7059 51.3569C64.2854 52.266 63.699 52.9618 62.9465 53.4445C62.1941 53.9271 61.3365 54.1684 60.3738 54.1684ZM60.3738 51.8619C61.082 51.8619 61.6353 51.5533 62.0336 50.936C62.4431 50.3187 62.6478 49.3647 62.6478 48.0739C62.6478 46.7832 62.4431 45.8292 62.0336 45.2119C61.6353 44.5946 61.082 44.286 60.3738 44.286C59.6767 44.286 59.1234 44.5946 58.714 45.2119C58.3157 45.8292 58.1165 46.7832 58.1165 48.0739C58.1165 49.3647 58.3157 50.3187 58.714 50.936C59.1234 51.5533 59.6767 51.8619 60.3738 51.8619Z" fill="#3C3C3B"/>
<path d="M75.2432 51.7441V53.9664H66.4629V52.1986L70.9443 47.9056C71.4202 47.4454 71.741 47.0526 71.907 46.7271C72.073 46.3904 72.156 46.0593 72.156 45.7338C72.156 45.2624 71.9956 44.9033 71.6747 44.6563C71.3648 44.3982 70.9056 44.2691 70.297 44.2691C69.788 44.2691 69.3288 44.3701 68.9194 44.5722C68.51 44.763 68.1669 45.0548 67.8903 45.4476L65.9317 44.1681C66.3854 43.4835 67.0106 42.9503 67.8073 42.5687C68.604 42.1759 69.5169 41.9795 70.546 41.9795C71.4091 41.9795 72.1615 42.1254 72.8033 42.4172C73.4562 42.6978 73.9597 43.1019 74.3137 43.6294C74.6789 44.1457 74.8615 44.7573 74.8615 45.4644C74.8615 46.1042 74.7287 46.7047 74.4631 47.2658C74.1976 47.827 73.683 48.4668 72.9195 49.1851L70.2472 51.7441H75.2432Z" fill="#3C3C3B"/>
<path d="M80.8342 42.1815V53.9664H78.1453V44.3701H75.8216V42.1815H80.8342Z" fill="#3C3C3B"/>
<defs>
<linearGradient id="paint0_linear_477_29127" x1="46.3775" y1="101.983" x2="65.0942" y2="81.2766" gradientUnits="userSpaceOnUse">
<stop stop-color="#FFBE30"/>
<stop offset="1" stop-color="#FFE43A"/>
</linearGradient>
<linearGradient id="paint1_linear_477_29127" x1="20.349" y1="20.1054" x2="74.5603" y2="74.4079" gradientUnits="userSpaceOnUse">
<stop stop-color="white"/>
<stop offset="1" stop-color="#E6E6E6"/>
</linearGradient>
<linearGradient id="paint2_linear_477_29127" x1="46.6786" y1="132.692" x2="51.0628" y2="132.692" gradientUnits="userSpaceOnUse">
<stop stop-color="#FFBF45"/>
<stop offset="1" stop-color="#FFF29B"/>
</linearGradient>
<linearGradient id="paint3_linear_477_29127" x1="41.1308" y1="166.332" x2="56.4865" y2="166.332" gradientUnits="userSpaceOnUse">
<stop stop-color="#FFB700"/>
<stop offset="1" stop-color="#FFE436"/>
</linearGradient>
<linearGradient id="paint4_linear_477_29127" x1="0.00238869" y1="47.4218" x2="94.9988" y2="47.4218" gradientUnits="userSpaceOnUse">
<stop stop-color="#FFA700"/>
<stop offset="1" stop-color="#FFEC76"/>
</linearGradient>
<linearGradient id="paint5_linear_477_29127" x1="20.9918" y1="20.7468" x2="73.3238" y2="73.1668" gradientUnits="userSpaceOnUse">
<stop stop-color="#E5E6E1"/>
<stop offset="0.8446" stop-color="white"/>
</linearGradient>
</defs>
</svg>
