<svg width="95" height="174" viewBox="0 0 95 174" fill="none" xmlns="http://www.w3.org/2000/svg">
<path d="M76.0005 85.4639H47.4055V107.637L76.0005 85.4639Z" fill="url(#paint0_linear_477_27346)"/>
<path d="M47.4633 155.542C46.2649 155.542 45.2856 154.56 45.2856 153.341V152.241C45.2856 151.03 46.2576 150.041 47.4633 150.041C48.6618 150.041 49.641 151.023 49.641 152.241V153.341C49.641 154.56 48.6618 155.542 47.4633 155.542ZM47.4633 143.455C46.2649 143.455 45.2856 142.473 45.2856 141.254V140.154C45.2856 138.943 46.2576 137.954 47.4633 137.954C48.6618 137.954 49.641 138.936 49.641 140.154V141.254C49.641 142.473 48.6618 143.455 47.4633 143.455ZM47.4633 131.368C46.2649 131.368 45.2856 130.386 45.2856 129.168V128.067C45.2856 126.857 46.2576 125.867 47.4633 125.867C48.6618 125.867 49.641 126.849 49.641 128.067V129.168C49.641 130.386 48.6618 131.368 47.4633 131.368ZM47.4633 119.281C46.2649 119.281 45.2856 118.299 45.2856 117.081V115.981C45.2856 114.77 46.2576 113.78 47.4633 113.78C48.6618 113.78 49.641 114.762 49.641 115.981V117.081C49.641 118.299 48.6618 119.281 47.4633 119.281Z" fill="url(#paint1_linear_477_27346)"/>
<path d="M47.4049 174C51.6103 174 55.0195 170.556 55.0195 166.306C55.0195 162.057 51.6103 158.613 47.4049 158.613C43.1995 158.613 39.7903 162.057 39.7903 166.306C39.7903 170.556 43.1995 174 47.4049 174Z" fill="url(#paint2_linear_477_27346)"/>
<path d="M47.5 95.9859C21.2654 95.9859 0 74.4999 0 47.993C0 21.4861 21.2654 0 47.5 0C73.7346 0 95 21.4861 95 47.993C95 74.4999 73.7346 95.9859 47.5 95.9859Z" fill="url(#paint3_linear_477_27346)"/>
<path d="M47.5 85.9814C68.3778 85.9814 85.3027 68.8809 85.3027 47.7863C85.3027 26.6918 68.3778 9.59131 47.5 9.59131C26.6221 9.59131 9.69727 26.6918 9.69727 47.7863C9.69727 68.8809 26.6221 85.9814 47.5 85.9814Z" fill="url(#paint4_linear_477_27346)"/>
<path d="M27.2146 53.2561C26.8649 53.6658 26.4552 53.9755 25.9856 54.1853C25.526 54.3951 25.0215 54.5 24.472 54.5C23.7526 54.5 23.0931 54.3352 22.4937 54.0055C21.8942 53.6858 21.2098 53.1262 20.4404 52.3269C19.4713 52.247 18.602 51.9672 17.8327 51.4877C17.0634 50.9981 16.4639 50.3636 16.0343 49.5843C15.6046 48.795 15.3898 47.9207 15.3898 46.9616C15.3898 45.9424 15.6346 45.0232 16.1242 44.2039C16.6137 43.3747 17.2882 42.7302 18.1474 42.2706C19.0067 41.801 19.9708 41.5662 21.0399 41.5662C22.109 41.5662 23.0732 41.801 23.9324 42.2706C24.7917 42.7302 25.4661 43.3697 25.9557 44.189C26.4452 45.0083 26.69 45.9325 26.69 46.9616C26.69 47.7908 26.5252 48.5602 26.1955 49.2696C25.8658 49.969 25.4061 50.5684 24.8167 51.068C24.2272 51.5576 23.5428 51.9123 22.7634 52.1321C23.0532 52.4418 23.3379 52.6666 23.6177 52.8065C23.8975 52.9464 24.1972 53.0163 24.5169 53.0163C25.2063 53.0163 25.8058 52.7366 26.3154 52.1771L27.2146 53.2561ZM17.3531 46.9616C17.3531 47.661 17.513 48.2954 17.8327 48.8649C18.1524 49.4244 18.592 49.8641 19.1516 50.1838C19.7111 50.4935 20.3405 50.6484 21.0399 50.6484C21.7393 50.6484 22.3688 50.4935 22.9283 50.1838C23.4878 49.8641 23.9274 49.4244 24.2472 48.8649C24.5669 48.2954 24.7267 47.661 24.7267 46.9616C24.7267 46.2622 24.5669 45.6327 24.2472 45.0732C23.9274 44.5037 23.4878 44.0641 22.9283 43.7543C22.3688 43.4346 21.7393 43.2748 21.0399 43.2748C20.3405 43.2748 19.7111 43.4346 19.1516 43.7543C18.592 44.0641 18.1524 44.5037 17.8327 45.0732C17.513 45.6327 17.3531 46.2622 17.3531 46.9616ZM32.2964 46.0474C33.2655 46.1673 34.0049 46.497 34.5144 47.0365C35.024 47.576 35.2788 48.2505 35.2788 49.0598C35.2788 49.6692 35.1239 50.2237 34.8142 50.7233C34.5045 51.2229 34.0349 51.6225 33.4054 51.9223C32.7859 52.212 32.0266 52.3569 31.1274 52.3569C30.378 52.3569 29.6536 52.252 28.9543 52.0422C28.2648 51.8224 27.6754 51.5226 27.1858 51.143L28.0251 49.6293C28.4047 49.949 28.8643 50.2038 29.4039 50.3936C29.9534 50.5734 30.5179 50.6634 31.0974 50.6634C31.7868 50.6634 32.3263 50.5235 32.716 50.2437C33.1157 49.954 33.3155 49.5643 33.3155 49.0747C33.3155 48.5852 33.1256 48.2055 32.746 47.9357C32.3763 47.656 31.8068 47.5161 31.0375 47.5161H30.0783V46.1822L32.4612 43.3497H27.6953V41.7161H34.8442V43.02L32.2964 46.0474ZM37.7371 49.8241C38.0868 49.8241 38.3766 49.939 38.6064 50.1688C38.8362 50.3986 38.9511 50.6983 38.9511 51.068C38.9511 51.2279 38.9261 51.3977 38.8761 51.5776C38.8362 51.7474 38.7463 52.0072 38.6064 52.3569L37.842 54.4701H36.6281L37.2276 52.1771C37.0078 52.0871 36.8329 51.9473 36.703 51.7574C36.5831 51.5576 36.5232 51.3278 36.5232 51.068C36.5232 50.6983 36.6381 50.3986 36.8679 50.1688C37.0977 49.939 37.3874 49.8241 37.7371 49.8241ZM51.9525 50.5585V52.207H44.2191V50.9032L48.3855 46.9466C48.8551 46.497 49.1699 46.1073 49.3297 45.7776C49.4996 45.4379 49.5845 45.1032 49.5845 44.7735C49.5845 44.2839 49.4196 43.9092 49.0899 43.6494C48.7602 43.3897 48.2756 43.2598 47.6362 43.2598C46.5671 43.2598 45.7478 43.6245 45.1783 44.3538L43.8145 43.3047C44.2241 42.7552 44.7737 42.3306 45.4631 42.0308C46.1625 41.7211 46.9418 41.5662 47.801 41.5662C48.9401 41.5662 49.8493 41.836 50.5287 42.3755C51.2081 42.9151 51.5478 43.6494 51.5478 44.5786C51.5478 45.1481 51.4279 45.6827 51.1881 46.1822C50.9483 46.6818 50.4887 47.2513 49.8093 47.8908L47.0067 50.5585H51.9525ZM57.4093 52.3569C56.57 52.3569 55.8206 52.1471 55.1612 51.7274C54.5018 51.2978 53.9822 50.6784 53.6026 49.8691C53.2229 49.0498 53.033 48.0806 53.033 46.9616C53.033 45.8425 53.2229 44.8784 53.6026 44.0691C53.9822 43.2498 54.5018 42.6303 55.1612 42.2107C55.8206 41.781 56.57 41.5662 57.4093 41.5662C58.2485 41.5662 58.9979 41.781 59.6573 42.2107C60.3267 42.6303 60.8513 43.2498 61.231 44.0691C61.6106 44.8784 61.8005 45.8425 61.8005 46.9616C61.8005 48.0806 61.6106 49.0498 61.231 49.8691C60.8513 50.6784 60.3267 51.2978 59.6573 51.7274C58.9979 52.1471 58.2485 52.3569 57.4093 52.3569ZM57.4093 50.6634C58.1586 50.6634 58.7481 50.3536 59.1777 49.7342C59.6174 49.1147 59.8372 48.1905 59.8372 46.9616C59.8372 45.7326 59.6174 44.8084 59.1777 44.189C58.7481 43.5695 58.1586 43.2598 57.4093 43.2598C56.6699 43.2598 56.0804 43.5695 55.6408 44.189C55.2112 44.8084 54.9963 45.7326 54.9963 46.9616C54.9963 48.1905 55.2112 49.1147 55.6408 49.7342C56.0804 50.3536 56.6699 50.6634 57.4093 50.6634ZM70.6424 50.5585V52.207H62.909V50.9032L67.0754 46.9466C67.545 46.497 67.8598 46.1073 68.0196 45.7776C68.1895 45.4379 68.2744 45.1032 68.2744 44.7735C68.2744 44.2839 68.1095 43.9092 67.7798 43.6494C67.4501 43.3897 66.9655 43.2598 66.3261 43.2598C65.257 43.2598 64.4377 43.6245 63.8682 44.3538L62.5044 43.3047C62.914 42.7552 63.4636 42.3306 64.153 42.0308C64.8524 41.7211 65.6317 41.5662 66.4909 41.5662C67.63 41.5662 68.5392 41.836 69.2186 42.3755C69.898 42.9151 70.2377 43.6494 70.2377 44.5786C70.2377 45.1481 70.1178 45.6827 69.878 46.1822C69.6382 46.6818 69.1786 47.2513 68.4992 47.8908L65.6966 50.5585H70.6424ZM79.3653 50.5585V52.207H71.632V50.9032L75.7984 46.9466C76.268 46.497 76.5827 46.1073 76.7426 45.7776C76.9124 45.4379 76.9973 45.1032 76.9973 44.7735C76.9973 44.2839 76.8325 43.9092 76.5028 43.6494C76.173 43.3897 75.6885 43.2598 75.049 43.2598C73.9799 43.2598 73.1606 43.6245 72.5911 44.3538L71.2273 43.3047C71.637 42.7552 72.1865 42.3306 72.8759 42.0308C73.5753 41.7211 74.3546 41.5662 75.2139 41.5662C76.3529 41.5662 77.2621 41.836 77.9415 42.3755C78.6209 42.9151 78.9606 43.6494 78.9606 44.5786C78.9606 45.1481 78.8407 45.6827 78.6009 46.1822C78.3612 46.6818 77.9015 47.2513 77.2221 47.8908L74.4196 50.5585H79.3653Z" fill="#3C3C3B"/>
<defs>
<linearGradient id="paint0_linear_477_27346" x1="45.3805" y1="103.679" x2="64.3677" y2="82.9238" gradientUnits="userSpaceOnUse">
<stop stop-color="#FFBE30"/>
<stop offset="1" stop-color="#FFE43A"/>
</linearGradient>
<linearGradient id="paint1_linear_477_27346" x1="45.2879" y1="134.665" x2="49.6383" y2="134.665" gradientUnits="userSpaceOnUse">
<stop stop-color="#FFBF45"/>
<stop offset="1" stop-color="#FFF29B"/>
</linearGradient>
<linearGradient id="paint2_linear_477_27346" x1="39.7835" y1="166.307" x2="55.0191" y2="166.307" gradientUnits="userSpaceOnUse">
<stop stop-color="#FFB700"/>
<stop offset="1" stop-color="#FFE436"/>
</linearGradient>
<linearGradient id="paint3_linear_477_27346" x1="0.00358077" y1="47.9968" x2="94.9966" y2="47.9968" gradientUnits="userSpaceOnUse">
<stop stop-color="#FFA700"/>
<stop offset="1" stop-color="#FFEC76"/>
</linearGradient>
<linearGradient id="paint4_linear_477_27346" x1="20.9924" y1="21.0008" x2="73.9518" y2="73.4162" gradientUnits="userSpaceOnUse">
<stop stop-color="#E5E6E1"/>
<stop offset="0.8446" stop-color="white"/>
</linearGradient>
</defs>
</svg>
