<svg width="95" height="174" viewBox="0 0 95 174" fill="none" xmlns="http://www.w3.org/2000/svg">
<path d="M76.0005 85.4644H47.4055V107.637L76.0005 85.4644Z" fill="url(#paint0_linear_477_27332)"/>
<path d="M47.4633 155.541C46.2649 155.541 45.2856 154.559 45.2856 153.341V152.241C45.2856 151.03 46.2576 150.04 47.4633 150.04C48.6618 150.04 49.641 151.022 49.641 152.241V153.341C49.641 154.559 48.6618 155.541 47.4633 155.541ZM47.4633 143.454C46.2649 143.454 45.2856 142.472 45.2856 141.254V140.154C45.2856 138.943 46.2576 137.953 47.4633 137.953C48.6618 137.953 49.641 138.935 49.641 140.154V141.254C49.641 142.472 48.6618 143.454 47.4633 143.454ZM47.4633 131.367C46.2649 131.367 45.2856 130.385 45.2856 129.167V128.067C45.2856 126.856 46.2576 125.867 47.4633 125.867C48.6618 125.867 49.641 126.849 49.641 128.067V129.167C49.641 130.385 48.6618 131.367 47.4633 131.367ZM47.4633 119.281C46.2649 119.281 45.2856 118.299 45.2856 117.08V115.98C45.2856 114.769 46.2576 113.78 47.4633 113.78C48.6618 113.78 49.641 114.762 49.641 115.98V117.08C49.641 118.299 48.6618 119.281 47.4633 119.281Z" fill="url(#paint1_linear_477_27332)"/>
<path d="M47.4049 174C51.6103 174 55.0195 170.556 55.0195 166.306C55.0195 162.057 51.6103 158.613 47.4049 158.613C43.1995 158.613 39.7903 162.057 39.7903 166.306C39.7903 170.556 43.1995 174 47.4049 174Z" fill="url(#paint2_linear_477_27332)"/>
<path d="M47.5 95.9858C21.2654 95.9858 0 74.4998 0 47.9929C0 21.4861 21.2654 0 47.5 0C73.7346 0 95 21.4861 95 47.9929C95 74.4998 73.7346 95.9858 47.5 95.9858Z" fill="url(#paint3_linear_477_27332)"/>
<path d="M47.5 85.9813C68.3778 85.9813 85.3027 68.8808 85.3027 47.7863C85.3027 26.6918 68.3778 9.59131 47.5 9.59131C26.6221 9.59131 9.69727 26.6918 9.69727 47.7863C9.69727 68.8808 26.6221 85.9813 47.5 85.9813Z" fill="url(#paint4_linear_477_27332)"/>
<path d="M25.9073 54.6021C25.5344 55.0509 25.0793 55.3928 24.5419 55.6279C24.0156 55.863 23.4343 55.9806 22.7983 55.9806C21.9429 55.9806 21.1698 55.7989 20.4789 55.4356C19.788 55.0829 18.9985 54.4525 18.1102 53.5442C17.0684 53.4159 16.1362 53.09 15.3138 52.5664C14.5023 52.0428 13.8662 51.3696 13.4056 50.5468C12.956 49.7132 12.7312 48.7943 12.7312 47.7898C12.7312 46.6891 12.9999 45.7007 13.5372 44.8244C14.0855 43.9375 14.8367 43.2429 15.7908 42.7407C16.7558 42.2384 17.836 41.9873 19.0314 41.9873C20.2267 41.9873 21.3014 42.2384 22.2555 42.7407C23.2095 43.2429 23.9607 43.9375 24.509 44.8244C25.0574 45.7007 25.3315 46.6891 25.3315 47.7898C25.3315 49.0935 24.9532 50.2369 24.1965 51.22C23.4508 52.2031 22.4583 52.887 21.2191 53.2717C21.4933 53.5495 21.7565 53.7472 22.0087 53.8647C22.2719 53.993 22.5516 54.0571 22.8476 54.0571C23.5605 54.0571 24.1855 53.7793 24.7229 53.2236L25.9073 54.6021ZM15.4289 47.7898C15.4289 48.4844 15.5824 49.1042 15.8895 49.6491C16.2075 50.1941 16.6407 50.6216 17.189 50.9314C17.7373 51.2307 18.3514 51.3803 19.0314 51.3803C19.7113 51.3803 20.3254 51.2307 20.8737 50.9314C21.422 50.6216 21.8497 50.1941 22.1568 49.6491C22.4748 49.1042 22.6338 48.4844 22.6338 47.7898C22.6338 47.0952 22.4748 46.4754 22.1568 45.9304C21.8497 45.3854 21.422 44.9633 20.8737 44.6641C20.3254 44.3542 19.7113 44.1993 19.0314 44.1993C18.3514 44.1993 17.7373 44.3542 17.189 44.6641C16.6407 44.9633 16.2075 45.3854 15.8895 45.9304C15.5824 46.4754 15.4289 47.0952 15.4289 47.7898Z" fill="#3C3C3B"/>
<path d="M37.1546 51.0437H35.2794V53.3999H32.6803V51.0437H26.4789V49.2965L31.9072 42.1797H34.7036L29.6701 48.9278H32.7626V46.828H35.2794V48.9278H37.1546V51.0437Z" fill="#3C3C3B"/>
<path d="M39.8027 50.4185C40.2633 50.4185 40.6416 50.5628 40.9377 50.8513C41.2338 51.1291 41.3819 51.4978 41.3819 51.9573C41.3819 52.171 41.3545 52.3847 41.2996 52.5985C41.2448 52.8122 41.1242 53.1328 40.9377 53.5602L40.0001 55.8684H38.3716L39.0954 53.3198C38.8212 53.2129 38.6019 53.0419 38.4374 52.8068C38.2839 52.5611 38.2071 52.2779 38.2071 51.9573C38.2071 51.4978 38.3552 51.1291 38.6513 50.8513C38.9583 50.5628 39.3421 50.4185 39.8027 50.4185Z" fill="#3C3C3B"/>
<path d="M55.8397 51.2841V53.3999H47.1379V51.7169L51.5793 47.6295C52.0508 47.1914 52.3689 46.8174 52.5333 46.5075C52.6978 46.1869 52.7801 45.8716 52.7801 45.5618C52.7801 45.1129 52.6211 44.771 52.3031 44.5359C51.996 44.2901 51.5409 44.1672 50.9377 44.1672C50.4333 44.1672 49.9782 44.2634 49.5724 44.4558C49.1667 44.6374 48.8267 44.9153 48.5526 45.2893L46.6115 44.0711C47.0611 43.4192 47.6807 42.9116 48.4703 42.5483C49.2599 42.1743 50.1646 41.9873 51.1845 41.9873C52.0399 41.9873 52.7856 42.1262 53.4216 42.4041C54.0686 42.6712 54.5676 43.0559 54.9185 43.5581C55.2804 44.0497 55.4614 44.6321 55.4614 45.3053C55.4614 45.9144 55.3298 46.4861 55.0666 47.0204C54.8034 47.5547 54.2934 48.1638 53.5368 48.8477L50.8884 51.2841H55.8397Z" fill="#3C3C3B"/>
<path d="M61.842 53.5923C60.8879 53.5923 60.038 53.3625 59.2923 52.903C58.5466 52.4435 57.9599 51.781 57.5322 50.9154C57.1155 50.0392 56.9071 48.9973 56.9071 47.7898C56.9071 46.5823 57.1155 45.5457 57.5322 44.6802C57.9599 43.8039 58.5466 43.136 59.2923 42.6765C60.038 42.2171 60.8879 41.9873 61.842 41.9873C62.796 41.9873 63.6459 42.2171 64.3916 42.6765C65.1374 43.136 65.7186 43.8039 66.1353 44.6802C66.563 45.5457 66.7768 46.5823 66.7768 47.7898C66.7768 48.9973 66.563 50.0392 66.1353 50.9154C65.7186 51.781 65.1374 52.4435 64.3916 52.903C63.6459 53.3625 62.796 53.5923 61.842 53.5923ZM61.842 51.3963C62.5438 51.3963 63.0921 51.1024 63.4869 50.5147C63.8927 49.927 64.0955 49.0187 64.0955 47.7898C64.0955 46.5609 63.8927 45.6526 63.4869 45.0649C63.0921 44.4771 62.5438 44.1833 61.842 44.1833C61.1511 44.1833 60.6028 44.4771 60.197 45.0649C59.8022 45.6526 59.6048 46.5609 59.6048 47.7898C59.6048 49.0187 59.8022 49.927 60.197 50.5147C60.6028 51.1024 61.1511 51.3963 61.842 51.3963Z" fill="#3C3C3B"/>
<path d="M76.5783 51.2841V53.3999H67.8765V51.7169L72.3179 47.6295C72.7894 47.1914 73.1074 46.8174 73.2719 46.5075C73.4364 46.1869 73.5187 45.8716 73.5187 45.5618C73.5187 45.1129 73.3597 44.771 73.0416 44.5359C72.7346 44.2901 72.2795 44.1672 71.6763 44.1672C71.1719 44.1672 70.7168 44.2634 70.311 44.4558C69.9053 44.6374 69.5653 44.9153 69.2911 45.2893L67.3501 44.0711C67.7997 43.4192 68.4193 42.9116 69.2089 42.5483C69.9985 42.1743 70.9032 41.9873 71.9231 41.9873C72.7784 41.9873 73.5242 42.1262 74.1602 42.4041C74.8072 42.6712 75.3062 43.0559 75.6571 43.5581C76.019 44.0497 76.1999 44.6321 76.1999 45.3053C76.1999 45.9144 76.0683 46.4861 75.8051 47.0204C75.542 47.5547 75.032 48.1638 74.2754 48.8477L71.627 51.2841H76.5783Z" fill="#3C3C3B"/>
<path d="M82.1192 42.1797V53.3999H79.4544V44.2634H77.1514V42.1797H82.1192Z" fill="#3C3C3B"/>
<defs>
<linearGradient id="paint0_linear_477_27332" x1="45.3805" y1="103.68" x2="64.3677" y2="82.9242" gradientUnits="userSpaceOnUse">
<stop stop-color="#FFBE30"/>
<stop offset="1" stop-color="#FFE43A"/>
</linearGradient>
<linearGradient id="paint1_linear_477_27332" x1="45.2879" y1="134.664" x2="49.6383" y2="134.664" gradientUnits="userSpaceOnUse">
<stop stop-color="#FFBF45"/>
<stop offset="1" stop-color="#FFF29B"/>
</linearGradient>
<linearGradient id="paint2_linear_477_27332" x1="39.7835" y1="166.307" x2="55.0191" y2="166.307" gradientUnits="userSpaceOnUse">
<stop stop-color="#FFB700"/>
<stop offset="1" stop-color="#FFE436"/>
</linearGradient>
<linearGradient id="paint3_linear_477_27332" x1="0.00358077" y1="47.9967" x2="94.9966" y2="47.9967" gradientUnits="userSpaceOnUse">
<stop stop-color="#FFA700"/>
<stop offset="1" stop-color="#FFEC76"/>
</linearGradient>
<linearGradient id="paint4_linear_477_27332" x1="20.9924" y1="21.0008" x2="73.9518" y2="73.4162" gradientUnits="userSpaceOnUse">
<stop stop-color="#E5E6E1"/>
<stop offset="0.8446" stop-color="white"/>
</linearGradient>
</defs>
</svg>
