<svg width="95" height="174" viewBox="0 0 95 174" fill="none" xmlns="http://www.w3.org/2000/svg">
<path d="M76.0005 85.4639H47.4055V107.637L76.0005 85.4639Z" fill="url(#paint0_linear_477_27313)"/>
<path d="M47.4633 155.541C46.2649 155.541 45.2856 154.559 45.2856 153.341V152.241C45.2856 151.03 46.2576 150.04 47.4633 150.04C48.6618 150.04 49.641 151.022 49.641 152.241V153.341C49.641 154.559 48.6618 155.541 47.4633 155.541ZM47.4633 143.454C46.2649 143.454 45.2856 142.472 45.2856 141.254V140.154C45.2856 138.943 46.2576 137.953 47.4633 137.953C48.6618 137.953 49.641 138.935 49.641 140.154V141.254C49.641 142.472 48.6618 143.454 47.4633 143.454ZM47.4633 131.367C46.2649 131.367 45.2856 130.385 45.2856 129.167V128.067C45.2856 126.856 46.2576 125.867 47.4633 125.867C48.6618 125.867 49.641 126.849 49.641 128.067V129.167C49.641 130.385 48.6618 131.367 47.4633 131.367ZM47.4633 119.281C46.2649 119.281 45.2856 118.299 45.2856 117.08V115.98C45.2856 114.769 46.2576 113.78 47.4633 113.78C48.6618 113.78 49.641 114.762 49.641 115.98V117.08C49.641 118.299 48.6618 119.281 47.4633 119.281Z" fill="url(#paint1_linear_477_27313)"/>
<path d="M47.4049 174C51.6103 174 55.0195 170.556 55.0195 166.306C55.0195 162.057 51.6103 158.613 47.4049 158.613C43.1995 158.613 39.7903 162.057 39.7903 166.306C39.7903 170.556 43.1995 174 47.4049 174Z" fill="url(#paint2_linear_477_27313)"/>
<path d="M47.5 95.9858C21.2654 95.9858 0 74.4998 0 47.9929C0 21.4861 21.2654 0 47.5 0C73.7346 0 95 21.4861 95 47.9929C95 74.4998 73.7346 95.9858 47.5 95.9858Z" fill="url(#paint3_linear_477_27313)"/>
<path d="M47.5 85.9813C68.3778 85.9813 85.3027 68.8808 85.3027 47.7863C85.3027 26.6918 68.3778 9.59131 47.5 9.59131C26.6221 9.59131 9.69727 26.6918 9.69727 47.7863C9.69727 68.8808 26.6221 85.9813 47.5 85.9813Z" fill="url(#paint4_linear_477_27313)"/>
<path d="M26.2559 53.2561C25.9062 53.6658 25.4965 53.9755 25.027 54.1853C24.5674 54.3951 24.0628 54.5 23.5133 54.5C22.7939 54.5 22.1345 54.3352 21.535 54.0055C20.9355 53.6858 20.2511 53.1262 19.4817 52.3269C18.5126 52.247 17.6433 51.9672 16.874 51.4877C16.1047 50.9981 15.5052 50.3636 15.0756 49.5843C14.6459 48.795 14.4311 47.9207 14.4311 46.9616C14.4311 45.9424 14.6759 45.0232 15.1655 44.2039C15.6551 43.3747 16.3295 42.7302 17.1887 42.2706C18.048 41.801 19.0122 41.5662 20.0812 41.5662C21.1503 41.5662 22.1145 41.801 22.9737 42.2706C23.833 42.7302 24.5074 43.3697 24.997 44.189C25.4866 45.0083 25.7313 45.9325 25.7313 46.9616C25.7313 47.7908 25.5665 48.5602 25.2368 49.2696C24.9071 49.969 24.4475 50.5684 23.858 51.068C23.2685 51.5576 22.5841 51.9123 21.8047 52.1321C22.0945 52.4418 22.3792 52.6666 22.659 52.8065C22.9388 52.9464 23.2385 53.0163 23.5582 53.0163C24.2476 53.0163 24.8471 52.7366 25.3567 52.1771L26.2559 53.2561ZM16.3944 46.9616C16.3944 47.661 16.5543 48.2954 16.874 48.8649C17.1937 49.4244 17.6333 49.8641 18.1929 50.1838C18.7524 50.4935 19.3818 50.6484 20.0812 50.6484C20.7806 50.6484 21.4101 50.4935 21.9696 50.1838C22.5291 49.8641 22.9687 49.4244 23.2885 48.8649C23.6082 48.2954 23.768 47.661 23.768 46.9616C23.768 46.2622 23.6082 45.6327 23.2885 45.0732C22.9687 44.5037 22.5291 44.0641 21.9696 43.7543C21.4101 43.4346 20.7806 43.2748 20.0812 43.2748C19.3818 43.2748 18.7524 43.4346 18.1929 43.7543C17.6333 44.0641 17.1937 44.5037 16.874 45.0732C16.5543 45.6327 16.3944 46.2622 16.3944 46.9616ZM36.3991 49.8241H34.5407V52.207H32.6523V49.8241H26.8973V48.4753L32.0678 41.7161H34.151L29.2802 48.1755H32.7123V46.0623H34.5407V48.1755H36.3991V49.8241ZM38.6957 49.8241C39.0454 49.8241 39.3352 49.939 39.565 50.1688C39.7948 50.3986 39.9097 50.6983 39.9097 51.068C39.9097 51.2279 39.8847 51.3977 39.8347 51.5776C39.7948 51.7474 39.7048 52.0072 39.565 52.3569L38.8006 54.4701H37.5867L38.1862 52.1771C37.9664 52.0871 37.7915 51.9473 37.6616 51.7574C37.5417 51.5576 37.4818 51.3278 37.4818 51.068C37.4818 50.6983 37.5967 50.3986 37.8265 50.1688C38.0563 49.939 38.346 49.8241 38.6957 49.8241ZM52.9111 50.5585V52.207H45.1777V50.9032L49.3441 46.9466C49.8137 46.497 50.1285 46.1073 50.2883 45.7776C50.4582 45.4379 50.5431 45.1032 50.5431 44.7735C50.5431 44.2839 50.3782 43.9092 50.0485 43.6494C49.7188 43.3897 49.2342 43.2598 48.5948 43.2598C47.5257 43.2598 46.7064 43.6245 46.1369 44.3538L44.7731 43.3047C45.1827 42.7552 45.7323 42.3306 46.4217 42.0308C47.1211 41.7211 47.9004 41.5662 48.7596 41.5662C49.8987 41.5662 50.8079 41.836 51.4873 42.3755C52.1667 42.9151 52.5064 43.6494 52.5064 44.5786C52.5064 45.1481 52.3865 45.6827 52.1467 46.1822C51.9069 46.6818 51.4473 47.2513 50.7679 47.8908L47.9653 50.5585H52.9111ZM58.3679 52.3569C57.5286 52.3569 56.7792 52.1471 56.1198 51.7274C55.4604 51.2978 54.9408 50.6784 54.5611 49.8691C54.1815 49.0498 53.9916 48.0806 53.9916 46.9616C53.9916 45.8425 54.1815 44.8784 54.5611 44.0691C54.9408 43.2498 55.4604 42.6303 56.1198 42.2107C56.7792 41.781 57.5286 41.5662 58.3679 41.5662C59.2071 41.5662 59.9565 41.781 60.6159 42.2107C61.2853 42.6303 61.8099 43.2498 62.1895 44.0691C62.5692 44.8784 62.7591 45.8425 62.7591 46.9616C62.7591 48.0806 62.5692 49.0498 62.1895 49.8691C61.8099 50.6784 61.2853 51.2978 60.6159 51.7274C59.9565 52.1471 59.2071 52.3569 58.3679 52.3569ZM58.3679 50.6634C59.1172 50.6634 59.7067 50.3536 60.1363 49.7342C60.5759 49.1147 60.7958 48.1905 60.7958 46.9616C60.7958 45.7326 60.5759 44.8084 60.1363 44.189C59.7067 43.5695 59.1172 43.2598 58.3679 43.2598C57.6285 43.2598 57.039 43.5695 56.5994 44.189C56.1698 44.8084 55.9549 45.7326 55.9549 46.9616C55.9549 48.1905 56.1698 49.1147 56.5994 49.7342C57.039 50.3536 57.6285 50.6634 58.3679 50.6634ZM71.6009 50.5585V52.207H63.8676V50.9032L68.034 46.9466C68.5036 46.497 68.8184 46.1073 68.9782 45.7776C69.1481 45.4379 69.233 45.1032 69.233 44.7735C69.233 44.2839 69.0681 43.9092 68.7384 43.6494C68.4087 43.3897 67.9241 43.2598 67.2847 43.2598C66.2156 43.2598 65.3963 43.6245 64.8268 44.3538L63.463 43.3047C63.8726 42.7552 64.4222 42.3306 65.1116 42.0308C65.811 41.7211 66.5903 41.5662 67.4495 41.5662C68.5886 41.5662 69.4978 41.836 70.1772 42.3755C70.8566 42.9151 71.1963 43.6494 71.1963 44.5786C71.1963 45.1481 71.0764 45.6827 70.8366 46.1822C70.5968 46.6818 70.1372 47.2513 69.4578 47.8908L66.6552 50.5585H71.6009ZM80.3239 50.5585V52.207H72.5906V50.9032L76.757 46.9466C77.2266 46.497 77.5413 46.1073 77.7011 45.7776C77.871 45.4379 77.9559 45.1032 77.9559 44.7735C77.9559 44.2839 77.7911 43.9092 77.4613 43.6494C77.1316 43.3897 76.6471 43.2598 76.0076 43.2598C74.9385 43.2598 74.1192 43.6245 73.5497 44.3538L72.1859 43.3047C72.5956 42.7552 73.1451 42.3306 73.8345 42.0308C74.5339 41.7211 75.3132 41.5662 76.1725 41.5662C77.3115 41.5662 78.2207 41.836 78.9001 42.3755C79.5795 42.9151 79.9192 43.6494 79.9192 44.5786C79.9192 45.1481 79.7993 45.6827 79.5595 46.1822C79.3197 46.6818 78.8601 47.2513 78.1807 47.8908L75.3782 50.5585H80.3239Z" fill="#3C3C3B"/>
<defs>
<linearGradient id="paint0_linear_477_27313" x1="45.3805" y1="103.679" x2="64.3677" y2="82.9238" gradientUnits="userSpaceOnUse">
<stop stop-color="#FFBE30"/>
<stop offset="1" stop-color="#FFE43A"/>
</linearGradient>
<linearGradient id="paint1_linear_477_27313" x1="45.2879" y1="134.664" x2="49.6383" y2="134.664" gradientUnits="userSpaceOnUse">
<stop stop-color="#FFBF45"/>
<stop offset="1" stop-color="#FFF29B"/>
</linearGradient>
<linearGradient id="paint2_linear_477_27313" x1="39.7835" y1="166.307" x2="55.0191" y2="166.307" gradientUnits="userSpaceOnUse">
<stop stop-color="#FFB700"/>
<stop offset="1" stop-color="#FFE436"/>
</linearGradient>
<linearGradient id="paint3_linear_477_27313" x1="0.00358077" y1="47.9968" x2="94.9966" y2="47.9968" gradientUnits="userSpaceOnUse">
<stop stop-color="#FFA700"/>
<stop offset="1" stop-color="#FFEC76"/>
</linearGradient>
<linearGradient id="paint4_linear_477_27313" x1="20.9924" y1="21.0008" x2="73.9518" y2="73.4162" gradientUnits="userSpaceOnUse">
<stop stop-color="#E5E6E1"/>
<stop offset="0.8446" stop-color="white"/>
</linearGradient>
</defs>
</svg>
