<svg width="14" height="14" viewBox="0 0 14 14" fill="none" xmlns="http://www.w3.org/2000/svg">
<path d="M0.265011 9.715C0.205011 11.53 0.505011 12.97 0.767511 13.2325C1.03001 13.495 2.47751 13.8025 4.28501 13.735L0.265011 9.715ZM7.81001 0.459999C6.06251 0.774999 4.21751 1.465 2.84501 2.845C1.47251 4.225 0.775011 6.0625 0.460011 7.81L6.18251 13.5325C7.93751 13.225 9.77501 12.5275 11.1475 11.1475C12.52 9.7675 13.2175 7.93 13.5325 6.1825L7.81001 0.459999ZM5.42501 9.625L4.37501 8.575L8.57501 4.375L9.62501 5.425L5.42501 9.625ZM13.735 4.285C13.795 2.47 13.495 1.03 13.2325 0.767499C12.97 0.504999 11.5225 0.197499 9.71501 0.264999L13.735 4.285Z" fill="#231F20"/>
</svg>
