<svg width="18" height="16" viewBox="0 0 18 16" fill="none" xmlns="http://www.w3.org/2000/svg">
<path d="M6.58965 14.4067H1.29758C1.03282 14.4067 0.818176 14.6209 0.818176 14.8852C0.818176 15.1494 1.03282 15.3636 1.29758 15.3636H6.58965C6.85441 15.3636 7.06905 15.1494 7.06905 14.8852C7.06905 14.6209 6.85441 14.4067 6.58965 14.4067Z" fill="#231F20"/>
<path d="M1.29758 13.4498H4.67204C4.93679 13.4498 5.15144 13.2356 5.15144 12.9714C5.15144 12.7071 4.93679 12.4929 4.67204 12.4929H1.29758C1.03282 12.4929 0.818176 12.7071 0.818176 12.9714C0.818176 13.2356 1.03282 13.4498 1.29758 13.4498Z" fill="#231F20"/>
<path d="M1.29758 11.5359H2.75442C3.01918 11.5359 3.23383 11.3217 3.23383 11.0575C3.23383 10.7933 3.01918 10.579 2.75442 10.579H1.29758C1.03282 10.579 0.818176 10.7933 0.818176 11.0575C0.818176 11.3217 1.03282 11.5359 1.29758 11.5359Z" fill="#231F20"/>
<path d="M17.1818 12.0144C17.1818 11.3754 16.9325 10.7746 16.4797 10.3228C16.027 9.87095 15.4251 9.62212 14.7848 9.62212C13.3705 9.62212 12.7517 9.18571 12.3706 8.80546C11.9714 8.40681 12.0744 7.54677 12.1732 7.13329L14.8361 4.4756C14.926 4.38587 14.9766 4.26419 14.9766 4.1373C14.9766 4.01041 14.926 3.88873 14.8361 3.799L11.8077 0.7765C11.6205 0.589647 11.317 0.589647 11.1297 0.7765L4.89876 6.99515L3.95907 7.50901C3.91918 7.53083 3.88262 7.55819 3.85047 7.59028C3.28969 8.14991 3.28969 9.06054 3.85047 9.62021L8.90306 14.6628C9.35574 15.1147 9.95772 15.3635 10.598 15.3636H15.7436C16.5244 15.3636 17.1688 14.7303 17.1813 13.9525C17.1816 13.9449 17.1818 13.9373 17.1818 13.9282C17.1818 13.9214 17.1817 13.9146 17.1815 13.9074C17.1815 13.9074 17.1818 12.0307 17.1818 12.0144ZM13.011 10.3115V10.8945C13.011 11.1587 13.2256 11.373 13.4904 11.373C13.7552 11.373 13.9698 11.1587 13.9698 10.8945V10.5314C14.2255 10.5632 14.4966 10.5791 14.7848 10.5791C15.1689 10.5791 15.5301 10.7284 15.8017 10.9995C16.0734 11.2706 16.223 11.631 16.223 12.0154C16.223 12.0245 16.2229 12.2146 16.2229 12.4929H10.9572L5.86626 7.38282L8.69097 4.5637C8.95554 4.92477 8.99574 5.19934 9.03742 5.48594C9.08626 5.82178 9.14164 6.20241 9.52069 6.58071C10.0019 7.06092 10.6803 7.24748 11.1664 7.31963C11.1496 7.44049 11.136 7.57452 11.1298 7.71599C11.106 8.25795 11.2002 8.72502 11.4034 9.09388L11.0237 9.47284C10.8365 9.6597 10.8365 9.96262 11.0237 10.1495C11.1173 10.2429 11.24 10.2896 11.3627 10.2896C11.4854 10.2896 11.6081 10.2429 11.7017 10.1495L12.0541 9.79781C12.3404 10.0155 12.6573 10.1861 13.011 10.3115ZM11.4687 1.79146L13.8192 4.13724L11.5523 6.39963C11.2357 6.37574 10.5762 6.28084 10.1987 5.90408C10.0507 5.75636 10.0279 5.63442 9.98629 5.34843C9.93234 4.97756 9.86161 4.49126 9.37441 3.88158L11.4687 1.79146ZM16.2227 13.9353C16.2189 14.1952 16.004 14.4066 15.7436 14.4066H10.598C10.2138 14.4066 9.85263 14.2573 9.581 13.9862L4.52841 8.94358C4.43786 8.85321 4.38801 8.73306 4.38801 8.60525C4.38801 8.49664 4.42403 8.39358 4.49041 8.30959L5.1035 7.97432L10.4178 13.3086C10.5078 13.399 10.6302 13.4497 10.7578 13.4497H16.2228L16.2227 13.9143C16.2227 13.9164 16.2227 13.9186 16.2227 13.9208C16.2227 13.9234 16.2228 13.9261 16.2229 13.9289L16.2227 13.9353Z" fill="#231F20"/>
</svg>
