<svg width="16" height="16" viewBox="0 0 16 16" fill="none" xmlns="http://www.w3.org/2000/svg">
<path d="M8 0.499992C3.86 0.499992 0.5 3.85999 0.5 7.99999C0.5 12.14 3.86 15.5 8 15.5C12.14 15.5 15.5 12.14 15.5 7.99999C15.5 3.85999 12.14 0.499992 8 0.499992ZM8.75 2.97499L9.7625 2.26249C11.1192 2.6829 12.2831 3.57041 13.0475 4.76749L12.755 5.77249L11.7425 6.11749L8.75 4.02499V2.97499ZM6.2375 2.26249L7.25 2.97499V4.02499L4.2575 6.11749L3.245 5.77249L2.9525 4.76749C3.7214 3.57452 4.88358 2.68828 6.2375 2.26249ZM4.31 11.8325L3.455 11.9075C2.51483 10.823 1.99812 9.4353 2 7.99999C2 7.90999 2.0075 7.82749 2.015 7.73749L2.765 7.18999L3.8 7.54999L4.895 10.805L4.31 11.8325ZM9.875 13.6925C9.2825 13.8875 8.6525 14 8 14C7.3475 14 6.7175 13.8875 6.125 13.6925L5.6075 12.575L6.0875 11.75H9.92L10.4 12.5825L9.875 13.6925ZM9.7025 10.25H6.2975L5.285 7.23499L8 5.32999L10.7225 7.23499L9.7025 10.25ZM12.545 11.9075L11.69 11.8325L11.0975 10.805L12.1925 7.54999L13.235 7.19749L13.985 7.74499C13.9925 7.82749 14 7.90999 14 7.99999C14 9.49249 13.4525 10.8575 12.545 11.9075Z" fill="#231F20"/>
</svg>
