<svg width="18" height="7" viewBox="0 0 18 7" fill="none" xmlns="http://www.w3.org/2000/svg">
<path d="M14.625 3.01563C14.3191 3.01563 14.02 3.10635 13.7656 3.27632C13.5112 3.44629 13.313 3.68788 13.1959 3.97054C13.0788 4.25319 13.0482 4.56422 13.1078 4.86428C13.1675 5.16435 13.3149 5.43998 13.5312 5.65631C13.7475 5.87265 14.0232 6.01997 14.3232 6.07966C14.6233 6.13934 14.9343 6.10871 15.217 5.99163C15.4996 5.87455 15.7412 5.67629 15.9112 5.4219C16.0812 5.16752 16.1719 4.86845 16.1719 4.5625C16.1714 4.15239 16.0083 3.7592 15.7183 3.4692C15.4283 3.1792 15.0351 3.01608 14.625 3.01563ZM14.625 5.26563C14.4859 5.26563 14.35 5.22439 14.2344 5.14713C14.1187 5.06987 14.0286 4.96006 13.9754 4.83158C13.9222 4.7031 13.9083 4.56172 13.9354 4.42533C13.9625 4.28894 14.0295 4.16365 14.1278 4.06532C14.2262 3.96698 14.3514 3.90002 14.4878 3.87289C14.6242 3.84576 14.7656 3.85968 14.8941 3.9129C15.0226 3.96612 15.1324 4.05624 15.2096 4.17187C15.2869 4.2875 15.3281 4.42344 15.3281 4.5625C15.3279 4.74892 15.2538 4.92764 15.122 5.05945C14.9901 5.19127 14.8114 5.26542 14.625 5.26563Z" fill="#231F20"/>
<path d="M3.93749 3.01563C3.63154 3.01563 3.33247 3.10635 3.07809 3.27632C2.82371 3.44629 2.62544 3.68788 2.50836 3.97054C2.39128 4.25319 2.36065 4.56422 2.42034 4.86428C2.48002 5.16435 2.62735 5.43998 2.84368 5.65631C3.06002 5.87265 3.33564 6.01997 3.63571 6.07966C3.93577 6.13934 4.2468 6.10871 4.52945 5.99163C4.81211 5.87455 5.05369 5.67629 5.22367 5.4219C5.39364 5.16752 5.48436 4.86845 5.48436 4.5625C5.48391 4.15239 5.32079 3.7592 5.03079 3.4692C4.74079 3.1792 4.3476 3.01608 3.93749 3.01563ZM3.93749 5.26563C3.79842 5.26563 3.66248 5.22439 3.54685 5.14713C3.43122 5.06987 3.3411 4.96006 3.28789 4.83158C3.23467 4.7031 3.22074 4.56172 3.24787 4.42533C3.275 4.28894 3.34197 4.16365 3.4403 4.06532C3.53864 3.96698 3.66392 3.90002 3.80031 3.87289C3.93671 3.84576 4.07808 3.85968 4.20656 3.9129C4.33504 3.96612 4.44485 4.05624 4.52212 4.17187C4.59938 4.2875 4.64061 4.42344 4.64061 4.5625C4.6404 4.74892 4.56625 4.92764 4.43444 5.05945C4.30262 5.19127 4.1239 5.26542 3.93749 5.26563Z" fill="#231F20"/>
<path d="M17.8031 3.78938C17.7584 3.71172 16.6854 1.89063 14.625 1.89063C12.6342 1.89063 11.594 1.44453 11.4587 1.38227C11.2281 1.23169 9.61031 0.203125 8.4375 0.203125H5.0625C3.92361 0.203125 2.36514 1.17302 2.0648 1.36704L0.429082 1.91228C0.345085 1.94028 0.272026 1.994 0.220255 2.06583C0.168485 2.13766 0.140626 2.22396 0.140625 2.3125V4.5625C0.140624 4.66002 0.174411 4.75454 0.236238 4.82996C0.298065 4.90538 0.384113 4.95705 0.479742 4.97618L2.1138 5.30314C1.9878 4.99356 1.94269 4.65701 1.98271 4.32518C2.02274 3.99336 2.14658 3.67718 2.34258 3.40645C2.53858 3.13571 2.80027 2.91934 3.10301 2.7777C3.40575 2.63607 3.73957 2.57383 4.073 2.59687C4.40644 2.61991 4.72852 2.72746 5.00891 2.90939C5.28929 3.09131 5.51874 3.34163 5.67564 3.63674C5.83254 3.93186 5.91172 4.26206 5.90573 4.59624C5.89974 4.93042 5.80876 5.25757 5.64138 5.54688H12.9211C12.7479 5.24762 12.6565 4.90802 12.6563 4.56225C12.656 4.21647 12.7467 3.87672 12.9195 3.57717C13.0922 3.27762 13.3407 3.02885 13.6401 2.85588C13.9395 2.68291 14.2792 2.59184 14.625 2.59184C14.9708 2.59184 15.3105 2.68291 15.6099 2.85588C15.9093 3.02885 16.1578 3.27762 16.3305 3.57717C16.5033 3.87672 16.594 4.21647 16.5937 4.56225C16.5935 4.90802 16.5021 5.24762 16.3289 5.54688H17.4375C17.5494 5.54688 17.6567 5.50243 17.7358 5.42331C17.8149 5.34419 17.8594 5.23689 17.8594 5.125V4C17.8594 3.92608 17.84 3.85345 17.8031 3.78938ZM8.4375 4.42188H6.75C6.63811 4.42188 6.53081 4.37743 6.45169 4.29831C6.37257 4.21919 6.32812 4.11189 6.32812 4C6.32812 3.88811 6.37257 3.78081 6.45169 3.70169C6.53081 3.62257 6.63811 3.57813 6.75 3.57813H8.4375C8.54939 3.57813 8.65669 3.62257 8.73581 3.70169C8.81493 3.78081 8.85938 3.88811 8.85938 4C8.85938 4.11189 8.81493 4.21919 8.73581 4.29831C8.65669 4.37743 8.54939 4.42188 8.4375 4.42188ZM10.125 4.42188C10.0416 4.42188 9.96 4.39713 9.89062 4.35078C9.82124 4.30442 9.76717 4.23853 9.73524 4.16144C9.70331 4.08436 9.69495 3.99953 9.71123 3.9177C9.72751 3.83586 9.76769 3.76069 9.82669 3.70169C9.88569 3.64269 9.96086 3.60251 10.0427 3.58623C10.1245 3.56995 10.2094 3.57831 10.2864 3.61024C10.3635 3.64217 10.4294 3.69624 10.4758 3.76562C10.5221 3.835 10.5469 3.91656 10.5469 4C10.5469 4.11189 10.5024 4.21919 10.4233 4.29831C10.3442 4.37743 10.2369 4.42188 10.125 4.42188ZM10.3137 1.98671C10.2551 2.01599 10.1905 2.03124 10.125 2.03125H6.75C6.70465 2.03125 6.6596 2.02394 6.61658 2.00959C6.59566 2.00267 4.97813 1.46875 3.9375 1.46875H2.59935C3.23019 1.11564 4.25246 0.625 5.0625 0.625H8.4375C9.34453 0.625 10.518 1.24023 11.1096 1.58874L10.3137 1.98671ZM11.8125 4.42188C11.7291 4.42188 11.6475 4.39713 11.5781 4.35078C11.5087 4.30442 11.4547 4.23853 11.4227 4.16144C11.3908 4.08436 11.3825 3.99953 11.3987 3.9177C11.415 3.83586 11.4552 3.76069 11.5142 3.70169C11.5732 3.64269 11.6484 3.60251 11.7302 3.58623C11.812 3.56995 11.8969 3.57831 11.9739 3.61024C12.051 3.64217 12.1169 3.69624 12.1633 3.76562C12.2096 3.835 12.2344 3.91656 12.2344 4C12.2344 4.11189 12.1899 4.21919 12.1108 4.29831C12.0317 4.37743 11.9244 4.42188 11.8125 4.42188Z" fill="#231F20"/>
</svg>
