<svg width="18" height="18" viewBox="0 0 18 18" fill="none" xmlns="http://www.w3.org/2000/svg">
<path d="M2.8575 4.71001C2.0025 5.92501 1.5 7.40251 1.5 9.00001C1.5 10.5975 2.0025 12.075 2.8575 13.29C4.6725 12.7125 6 11.01 6 9.00001C6 6.99001 4.6725 5.28751 2.8575 4.71001ZM15.1425 4.71001C13.3275 5.28751 12 6.99001 12 9.00001C12 11.01 13.3275 12.7125 15.1425 13.29C15.9975 12.075 16.5 10.5975 16.5 9.00001C16.5 7.40251 15.9975 5.92501 15.1425 4.71001Z" fill="#231F20"/>
<path d="M10.5 9C10.5 6.54 11.9775 4.4325 14.0925 3.5025C12.7575 2.265 10.9725 1.5 9 1.5C7.0275 1.5 5.2425 2.265 3.9075 3.5025C6.0225 4.4325 7.5 6.54 7.5 9C7.5 11.46 6.0225 13.5675 3.9075 14.4975C5.2425 15.735 7.0275 16.5 9 16.5C10.9725 16.5 12.7575 15.735 14.0925 14.4975C13.0243 14.0293 12.1156 13.2601 11.4776 12.2837C10.8396 11.3074 10.4999 10.1663 10.5 9Z" fill="#231F20"/>
</svg>
