<svg width="16" height="16" viewBox="0 0 16 16" fill="none" xmlns="http://www.w3.org/2000/svg">
<path d="M3.5 2.0075C1.685 3.38 0.5 5.5475 0.5 8C0.5 9.095 0.74 10.1375 1.1675 11.0825L3.5 9.7325V2.0075ZM7.25 7.565V0.537498C6.455 0.619998 5.6975 0.822498 5 1.13V8.87L7.25 7.565ZM8 8.8625L1.9175 12.3725C2.375 13.0025 2.9225 13.565 3.5525 14.0225L10.25 10.1675L8 8.8625ZM8.75 4.97V7.565L14.8325 11.075C15.1475 10.3775 15.3575 9.6275 15.4475 8.84L8.75 4.97ZM5.0525 14.9C5.96 15.2825 6.95 15.5 8 15.5C10.505 15.5 12.7175 14.2625 14.0825 12.38L11.75 11.03L5.0525 14.9ZM15.44 7.1075C15.0275 3.635 12.245 0.882498 8.75 0.537498V3.2375L15.44 7.1075Z" fill="#231F20"/>
</svg>
