<svg width="14" height="16" viewBox="0 0 14 16" fill="none" xmlns="http://www.w3.org/2000/svg">
<path d="M7.66 1.73C8.2375 1.73 8.71 2.2025 8.71 2.78C8.71 3.3575 8.2375 3.83 7.66 3.83C7.0825 3.83 6.625 3.3575 6.625 2.78C6.625 2.2025 7.0825 1.73 7.66 1.73ZM9.25 8.75H10.375V13.25H9.25V8.75ZM9.25 5.375H10.375V6.5H9.25V5.375ZM5.53 0.949999L4 0.529999L2.545 5.435L0.925 7.565L3.3775 8.2775L5.53 0.949999ZM12.7525 12.9125C12.4825 13.1975 12.16 13.625 11.8 13.775C11.4325 13.94 11.155 14 10.75 14H8.125L8.0725 11.75C8.065 11.6225 8.0275 11.5025 7.96 11.375L6.16 8.18L6.82 6.125C7.14183 6.70926 7.46684 7.29177 7.795 7.8725C7.9075 8 8.0875 8.0975 8.2675 8.0975H9.925C10.0861 8.0975 10.2406 8.03349 10.3546 7.91957C10.4685 7.80564 10.5325 7.65112 10.5325 7.49C10.5325 7.175 10.285 6.92 9.97 6.8975L8.7175 6.8L7.3 4.25C7.3 4.25 7 3.815 6.355 3.815C5.7025 3.815 5.5 4.13 5.3725 4.565L2.5 14H0.25V15.5H10.75C11.7775 15.5 12.6475 15.005 13.375 14.2775L12.7525 12.9125ZM5.3125 9.7925L6.715 12.0425L6.8125 14H3.8125L5.3125 9.7925Z" fill="#231F20"/>
</svg>
