<svg width="18" height="18" viewBox="0 0 18 18" fill="none" xmlns="http://www.w3.org/2000/svg">
<path d="M8.24999 11.5605V15H9.74999V11.5605C9.74999 11.166 9.58949 10.779 9.31049 10.5L7.81049 9L9.74999 7.0605L11.25 8.5605C11.529 8.8395 11.916 9 12.3105 9H15V7.5H12.3105L9.53024 4.71975C9.46064 4.65004 9.37799 4.59474 9.28701 4.557C9.19602 4.51927 9.09849 4.49985 8.99999 4.49985C8.90149 4.49985 8.80395 4.51927 8.71297 4.557C8.62198 4.59474 8.53933 4.65004 8.46974 4.71975L5.99999 7.1895C5.71649 7.473 5.56049 7.8495 5.56049 8.25C5.56049 8.6505 5.71649 9.027 5.99999 9.3105L8.24999 11.5605Z" fill="#231F20"/>
<path d="M12 5.25C12.8284 5.25 13.5 4.57843 13.5 3.75C13.5 2.92157 12.8284 2.25 12 2.25C11.1716 2.25 10.5 2.92157 10.5 3.75C10.5 4.57843 11.1716 5.25 12 5.25Z" fill="#231F20"/>
<path d="M13.5 10.5C11.8455 10.5 10.5 11.8455 10.5 13.5C10.5 15.1545 11.8455 16.5 13.5 16.5C15.1545 16.5 16.5 15.1545 16.5 13.5C16.5 11.8455 15.1545 10.5 13.5 10.5ZM13.5 15C12.6728 15 12 14.3273 12 13.5C12 12.6728 12.6728 12 13.5 12C14.3273 12 15 12.6728 15 13.5C15 14.3273 14.3273 15 13.5 15ZM4.5 16.5C6.1545 16.5 7.5 15.1545 7.5 13.5C7.5 11.8455 6.1545 10.5 4.5 10.5C2.8455 10.5 1.5 11.8455 1.5 13.5C1.5 15.1545 2.8455 16.5 4.5 16.5ZM4.5 12C5.32725 12 6 12.6728 6 13.5C6 14.3273 5.32725 15 4.5 15C3.67275 15 3 14.3273 3 13.5C3 12.6728 3.67275 12 4.5 12Z" fill="#231F20"/>
</svg>
