<svg width="18" height="7" viewBox="0 0 18 7" fill="none" xmlns="http://www.w3.org/2000/svg">
<path fill-rule="evenodd" clip-rule="evenodd" d="M6.37701 1.03082C5.85201 1.24152 4.22397 2.1377 3.35904 2.69224C3.06066 2.8836 2.92867 3.06418 2.74959 3.52645L2.52106 4.11648L1.69068 4.35897C0.693757 4.65002 0.665224 4.75443 1.40091 5.41871L1.86424 5.83704L14.0959 3.51593L15.2298 2.67677C18.0869 0.562327 17.8465 0.432318 12.8874 1.41009L9.22103 2.13294L8.76122 1.7682C7.52004 0.783725 7.22227 0.691632 6.37701 1.03082ZM7.28472 1.04947C7.47122 1.07783 8.75048 2.0791 8.77734 2.21777C8.82607 2.46935 8.33673 2.24763 7.62934 1.69765C6.8908 1.12334 6.81344 0.977773 7.28472 1.04947ZM7.26535 1.79159C7.66051 2.07589 7.98926 2.33256 7.99597 2.362C8.0089 2.41939 5.30704 3.08822 5.23746 3.04481C4.943 2.86144 5.38094 1.85941 5.88032 1.57373C6.54228 1.19507 6.4064 1.17368 7.26535 1.79159ZM2.92696 6.71428L11.9739 4.90969L12.9508 4.22034L2.38528 6.2516L2.92696 6.71428Z" fill="#231F20"/>
</svg>
