<svg width="16" height="16" viewBox="0 0 16 16" fill="none" xmlns="http://www.w3.org/2000/svg">
<path d="M8 0.499992C8.98492 0.499992 9.96019 0.693986 10.8701 1.0709C11.7801 1.44781 12.6069 2.00025 13.3033 2.69669C13.9997 3.39313 14.5522 4.21992 14.9291 5.12987C15.306 6.03981 15.5 7.01508 15.5 7.99999C15.5 9.98912 14.7098 11.8968 13.3033 13.3033C11.8968 14.7098 9.98913 15.5 8 15.5C7.01509 15.5 6.03982 15.306 5.12987 14.9291C4.21993 14.5522 3.39314 13.9997 2.6967 13.3033C1.29018 11.8968 0.5 9.98912 0.5 7.99999C0.5 6.01087 1.29018 4.10321 2.6967 2.69669C4.10322 1.29017 6.01088 0.499992 8 0.499992ZM8.375 7.24999C8.07663 7.24999 7.79048 7.36852 7.57951 7.5795C7.36853 7.79048 7.25 8.07662 7.25 8.37499C7.25 8.67336 7.36853 8.95951 7.57951 9.17049C7.79048 9.38147 8.07663 9.49999 8.375 9.49999C8.67337 9.49999 8.95952 9.38147 9.1705 9.17049C9.38148 8.95951 9.5 8.67336 9.5 8.37499C9.5 8.07662 9.38148 7.79048 9.1705 7.5795C8.95952 7.36852 8.67337 7.24999 8.375 7.24999ZM8 2.74999C7.60218 2.74999 7.22065 2.90803 6.93934 3.18933C6.65804 3.47064 6.5 3.85217 6.5 4.24999C6.5 4.64782 6.65804 5.02935 6.93934 5.31065C7.22065 5.59196 7.60218 5.74999 8 5.74999C8.39783 5.74999 8.77936 5.59196 9.06066 5.31065C9.34197 5.02935 9.5 4.64782 9.5 4.24999C9.5 3.85217 9.34197 3.47064 9.06066 3.18933C8.77936 2.90803 8.39783 2.74999 8 2.74999ZM3.4475 5.37499C3.035 6.08749 3.2825 7.00249 3.995 7.41499C4.715 7.83499 5.63 7.58749 6.05 6.87499C6.4625 6.14749 6.215 5.23249 5.495 4.81999C4.7825 4.40749 3.875 4.64749 3.4475 5.37499Z" fill="#231F20"/>
</svg>
