<svg width="16" height="12" viewBox="0 0 16 12" fill="none" xmlns="http://www.w3.org/2000/svg">
<path d="M13.25 9V1.5H15.5V9H13.25ZM8 0H4.25C4.25 0 0.5 0 0.5 3V7.5C0.5 8.8275 1.25 9.57 2.0525 9.9825C2.17349 9.28819 2.5353 8.65872 3.07435 8.20471C3.61341 7.75069 4.29523 7.50118 5 7.5H7.25V9H5C4.60218 9 4.22064 9.15803 3.93934 9.43934C3.65804 9.72064 3.5 10.1022 3.5 10.5C3.5 10.8978 3.65804 11.2794 3.93934 11.5607C4.22064 11.842 4.60218 12 5 12H8.75C11.75 12 11.75 9 11.75 9V1.5C11.75 1.5 11 0 8 0Z" fill="#231F20"/>
</svg>
