<svg width="12" height="16" viewBox="0 0 12 16" fill="none" xmlns="http://www.w3.org/2000/svg">
<path d="M10.5 1.24999C10.8978 1.24999 11.2794 1.40803 11.5607 1.68933C11.842 1.97064 12 2.35217 12 2.74999C12 3.35749 11.625 3.87499 11.1225 4.11499L9.75 8.86249V12.5H2.25V8.86249L0.8775 4.11499C0.375 3.87499 0 3.35749 0 2.74999C0 2.35217 0.158035 1.97064 0.43934 1.68933C0.720644 1.40803 1.10218 1.24999 1.5 1.24999C1.89782 1.24999 2.27936 1.40803 2.56066 1.68933C2.84196 1.97064 3 2.35217 3 2.74999C3 3.12499 2.865 3.46249 2.625 3.72499L4.725 6.01249L5.1225 3.21499C4.7475 2.94499 4.5 2.50249 4.5 1.99999C4.5 1.60217 4.65803 1.22064 4.93934 0.939332C5.22064 0.658028 5.60217 0.499992 6 0.499992C6.39782 0.499992 6.77935 0.658028 7.06066 0.939332C7.34196 1.22064 7.5 1.60217 7.5 1.99999C7.5 2.50249 7.2525 2.94499 6.8775 3.21499L7.275 6.01249L9.3525 3.71749C9.12452 3.44669 8.99966 3.10398 9 2.74999C9 2.35217 9.15803 1.97064 9.43934 1.68933C9.72064 1.40803 10.1022 1.24999 10.5 1.24999ZM0.75 14H11.25V15.5H0.75V14Z" fill="#231F20"/>
</svg>
