<svg width="14" height="18" viewBox="0 0 14 18" fill="none" xmlns="http://www.w3.org/2000/svg">
<path fill-rule="evenodd" clip-rule="evenodd" d="M10.2486 0.878088C10.1957 0.910944 10.1216 0.97226 10.0839 1.01432C10.0463 1.05639 9.49242 1.90657 8.85304 2.90363C8.21367 3.9007 7.68638 4.72129 7.68132 4.72713C7.67625 4.73301 7.45434 4.78662 7.18819 4.8463C6.92205 4.90598 6.47954 4.99893 6.2048 5.05287C5.93009 5.10681 5.51519 5.16408 5.28279 5.18015C5.00247 5.19953 4.79621 5.23181 4.66988 5.27609C4.56513 5.3128 4.35585 5.40928 4.20482 5.49046C4.05375 5.57163 3.73642 5.74785 3.49962 5.88203L3.06904 6.12595L2.4289 5.46934C2.0768 5.10822 1.65744 4.66386 1.49701 4.48193C1.33655 4.29998 1.15858 4.12222 1.10152 4.08696C1.04446 4.05166 0.951127 4.00944 0.894165 3.99308C0.828094 3.97411 0.746308 3.97527 0.668402 3.99625C0.599124 4.01493 0.52372 4.0636 0.494117 4.10878C0.458291 4.16352 0.447322 4.22833 0.459093 4.31599C0.46849 4.38616 0.519775 4.53677 0.573049 4.65067C0.626322 4.76455 0.817221 5.07863 0.997248 5.3486C1.17731 5.61861 1.49929 6.08302 1.7128 6.38064C1.92631 6.6783 2.21304 7.05612 2.34996 7.22023C2.48692 7.38435 2.65049 7.55049 2.71345 7.58941C2.79918 7.64245 2.85919 7.65602 2.95249 7.64351C3.021 7.6343 3.34115 7.50779 3.66397 7.36234C3.98678 7.2169 4.34796 7.04941 4.4666 6.99008C4.58524 6.93079 4.7016 6.88227 4.72517 6.88227C4.75439 6.88227 4.80093 7.03324 4.8711 7.35554C4.92778 7.61585 5.05591 8.2027 5.15585 8.65967L5.33754 9.4905L5.72877 9.47067C5.94395 9.45976 6.22626 9.43483 6.35612 9.41529C6.48598 9.39575 6.72935 9.34534 6.89694 9.30328C7.06452 9.26125 7.30266 9.19226 7.42614 9.14997C7.54962 9.10768 7.77718 9.01053 7.93184 8.9341C8.0865 8.85767 8.2545 8.75817 8.30517 8.71303L8.39732 8.63095L8.5946 7.15667L8.79191 5.68243L9.66603 3.96413C10.1468 3.01911 10.6254 2.06629 10.7295 1.84679C10.872 1.5465 10.922 1.40353 10.9316 1.26925C10.942 1.12467 10.9318 1.07481 10.878 1.00662C10.8415 0.960324 10.7621 0.898976 10.7016 0.870259C10.6412 0.841543 10.5361 0.81812 10.4682 0.818184C10.4003 0.818248 10.3015 0.8452 10.2486 0.878088ZM12.8537 1.51592C12.8436 1.77623 12.8114 2.14801 12.782 2.34213C12.7526 2.53625 12.6801 2.88483 12.621 3.11678C12.5618 3.34873 12.4606 3.68082 12.3961 3.85475C12.3316 4.02869 12.2142 4.30437 12.1351 4.46734C12.056 4.6303 11.9108 4.89741 11.8123 5.06092C11.7139 5.22443 11.5746 5.43761 11.5029 5.53467C11.4311 5.63173 11.2668 5.83708 11.1378 5.99103C11.0088 6.14494 10.792 6.37169 10.6561 6.49487C10.5201 6.61808 10.3018 6.79895 10.1708 6.89681C10.0398 6.9947 9.92073 7.07479 9.90617 7.07479C9.89164 7.07479 9.87974 7.09106 9.87974 7.11092C9.87974 7.13081 9.9536 7.26756 10.0439 7.41483C10.188 7.64999 10.2154 7.67868 10.2688 7.65009C10.3023 7.63218 10.4701 7.51145 10.6419 7.38179C10.8137 7.2521 11.0968 7.00365 11.271 6.82965C11.4452 6.65565 11.681 6.39778 11.7948 6.2566C11.9087 6.11542 12.1072 5.84109 12.2359 5.64697C12.3646 5.45285 12.5492 5.1352 12.6462 4.94108C12.7433 4.74696 12.8731 4.46541 12.9348 4.31541C12.9965 4.16541 13.0999 3.86942 13.1645 3.65765C13.2291 3.44588 13.3169 3.09936 13.3595 2.88759C13.4021 2.67582 13.452 2.38089 13.4703 2.23217C13.4886 2.08346 13.513 1.76443 13.5246 1.52324L13.5455 1.08469L13.4686 1.06412C13.4263 1.0528 13.2748 1.04333 13.1318 1.04311L12.8719 1.04266L12.8537 1.51592ZM5.51542 2.20865C5.41712 2.24915 5.28295 2.32458 5.21733 2.37637C5.15171 2.42812 5.05017 2.54267 4.99163 2.6309C4.93313 2.71914 4.8696 2.84187 4.85045 2.90363C4.8313 2.9654 4.80625 3.0828 4.7948 3.16452C4.78335 3.24631 4.79143 3.39772 4.81283 3.50142C4.83419 3.605 4.88021 3.74592 4.91511 3.81461C4.94997 3.88331 5.04234 4.00777 5.12034 4.09123C5.20732 4.18421 5.33956 4.27829 5.46218 4.33434C5.63326 4.41256 5.70148 4.42556 5.93474 4.42437C6.13905 4.42335 6.25368 4.4049 6.39217 4.35074C6.50776 4.30549 6.6374 4.21954 6.73843 4.1211C6.82891 4.03293 6.9378 3.88235 6.98613 3.77861C7.05329 3.63436 7.07481 3.53325 7.0836 3.32075C7.09278 3.09766 7.08171 3.01298 7.02276 2.8555C6.96961 2.71356 6.89937 2.61168 6.75543 2.46765C6.6138 2.32599 6.50917 2.25329 6.37453 2.20294C6.24213 2.15347 6.11801 2.1338 5.94154 2.13434C5.75834 2.13489 5.64785 2.15417 5.51542 2.20865ZM9.76748 8.50816C9.67928 8.55369 9.50753 8.69166 9.38584 8.81477C9.26416 8.93788 9.0568 9.11837 8.92508 9.21581C8.79339 9.31326 8.56083 9.45501 8.40832 9.53083C8.25581 9.60665 7.89303 9.74834 7.60216 9.84575C7.31132 9.94313 6.90547 10.0598 6.7003 10.105C6.49512 10.1502 6.1343 10.2087 5.89847 10.235C5.66264 10.2612 5.39944 10.2865 5.31362 10.2911L5.15758 10.2994L4.72725 11.3422C4.49056 11.9157 4.06042 12.977 3.77138 13.7005C3.48234 14.424 3.17844 15.2034 3.09605 15.4325C3.01365 15.6615 2.91888 15.9575 2.88542 16.0902C2.852 16.223 2.82442 16.4182 2.8242 16.5241C2.82391 16.6442 2.84485 16.7586 2.87984 16.8282C2.91067 16.8896 2.98495 16.9727 3.04489 17.0127C3.11888 17.0622 3.20125 17.0855 3.30148 17.0854C3.39093 17.0854 3.4893 17.0608 3.55117 17.0231C3.60729 16.9888 3.71121 16.8874 3.78203 16.7978C3.85288 16.7081 4.14529 16.1767 4.43183 15.6168C4.71837 15.057 5.22474 14.043 5.55711 13.3636L6.16144 12.1283L6.39288 12.1051C6.52017 12.0924 6.74623 12.0652 6.89527 12.0447C7.04428 12.0243 7.31466 11.9686 7.49609 11.9211L7.82597 11.8348L7.83453 14.4309L7.84309 17.027L7.93309 17.1044C7.99336 17.1562 8.06251 17.1818 8.14243 17.1818C8.20809 17.1818 8.29542 17.1583 8.33647 17.1295C8.37756 17.1007 8.43128 17.029 8.45588 16.9701C8.49289 16.8815 8.50059 16.408 8.50059 14.2213V11.5796L8.6369 11.5123C8.71186 11.4753 8.98887 11.2775 9.25248 11.0728C9.51606 10.868 9.73977 10.7005 9.74962 10.7006C9.75943 10.7006 9.90199 11.2168 10.0664 11.8476C10.2308 12.4785 10.4077 13.1006 10.4594 13.2301C10.5112 13.3596 10.6066 13.5454 10.6714 13.6431C10.7362 13.7408 10.8336 13.8478 10.8878 13.8808C10.9419 13.9139 11.0372 13.941 11.0994 13.941C11.1616 13.9411 11.2447 13.9186 11.284 13.8911C11.3233 13.8635 11.3803 13.7949 11.4107 13.7387C11.4542 13.6583 11.4662 13.5539 11.4667 13.2513C11.4673 12.9151 11.4277 12.6229 11.1546 10.9456C10.9635 9.77221 10.8188 8.97324 10.7828 8.89213C10.7503 8.81907 10.6836 8.71174 10.6345 8.6536C10.5854 8.5955 10.4899 8.51968 10.4222 8.48515C10.3404 8.44341 10.237 8.42291 10.1135 8.4239C9.97891 8.42496 9.88375 8.44813 9.76748 8.50816Z" fill="#231F20"/>
</svg>
