<svg width="18" height="13" viewBox="0 0 18 13" fill="none" xmlns="http://www.w3.org/2000/svg">
<path fill-rule="evenodd" clip-rule="evenodd" d="M10.3634 0.320424C10.3384 0.359495 10.0659 1.0674 9.75772 1.89347C9.44947 2.71954 9.16087 3.35965 9.11633 3.31593C9.07179 3.27222 8.77967 2.60252 8.46704 1.82776C8.15441 1.05299 7.83056 0.39591 7.74736 0.367555C7.50939 0.286475 6.45764 0.618761 6.34132 0.811836C6.28354 0.90752 6.07249 1.01316 5.87222 1.04654C5.01358 1.18955 4.2798 1.86702 3.4986 3.23827C3.19302 3.77463 2.51222 4.8684 1.98576 5.66896C0.701275 7.622 0.746135 7.5395 0.887016 7.69018C1.08269 7.89957 2.99457 8.87888 3.20765 8.87888C3.35655 8.87888 3.61534 8.50383 4.2546 7.36159C4.72167 6.52708 5.13438 5.8443 5.17177 5.8443C5.34063 5.8443 5.38314 7.0844 5.2193 7.22987C4.99895 7.42551 4.99991 8.24684 5.22068 8.44285C5.36936 8.57486 5.35751 8.73085 5.09946 10.0299C4.76237 11.7275 4.6797 11.5832 6.17182 11.9026C7.04851 12.0901 7.22079 12.1584 7.30314 12.3505C7.42383 12.6324 7.07681 12.6634 10.422 12.0721C13.8332 11.4691 13.4871 11.7344 13.138 9.99106C12.4036 6.32263 12.7835 5.14569 14.002 7.31418C15.0221 9.12961 14.8113 9.03716 16.2197 8.28619C17.6348 7.53162 17.622 7.6953 16.4111 5.85616C15.8402 4.98903 15.0935 3.78885 14.7517 3.18905C14.0451 1.94885 13.4066 1.32459 12.5627 1.04882C12.2816 0.956927 11.9796 0.808991 11.8914 0.72004C11.6313 0.457454 10.4697 0.153617 10.3634 0.320424ZM11.221 1.10173C11.3211 1.20557 11.6947 1.37665 12.0513 1.482C12.99 1.75929 13.3896 2.0984 13.9778 3.11612C14.2573 3.59957 14.9595 4.73109 15.5384 5.63056C16.1173 6.53003 16.591 7.30384 16.591 7.35012C16.591 7.43224 15.3665 8.12024 15.2202 8.12024C15.1798 8.12024 14.6771 7.28526 14.1033 6.26478C12.6592 3.69649 12.6986 3.68776 12.2582 6.67407L12.1987 7.0771H10.3442H8.48968L9.3167 4.87229C9.77149 3.65969 10.2839 2.2728 10.4552 1.7903C10.7771 0.883528 10.9022 0.771154 11.221 1.10173ZM8.1527 2.6891L8.8257 4.37035L8.32167 5.72368L7.81764 7.0771H6.92493H6.03233L5.95745 6.53183C5.59067 3.85817 5.53727 3.85248 4.13978 6.336C3.57294 7.34339 3.09422 8.18216 3.07585 8.1999C3.05759 8.21763 2.7079 8.05556 2.29871 7.83973L1.55479 7.44732L2.73225 5.62657C3.37994 4.62516 4.07462 3.49753 4.27607 3.12077C4.73951 2.25383 5.33262 1.77086 6.23056 1.52951C6.60002 1.43023 6.92931 1.27869 6.98827 1.18092C7.26971 0.714066 7.46175 0.962806 8.1527 2.6891ZM7.19184 7.72195C7.19184 7.91303 6.88968 8.02541 6.37572 8.02541C5.82747 8.02541 5.61812 7.93029 5.74992 7.74092C5.82779 7.62902 7.19184 7.61109 7.19184 7.72195ZM8.60941 8.09663C8.77219 8.34432 9.19473 8.94289 9.54848 9.42681C10.1148 10.2017 10.2589 10.5642 9.96396 10.4723C9.87788 10.4455 7.93951 7.77961 7.93951 7.68809C7.93951 7.46998 8.37005 7.73267 8.60941 8.09663ZM12.2653 7.83575C12.2653 8.02029 9.50383 8.09947 9.26266 7.92176C8.93806 7.68259 9.16642 7.64191 10.6898 7.66723C12.0058 7.68914 12.2653 7.71692 12.2653 7.83575ZM7.68135 8.65594C7.54944 9.00785 7.2116 9.31292 7.0814 9.1977C6.98998 9.11681 7.03302 8.99097 7.25283 8.69595C7.54239 8.30762 7.8217 8.28145 7.68135 8.65594ZM6.3347 8.8822C6.04803 9.23962 6.10132 9.37124 6.64156 9.64085C6.87601 9.75787 7.09508 9.94364 7.1284 10.0537C7.20968 10.3227 7.20872 11.5341 7.12712 11.5341C7.05641 11.5341 5.82415 11.2638 5.6288 11.2054C5.54261 11.1797 5.58095 10.8043 5.76167 9.90552C5.90148 9.21051 6.01609 8.63109 6.01641 8.6181C6.01673 8.60511 6.14042 8.59439 6.29123 8.59439H6.56552L6.3347 8.8822ZM12.3077 9.09225C12.6669 10.7046 12.7206 11.0744 12.6011 11.1094C12.0517 11.27 8.0069 11.9148 7.9426 11.8519C7.72172 11.6361 7.72578 9.59685 7.94762 9.35304C8.15035 9.13018 8.17096 9.1262 8.29176 9.28684C8.36236 9.38082 8.69507 9.83961 9.03109 10.3063C9.71617 11.2578 9.7324 11.2644 10.4286 10.8724C11.0502 10.5224 11.0497 10.4698 10.4156 9.56536C10.1325 9.16176 9.86527 8.77817 9.8218 8.71293C9.76039 8.62094 10.017 8.59439 10.9697 8.59439H12.1967L12.3077 9.09225Z" fill="#231F20"/>
</svg>
