<svg width="18" height="18" viewBox="0 0 18 18" fill="none" xmlns="http://www.w3.org/2000/svg">
<path d="M11.2875 9.60749L4.92002 3.23999C4.85064 3.17047 4.76822 3.11531 4.67749 3.07767C4.58676 3.04003 4.4895 3.02066 4.39127 3.02066C4.29305 3.02066 4.19579 3.04003 4.10506 3.07767C4.01433 3.11531 3.93191 3.17047 3.86252 3.23999L1.74002 5.36249C1.6705 5.43188 1.61534 5.5143 1.5777 5.60503C1.54006 5.69576 1.52069 5.79302 1.52069 5.89124C1.52069 5.98947 1.54006 6.08673 1.5777 6.17746C1.61534 6.26819 1.6705 6.35061 1.74002 6.41999L8.10752 12.7875C8.40002 13.08 8.87252 13.08 9.16502 12.7875L11.2875 10.665C11.3571 10.5956 11.4122 10.5132 11.4498 10.4225C11.4875 10.3317 11.5069 10.2345 11.5069 10.1362C11.5069 10.038 11.4875 9.94076 11.4498 9.85003C11.4122 9.75929 11.3571 9.67688 11.2875 9.60749ZM10.7558 13.317L11.8163 12.2565L14.9985 15.4387L13.938 16.4992L10.7558 13.317Z" fill="#231F20"/>
<path d="M13.875 6.75C15.3247 6.75 16.5 5.57475 16.5 4.125C16.5 2.67525 15.3247 1.5 13.875 1.5C12.4253 1.5 11.25 2.67525 11.25 4.125C11.25 5.57475 12.4253 6.75 13.875 6.75Z" fill="#231F20"/>
</svg>
