<svg width="16" height="12" viewBox="0 0 16 12" fill="none" xmlns="http://www.w3.org/2000/svg">
<path d="M15.185 9.0675L14.3675 3.3225C14.2653 2.60792 13.9086 1.95425 13.3629 1.48163C12.8173 1.00902 12.1194 0.749227 11.3975 0.750002H4.60253C3.11003 0.750002 1.84253 1.845 1.63253 3.3225L0.815027 9.0675C0.758066 9.46427 0.82746 9.86891 1.01337 10.224C1.19928 10.5791 1.49227 10.8667 1.85079 11.046C2.20931 11.2252 2.61516 11.2871 3.0108 11.2227C3.40644 11.1584 3.77179 10.9711 4.05503 10.6875L5.75003 9H10.25L11.9375 10.6875C12.2975 11.0475 12.785 11.25 13.2875 11.25C14.4575 11.25 15.35 10.2225 15.185 9.0675ZM7.25003 5.25H5.75003V6.75H5.00003V5.25H3.50003V4.5H5.00003V3H5.75003V4.5H7.25003V5.25ZM10.25 4.5C9.83753 4.5 9.50003 4.1625 9.50003 3.75C9.50003 3.3375 9.83753 3 10.25 3C10.6625 3 11 3.3375 11 3.75C11 4.1625 10.6625 4.5 10.25 4.5ZM11.75 6.75C11.3375 6.75 11 6.4125 11 6C11 5.5875 11.3375 5.25 11.75 5.25C12.1625 5.25 12.5 5.5875 12.5 6C12.5 6.4125 12.1625 6.75 11.75 6.75Z" fill="#231F20"/>
</svg>
