<svg width="18" height="18" viewBox="0 0 18 18" fill="none" xmlns="http://www.w3.org/2000/svg">
<path d="M18 0.74501L17.255 0L14.2456 3.00943C13.6235 2.55679 12.8591 2.3243 12.0818 2.36179C11.1271 2.40793 10.2312 2.85741 9.62361 3.59514L9.60095 3.62274L7.87115 6.42068L5.11922 10.5487L2.95697 9.82782L0 12.7848L3.4769 14.5232L5.21535 18L8.17218 15.0432L7.45148 12.8809L11.5793 10.129L14.3773 8.39919L14.4047 8.37653C15.1426 7.76884 15.5921 6.87291 15.6382 5.91833C15.6757 5.14091 15.4431 4.37654 14.9906 3.75444L18 0.74501ZM10.1203 4.78606L13.2139 7.87967L12.2932 8.4489L9.55096 5.70685L10.1203 4.78606ZM1.77869 12.4961L3.24152 11.0333L5.04973 11.636L5.33427 11.9207L3.76556 13.4894L1.77869 12.4961ZM5.50401 16.2213L4.51057 14.2344L6.07942 12.6657L6.36397 12.9503L6.96671 14.7586L5.50401 16.2213ZM11.0099 9.24225L6.89159 11.9877L6.01227 11.1084L8.75281 6.9976L8.9816 6.6275L11.3724 9.01813L11.0176 9.23744L11.0099 9.24225ZM14.5859 5.86739C14.5611 6.37935 14.3774 6.85204 14.061 7.23656L10.7634 3.93915C11.1481 3.6226 11.6208 3.439 12.1326 3.41414C12.8013 3.38173 13.4293 3.62466 13.9024 4.09776C14.3753 4.57072 14.6181 5.19928 14.5859 5.86739Z" fill="#231F20"/>
</svg>
