<svg width="18" height="18" viewBox="0 0 18 18" fill="none" xmlns="http://www.w3.org/2000/svg">
<path d="M14.25 2.25H3.75C3.35218 2.25 2.97064 2.40804 2.68934 2.68934C2.40804 2.97064 2.25 3.35218 2.25 3.75V14.25C2.25 14.6478 2.40804 15.0294 2.68934 15.3107C2.97064 15.592 3.35218 15.75 3.75 15.75H14.25C14.6478 15.75 15.0294 15.592 15.3107 15.3107C15.592 15.0294 15.75 14.6478 15.75 14.25V3.75C15.75 3.35218 15.592 2.97064 15.3107 2.68934C15.0294 2.40804 14.6478 2.25 14.25 2.25ZM4.5 4.5H8.25V8.25H4.5V4.5ZM7.875 14.25C7.37772 14.25 6.90081 14.0525 6.54917 13.7008C6.19754 13.3492 6 12.8723 6 12.375C6 11.8777 6.19754 11.4008 6.54917 11.0492C6.90081 10.6975 7.37772 10.5 7.875 10.5C8.37228 10.5 8.84919 10.6975 9.20083 11.0492C9.55246 11.4008 9.75 11.8777 9.75 12.375C9.75 12.8723 9.55246 13.3492 9.20083 13.7008C8.84919 14.0525 8.37228 14.25 7.875 14.25ZM10.125 9.75L12.375 6L14.625 9.75H10.125Z" fill="#231F20"/>
</svg>
