<svg width="18" height="16" viewBox="0 0 18 16" fill="none" xmlns="http://www.w3.org/2000/svg">
<path fill-rule="evenodd" clip-rule="evenodd" d="M1.0948 0.816578L0.65047 1.2626L6.9433 7.5505C10.4044 11.0088 13.3261 13.8938 13.4361 13.9616C15.4117 15.1786 17.8758 13.376 17.2983 11.1362C17.0309 10.0989 15.9719 9.23363 14.97 9.23363H14.8123V9.8518C14.8123 10.3078 14.8273 10.474 14.8694 10.4852C14.9008 10.4935 15.0293 10.5245 15.1549 10.554C16.6137 10.8967 16.3103 13.0728 14.8035 13.0755C14.2252 13.0765 14.6879 13.5028 7.79884 6.62235L1.53919 0.370552L1.0948 0.816578ZM13.1329 3.67195L9.92325 6.8818L10.3808 7.33769L10.8384 7.79359L14.0585 4.57374L17.2786 1.35388L16.8344 0.907948C16.5901 0.662709 16.3795 0.46206 16.3663 0.46206C16.3532 0.46206 14.8982 1.90649 13.1329 3.67195ZM2.39341 9.35013C0.57783 9.96857 0.0443173 12.2487 1.40003 13.5952C2.23049 14.4199 3.41338 14.5743 4.50082 13.9999C4.74163 13.8727 8.05089 10.6444 8.05089 10.5367C8.05089 10.51 7.85559 10.2937 7.61683 10.0559L7.18282 9.62369L5.54957 11.2512C3.79151 13.0031 3.75798 13.0298 3.27495 13.0611C1.69081 13.1639 1.40076 10.8359 2.95744 10.5127L3.20825 10.4606V9.84714V9.23363L2.9684 9.23482C2.83546 9.23546 2.57916 9.28686 2.39341 9.35013ZM8.71333 13.1113C7.77349 13.3584 7.42126 14.5051 8.06857 15.2103C9.07141 16.3027 10.8076 15.0946 10.1369 13.771C9.8841 13.2721 9.23889 12.9731 8.71333 13.1113Z" fill="#231F20"/>
</svg>
