<svg width="16" height="18" viewBox="0 0 16 18" fill="none" xmlns="http://www.w3.org/2000/svg">
<path fill-rule="evenodd" clip-rule="evenodd" d="M13.7382 0.458807C12.8846 0.642934 12.2847 1.43973 12.3379 2.31876C12.4483 4.14396 14.9045 4.63602 15.7324 2.99881C16.4024 1.67395 15.2007 0.143328 13.7382 0.458807ZM0.547167 3.05185C0.236677 3.14237 -0.091581 3.90938 0.0987974 4.09954C0.289142 4.28967 0.487447 4.20808 0.678498 3.86096L0.788667 3.6608H2.45532C3.58845 3.6608 4.15613 3.64889 4.22875 3.62362C4.50269 3.52821 4.48795 3.13643 4.20748 3.05863C4.0693 3.02028 0.676953 3.014 0.547167 3.05185ZM6.76866 3.52317C6.05766 3.70488 5.98101 4.40576 6.60025 5.06306C8.01858 6.56851 10.4513 6.92362 12.5925 5.93779C12.7475 5.86643 12.8789 5.80805 12.8845 5.80805C12.9914 5.80805 12.4708 6.56717 12.1758 6.84142C10.0791 8.79086 5.80108 7.73065 4.27963 4.8845C3.92931 4.22912 3.93408 4.23093 2.57573 4.2319C1.1755 4.23287 0.935079 4.34292 0.927588 4.98606C0.920468 5.59846 1.21517 5.77084 2.27287 5.77302L2.98326 5.7745L3.15788 6.04925C4.39461 7.99503 6.36197 9.15794 8.69626 9.32301L9.04521 9.34766L10.0294 10.891L11.0135 12.4343L10.5125 13.9106C9.8526 15.8549 9.84444 16.0393 10.4057 16.3154C10.5973 16.4096 12.5877 16.438 12.836 16.35C13.7905 16.0118 13.3797 14.8857 12.2855 14.8411C12.05 14.8314 11.8573 14.814 11.8573 14.8023C11.8573 14.7906 12.0311 14.2708 12.2435 13.6472C12.782 12.067 12.8456 12.4104 11.6749 10.5779C11.1995 9.83362 10.8173 9.21779 10.8257 9.2094C10.8341 9.20101 10.9804 9.15689 11.1508 9.11137C12.9328 8.63498 14.2133 7.28375 14.6083 5.46285C14.6874 5.09801 14.6934 4.90647 14.631 4.73442L14.5884 4.617L14.2389 4.6283C13.6931 4.64592 13.2471 4.5244 12.8103 4.23901L12.6381 4.12652L12.3945 4.28394C11.4363 4.90308 9.9266 5.11516 8.92698 4.77106C8.38624 4.58492 8.03087 4.3349 7.53393 3.79098C7.32203 3.55904 7.02924 3.45657 6.76866 3.52317ZM13.7413 16.446C13.6445 16.4855 13.6055 16.5343 13.4689 16.7876L13.3648 16.9805H11.6355H9.90611L9.82368 17.0628C9.70777 17.1786 9.70972 17.3754 9.82788 17.4863L9.91454 17.5676L11.7704 17.5768C13.9305 17.5875 13.6934 17.6336 13.969 17.1495C14.2452 16.6643 14.1239 16.2897 13.7413 16.446Z" fill="#231F20"/>
</svg>
