<svg width="18" height="18" viewBox="0 0 18 18" fill="none" xmlns="http://www.w3.org/2000/svg">
<path fill-rule="evenodd" clip-rule="evenodd" d="M8.42291 0.698199C1.38465 1.29592 -1.85747 9.61489 2.95683 14.7237C7.47996 19.5234 15.6074 17.3188 17.1058 10.8855C18.3659 5.47597 13.8974 0.233285 8.42291 0.698199ZM9.89932 1.91863C10.8211 2.04031 12.4301 2.57135 12.2249 2.68616C11.8673 2.88631 13.2154 4.0658 13.908 4.1587C14.0368 4.17599 14.0601 4.1677 14.087 4.09499C14.1991 3.79193 15.367 5.5823 15.7344 6.62027C18.2171 13.6354 9.47164 19.3067 4.08134 14.1771C-0.881599 9.45423 3.11961 1.02365 9.89932 1.91863ZM7.61068 2.16074C6.50082 2.35747 6.3415 2.75991 7.363 2.78631C8.3572 2.81201 9.36312 2.42624 8.89891 2.19729C8.77566 2.13653 7.88927 2.11135 7.61068 2.16074ZM12.747 2.80989C13.2271 3.03995 13.7517 3.44748 13.9892 3.77471C14.1632 4.01466 14.1102 4.00098 13.7973 3.72525C13.4297 3.40136 13.0559 3.12508 12.6455 2.87386C12.2847 2.65298 12.343 2.61624 12.747 2.80989ZM4.16208 3.95572C3.98346 4.0761 3.65265 4.48292 3.46198 4.81667C2.97248 5.67353 3.03511 6.18191 3.5676 5.67401C4.33836 4.93884 4.83548 3.50192 4.16208 3.95572ZM6.66643 4.81979C5.92419 5.19113 5.61149 6.06205 6.05952 6.51008C6.66405 7.1146 7.95804 6.36586 7.95804 5.41156C7.95804 4.7746 7.33098 4.48735 6.66643 4.81979ZM12.8299 5.9195C11.8894 6.3123 12.6194 7.90396 13.7411 7.90605C15.0615 7.9085 14.534 5.93713 13.2018 5.89042C13.0484 5.88506 12.8811 5.89812 12.8299 5.9195ZM9.32418 8.44687C8.60786 8.62679 8.21327 9.43043 8.52002 10.0846C9.0563 11.2282 10.7632 10.8585 10.7632 9.59868C10.7632 8.83959 10.0461 8.26556 9.32418 8.44687ZM2.11443 8.54445C1.97259 8.71527 2.05631 9.57852 2.27268 10.1765C2.55447 10.9552 2.84552 11.0132 2.84321 10.2902C2.84035 9.38484 2.36405 8.24388 2.11443 8.54445ZM5.0751 10.0949C4.16394 10.5073 4.90012 12.0714 6.00556 12.0717C7.32558 12.0722 6.7999 10.106 5.4663 10.0548C5.28838 10.048 5.14673 10.0625 5.0751 10.0949ZM15.0947 11.0533C14.7176 11.4617 14.307 12.7597 14.4628 13.0508C14.666 13.4306 15.362 12.1934 15.4228 11.3439C15.4558 10.8826 15.3438 10.7834 15.0947 11.0533ZM11.5283 12.4209C10.3026 12.8171 10.0638 14.0099 11.2122 14.0001C11.9704 13.9936 12.6812 13.4464 12.6812 12.8692C12.6812 12.4385 12.133 12.2253 11.5283 12.4209ZM5.59747 14.6307C5.30955 14.8486 6.50673 15.5126 7.3569 15.6066C8.18568 15.6983 7.64296 15.0844 6.58052 14.7284C6.16239 14.5883 5.71261 14.5436 5.59747 14.6307Z" fill="#231F20"/>
</svg>
