<svg width="16" height="16" viewBox="0 0 16 16" fill="none" xmlns="http://www.w3.org/2000/svg">
<path d="M8 0.5C3.86 0.5 0.5 3.86 0.5 8C0.5 12.14 3.86 15.5 8 15.5C12.14 15.5 15.5 12.14 15.5 8C15.5 3.86 12.14 0.5 8 0.5ZM8.75 2.975L9.7625 2.2625C11.1192 2.68291 12.2831 3.57042 13.0475 4.7675L12.755 5.7725L11.7425 6.1175L8.75 4.025V2.975ZM6.2375 2.2625L7.25 2.975V4.025L4.2575 6.1175L3.245 5.7725L2.9525 4.7675C3.7214 3.57453 4.88358 2.68829 6.2375 2.2625ZM4.31 11.8325L3.455 11.9075C2.51483 10.823 1.99812 9.43531 2 8C2 7.91 2.0075 7.8275 2.015 7.7375L2.765 7.19L3.8 7.55L4.895 10.805L4.31 11.8325ZM9.875 13.6925C9.2825 13.8875 8.6525 14 8 14C7.3475 14 6.7175 13.8875 6.125 13.6925L5.6075 12.575L6.0875 11.75H9.92L10.4 12.5825L9.875 13.6925ZM9.7025 10.25H6.2975L5.285 7.235L8 5.33L10.7225 7.235L9.7025 10.25ZM12.545 11.9075L11.69 11.8325L11.0975 10.805L12.1925 7.55L13.235 7.1975L13.985 7.745C13.9925 7.8275 14 7.91 14 8C14 9.4925 13.4525 10.8575 12.545 11.9075Z" fill="#231F20"/>
</svg>
