<svg width="18" height="8" viewBox="0 0 18 8" fill="none" xmlns="http://www.w3.org/2000/svg">
<path fill-rule="evenodd" clip-rule="evenodd" d="M0.355743 2.80784V5.38647H1.227H2.09826L2.09878 5.66797C2.10202 7.48239 4.24713 8.37906 5.51497 7.09597C6.76719 5.82865 5.8043 3.57846 4.05593 3.68649C3.83498 3.70014 3.85336 3.68178 4.21662 3.52592C5.25182 3.08173 6.35241 2.76949 7.27458 2.65836C7.4437 2.63798 7.63975 2.61376 7.71021 2.60451L7.83833 2.58772V3.42949V4.27122L8.44589 4.25017C9.57368 4.21114 12.1886 4.36243 12.2994 4.47315C12.3049 4.47868 12.2565 4.56699 12.1919 4.66938C11.9867 4.99439 11.9302 5.18918 11.9121 5.63385L11.8958 6.03477H9.27355H6.6513L6.62906 6.19685C6.59844 6.42007 6.45993 6.7999 6.33737 6.99678L6.23532 7.16077H9.37698H12.5186L12.6812 7.28541C13.9877 8.28707 15.8979 7.34779 15.9012 5.70209C15.9019 5.41046 15.8771 5.41865 16.2149 5.5984C16.5008 5.75051 16.5604 5.83295 16.4889 5.97769C16.4688 6.01846 16.4418 6.12035 16.4291 6.20405C16.3959 6.42133 16.2874 6.73927 16.1755 6.94751L16.0792 7.12665H16.8617H17.6443V6.12332V5.11995L17.4076 4.94474C15.9528 3.86767 13.2512 3.21443 9.96523 3.14516L9.00001 3.12482V2.25474V1.38465L8.20563 1.4042C6.60582 1.44364 4.90222 1.86586 3.50243 2.56981C3.37 2.63642 3.25492 2.69091 3.24669 2.69091C3.23849 2.69091 3.22656 2.37228 3.22021 1.98289L3.20869 1.27488L3.10243 1.05309C2.94677 0.728261 2.75601 0.531997 2.44817 0.379954L2.18751 0.251249L1.27163 0.240228L0.355743 0.22924V2.80784ZM2.0218 1.43979C2.07588 1.49377 2.08203 1.62182 2.09085 2.87977L2.10048 4.26048H1.81263C1.58162 4.26048 1.52064 4.2498 1.504 4.2065C1.47383 4.12795 1.47851 1.41048 1.50888 1.3797C1.55774 1.33016 1.95907 1.37718 2.0218 1.43979ZM4.39231 4.88015C4.99249 5.05973 5.15765 5.91661 4.67385 6.34084C4.14231 6.80687 3.30853 6.48459 3.23627 5.78514C3.17145 5.15813 3.76596 4.69272 4.39231 4.88015ZM14.2812 4.92178C15.1032 5.304 14.8134 6.55529 13.903 6.55498C12.9824 6.55464 12.7017 5.32256 13.5284 4.91069C13.7257 4.81245 14.0566 4.81733 14.2812 4.92178Z" fill="#231F20"/>
</svg>
