<svg width="17" height="18" viewBox="0 0 17 18" fill="none" xmlns="http://www.w3.org/2000/svg">
<path fill-rule="evenodd" clip-rule="evenodd" d="M10.0915 2.72192C8.25909 2.06749 6.13544 1.88111 3.60606 2.24245C3.19601 2.30103 2.81611 2.0161 2.75753 1.60605C2.69895 1.196 2.98387 0.816101 3.39392 0.757523C6.11454 0.368863 8.49089 0.557481 10.596 1.3093C12.7027 2.06172 14.4917 3.36178 16.0605 5.12671C16.3357 5.4363 16.3079 5.91035 15.9983 6.18554C15.6887 6.46073 15.2146 6.43285 14.9394 6.12326C13.5083 4.51319 11.9222 3.37575 10.0915 2.72192ZM14.9691 7.78469C15.2323 8.10454 15.1864 8.57719 14.8665 8.84038L12.6015 10.7041C12.4999 10.7877 12.3781 10.8431 12.2483 10.8648L8.2159 11.5368L7.65131 13.5129L8.21057 15.75H11.75C12.1642 15.75 12.5 16.0858 12.5 16.5C12.5 16.9142 12.1642 17.25 11.75 17.25H7.62499C7.28084 17.25 6.98085 17.0158 6.89738 16.6819L6.2598 14.1316L3.90893 13.6092L2.29581 16.8354C2.11057 17.2059 1.66006 17.356 1.28958 17.1708C0.919096 16.9856 0.768927 16.5351 0.954169 16.1646L2.82917 12.4146C2.98308 12.1068 3.32673 11.9432 3.66269 12.0178L6.34795 12.6146L6.71375 11.3343L1.36165 9.32723C0.973807 9.18179 0.777303 8.74948 0.922743 8.36164C1.06818 7.9738 1.50049 7.7773 1.88833 7.92274L7.70005 10.1021L11.8036 9.41821L13.9134 7.68209C14.2333 7.4189 14.7059 7.46484 14.9691 7.78469Z" fill="#231F20"/>
<path d="M6.8429 6.20658C7.14978 5.8997 7.56599 5.7273 7.99998 5.7273C8.43397 5.7273 8.85019 5.8997 9.15707 6.20658C9.46394 6.51346 9.63635 6.92967 9.63635 7.36366C9.63635 7.79766 9.46394 8.21387 9.15707 8.52075C8.85019 8.82763 8.43398 8.99998 7.99999 8.99998C7.566 8.99998 7.14978 8.82763 6.8429 8.52075C6.53602 8.21387 6.36362 7.79766 6.36362 7.36366C6.36362 6.92967 6.53602 6.51346 6.8429 6.20658Z" fill="#231F20"/>
</svg>
