<svg width="18" height="18" viewBox="0 0 18 18" fill="none" xmlns="http://www.w3.org/2000/svg">
<path d="M10.7025 4.5C10.29 5.2125 10.5375 6.135 11.25 6.5475C11.9625 6.96 12.885 6.7125 13.2975 6C13.71 5.2875 13.4625 4.365 12.75 3.9525C12.0375 3.54 11.115 3.7875 10.7025 4.5Z" fill="#231F20"/>
<path d="M11.88 7.8075L9.93001 6.6825C8.14501 5.6475 7.53001 3.3525 8.56501 1.5675L7.26751 0.8175C6.07501 2.8725 6.45001 5.4075 7.99501 7.05L4.13251 13.74L5.43001 14.49L6.55501 12.54L7.85251 13.29L5.60251 17.19L6.90001 17.94L11.6175 9.7725C12.0496 10.3588 12.3017 11.0582 12.3429 11.7854C12.3842 12.5126 12.213 13.236 11.85 13.8675L13.1475 14.6175C14.3475 12.555 14.1075 9.6825 11.88 7.8075ZM9.56251 2.85C10.1025 3.1575 10.785 2.9775 11.1 2.4375C11.4075 1.8975 11.2275 1.215 10.6875 0.9C10.4292 0.756088 10.1247 0.719556 9.83974 0.798297C9.55475 0.877038 9.31219 1.06473 9.16444 1.32083C9.01669 1.57692 8.97562 1.88086 9.05011 2.16699C9.12459 2.45311 9.30864 2.69845 9.56251 2.85Z" fill="#231F20"/>
</svg>
