<svg width="17" height="16" viewBox="0 0 17 16" fill="none" xmlns="http://www.w3.org/2000/svg">
<path fill-rule="evenodd" clip-rule="evenodd" d="M2.78708 2.65815V4.80654H3.30966H3.83224V3.81178V2.8169L4.15113 2.85371C4.44215 2.88716 4.47804 2.94604 4.56304 3.52912C4.61426 3.88041 4.73038 4.51076 4.8212 4.92987C4.91201 5.34898 5.12116 5.9863 5.28595 6.34618C5.45062 6.70595 5.82525 7.26708 6.11836 7.59317C6.41147 7.91915 6.85311 8.28879 7.09977 8.41467L7.54837 8.64356V9.78894C7.54837 10.8786 7.56115 10.9377 7.80966 11.0043C7.95331 11.0428 8.44326 11.0751 8.89837 11.0759C9.35348 11.0768 9.88907 11.0449 10.0887 11.0049L10.4516 10.9323V9.75631V8.58039L10.9781 8.30098C11.2678 8.14734 11.6602 7.84471 11.85 7.62836C12.0399 7.41213 12.3479 6.93275 12.5345 6.56322C12.7211 6.19359 12.961 5.55569 13.0678 5.14564C13.1745 4.73559 13.2958 4.06041 13.3374 3.64525C13.4089 2.92978 13.4295 2.88844 13.7322 2.85371L14.0516 2.8169V3.81178V4.80654H14.5742H15.0968V2.65815V0.509766H14.5742H14.0516V1.4388V2.36783H3.83224V1.45099V0.509766H3.30966H2.78708V2.65815ZM12.2616 4.57463C12.3497 4.15935 12.4227 3.5974 12.4238 3.3259L12.4258 2.83235H9.00684C6.92998 2.83235 5.56059 2.87648 5.51844 2.94464C5.48023 3.00642 5.48 3.3331 5.51774 3.67045C5.5556 4.00792 5.71725 4.70493 5.87704 5.21938C6.05379 5.78841 6.33564 6.37637 6.59669 6.72035C6.83267 7.03146 7.2728 7.43721 7.57462 7.62209C7.92753 7.83821 8.35082 7.98174 8.76053 8.02401C9.30018 8.07964 9.49667 8.0412 10.0458 7.77259C10.4025 7.59817 10.8702 7.27405 11.0854 7.05259C11.3006 6.83102 11.6172 6.3528 11.7891 5.98978C11.9609 5.62688 12.1736 4.99002 12.2616 4.57463Z" fill="#231F20"/>
<path fill-rule="evenodd" clip-rule="evenodd" d="M1.62579 2.65815V3.76138H2.03224H2.43869V2.65815V1.55493H2.03224H1.62579V2.65815ZM15.4451 2.65815V3.76138H15.8516H16.2581V2.65815V1.55493H15.8516H15.4451V2.65815ZM0.929016 2.65815C0.929016 2.94197 0.981506 3.0646 1.10321 3.0646C1.22491 3.0646 1.2774 2.94197 1.2774 2.65815C1.2774 2.37433 1.22491 2.2517 1.10321 2.2517C0.981506 2.2517 0.929016 2.37433 0.929016 2.65815ZM16.6064 2.65815C16.6064 2.94197 16.6589 3.0646 16.7806 3.0646C16.9023 3.0646 16.9548 2.94197 16.9548 2.65815C16.9548 2.37433 16.9023 2.2517 16.7806 2.2517C16.6589 2.2517 16.6064 2.37433 16.6064 2.65815ZM5.48127 10.9846C5.38338 11.0825 5.34192 11.7372 5.34192 13.187C5.34192 15.1078 5.35736 15.2583 5.56651 15.3702C5.69007 15.4363 5.84685 15.4904 5.9149 15.4904C5.98295 15.4904 6.14321 15.3859 6.27095 15.2582C6.47499 15.0541 6.50321 14.8711 6.50321 13.7536V12.4814L6.99676 12.6736C7.36791 12.8182 7.87899 12.8664 9.05805 12.8679C10.2111 12.8694 10.7552 12.8211 11.115 12.6855C11.3841 12.5842 11.6324 12.5292 11.6667 12.5635C11.7009 12.5979 11.729 13.2164 11.729 13.9379C11.729 15.1162 11.7519 15.2622 11.9536 15.3702C12.0772 15.4363 12.2339 15.4904 12.302 15.4904C12.3701 15.4904 12.5303 15.3859 12.658 15.2582C12.8707 15.0455 12.8903 14.8711 12.8903 13.1937C12.8903 11.7233 12.8547 11.3105 12.7095 11.1034C12.6101 10.9614 12.4222 10.8453 12.292 10.8453C12.1617 10.8453 11.9004 10.9555 11.7113 11.0902C11.5221 11.2249 11.0436 11.4336 10.6481 11.5538C10.2166 11.6851 9.57633 11.7729 9.04725 11.7734C8.46451 11.7739 7.93543 11.6952 7.48729 11.541C7.11428 11.4127 6.63281 11.2036 6.41727 11.0765C6.20174 10.9493 5.93429 10.8453 5.82304 10.8453C5.71167 10.8453 5.55792 10.908 5.48127 10.9846Z" fill="#231F20"/>
<path d="M7.96249 4.35085C7.70004 4.58137 7.52561 4.85961 7.47115 5.13472C7.42469 5.36942 7.4024 5.6659 7.42156 5.79364C7.44084 5.92138 7.532 6.17187 7.6242 6.35036C7.71641 6.52885 7.95924 6.7769 8.16374 6.90151C8.36813 7.02623 8.71837 7.12843 8.94192 7.12854C9.16547 7.12866 9.52686 7.03738 9.74495 6.92566C9.96316 6.81406 10.2375 6.54058 10.3546 6.31808C10.4718 6.09546 10.5677 5.76368 10.5677 5.58077C10.5677 5.39775 10.4838 5.0712 10.3812 4.85497C10.2786 4.63873 10.0241 4.35642 9.81591 4.22775C9.57993 4.0819 9.23584 3.99364 8.90325 3.99364C8.47264 3.99364 8.29055 4.06273 7.96249 4.35085Z" fill="#231F20"/>
</svg>
