<svg width="16" height="12" viewBox="0 0 16 12" fill="none" xmlns="http://www.w3.org/2000/svg">
<path d="M0.5 9.75V12H2V9H1.25C0.8375 9 0.5 9.3375 0.5 9.75ZM5.75 9H2.75V12L6.2675 11.9925C6.5525 11.9925 6.8075 11.835 6.935 11.58L7.5875 10.155L6.395 7.545L5.75 9ZM15.2825 9.2175C15.2125 9.14789 15.1294 9.09283 15.038 9.0555C14.9466 9.01817 14.8487 8.99931 14.75 9H14V12H15.5V9.75C15.5 9.54 15.4175 9.3525 15.2825 9.2175ZM9.2 6.63L12.2375 0H9.725L8.405 2.9775L8.0375 3.8025L8 3.9075L6.275 0H3.7625L6.8 6.63L7.94 9.12L8 9.255L9.065 11.58C9.1925 11.835 9.4475 11.9925 9.7325 11.9925L13.25 12V9H10.25L9.2 6.63Z" fill="#231F20"/>
</svg>
