<svg width="18" height="18" viewBox="0 0 18 18" fill="none" xmlns="http://www.w3.org/2000/svg">
<path d="M8.99998 13.3466C7.94239 13.3466 7.08237 14.2066 7.08237 15.2642C7.08237 16.3218 7.94239 17.1818 8.99998 17.1818C10.0576 17.1818 10.9176 16.3218 10.9176 15.2642C10.9176 14.2066 10.0576 13.3466 8.99998 13.3466Z" fill="#231F20"/>
<path d="M7.09532 5.99963L6.4379 5.30114L4.57379 7.16525C4.83954 7.34151 5.09522 7.54055 5.34339 7.75162L7.09532 5.99963Z" fill="#231F20"/>
<path d="M12.9012 12.1686L7.75274 6.69821L6.06195 8.389L11.6166 13.4532L12.9012 12.1686Z" fill="#231F20"/>
<path d="M16.2281 17.0414L17.0414 16.2281C17.2286 16.0409 17.2286 15.7373 17.0414 15.5501C16.8541 15.3629 16.5506 15.3629 16.3634 15.5501L16.2203 15.6932L13.5586 12.8671L12.326 14.0998L15.5645 17.0552C15.7536 17.2292 16.0463 17.2231 16.2281 17.0414Z" fill="#231F20"/>
<path d="M1.43074 5.49859C1.58699 5.65484 1.75184 5.76737 1.92034 5.83263C2.45845 6.04108 3.10481 6.33077 3.72308 6.66008L5.84111 4.54205C5.59674 4.0435 5.5465 3.40424 5.78824 2.82745C6.00768 2.30206 5.91302 1.84525 5.49856 1.43073C4.56404 0.496147 2.89132 0.64815 1.76971 1.7697C0.648133 2.89124 0.496162 4.56401 1.43074 5.49859Z" fill="#231F20"/>
<path d="M9.65816 7.32402L11.2505 9.0158L11.938 8.389L10.2472 6.69815L9.65816 7.32402Z" fill="#231F20"/>
<path d="M13.4262 7.16525L11.5621 5.30114L10.9047 5.99963L12.6566 7.75162C12.9048 7.54055 13.1604 7.34154 13.4262 7.16525Z" fill="#231F20"/>
<path d="M16.0797 5.8326C16.2481 5.76734 16.413 5.65481 16.5692 5.49855C17.5038 4.56397 17.3519 2.89121 16.2303 1.76966C15.1087 0.64815 13.4359 0.496147 12.5014 1.43066C12.0869 1.84515 11.9923 2.30199 12.2117 2.82739C12.4535 3.40417 12.4032 4.04347 12.1589 4.54199L14.2769 6.66002C14.8952 6.33077 15.5416 6.04108 16.0797 5.8326Z" fill="#231F20"/>
<path d="M8.28839 11.7164L6.80077 10.3601L5.09877 12.1686L6.38337 13.4532L8.28839 11.7164Z" fill="#231F20"/>
<path d="M1.77191 17.0414C1.95361 17.2231 2.24633 17.2292 2.43553 17.0552L5.67402 14.0998L4.44135 12.8671L1.77971 15.6932L1.63656 15.5501C1.44934 15.3629 1.14588 15.3629 0.958593 15.5501C0.771371 15.7373 0.771371 16.0409 0.958593 16.2281L1.77191 17.0414Z" fill="#231F20"/>
</svg>
