<svg width="18" height="18" viewBox="0 0 18 18" fill="none" xmlns="http://www.w3.org/2000/svg">
<path d="M8.25005 11.5605V15H9.75005V11.5605C9.75005 11.166 9.58955 10.779 9.31055 10.5L7.81055 9.00003L9.75005 7.06053L11.25 8.56053C11.529 8.83953 11.916 9.00003 12.3105 9.00003H15V7.50003H12.3105L9.5303 4.71978C9.46071 4.65007 9.37805 4.59477 9.28707 4.55703C9.19608 4.5193 9.09855 4.49988 9.00005 4.49988C8.90155 4.49988 8.80401 4.5193 8.71303 4.55703C8.62204 4.59477 8.53939 4.65007 8.4698 4.71978L6.00005 7.18953C5.71655 7.47303 5.56055 7.84953 5.56055 8.25003C5.56055 8.65053 5.71655 9.02703 6.00005 9.31053L8.25005 11.5605Z" fill="#231F20"/>
<path d="M12 5.25C12.8284 5.25 13.5 4.57843 13.5 3.75C13.5 2.92157 12.8284 2.25 12 2.25C11.1716 2.25 10.5 2.92157 10.5 3.75C10.5 4.57843 11.1716 5.25 12 5.25Z" fill="#231F20"/>
<path d="M13.5 10.5C11.8455 10.5 10.5 11.8455 10.5 13.5C10.5 15.1545 11.8455 16.5 13.5 16.5C15.1545 16.5 16.5 15.1545 16.5 13.5C16.5 11.8455 15.1545 10.5 13.5 10.5ZM13.5 15C12.6728 15 12 14.3273 12 13.5C12 12.6728 12.6728 12 13.5 12C14.3273 12 15 12.6728 15 13.5C15 14.3273 14.3273 15 13.5 15ZM4.5 16.5C6.1545 16.5 7.5 15.1545 7.5 13.5C7.5 11.8455 6.1545 10.5 4.5 10.5C2.8455 10.5 1.5 11.8455 1.5 13.5C1.5 15.1545 2.8455 16.5 4.5 16.5ZM4.5 12C5.32725 12 6 12.6728 6 13.5C6 14.3273 5.32725 15 4.5 15C3.67275 15 3 14.3273 3 13.5C3 12.6728 3.67275 12 4.5 12Z" fill="#231F20"/>
</svg>
