<svg width="18" height="18" viewBox="0 0 18 18" fill="none" xmlns="http://www.w3.org/2000/svg">
<path d="M14.919 3.04673C13.499 1.62611 11.6109 0.84375 9.60268 0.84375C6.62374 0.84375 3.68906 1.63745 1.11592 3.13906C0.987957 3.21374 0.901874 3.34357 0.882861 3.49054C0.863848 3.63752 0.914071 3.785 1.01885 3.88979L2.03962 4.91097C1.2792 6.36218 0.878912 7.98409 0.878912 9.62518V11.2312C0.878912 12.5894 1.79316 13.7894 3.10218 14.1496L13.6767 17.0588C13.9119 17.1235 14.1548 17.1562 14.3986 17.1562C15.8998 17.1562 17.1211 15.9344 17.1211 14.4326V8.36517C17.1211 6.35612 16.339 4.46735 14.919 3.04673ZM11.707 12.0221V7.58896L16.1657 8.70407V13.6948L11.707 12.0221ZM9.78768 11.3021C9.60122 11.2321 9.47771 11.0538 9.47771 10.8546V7.64347C9.47771 7.33254 9.76979 7.10442 10.0713 7.17984L10.7516 7.34997V11.6636L9.78768 11.3021ZM14.3986 16.2004C14.2403 16.2004 14.0827 16.1791 13.9301 16.1371L3.35553 13.228C2.45988 12.9815 1.83433 12.1604 1.83433 11.2312V9.62515C1.83433 8.02774 2.25306 6.4503 3.04527 5.06336C3.15215 4.87624 3.12062 4.6407 2.96829 4.48834L2.14157 3.66125C4.43442 2.44151 7.00059 1.79956 9.60271 1.79956C13.0008 1.79956 15.8038 4.39652 16.1332 7.71069L10.303 6.25258C9.39851 6.02637 8.52232 6.71076 8.52232 7.64347V10.8546C8.52232 11.4522 8.8929 11.9871 9.45224 12.197L16.1442 14.7075C16.0118 15.5522 15.2795 16.2004 14.3986 16.2004Z" fill="#231F20"/>
</svg>
