<svg width="8" height="18" viewBox="0 0 8 18" fill="none" xmlns="http://www.w3.org/2000/svg">
<path d="M1.8925 0C1.39839 0.000198596 0.924568 0.196518 0.575112 0.545834C0.225655 0.89515 0.029145 1.36889 0.0287476 1.863V16.1348C0.0289459 16.6291 0.225321 17.1032 0.574756 17.4529C0.92419 17.8026 1.39812 17.9994 1.8925 18H6.10375C6.59847 17.9994 7.07279 17.8028 7.42282 17.4532C7.77285 17.1036 7.97006 16.6295 7.97125 16.1348V1.863C7.97045 1.36902 7.77382 0.895502 7.42445 0.546272C7.07508 0.197042 6.60148 0.000595003 6.1075 0L1.8925 0ZM1.8925 0.438H4.3C3.835 0.61575 3.76975 0.819 3.7525 1.4625C3.67375 1.47 3.50875 1.39725 3.565 1.788C3.565 1.788 3.59725 2.0475 3.7 2.0025C3.60025 2.691 3.71725 2.745 3.0025 2.77575L2.96725 2.826C2.25475 2.89575 2.02975 2.80575 1.42975 4.02825C1.42975 4.02825 1.2745 4.407 1.22875 4.56375C1.081 4.875 0.723248 5.55975 0.614498 6.003C0.579998 6.153 0.509497 6.201 0.606997 6.41775C0.745748 6.7305 0.513997 6.813 1.3195 6.78975V6.975C1.3195 6.975 1.105 7.16025 1.06 7.2735C1.01425 7.38375 0.890498 7.941 0.894998 8.20125C0.909248 8.889 1.47025 9.4635 1.639 10.149L2.008 10.2015C2.2195 10.677 3.12925 11.9677 3.31525 12.138C3.358 12.2572 3.589 12.4043 3.724 12.5513C3.83575 12.657 4.49275 13.3763 5.2645 13.8202C5.25925 13.8195 5.3875 14.0782 5.45125 14.2838C5.19475 14.49 5.69125 14.8665 5.84125 15.4905C5.85025 15.5707 5.69875 15.657 5.92675 15.8617C5.91025 16.8038 5.62525 17.3003 6.1075 17.5613H1.89325C1.70605 17.5613 1.52069 17.5244 1.34775 17.4527C1.17481 17.381 1.01769 17.276 0.885355 17.1436C0.753022 17.0112 0.648073 16.854 0.576504 16.6811C0.504935 16.5081 0.468149 16.3227 0.468248 16.1355V1.8645C0.46805 1.67724 0.504764 1.49178 0.576288 1.31872C0.647813 1.14565 0.752747 0.988385 0.88509 0.855903C1.01743 0.723421 1.17459 0.618322 1.34758 0.546615C1.52056 0.474908 1.70599 0.438 1.89325 0.438H1.8925ZM4.7455 0.4395H6.10675C6.48403 0.440096 6.84568 0.590286 7.11239 0.857137C7.3791 1.12399 7.5291 1.48572 7.5295 1.863V8.75775C7.48845 8.65139 7.43293 8.55119 7.3645 8.46C7.3645 8.26875 7.1605 8.27325 7.105 8.202C7.0525 8.14125 7.15525 8.106 6.79975 8.02575C6.73225 7.98825 6.68125 7.4655 6.68125 7.4655C6.62875 7.13025 6.5095 6.9 6.331 6.54525C6.241 6.363 6.19825 5.7945 6.10225 5.50575C6.1555 4.1805 5.7325 3.79575 5.38975 3.579C5.25925 3.4965 5.19325 3.43575 5.065 3.3615L5.06125 3.3C4.9615 3.2055 4.75975 3.102 4.594 3.0285C4.543 2.976 4.56625 2.8635 4.6015 2.8215C4.714 2.8065 4.8625 2.5545 4.98625 2.29425C5.083 2.301 5.11675 2.20575 5.14675 2.15175C5.25025 1.98525 5.36275 1.842 5.21875 1.74525C5.545 1.1625 5.33425 0.7695 5.15875 0.7545C5.0875 0.60825 4.96375 0.5175 4.7455 0.4395ZM5.15875 5.193C5.20375 5.43225 5.41375 6.63975 5.50075 6.83325C5.593 7.0275 5.902 7.62075 6.04825 7.98825C5.77128 8.05501 5.52488 8.21313 5.3488 8.43711C5.17272 8.66108 5.07723 8.93785 5.07775 9.22275C5.07785 9.3894 5.11077 9.55439 5.17463 9.70832C5.2385 9.86224 5.33205 10.0021 5.44996 10.1198C5.56787 10.2376 5.70782 10.331 5.86182 10.3947C6.01582 10.4584 6.18085 10.4911 6.3475 10.491C6.60197 10.4916 6.85074 10.4157 7.06152 10.2731C7.2723 10.1306 7.43535 9.92791 7.5295 9.6915V16.134C7.5317 16.4734 7.41189 16.8022 7.19189 17.0606C6.97189 17.319 6.66637 17.4898 6.331 17.5417H6.31825C6.943 17.1653 6.5575 16.4468 6.43825 16.0252C6.42925 16.0005 6.44875 15.9698 6.45775 15.9503C6.4915 15.8903 6.424 15.7575 6.424 15.7575C6.3505 15.69 6.32875 15.3368 6.2875 15.1785C6.22075 14.91 6.40525 14.4503 6.40525 14.2935C6.40525 14.139 6.28825 13.9253 6.0715 13.65C6.01975 13.5915 5.8645 12.255 5.725 11.9152C5.5315 11.448 5.47075 11.5208 5.245 10.9657C5.065 10.572 5.20375 9.9945 4.8025 8.652C4.80625 8.6565 4.8925 8.56725 4.8925 8.56725C4.8925 8.56725 4.576 7.40475 4.47175 7.086C4.36675 6.7665 4.183 6.744 4.183 6.744C4.183 6.744 4.1845 6.615 4.192 6.582C4.207 6.5295 4.579 5.55675 4.6105 5.52675C4.61125 5.50425 5.14825 5.14125 5.15875 5.193Z" fill="#231F20"/>
</svg>
