<svg width="16" height="18" viewBox="0 0 16 18" fill="none" xmlns="http://www.w3.org/2000/svg">
<path fill-rule="evenodd" clip-rule="evenodd" d="M7.31629 1.27017C6.94287 1.51129 6.33666 1.77331 5.96905 1.85238C5.47684 1.95823 5.1574 1.9568 4.75637 1.84715C4.45686 1.76521 3.96818 1.55886 3.67056 1.38844L3.12917 1.07858L3.01189 1.39824C2.94744 1.57402 2.6647 1.9764 2.3836 2.2924C2.1025 2.60853 1.70072 2.94073 1.49074 3.03091C1.21506 3.14918 1.13221 3.25307 1.19274 3.4048C1.23877 3.52033 1.35215 3.90206 1.44459 4.25309C1.53702 4.60411 1.64901 5.19311 1.69353 5.56217C1.73804 5.93123 1.71043 6.59878 1.63224 7.04572C1.55405 7.4928 1.2872 8.49151 1.03927 9.26517C0.642271 10.5042 0.596998 10.7776 0.659296 11.5592C0.701669 12.0917 0.856154 12.7323 1.04532 13.1605C1.21872 13.5531 1.65658 14.1986 2.01826 14.595C2.41488 15.0295 2.98086 15.4698 3.44394 15.7042C3.88848 15.9293 4.87542 16.2359 5.78821 16.4324C6.65522 16.6192 7.51264 16.88 7.69374 17.0121C7.99337 17.2308 8.04054 17.2338 8.22163 17.0462C8.33135 16.9324 9.16746 16.6744 10.0879 16.4703C11.0051 16.267 12.1148 15.9263 12.554 15.7134C13.0129 15.4908 13.6245 15.0444 13.9921 14.6634C14.3438 14.299 14.7829 13.6633 14.9679 13.2511C15.2227 12.6835 15.3156 12.2439 15.3508 11.4407C15.3928 10.4775 15.3524 10.249 14.9119 8.95767C14.4588 7.62937 14.4272 7.4404 14.4331 6.09786C14.4379 5.00806 14.5 4.48401 14.69 3.93147L14.9404 3.2025L14.3326 2.85082C13.9464 2.62748 13.5899 2.27894 13.3553 1.89577C13.1523 1.56382 12.966 1.22979 12.9414 1.15334C12.9148 1.07087 12.7464 1.12263 12.5268 1.28049C12.3233 1.42686 12.0433 1.59244 11.9046 1.64838C11.7658 1.70418 11.4537 1.80063 11.211 1.86257C10.9372 1.93236 10.4881 1.9189 10.0279 1.82703C9.57871 1.7375 9.03908 1.50671 8.65949 1.24207C8.31483 1.00174 8.0244 0.811069 8.01406 0.818388C8.00359 0.825706 7.68957 1.02892 7.31629 1.27017ZM10.2651 2.62434L11.0832 2.70001L6.39328 6.35923C3.81382 8.3718 1.65733 10.0382 1.60109 10.0622C1.54484 10.0864 1.67713 9.61593 1.89505 9.01674C2.22534 8.10847 2.30113 7.68857 2.35069 6.48992C2.39155 5.50219 2.35498 4.82745 2.23379 4.33359L2.05736 3.61481L2.78577 2.89133C3.50523 2.17674 3.51847 2.17021 3.86301 2.36859C4.10816 2.50973 4.56784 2.56932 5.40988 2.56932C6.5059 2.56932 6.66694 2.53574 7.30153 2.17439L7.99514 1.77932L8.72116 2.16393C9.20479 2.42008 9.72033 2.5739 10.2651 2.62434ZM13.9275 3.87619C13.8909 4.01994 13.7972 4.50936 13.7195 4.96363C13.6417 5.41803 13.6014 6.12373 13.6298 6.53187L13.6816 7.27403L8.70956 11.1593L3.73753 15.0445L3.36197 14.8186C3.1554 14.6941 2.74024 14.3103 2.43934 13.9654C2.13845 13.6206 1.77575 13.0155 1.63337 12.6209C1.49087 12.2264 1.37674 11.7734 1.37976 11.6144C1.38393 11.3879 2.61476 10.3722 7.06898 6.92014L12.7529 2.51509L13.3735 3.06489C13.8375 3.47603 13.9773 3.68081 13.9275 3.87619ZM10.9587 4.61444C10.7853 4.76407 10.53 4.96964 10.3912 5.07118C10.1751 5.22944 10.166 5.27322 10.3282 5.37764C10.475 5.47226 10.5315 5.88262 10.5804 7.21052L10.6435 8.92147L11.8053 8.03241C12.9074 7.18922 12.9675 7.11812 12.9718 6.65327C12.9745 6.3838 12.939 6.1632 12.8934 6.1632C12.8476 6.1632 12.5071 6.40039 12.1367 6.69013L11.4632 7.21719V5.77532C11.4632 4.98245 11.4206 4.33555 11.3686 4.3379C11.3166 4.34039 11.1321 4.4648 10.9587 4.61444ZM9.34969 5.8783C8.97514 6.19744 8.93882 6.2931 8.93983 6.95542C8.94084 7.6099 8.90376 7.71079 8.56768 7.96824C8.3625 8.12546 8.16678 8.25418 8.13298 8.25418C8.09905 8.25418 8.05429 7.95491 8.03323 7.58925L7.99514 6.92432L7.38048 7.41165C6.8691 7.81704 6.80012 7.91884 6.97062 8.01764C7.14314 8.11775 7.17542 8.4029 7.17542 9.82895C7.17542 10.7597 7.20607 11.5213 7.24352 11.5213C7.2811 11.5213 7.47973 11.3926 7.68491 11.2354C8.02251 10.9768 8.05819 10.8784 8.05819 10.2055C8.05819 9.50864 8.08619 9.43925 8.49958 9.11253L8.94097 8.7636V9.42369C8.94097 9.78674 8.99457 10.0838 9.06002 10.0838C9.12559 10.0838 9.32624 9.95141 9.50607 9.78975L9.83307 9.4957L9.79688 7.51188L9.76069 5.52806L9.34969 5.8783ZM5.88279 8.5579C5.55162 8.83887 5.53586 8.90487 5.5346 10.0234L5.53309 11.1946L5.06168 10.4449C4.80228 10.0326 4.55876 9.69448 4.52042 9.69343C4.48208 9.69252 4.20994 9.87522 3.91559 10.0995C3.42452 10.4738 3.39652 10.5256 3.57547 10.7306C3.72983 10.9074 3.77044 11.3 3.77044 12.6165V14.2791L4.21183 13.9302C4.65233 13.582 4.65321 13.5793 4.65372 12.5186L4.65435 11.456L5.03154 12.0441C5.239 12.3675 5.42778 12.6906 5.45111 12.7621C5.47444 12.8336 5.70132 12.7454 5.9553 12.566L6.41699 12.2401L6.41788 10.2471C6.41838 9.15095 6.37613 8.25627 6.32418 8.25889C6.27222 8.2615 6.07359 8.39598 5.88279 8.5579ZM14.3038 9.39769C14.5579 10.1822 14.6717 10.7874 14.6665 11.3253C14.6616 11.8248 14.5623 12.334 14.3932 12.728C14.2471 13.0683 13.9769 13.5512 13.7928 13.8013C13.6088 14.0514 13.1635 14.4586 12.8035 14.7063C12.4434 14.9541 11.8385 15.2477 11.4591 15.3591C11.0799 15.4704 10.2872 15.6595 9.69763 15.7794C9.10806 15.8992 8.47802 16.0751 8.29768 16.1702C8.06854 16.2911 7.92969 16.302 7.83712 16.2061C7.76436 16.1307 7.34441 15.9923 6.90416 15.8986C6.46378 15.8049 5.77408 15.659 5.37166 15.5743L4.63972 15.4205L9.21803 11.8465C11.736 9.88084 13.8271 8.26843 13.8648 8.26333C13.9025 8.25836 14.1 8.76882 14.3038 9.39769Z" fill="#231F20"/>
</svg>
