<svg width="16" height="16" viewBox="0 0 16 16" fill="none" xmlns="http://www.w3.org/2000/svg">
<path d="M2.47756 0.63636C1.46797 0.63636 0.636364 1.46819 0.636364 2.47806C0.636364 3.48792 1.46797 4.31976 2.47756 4.31976C3.48714 4.31976 4.31875 3.48792 4.31875 2.47806C4.31875 1.46819 3.48714 0.63636 2.47756 0.63636ZM9.80428 1.19255C9.61185 1.196 9.41971 1.20911 9.2286 1.23184C7.7133 1.40926 6.29926 2.18584 5.22032 3.26508C4.46236 4.02017 3.83452 5.10677 3.6283 7.12098C3.62088 7.13984 3.61453 7.15911 3.60928 7.17868V7.19771C3.59455 7.22902 3.58043 7.26033 3.57061 7.2941C3.56816 7.30822 3.57307 7.31558 3.57061 7.33216V7.4089C3.57307 7.44757 3.58043 7.48563 3.58964 7.52431C3.59946 7.56237 3.61173 7.6035 3.6283 7.63911C3.65899 8.191 3.73632 8.75456 3.93517 9.28927H3.91614C3.92535 9.34206 3.98795 9.60543 3.99286 9.86449C3.99531 10.0591 3.92535 10.2365 3.91614 10.2869C3.54177 10.6583 3.09374 11.0469 2.66966 11.3802C2.24495 11.7136 1.87794 12.0015 1.61404 12.263H1.59563C1.43788 12.4292 1.32236 12.6309 1.25881 12.8511C1.19526 13.0713 1.18554 13.3035 1.23046 13.5282C1.32374 13.958 1.57046 14.3294 1.90126 14.6603C2.23022 14.9887 2.60399 15.233 3.03298 15.3313C3.4626 15.4295 3.98243 15.303 4.31814 14.9672C4.58695 14.6983 4.84594 14.3196 5.18104 13.8929C5.51675 13.4656 5.89788 13.0027 6.2741 12.6264C6.23114 12.6694 6.41832 12.5693 6.65829 12.5693C6.85223 12.5693 7.01303 12.5878 7.137 12.6074C7.16892 12.6123 7.23336 12.624 7.25238 12.6264C7.78694 12.8253 8.35096 12.9002 8.90209 12.9334C8.90884 12.9334 8.91437 12.953 8.92112 12.953C8.96408 12.9647 9.01011 12.9696 9.05553 12.9714C9.07417 12.979 9.09323 12.9856 9.1126 12.9911H9.2286C9.26726 12.9886 9.30532 12.9813 9.34398 12.9721C9.36792 12.9696 9.37712 12.9549 9.40106 12.9524H9.4207C11.2686 12.7989 12.5078 12.1298 13.2946 11.3409C14.3735 10.2623 15.1499 8.84726 15.3279 7.33216C15.5052 5.81583 15.0327 4.19759 13.6972 2.86174C12.5299 1.69411 11.1465 1.18334 9.80428 1.19255ZM2.47756 1.86416C2.82309 1.86416 3.09129 2.13305 3.09129 2.47806C3.09129 2.82368 2.82247 3.09196 2.47756 3.09196C2.13203 3.09196 1.86383 2.82307 1.86383 2.47806C1.86383 2.13243 2.13264 1.86416 2.47756 1.86416ZM9.80428 2.42035C10.8396 2.40132 11.8775 2.76843 12.8343 3.72489C13.9298 4.81824 14.2397 6.01473 14.1004 7.1971C13.9611 8.37947 13.34 9.56921 12.431 10.4778C11.8204 11.0892 10.9335 11.5668 9.38203 11.7056L4.85576 7.17807C5.03559 5.44687 5.46213 4.78755 6.10225 4.14725C7.01057 3.23868 8.1785 2.59777 9.36301 2.45903C9.51153 2.44184 9.65514 2.42281 9.80366 2.42035H9.80428ZM5.14299 9.23095L7.3291 11.3986C7.10739 11.36 6.88272 11.3409 6.65768 11.3415C6.28392 11.3434 5.8095 11.3655 5.41181 11.7633C4.98895 12.1936 4.5918 12.6485 4.22239 13.1255C3.87932 13.5614 3.57491 13.9647 3.43621 14.1035C3.36378 14.1759 3.39938 14.1636 3.30118 14.1421C3.20299 14.1207 3.00414 13.9985 2.78381 13.7775C2.56778 13.562 2.46037 13.3625 2.43828 13.26C2.4168 13.1568 2.39532 13.1851 2.45792 13.1249C2.5868 12.996 2.97775 12.6841 3.41657 12.3391C3.85538 11.9935 4.35619 11.5902 4.79746 11.1494C5.22216 10.7252 5.22707 10.2334 5.21971 9.84485C5.2148 9.55018 5.16938 9.37706 5.14299 9.23095Z" fill="#231F20"/>
</svg>
