<svg width="16" height="16" viewBox="0 0 16 16" fill="none" xmlns="http://www.w3.org/2000/svg">
<path d="M8 0.5C12.1423 0.5 15.5 3.85775 15.5 8C15.5 12.1423 12.1423 15.5 8 15.5C3.85775 15.5 0.5 12.1423 0.5 8C0.5 3.85775 3.85775 0.5 8 0.5ZM8 3.5C6.80653 3.5 5.66193 3.97411 4.81802 4.81802C3.97411 5.66193 3.5 6.80653 3.5 8C3.5 9.19348 3.97411 10.3381 4.81802 11.182C5.66193 12.0259 6.80653 12.5 8 12.5C9.19348 12.5 10.3381 12.0259 11.182 11.182C12.0259 10.3381 12.5 9.19348 12.5 8C12.5 6.80653 12.0259 5.66193 11.182 4.81802C10.3381 3.97411 9.19348 3.5 8 3.5ZM8 4.8125C8.36037 4.81249 8.71311 4.91633 9.01599 5.11159C9.31888 5.30685 9.55908 5.58525 9.70784 5.91348C9.85661 6.24171 9.90763 6.60586 9.85481 6.96234C9.80199 7.31881 9.64756 7.65252 9.41 7.9235C9.83375 8.2655 10.1 8.76125 10.1 9.3125C10.1 10.3475 9.1595 11.1875 8 11.1875C6.8405 11.1875 5.9 10.3475 5.9 9.3125C5.9 8.76125 6.16625 8.2655 6.59 7.92275C6.35268 7.65175 6.19845 7.31811 6.14576 6.96176C6.09307 6.6054 6.14415 6.24142 6.29288 5.91333C6.44162 5.58524 6.68172 5.30694 6.98446 5.11172C7.2872 4.9165 7.63977 4.81262 8 4.8125ZM8 8.5625C7.43525 8.5625 7.025 8.9285 7.025 9.3125C7.025 9.6965 7.43525 10.0625 8 10.0625C8.56475 10.0625 8.975 9.6965 8.975 9.3125C8.975 8.9285 8.56475 8.5625 8 8.5625ZM8 5.9375C7.80109 5.9375 7.61032 6.01652 7.46967 6.15717C7.32902 6.29782 7.25 6.48859 7.25 6.6875C7.25 6.88641 7.32902 7.07718 7.46967 7.21783C7.61032 7.35848 7.80109 7.4375 8 7.4375C8.19891 7.4375 8.38968 7.35848 8.53033 7.21783C8.67098 7.07718 8.75 6.88641 8.75 6.6875C8.75 6.48859 8.67098 6.29782 8.53033 6.15717C8.38968 6.01652 8.19891 5.9375 8 5.9375Z" fill="#231F20"/>
</svg>
