<svg width="16" height="16" viewBox="0 0 16 16" fill="none" xmlns="http://www.w3.org/2000/svg">
<path d="M14.3675 1.63249C13.9475 1.21249 12.755 0.904991 11.2475 0.904991C8.9375 0.904991 5.885 1.62499 3.7625 3.74749C0.245004 7.27249 0.575004 13.3025 1.6325 14.3675C2.0525 14.7875 3.245 15.095 4.7525 15.095C7.0625 15.095 10.115 14.375 12.2375 12.2525C15.755 8.72749 15.425 2.69749 14.3675 1.63249ZM4.82 4.81999C6.8 2.83999 9.58251 2.47999 10.8425 2.42749C9.30501 3.13249 7.49751 4.26499 5.885 5.88499C4.45076 7.32769 3.28054 9.01066 2.4275 10.8575C2.495 8.99749 3.08 6.55249 4.82 4.81999ZM11.18 11.18C9.2 13.16 6.4175 13.52 5.1575 13.5725C6.695 12.8675 8.5025 11.735 10.115 10.115C11.735 8.49499 12.8675 6.67999 13.58 5.14249C13.505 7.00249 12.92 9.44749 11.18 11.18Z" fill="#231F20"/>
</svg>
