<svg width="13" height="18" viewBox="0 0 13 18" fill="none" xmlns="http://www.w3.org/2000/svg">
<path d="M3.375 10.875L0 14.25L1.125 15.375L3.75 12.75H5.25L3.375 10.875ZM8.25 0.750008C7.425 0.750008 6.75 1.42501 6.75 2.25001C6.75 3.07501 7.425 3.75001 8.25 3.75001C9.075 3.75001 9.75 3.07501 9.75 2.25001C9.75 1.42501 9.075 0.750008 8.25 0.750008ZM12.75 15.7575L10.5 18L8.2575 15.7425V14.625L2.9325 9.30751C2.7 9.34501 2.475 9.36001 2.25 9.36001V7.74001C3.495 7.76251 4.9575 7.08751 5.7525 6.21001L6.8025 5.04751C6.945 4.89001 7.125 4.76251 7.32 4.67251C7.5375 4.56751 7.785 4.50001 8.04 4.50001H8.0625C8.9925 4.50751 9.75 5.26501 9.75 6.19501V10.5075C9.75 11.1375 9.4875 11.715 9.06 12.1275L6.375 9.44251V7.74001C5.9025 8.13001 5.3025 8.50501 4.6575 8.78251L9.375 13.5H10.5L12.75 15.7575Z" fill="#231F20"/>
</svg>
