<svg width="18" height="18" viewBox="0 0 18 18" fill="none" xmlns="http://www.w3.org/2000/svg">
<path d="M17.25 8.25H16.4625C16.2872 6.52948 15.5237 4.92213 14.3008 3.69924C13.0779 2.47634 11.4705 1.71281 9.75 1.5375V0H8.25V1.5375C6.52948 1.71281 4.92213 2.47634 3.69924 3.69924C2.47634 4.92213 1.71281 6.52948 1.5375 8.25H0V9.75H1.5375C1.71281 11.4705 2.47634 13.0779 3.69924 14.3008C4.92213 15.5237 6.52948 16.2872 8.25 16.4625V18H9.75V16.4625C11.4705 16.2872 13.0779 15.5237 14.3008 14.3008C15.5237 13.0779 16.2872 11.4705 16.4625 9.75H18V8.25H17.25ZM10.2922 8.25C10.1617 8.02521 9.97479 7.83833 9.75 7.70775V5.91075C10.3167 6.04914 10.8345 6.34046 11.247 6.75296C11.6595 7.16546 11.9509 7.68329 12.0892 8.25H10.2922ZM12.0892 9.75C11.9509 10.3167 11.6595 10.8345 11.247 11.247C10.8345 11.6595 10.3167 11.9509 9.75 12.0892V10.2922C9.97479 10.1617 10.1617 9.97479 10.2922 9.75H12.0892ZM8.25 3.0525V4.75725C7.38046 4.9123 6.5794 5.33029 5.95484 5.95484C5.33029 6.5794 4.9123 7.38046 4.75725 8.25H3.05175C3.22005 6.93021 3.82186 5.70368 4.76272 4.76296C5.70357 3.82224 6.93019 3.22061 8.25 3.0525ZM7.70775 8.25H5.91075C6.04922 7.68333 6.34057 7.16554 6.75305 6.75305C7.16554 6.34057 7.68333 6.04922 8.25 5.91075V7.70775C8.02521 7.83833 7.83833 8.02521 7.70775 8.25ZM8.25 10.2922V12.0892C7.68329 11.9509 7.16546 11.6595 6.75296 11.247C6.34046 10.8345 6.04914 10.3167 5.91075 9.75H7.70775C7.83833 9.97479 8.02521 10.1617 8.25 10.2922ZM3.0525 9.75H4.75725C4.9123 10.6195 5.33029 11.4206 5.95484 12.0452C6.5794 12.6697 7.38046 13.0877 8.25 13.2428V14.9482C6.93021 14.78 5.70368 14.1781 4.76296 13.2373C3.82224 12.2964 3.22061 11.0698 3.0525 9.75ZM9.75 14.9475V13.2428C10.6195 13.0877 11.4206 12.6697 12.0452 12.0452C12.6697 11.4206 13.0877 10.6195 13.2428 9.75H14.9482C14.78 11.0698 14.1781 12.2963 13.2373 13.237C12.2964 14.1778 11.0698 14.7794 9.75 14.9475ZM13.2428 8.25C13.0877 7.38046 12.6697 6.5794 12.0452 5.95484C11.4206 5.33029 10.6195 4.9123 9.75 4.75725V3.05175C11.0698 3.22005 12.2963 3.82186 13.237 4.76272C14.1778 5.70357 14.7794 6.93019 14.9475 8.25H13.2428Z" fill="#231F20"/>
</svg>
