<svg width="12" height="18" viewBox="0 0 12 18" fill="none" xmlns="http://www.w3.org/2000/svg">
<path d="M11.835 13.7925C11.9475 13.905 12 14.025 12 14.16C12 14.25 11.955 14.3775 11.865 14.49C11.58 14.8875 11.22 15.195 10.7775 15.42C10.335 15.6375 9.8625 15.75 9.3525 15.75H2.6475C2.115 15.75 1.6275 15.6375 1.1925 15.42C0.75 15.195 0.375 14.8875 0.0975001 14.49C0.0345645 14.3914 0.000766735 14.277 0 14.16C0 14.025 0.0524999 13.905 0.15 13.7925C0.2475 13.68 0.375 13.6275 0.5325 13.6275C0.705 13.6275 0.8475 13.7025 0.96 13.875C1.2675 14.25 1.665 14.52 2.1525 14.655L4.365 11.97L3.405 9.05248C3.27 8.62498 3.33 8.24998 3.57 7.87498L5.25 5.14498H3.6L2.25 7.32749L1.0575 6.56998L2.8125 3.74998H6.84C7.155 3.74998 7.4025 3.83998 7.605 4.01248C7.8 4.19248 7.935 4.34998 8.0025 4.47748L8.3625 5.33998C8.625 5.91748 9 6.37498 9.525 6.74998C10.05 7.08748 10.635 7.26748 11.2725 7.26748V8.69248C10.455 8.69248 9.7125 8.48998 9.0225 8.09248C8.36059 7.71607 7.80361 7.17972 7.4025 6.53249L6.12 8.55748L9.1575 10.4475V14.6925H9.3525C9.69 14.6925 9.9975 14.625 10.2975 14.46C10.5975 14.295 10.845 14.1075 11.04 13.875C11.1525 13.7025 11.2875 13.6275 11.4375 13.6275C11.5875 13.6275 11.7225 13.6875 11.835 13.7925ZM7.77 11.4375L5.2875 9.88498L6 12.24L3.93 14.6925H7.77V11.4375ZM8.25 0.749985C7.425 0.749985 6.75 1.42498 6.75 2.24998C6.75 3.07498 7.425 3.74998 8.25 3.74998C9.075 3.74998 9.75 3.08248 9.75 2.24998C9.75 1.41748 9.0825 0.749985 8.25 0.749985ZM3 16.125C2.6925 16.125 2.4375 16.38 2.4375 16.6875C2.4375 16.995 2.6925 17.25 3 17.25C3.3075 17.25 3.5625 16.995 3.5625 16.6875C3.5625 16.38 3.3075 16.125 3 16.125ZM9 16.125C8.6925 16.125 8.4375 16.38 8.4375 16.6875C8.4375 16.995 8.6925 17.25 9 17.25C9.3075 17.25 9.5625 16.995 9.5625 16.6875C9.5625 16.38 9.3075 16.125 9 16.125Z" fill="#231F20"/>
</svg>
