<svg width="18" height="18" viewBox="0 0 18 18" fill="none" xmlns="http://www.w3.org/2000/svg">
<path fill-rule="evenodd" clip-rule="evenodd" d="M11.3464 1.14645C11.3464 1.30334 12.0393 2.55897 13.7599 5.51992C13.9997 5.93253 14.0462 5.96491 14.2048 5.82901C14.3023 5.74561 14.4667 5.6473 14.5704 5.61045C14.7288 5.55421 14.5185 5.18175 13.239 3.25394C11.7939 1.07679 11.3464 0.578546 11.3464 1.14645ZM8.41744 1.42849C7.87872 1.66792 7.74686 1.88296 4.11949 8.4389C0.0395601 15.8127 0.763089 16.426 1.07217 16.7256C1.38124 17.0252 3.72084 17.0296 5.42596 17.0947C6.82723 17.1481 9.01677 17.0947 9.01677 17.0947C9.01677 17.0947 13.1071 17.2486 15.9292 16.7727C16.1844 16.7296 16.9133 16.4811 17.1565 16.3636C17.3997 16.2461 18.0925 16.0391 13.6957 8.09467C9.79286 1.14645 9.33444 1.02093 8.41744 1.42849ZM9.34982 2.52958C9.49478 2.69168 15.6434 13.7304 16.238 14.8958C16.505 15.4191 16.5145 15.6318 16.2826 15.888C16.023 16.175 2.05854 16.1926 1.74243 15.9066C1.38828 15.5861 1.52142 15.3049 5.01842 8.98678C8.60649 2.50412 8.70299 2.34318 9.00324 2.34318C9.10229 2.34318 9.25822 2.42711 9.34982 2.52958ZM8.50425 5.05533C7.39879 5.53611 7.78819 7.24259 9.00324 7.24259C10.2341 7.24259 10.6074 5.52226 9.47891 5.05075C9.03796 4.86659 8.9371 4.86702 8.50425 5.05533ZM14.5655 6.23683C14.1711 6.51301 14.2851 6.88259 15.2671 8.51037C16.3857 10.3645 16.3819 10.3614 17.0288 9.91629C17.6691 9.47566 17.6838 9.53924 16.5545 7.87355C15.2126 5.8943 15.1399 5.83444 14.5655 6.23683ZM6.67187 8.0478C6.0669 8.55691 6.13773 9.50676 6.81129 9.91756C8.01686 10.6527 9.22073 8.95781 8.13935 8.0478C7.91461 7.85864 7.68977 7.77514 7.40561 7.77514C7.12144 7.77514 6.8966 7.85864 6.67187 8.0478ZM9.79141 8.13727C8.81898 9.10969 10.0207 10.6337 11.1952 9.91756C12.1904 9.31068 11.751 7.77514 10.582 7.77514C10.2367 7.77514 10.0832 7.84543 9.79141 8.13727ZM5.21365 10.7451C4.21844 11.352 4.65789 12.8876 5.82683 12.8876C6.17213 12.8876 6.32561 12.8173 6.61744 12.5254C7.58987 11.553 6.38813 10.029 5.21365 10.7451ZM8.40892 10.7451C7.73536 11.1559 7.66453 12.1058 8.2695 12.6149C9.18942 13.389 10.5246 12.3916 10.0624 11.2756C9.9059 10.8978 9.39456 10.5451 9.00324 10.5451C8.85679 10.5451 8.58935 10.6352 8.40892 10.7451ZM11.5834 10.7578C11.3916 10.8748 11.1878 11.0934 11.1308 11.2437C10.5942 12.6549 12.5197 13.584 13.211 12.2473C13.7583 11.1889 12.606 10.1343 11.5834 10.7578ZM3.4766 13.5863C2.47329 14.4305 3.47341 16.0121 4.6892 15.5041C5.52285 15.1558 5.61423 13.8689 4.83395 13.4654C4.37458 13.2278 3.84672 13.2748 3.4766 13.5863ZM6.67187 13.5863C6.01854 14.1361 6.15317 15.123 6.93196 15.4926C8.09994 16.0468 9.12903 14.5897 8.21508 13.6757C7.74697 13.2076 7.16213 13.1738 6.67187 13.5863ZM9.79141 13.6757C8.87746 14.5897 9.90654 16.0468 11.0745 15.4926C12.1977 14.9596 11.8256 13.3136 10.582 13.3136C10.2367 13.3136 10.0832 13.3839 9.79141 13.6757ZM13.1688 13.4623C12.395 13.8911 12.487 15.1572 13.3173 15.5041C14.5331 16.0121 15.5332 14.4305 14.5299 13.5863C14.1657 13.2798 13.5922 13.2275 13.1688 13.4623Z" fill="#231F20"/>
</svg>
