<svg width="16" height="16" viewBox="0 0 16 16" fill="none" xmlns="http://www.w3.org/2000/svg">
<path fill-rule="evenodd" clip-rule="evenodd" d="M0.03125 7.99998C0.03125 3.59735 3.59737 0.0312347 8 0.0312347C12.4026 0.0312347 15.9687 3.59735 15.9687 7.99998C15.9687 12.4026 12.4026 15.9687 8 15.9687C3.59737 15.9687 0.03125 12.4026 0.03125 7.99998ZM8 0.968735C4.11513 0.968735 0.96875 4.11512 0.96875 7.99998C0.96875 11.8849 4.11513 15.0312 8 15.0312C11.8849 15.0312 15.0312 11.8849 15.0312 7.99998C15.0312 4.11512 11.8849 0.968735 8 0.968735Z" fill="#231F20"/>
<path fill-rule="evenodd" clip-rule="evenodd" d="M2.57062 2.31692C2.74578 2.24436 2.94739 2.28447 3.08146 2.41853C3.64731 2.98438 4.13855 3.62895 4.52586 4.33798L5.54037 3.83072C5.77192 3.71495 6.05349 3.8088 6.16926 4.04035C6.28504 4.27191 6.19118 4.55347 5.95963 4.66925L4.92586 5.18613C5.21838 5.91708 5.40335 6.70306 5.45436 7.53123H6.5C6.75888 7.53123 6.96875 7.7411 6.96875 7.99998C6.96875 8.25887 6.75888 8.46873 6.5 8.46873H5.45507C5.40603 9.30384 5.22649 10.0901 4.9374 10.8196L5.95963 11.3307C6.19118 11.4465 6.28504 11.7281 6.16926 11.9596C6.05349 12.1912 5.77192 12.285 5.54037 12.1692L4.53858 11.6684C4.15229 12.3743 3.6578 13.016 3.07828 13.5846C2.94352 13.7168 2.74261 13.7553 2.56855 13.6822C2.39449 13.6091 2.28125 13.4388 2.28125 13.25V2.74998C2.28125 2.56039 2.39546 2.38947 2.57062 2.31692ZM4.09524 10.3985C4.32547 9.79574 4.47015 9.1508 4.5157 8.46873H3.5C3.39447 8.46873 3.29709 8.43386 3.21875 8.37502V10.2499C3.35628 10.1469 3.54552 10.1237 3.70963 10.2057L4.09524 10.3985ZM3.29037 11.0442C3.26478 11.0315 3.24088 11.0166 3.21875 11.0001V11.9985C3.39503 11.7585 3.55572 11.5084 3.69947 11.2488L3.29037 11.0442ZM3.21875 7.62495C3.29709 7.5661 3.39447 7.53123 3.5 7.53123H4.51479C4.46722 6.85644 4.31788 6.21197 4.08397 5.60708L3.70963 5.79425C3.54552 5.8763 3.35628 5.85306 3.21875 5.75011V7.62495ZM3.21875 4.99988C3.24088 4.98333 3.26478 4.96851 3.29037 4.95572L3.6868 4.75751C3.54584 4.5023 3.38929 4.25609 3.21875 4.01975V4.99988ZM13.4294 2.31692C13.6045 2.38947 13.7187 2.56039 13.7187 2.74998V13.25C13.7187 13.4388 13.6055 13.6091 13.4314 13.6822C13.2574 13.7553 13.0565 13.7168 12.9217 13.5846C12.3422 13.016 11.8477 12.3743 11.4614 11.6684L10.4596 12.1692C10.2281 12.285 9.94651 12.1912 9.83074 11.9596C9.71496 11.7281 9.80881 11.4465 10.0404 11.3307L11.0626 10.8196C10.7735 10.0901 10.594 9.30384 10.5449 8.46873H9.5C9.24112 8.46873 9.03125 8.25887 9.03125 7.99998C9.03125 7.7411 9.24112 7.53123 9.5 7.53123H10.5456C10.5966 6.70306 10.7816 5.91708 11.0741 5.18613L10.0404 4.66925C9.80881 4.55347 9.71496 4.27191 9.83074 4.04035C9.94651 3.8088 10.2281 3.71495 10.4596 3.83072L11.4741 4.33798C11.8615 3.62895 12.3527 2.98438 12.9185 2.41853C13.0526 2.28447 13.2542 2.24436 13.4294 2.31692ZM11.916 5.60708C11.6821 6.21197 11.5328 6.85644 11.4852 7.53123H12.5C12.6055 7.53123 12.7029 7.5661 12.7812 7.62495V5.75011C12.6437 5.85306 12.4545 5.8763 12.2904 5.79425L11.916 5.60708ZM12.7096 4.95572L12.3132 4.75751C12.4542 4.5023 12.6107 4.25609 12.7812 4.01975V4.99988C12.7591 4.98333 12.7352 4.96851 12.7096 4.95572ZM12.7812 8.37502C12.7029 8.43386 12.6055 8.46873 12.5 8.46873H11.4843C11.5299 9.1508 11.6745 9.79574 11.9048 10.3985L12.2904 10.2057C12.4545 10.1237 12.6437 10.1469 12.7812 10.2499V8.37502ZM12.7812 11.0001C12.7591 11.0166 12.7352 11.0315 12.7096 11.0442L12.3005 11.2488C12.4443 11.5084 12.605 11.7585 12.7812 11.9985V11.0001Z" fill="#231F20"/>
</svg>
