<svg width="18" height="18" viewBox="0 0 18 18" fill="none" xmlns="http://www.w3.org/2000/svg">
<path fill-rule="evenodd" clip-rule="evenodd" d="M6.47596 0.543803C6.25964 0.660897 6.20615 0.956911 6.36934 1.13384C6.47111 1.24411 6.58464 1.27779 7.05626 1.33765C10.1909 1.73546 10.7079 2.74026 8.47167 4.08813C7.65521 4.58026 5.80139 5.34441 4.73262 5.62944C4.67665 5.64438 4.524 5.68948 4.39341 5.72971C4.26281 5.76995 4.10633 5.81681 4.04571 5.83384C3.98509 5.8509 3.88584 5.87901 3.82522 5.8963C3.7646 5.9136 3.59669 5.95921 3.45208 5.99765C3.30751 6.0361 3.07854 6.09705 2.94326 6.13313C2.62354 6.21836 2.63467 6.21556 2.12066 6.33789C1.87812 6.39559 1.56519 6.47046 1.42526 6.50428C1.28533 6.53806 1.07217 6.58667 0.951545 6.61225C0.534885 6.70063 0.376708 7.00992 0.607477 7.28505C0.729154 7.43009 0.904156 7.43853 1.37438 7.32198C1.54229 7.28036 1.74836 7.23097 1.83232 7.21221C1.91628 7.1935 2.0384 7.16451 2.10369 7.14786C2.32225 7.09208 2.66221 7.00772 2.78213 6.97951C2.92745 6.94529 3.67651 6.74938 3.81674 6.7089C3.87271 6.69276 4.02536 6.64914 4.15595 6.61198C4.28655 6.57482 4.49643 6.51313 4.62238 6.47492C4.74829 6.43667 4.94674 6.37654 5.06336 6.34124C8.57476 5.27887 10.6195 3.92465 10.6177 2.66255C10.6161 1.55363 9.62732 0.92333 7.37851 0.597722C6.51931 0.47333 6.5975 0.478026 6.47596 0.543803ZM11.0731 0.541235C10.825 0.648803 10.7432 0.935796 10.9057 1.12816C10.9908 1.2289 11.0678 1.26738 11.3134 1.33178C14.2491 2.10167 16.1757 3.55671 16.5997 5.32431C16.7204 5.82718 16.7311 5.92282 16.7132 6.3387C16.6958 6.74347 16.6724 6.90536 16.5889 7.19931C16.5678 7.27363 16.5376 7.38005 16.5219 7.4358C16.3514 8.04019 15.7747 9.20154 15.096 10.3074C14.9005 10.626 13.8749 12.1598 13.6671 12.4444C13.5756 12.5697 13.4296 12.7711 13.3425 12.8919C12.8142 13.6253 11.5481 15.2975 11.0789 15.8817C10.8278 16.1943 10.6004 16.4852 10.3527 16.8108C10.1575 17.0672 10.1564 17.2087 10.3481 17.3904C10.5647 17.5956 10.7961 17.5506 11.0122 17.2613C11.0655 17.1901 11.2544 16.9493 11.4321 16.7263C11.6098 16.5034 11.8236 16.232 11.9074 16.1234C11.9912 16.0148 12.2026 15.7412 12.3772 15.5153C12.8809 14.864 13.684 13.7897 14.2374 13.027C14.5384 12.6122 15.7741 10.7816 15.7741 10.7505C15.7741 10.7418 15.8525 10.6081 15.9483 10.4535C16.0441 10.2988 16.1606 10.1039 16.2073 10.0203C16.254 9.93664 16.3407 9.78461 16.3999 9.68242C16.7376 9.10032 17.1967 8.06042 17.3396 7.55404C18.0637 4.98769 16.6395 2.61985 13.5608 1.27161C13.1577 1.09509 12.4535 0.844242 11.9579 0.700661C11.6952 0.624546 11.2011 0.492485 11.1868 0.494546C11.1818 0.495289 11.1307 0.516303 11.0731 0.541235ZM13.0288 3.93235C12.9126 3.98978 12.7962 4.14414 12.7915 4.24701C12.7901 4.27698 12.7432 4.41211 12.6873 4.54728C12.5041 4.98958 12.6193 5.29053 12.9718 5.29053C13.2177 5.29053 13.3402 5.1236 13.5261 4.53559L13.6113 4.266L13.5402 4.12029C13.4323 3.89907 13.2395 3.82823 13.0288 3.93235ZM10.5469 7.18938C10.4088 7.30468 10.2652 7.42759 10.2279 7.46252C10.1906 7.49742 9.99147 7.65249 9.78539 7.80708C9.27772 8.18789 9.20964 8.35529 9.46069 8.60532C9.68943 8.83309 9.7991 8.79961 10.3949 8.32016C11.2974 7.59377 11.4011 7.47394 11.3258 7.24441C11.2145 6.90512 10.913 6.8838 10.5469 7.18938ZM6.78461 9.81015C5.39498 10.5404 5.18707 10.7182 5.34213 11.0436C5.46302 11.2974 5.67531 11.3242 6.03427 11.131C7.4679 10.3596 7.63666 10.1942 7.35175 9.83955C7.23414 9.6932 7.02753 9.68249 6.78461 9.81015ZM2.58901 11.9287C1.85929 12.2075 1.69667 12.3743 1.85217 12.6847C1.98253 12.9451 2.17408 12.9642 2.64597 12.7641C3.25177 12.5073 3.4379 12.0749 3.0111 11.9158C2.83633 11.8507 2.78945 11.8521 2.58901 11.9287Z" fill="#231F20"/>
</svg>
