<svg width="16" height="17" viewBox="0 0 16 17" fill="none" xmlns="http://www.w3.org/2000/svg">
<path d="M15.5 16.25V14.75C14.4425 14.7875 13.415 14.675 12.5 14C11.18 14.9375 9.3275 14.9375 8 14C6.6725 14.9375 4.82 14.9375 3.5 14C2.585 14.675 1.5575 14.7875 0.5 14.75V16.25C1.5275 16.2875 2.585 16.205 3.5 15.6875C4.88 16.4375 6.6125 16.4375 8 15.6875C9.3875 16.4375 11.12 16.4375 12.5 15.6875C13.415 16.205 14.4725 16.2875 15.5 16.25ZM14.375 7.9775V6.4625C13.055 6.47 11.75 5.75 11.135 4.5575L10.4675 3.395C10.25 3.05 9.9125 2.8325 9.5525 2.7275L5.375 1.955L2.75 3.785L3.5975 5L5.7125 3.575L7.2275 3.8225L5.6075 4.91C5.1575 5.2175 4.91 5.75 5 6.2825L5.3975 8.6075C4.34 8.195 1.4075 7.25 1.25 8.9225C1.52 10.7525 3.5525 11.99 5.045 13.115C6.125 13.4675 7.295 12.935 8 12.095C8.99 13.37 10.9175 13.595 12.125 12.5C11.7725 12.185 11.375 11.8625 11 11.6V8.7125L8.1425 6.4625L9.83 5.33C10.715 6.9425 12.5 8 14.375 7.9775ZM9.5 9.5V10.6025C9.5 10.5725 7.745 9.62 7.8575 9.68L7.0475 9.275L6.7325 7.31L9.5 9.5ZM13.25 1.625C13.25 2.4575 12.5825 3.125 11.75 3.125C10.9175 3.125 10.25 2.4575 10.25 1.625C10.25 0.7925 10.925 0.125 11.75 0.125C12.575 0.125 13.25 0.8 13.25 1.625Z" fill="#231F20"/>
</svg>
