<svg width="16" height="9" viewBox="0 0 16 9" fill="none" xmlns="http://www.w3.org/2000/svg">
<path d="M11 2.49999C11.4142 2.49999 11.75 2.16421 11.75 1.74999C11.75 1.33578 11.4142 0.999992 11 0.999992C10.5858 0.999992 10.25 1.33578 10.25 1.74999C10.25 2.16421 10.5858 2.49999 11 2.49999Z" stroke="#231F20" stroke-width="2" stroke-linecap="round" stroke-linejoin="round"/>
<path d="M3.5 3.25L6.5 1.75L9.125 4L8 5.5" stroke="#231F20" stroke-width="2" stroke-linecap="round" stroke-linejoin="round"/>
<path d="M1.25 7.5625C1.48347 7.67858 1.73937 7.74255 2 7.75C2.29212 7.75612 2.58134 7.69103 2.84268 7.56036C3.10402 7.42969 3.32962 7.23737 3.5 7C3.67038 6.76263 3.89598 6.5703 4.15732 6.43963C4.41866 6.30896 4.70788 6.24388 5 6.25C5.29212 6.24388 5.58134 6.30896 5.84268 6.43963C6.10402 6.5703 6.32962 6.76263 6.5 7C6.67038 7.23737 6.89598 7.42969 7.15732 7.56036C7.41866 7.69103 7.70788 7.75612 8 7.75C8.29212 7.75612 8.58134 7.69103 8.84268 7.56036C9.10402 7.42969 9.32962 7.23737 9.5 7C9.67038 6.76263 9.89598 6.5703 10.1573 6.43963C10.4187 6.30896 10.7079 6.24388 11 6.25C11.2921 6.24388 11.5813 6.30896 11.8427 6.43963C12.104 6.5703 12.3296 6.76263 12.5 7C12.6704 7.23737 12.896 7.42969 13.1573 7.56036C13.4187 7.69103 13.7079 7.75612 14 7.75C14.2606 7.74255 14.5165 7.67858 14.75 7.5625" stroke="#231F20" stroke-width="2" stroke-linecap="round" stroke-linejoin="round"/>
</svg>
