<svg width="18" height="8" viewBox="0 0 18 8" fill="none" xmlns="http://www.w3.org/2000/svg">
<path fill-rule="evenodd" clip-rule="evenodd" d="M3.0605 0.224101C2.98704 0.307307 2.63013 0.924519 2.26742 1.59562C1.9047 2.26671 1.60791 2.89093 1.60791 2.98278C1.60791 3.07455 1.92411 3.67369 2.31056 4.31408C2.69701 4.95456 3.0748 5.52723 3.15008 5.58665C3.22536 5.64615 3.3702 5.69476 3.4719 5.69476C3.5736 5.69476 3.74158 5.60464 3.84519 5.49462C3.94879 5.38451 4.03352 5.22571 4.03352 5.14181C4.03352 5.05792 3.75882 4.53057 3.42304 3.96992L2.81257 2.95061L3.36959 1.92247C3.676 1.35707 3.95139 0.812943 3.98163 0.71339C4.01732 0.595587 3.97331 0.452096 3.85549 0.30255C3.73725 0.152485 3.59102 0.0727386 3.43422 0.0727386C3.3022 0.0727386 3.13396 0.140895 3.0605 0.224101ZM11.9833 0.224101C11.9098 0.307307 11.5529 0.924519 11.1902 1.59562C10.8275 2.26671 10.5308 2.88946 10.5308 2.9795C10.5308 3.06954 10.8453 3.66867 11.2297 4.31088C11.614 4.95309 11.9917 5.52723 12.0691 5.58665C12.1465 5.64615 12.293 5.69476 12.3947 5.69476C12.4964 5.69476 12.6643 5.60464 12.7679 5.49462C12.8715 5.38451 12.9563 5.22571 12.9563 5.14181C12.9563 5.05792 12.6816 4.53057 12.3458 3.96992L11.7353 2.95061L12.2923 1.92247C12.5988 1.35707 12.8741 0.812943 12.9044 0.71339C12.9401 0.595587 12.8961 0.452096 12.7783 0.30255C12.66 0.152485 12.5138 0.0727386 12.357 0.0727386C12.225 0.0727386 12.0567 0.140895 11.9833 0.224101ZM5.07479 3.51099C4.90899 3.59411 4.68479 3.79443 4.57668 3.95609C4.45176 4.14274 4.38012 4.37947 4.38038 4.60478C4.38055 4.80371 4.45488 5.08101 4.54948 5.236C4.64234 5.38797 4.81343 5.57462 4.92978 5.65074C5.04621 5.72685 5.27941 5.81153 5.44816 5.83886C5.66344 5.87372 5.86693 5.83445 6.13054 5.70704C6.34052 5.60559 6.57867 5.40302 6.67041 5.24803C6.76067 5.09545 6.83448 4.80994 6.83448 4.6136C6.83448 4.41727 6.75981 4.1289 6.6685 3.97278C6.57711 3.81666 6.35776 3.61479 6.18104 3.52423C6.00423 3.43358 5.75084 3.35955 5.61796 3.35963C5.48498 3.35963 5.2406 3.42779 5.07479 3.51099ZM13.9975 3.51099C13.8317 3.59411 13.6075 3.79443 13.4994 3.95609C13.3745 4.14274 13.3029 4.37947 13.3031 4.60478C13.3033 4.80371 13.3776 5.08101 13.4722 5.236C13.5651 5.38797 13.7362 5.57462 13.8525 5.65074C13.969 5.72685 14.2022 5.81153 14.3709 5.83886C14.5862 5.87372 14.7897 5.83445 15.0533 5.70704C15.2633 5.60559 15.5014 5.40302 15.5932 5.24803C15.6834 5.09545 15.7572 4.80994 15.7572 4.6136C15.7572 4.41727 15.6826 4.1289 15.5913 3.97278C15.5 3.81666 15.2805 3.61479 15.1038 3.52423C14.927 3.43358 14.6736 3.35955 14.5407 3.35963C14.4077 3.35963 14.1634 3.42779 13.9975 3.51099ZM0.347119 5.61579C0.315153 5.66752 0.322603 5.74251 0.363665 5.78238C0.404814 5.82225 0.714858 5.89266 1.05271 5.93884C1.39056 5.98494 1.91683 6.12757 2.2222 6.25567C2.52756 6.38376 2.97232 6.56773 3.21054 6.66452C3.48698 6.77687 3.9274 6.85627 4.42768 6.88395C4.87503 6.90877 5.41282 6.88438 5.68015 6.82712C5.93787 6.77194 6.5091 6.57301 6.94952 6.38515C7.38995 6.19728 8.02502 6.00103 8.36079 5.94896C8.80615 5.88003 9.14036 5.88063 9.59603 5.95121C9.95537 6.00683 10.5368 6.19011 10.9651 6.38264C11.3745 6.56669 11.9523 6.76502 12.2492 6.82332C12.5595 6.8843 13.1099 6.91102 13.5442 6.88628C14.1027 6.85454 14.4461 6.78146 14.8624 6.6057C15.1719 6.47501 15.6786 6.27815 15.9883 6.1684C16.298 6.05855 16.7853 5.93625 17.0711 5.89664C17.4433 5.845 17.5909 5.78765 17.5909 5.69476C17.5909 5.60593 17.4816 5.55577 17.2444 5.5357C17.0538 5.51961 16.6835 5.55352 16.4214 5.61104C16.1594 5.66855 15.6093 5.86628 15.1989 6.05042C14.7288 6.26138 14.2148 6.41819 13.8089 6.47458C13.3943 6.5321 12.9639 6.53556 12.6005 6.48418C12.2901 6.44033 11.6636 6.24607 11.2083 6.05258C10.753 5.8591 10.2096 5.66146 10.0008 5.61337C9.7919 5.56537 9.32869 5.52601 8.97135 5.52601C8.61401 5.52601 8.1508 5.56537 7.94194 5.61337C7.73308 5.66146 7.20309 5.85339 6.76414 6.03995C6.32519 6.22652 5.70216 6.42121 5.37973 6.47268C4.96599 6.53867 4.60163 6.53954 4.14163 6.47562C3.72824 6.41819 3.21687 6.26285 2.74379 6.05077C2.33343 5.86697 1.79113 5.67271 1.5387 5.61917C1.28617 5.56563 0.927878 5.52178 0.742492 5.52178C0.55702 5.52178 0.379172 5.56407 0.347119 5.61579ZM0.358987 6.5481C0.325548 6.60207 0.320004 6.6813 0.346513 6.7242C0.373108 6.76701 0.638538 6.82998 0.936367 6.86406C1.23428 6.89813 1.71187 7.01481 1.99774 7.12328C2.28362 7.23182 2.7709 7.43119 3.0806 7.56646C3.60124 7.79377 3.72529 7.81227 4.72655 7.81132C5.75769 7.81029 5.8425 7.79645 6.50243 7.52079C6.8836 7.36165 7.40987 7.15234 7.67192 7.05564C8.02693 6.92477 8.35819 6.87997 8.97135 6.87997C9.58451 6.87997 9.91578 6.92477 10.2708 7.05564C10.5328 7.15234 11.0591 7.35802 11.4403 7.51275C11.9878 7.73495 12.2979 7.80293 12.9173 7.83641C13.3594 7.86037 13.9044 7.83528 14.1673 7.77906C14.4238 7.72414 14.977 7.52477 15.3968 7.33605C15.8914 7.11367 16.412 6.95461 16.8755 6.88412C17.4045 6.80377 17.5909 6.74167 17.5909 6.64592C17.5909 6.54152 17.4639 6.51826 16.9349 6.52604C16.3575 6.53443 16.166 6.58408 15.3371 6.93956C14.7688 7.1833 14.1615 7.37661 13.8058 7.42704C13.4204 7.48153 13.0041 7.48049 12.6042 7.42384C12.2548 7.37436 11.6465 7.19022 11.1864 6.99475C10.7432 6.80637 10.2096 6.61288 10.0008 6.56479C9.7919 6.51679 9.32869 6.47743 8.97135 6.47743C8.61401 6.47743 8.1508 6.51679 7.94194 6.56479C7.73308 6.61288 7.19953 6.80637 6.75634 6.99475C6.29617 7.19022 5.68786 7.37436 5.33849 7.42384C4.93861 7.48049 4.52228 7.48153 4.13695 7.42704C3.78307 7.37687 3.17572 7.18408 2.61748 6.94467C1.89526 6.63485 1.54606 6.53512 1.05366 6.49793C0.626843 6.46576 0.399789 6.4821 0.358987 6.5481Z" fill="#231F20"/>
</svg>
