<svg width="15" height="18" viewBox="0 0 15 18" fill="none" xmlns="http://www.w3.org/2000/svg">
<path fill-rule="evenodd" clip-rule="evenodd" d="M2.63333 0.733339C2.51056 0.753963 2.3027 0.823339 2.17146 0.887559C2.04021 0.951779 1.83452 1.10259 1.71441 1.2227C1.59431 1.34285 1.43981 1.55586 1.37117 1.69609C1.26078 1.92143 1.24623 2.00457 1.24581 2.41208C1.2454 2.83966 1.25622 2.89527 1.39497 3.17733C1.48189 3.35402 1.63284 3.56288 1.7552 3.67563C1.87103 3.78243 2.08339 3.92486 2.22707 3.99226C2.45568 4.09943 2.54582 4.11467 2.94868 4.11425C3.35545 4.11384 3.43873 4.09925 3.66398 3.9889C3.80421 3.92026 4.01722 3.76576 4.13737 3.64566C4.25748 3.52555 4.40728 3.32193 4.4703 3.19317C4.53328 3.06445 4.60403 2.84104 4.62751 2.69677C4.65334 2.53803 4.65371 2.33308 4.62843 2.17794C4.60551 2.03689 4.53572 1.81012 4.47343 1.67403C4.4111 1.53791 4.26705 1.33346 4.1533 1.21975C4.03959 1.106 3.84343 0.96071 3.71743 0.896858C3.59148 0.833007 3.3566 0.759395 3.19552 0.733247C3.03444 0.707145 2.89228 0.68804 2.87962 0.690802C2.86697 0.69361 2.75616 0.712715 2.63333 0.733339ZM9.32464 2.1279C9.23602 2.16026 8.50106 2.60727 7.69143 3.12131L6.21934 4.05588L4.99833 4.50482C4.32676 4.75171 3.70482 4.98521 3.6162 5.0236C3.52758 5.06204 3.36963 5.15637 3.26522 5.23315C3.14719 5.32002 2.63025 5.9642 1.89851 6.9362C1.25125 7.79601 0.679022 8.56946 0.626909 8.65495C0.566786 8.75356 0.532075 8.88959 0.531983 9.0271C0.531799 9.2309 0.578617 9.31423 1.3145 10.4204C1.8527 11.2295 2.14393 11.6255 2.24672 11.6882C2.32894 11.7383 2.47598 11.7794 2.57344 11.7795C2.6709 11.7796 2.82074 11.7464 2.90646 11.7057C2.99218 11.665 3.10143 11.5666 3.14921 11.4871C3.197 11.4075 3.24929 11.2862 3.26541 11.2176C3.28156 11.149 3.26697 11.0121 3.233 10.9135C3.19898 10.8149 2.96056 10.3584 2.70317 9.89916C2.44574 9.43991 2.23512 9.04708 2.23512 9.02618C2.23512 9.00528 2.4345 8.75135 2.67822 8.46192C2.92189 8.17249 3.14152 7.92809 3.16629 7.91879C3.19106 7.90945 3.3351 8.02338 3.48642 8.17199C3.6377 8.32055 4.08862 8.7839 4.48844 9.20167L5.21539 9.96126L5.29383 13.3909C5.36266 16.4007 5.38172 16.8403 5.44948 16.9811C5.49193 17.0694 5.59707 17.1885 5.68311 17.2458C5.78909 17.3164 5.90786 17.35 6.0514 17.3498C6.18025 17.3497 6.32103 17.3145 6.41062 17.2598C6.49169 17.2104 6.59117 17.1059 6.63164 17.0276C6.6785 16.9369 6.87157 15.7199 7.16298 13.6784C7.44403 11.7092 7.643 10.4509 7.67853 10.4181C7.71035 10.3887 9.11402 9.12603 10.7978 7.6121C12.4815 6.09821 13.9354 4.78228 14.0287 4.68781C14.1219 4.5934 14.22 4.43499 14.2467 4.33587C14.2766 4.22469 14.2797 4.10178 14.2549 4.015C14.2327 3.93766 14.1902 3.82892 14.1605 3.77341C14.1308 3.71789 14.0405 3.63221 13.9598 3.583C13.8652 3.52532 13.7295 3.49351 13.5777 3.49342C13.4178 3.49328 13.3069 3.52076 13.2324 3.57895C13.172 3.62609 11.9107 4.50234 10.4295 5.52613C8.94829 6.54996 7.71394 7.4013 7.68641 7.41801C7.65869 7.43486 7.31416 7.1389 6.91227 6.75303C6.32904 6.19296 6.19987 6.04684 6.24871 6.00227C6.28204 5.97185 6.64075 5.74296 7.04587 5.49358C7.55668 5.17915 8.1313 4.76078 8.92063 4.12862C9.56821 3.60998 10.0891 3.15846 10.1291 3.08121C10.1677 3.0065 10.1992 2.85628 10.1991 2.74745C10.199 2.63241 10.1613 2.48776 10.1091 2.40214C10.0597 2.32107 9.96136 2.22513 9.8906 2.18899C9.81985 2.15285 9.69983 2.11105 9.62387 2.09618C9.54791 2.08127 9.41326 2.09558 9.32464 2.1279Z" fill="#231F20"/>
</svg>
