<svg width="16" height="18" viewBox="0 0 16 18" fill="none" xmlns="http://www.w3.org/2000/svg">
<path d="M13.64 1.8675C11.885 0.112499 8.675 0.464999 6.4775 2.6625C5.2775 3.8625 4.5875 5.565 4.5725 6.7575C4.5575 7.9425 4.7675 9.675 3.56 10.8825L0.380005 14.0625L1.445 15.1275L4.625 11.9475C5.8325 10.74 7.565 10.95 8.75 10.935C9.935 10.92 11.645 10.23 12.845 9.03C15.035 6.8325 15.395 3.6225 13.64 1.8675ZM6.74 8.76C5.5925 7.6125 5.9525 5.3025 7.535 3.72C9.1175 2.1375 11.42 1.7775 12.575 2.925C13.7225 4.0725 13.3625 6.3825 11.78 7.965C10.1975 9.5475 7.895 9.9075 6.74 8.76ZM12.5 12.75C12.8975 12.75 13.28 12.9075 13.5575 13.1925C14.1425 13.7775 14.1425 14.73 13.5575 15.315C13.28 15.5925 12.8975 15.75 12.5 15.75C12.1025 15.75 11.72 15.5925 11.4425 15.3075C10.8575 14.7225 10.8575 13.77 11.4425 13.185C11.72 12.9075 12.1025 12.75 12.5 12.75ZM12.5 11.25C11.906 11.2488 11.325 11.4241 10.8308 11.7536C10.3365 12.0831 9.95127 12.5519 9.72389 13.1007C9.49651 13.6495 9.43724 14.2534 9.55361 14.8359C9.66998 15.4184 9.95673 15.9532 10.3775 16.3725C10.9625 16.9575 11.735 17.25 12.5 17.25C13.094 17.2512 13.675 17.0759 14.1692 16.7464C14.6635 16.4169 15.0487 15.9481 15.2761 15.3993C15.5035 14.8505 15.5628 14.2466 15.4464 13.6641C15.33 13.0816 15.0433 12.5468 14.6225 12.1275C14.3437 11.8489 14.0128 11.628 13.6486 11.4775C13.2844 11.3269 12.8941 11.2496 12.5 11.25Z" fill="#231F20"/>
</svg>
