<svg width="17" height="18" viewBox="0 0 17 18" fill="none" xmlns="http://www.w3.org/2000/svg">
<path d="M12.1882 3.08917C12.9366 3.08917 13.5378 2.48041 13.5378 1.72657C13.5378 0.972728 12.937 0.360008 12.1882 0.360008C11.443 0.360008 10.841 0.972728 10.841 1.72657C10.841 2.48041 11.443 3.08917 12.1882 3.08917ZM6.46344 8.62309L11.3152 5.45077C11.6206 5.25403 11.8361 4.94491 11.9152 4.59035C11.9944 4.23579 11.9306 3.86434 11.7378 3.55645C11.644 3.40418 11.5209 3.27211 11.3755 3.16797C11.2301 3.06384 11.0654 2.98971 10.8911 2.94993C10.7167 2.91015 10.5362 2.9055 10.36 2.93627C10.1839 2.96704 10.0156 3.0326 9.86508 3.12913L6.28812 5.46661C6.09142 5.59267 5.93089 5.76772 5.82228 5.97457L2.09844 13.3996C1.8792 13.8391 2.05092 14.3712 2.48112 14.593C2.58387 14.6455 2.696 14.6771 2.81103 14.686C2.92606 14.6949 3.04173 14.681 3.15134 14.645C3.26096 14.609 3.36235 14.5516 3.44968 14.4762C3.537 14.4008 3.60853 14.3088 3.66012 14.2056L6.46344 8.62309ZM15.9134 8.10325C16.2229 7.90619 16.4424 7.59524 16.5243 7.23765C16.6063 6.88005 16.5443 6.50456 16.3516 6.19237L15.881 6.48253C15.9976 6.66927 16.0354 6.89457 15.9862 7.10911C15.937 7.32366 15.8048 7.50999 15.6186 7.62733L0.720001 17.1681L1.01484 17.64L15.9134 8.10325Z" fill="#231F20"/>
</svg>
