<svg width="18" height="8" viewBox="0 0 18 8" fill="none" xmlns="http://www.w3.org/2000/svg">
<path d="M4.73099 0.882256H6.82874C6.82874 0.882256 5.43374 5.86151 5.36549 6.13076C5.23274 6.64826 5.10074 7.11775 3.83324 7.11775C2.30549 7.11775 1.41824 7.1125 1.00049 7.11775C0.476994 7.123 -0.140256 6.64301 0.0284944 6.01976L1.46099 0.882256H3.59999C3.59999 0.882256 2.39999 5.16476 2.37449 5.27501C2.35274 5.38601 2.23199 5.69276 2.89799 5.69801C3.37799 5.70851 3.41549 5.58176 3.50024 5.27501C3.70124 4.58351 4.73024 0.882256 4.73024 0.882256H4.73099ZM12.435 0.882256L12.0547 2.25026H7.48949L7.86974 0.882256H12.435ZM6.13199 7.11775L7.22624 3.18476H11.7907L11.4105 4.55201H8.96399L8.25149 7.11775H6.13199ZM14.7345 3.07901C14.5395 3.79676 14.3647 4.40951 14.169 5.13251C14.1315 5.26001 14.0475 5.44451 14.0737 5.56001C14.1322 5.83526 15.0412 5.72951 15.3682 5.72951H16.827C16.7107 6.18851 16.5795 6.637 16.452 7.087H12.9795C12.4725 7.039 11.8117 6.82226 11.8755 6.16751C11.8965 5.96201 11.9925 5.72951 12.0555 5.50226C12.3677 4.38711 12.6777 3.27136 12.9855 2.15501C13.1175 1.66901 13.2232 1.25726 13.608 1.06226C13.8577 0.934756 14.2537 0.898756 14.5492 0.882256H18C17.8785 1.33676 17.7517 1.79051 17.625 2.23976H15.6427C15.405 2.23976 15.141 2.21276 15.009 2.30276C14.8665 2.40851 14.7877 2.88401 14.7345 3.07901Z" fill="#231F20"/>
</svg>
