<svg width="16" height="16" viewBox="0 0 16 16" fill="none" xmlns="http://www.w3.org/2000/svg">
<path d="M14 11H15.5V12.5H14C12.95 12.5 11.9 12.2 11 11.75C9.125 12.725 6.875 12.725 5 11.75C4.1 12.2 3.05 12.5 2 12.5H0.5V11H2C3.05 11 4.1 10.625 5 10.025C6.8 11.3 9.2 11.3 11 10.025C11.9 10.625 12.95 11 14 11ZM8.75 6.95C9.2 6.725 9.725 6.5 10.25 6.425V6.65C10.475 7.4 10.475 8.075 10.4 8.825C9.725 9.2 8.9 9.425 8.15 9.425C8.525 8.675 8.75 7.775 8.75 6.95ZM8.675 1.7C7.625 2 6.725 2.525 5.975 3.275C5.675 2.525 5.525 1.775 5.525 1.025C7.175 0.274998 9.05 0.349998 10.7 1.175C10.925 1.25 11.15 1.325 11.3 1.475C10.4 1.4 9.5 1.475 8.675 1.7ZM4.1 8.975C3.65 9.2 3.2 9.35 2.75 9.425C2.225 8.45 2 7.4 2 6.35C2.375 7.1 2.9 7.85 3.5 8.45C3.725 8.6 3.875 8.825 4.1 8.975ZM13.25 9.425C12.8 9.35 12.35 9.2 11.975 9.05C12.125 8.15 12.05 7.25 11.825 6.35C12.65 6.425 13.4 6.65 14.075 7.1C14 7.85 13.775 8.525 13.4 9.2L13.25 9.425ZM4.55 7.4C3.65 6.575 3.125 5.375 2.9 4.175L2.825 3.5C3.2 2.9 3.575 2.45 4.1 2C4.175 3.05 4.55 4.025 5.15 4.85C5.675 5.675 6.425 6.425 7.25 6.875C7.25 7.475 7.1 8.075 6.875 8.675C5.975 8.45 5.225 8 4.55 7.4ZM9.125 3.125C10.25 2.825 11.525 2.9 12.65 3.275L13.25 3.575C13.55 4.1 13.7 4.7 13.85 5.3C11.975 4.475 9.8 4.625 8 5.6C7.475 5.375 7.1 5 6.725 4.55L6.8 4.475C7.475 3.875 8.225 3.35 9.125 3.125ZM11 13.025C11.9 13.625 12.95 14 14 14H15.5V15.5H14C12.95 15.5 11.9 15.2 11 14.75C9.125 15.725 6.875 15.725 5 14.75C4.1 15.2 3.05 15.5 2 15.5H0.5V14H2C3.05 14 4.1 13.625 5 13.025C6.8 14.3 9.2 14.3 11 13.025Z" fill="#231F20"/>
</svg>
