<svg width="14" height="16" viewBox="0 0 14 16" fill="none" xmlns="http://www.w3.org/2000/svg">
<path d="M14 3.71527H10.4767C10.6617 3.39931 10.7682 3.03255 10.7682 2.64128C10.7682 1.46057 9.80268 0.5 8.61588 0.5C7.9726 0.5 7.39472 0.782585 6.99996 1.22914C6.60521 0.782585 6.02737 0.5 5.38405 0.5C4.19725 0.5 3.23173 1.46057 3.23173 2.64128C3.23173 3.03252 3.33826 3.39928 3.52321 3.71527H0V6.92605H1.07727V15.5H12.9227V6.92605H14V3.71527ZM8.61592 1.56733C9.21118 1.56733 9.69544 2.04911 9.69544 2.64132C9.69544 3.23353 9.21118 3.7153 8.61592 3.7153H7.5364V2.64132C7.5364 2.04911 8.02066 1.56733 8.61592 1.56733ZM7.54087 5.85875H6.45913V4.78256H7.54087V5.85875ZM4.3046 2.64128C4.3046 2.04907 4.78886 1.5673 5.38412 1.5673C5.97938 1.5673 6.4636 2.04911 6.4636 2.64128V3.71527H5.38412C4.78886 3.71527 4.3046 3.23349 4.3046 2.64128ZM1.0728 5.85875V4.78256H5.3863V5.85875H1.0728ZM2.15006 14.4327V6.92605H5.38633V14.4327H2.15006ZM6.45913 14.4327V6.92605H7.54087V14.4327H6.45913ZM11.8499 14.4327H8.61367V6.92605H11.8499V14.4327ZM12.9272 5.85875H8.61367V4.78256H12.9272V5.85875Z" fill="#231F20" fill-opacity="0.9"/>
</svg>
