<svg width="16" height="16" viewBox="0 0 16 16" fill="none" xmlns="http://www.w3.org/2000/svg">
<path d="M7.99999 0.125C3.66875 0.125 0.125 3.67508 0.125 8.04744C0.125 12.0008 3.00725 15.282 6.77149 15.875V10.3404H4.77124V8.04744H6.77149V6.30008C6.77149 4.31551 7.94487 3.2244 9.74824 3.2244C10.6066 3.2244 11.5044 3.37462 11.5044 3.37462V5.32756H10.5121C9.53561 5.32756 9.22849 5.93637 9.22849 6.56099V8.04744H11.4177L11.0634 10.3404H9.22849V15.875C11.0842 15.5808 12.774 14.6301 13.9928 13.1947C15.2116 11.7593 15.8792 9.93368 15.875 8.04744C15.875 3.67508 12.3312 0.125 7.99999 0.125Z" fill="black"/>
</svg>
