<svg width="12" height="14" viewBox="0 0 12 14" fill="none" xmlns="http://www.w3.org/2000/svg">
<path d="M7.49998 7V12.91C7.52998 13.135 7.45498 13.375 7.28248 13.5325C7.21309 13.602 7.13067 13.6572 7.03994 13.6948C6.94921 13.7325 6.85195 13.7518 6.75373 13.7518C6.6555 13.7518 6.55824 13.7325 6.46751 13.6948C6.37678 13.6572 6.29436 13.602 6.22498 13.5325L4.71748 12.025C4.63568 11.945 4.57348 11.8472 4.53575 11.7392C4.49802 11.6313 4.48578 11.516 4.49998 11.4025V7H4.47748L0.157476 1.465C0.0356824 1.30865 -0.0192734 1.11044 0.00461717 0.913697C0.0285078 0.716951 0.129302 0.53766 0.284976 0.415C0.427476 0.31 0.584976 0.25 0.749976 0.25H11.25C11.415 0.25 11.5725 0.31 11.715 0.415C11.8707 0.53766 11.9714 0.716951 11.9953 0.913697C12.0192 1.11044 11.9643 1.30865 11.8425 1.465L7.52248 7H7.49998Z" fill="#231F20"/>
</svg>
