<svg width="24" height="24" viewBox="0 0 24 24" fill="none" xmlns="http://www.w3.org/2000/svg">
<path d="M6.66675 12H17.3254V19.6133H6.66675V12ZM11.9961 13.9033C12.4672 13.9033 12.9191 14.1039 13.2522 14.4608C13.5854 14.8178 13.7725 15.3019 13.7725 15.8067C13.7725 16.3115 13.5854 16.7956 13.2522 17.1525C12.9191 17.5095 12.4672 17.71 11.9961 17.71C11.5249 17.71 11.0731 17.5095 10.7399 17.1525C10.4068 16.7956 10.2196 16.3115 10.2196 15.8067C10.2196 15.3019 10.4068 14.8178 10.7399 14.4608C11.0731 14.1039 11.5249 13.9033 11.9961 13.9033ZM9.03534 13.2689C9.03534 13.6054 8.91057 13.9282 8.68847 14.1661C8.46637 14.4041 8.16514 14.5378 7.85104 14.5378V17.0756C8.16514 17.0756 8.46637 17.2092 8.68847 17.4472C8.91057 17.6852 9.03534 18.0079 9.03534 18.3444H14.9568C14.9568 18.0079 15.0816 17.6852 15.3037 17.4472C15.5258 17.2092 15.827 17.0756 16.1411 17.0756V14.5378C15.827 14.5378 15.5258 14.4041 15.3037 14.1661C15.0816 13.9282 14.9568 13.6054 14.9568 13.2689H9.03534Z" fill="black"/>
<path d="M12 10L16 5.15385H12.6667V1.5H11.3333V5.15385H8L12 10Z" fill="black"/>
</svg>
