<svg width="95" height="174" viewBox="0 0 95 174" fill="none" xmlns="http://www.w3.org/2000/svg">
<path d="M76.0003 85.4639H47.4053V107.637L76.0003 85.4639Z" fill="url(#paint0_linear_546_76533)"/>
<path d="M47.4633 155.541C46.2649 155.541 45.2856 154.559 45.2856 153.341V152.241C45.2856 151.03 46.2576 150.04 47.4633 150.04C48.6618 150.04 49.641 151.022 49.641 152.241V153.341C49.641 154.559 48.6618 155.541 47.4633 155.541ZM47.4633 143.454C46.2649 143.454 45.2856 142.472 45.2856 141.254V140.154C45.2856 138.943 46.2576 137.953 47.4633 137.953C48.6618 137.953 49.641 138.935 49.641 140.154V141.254C49.641 142.472 48.6618 143.454 47.4633 143.454ZM47.4633 131.367C46.2649 131.367 45.2856 130.385 45.2856 129.167V128.067C45.2856 126.856 46.2576 125.867 47.4633 125.867C48.6618 125.867 49.641 126.849 49.641 128.067V129.167C49.641 130.385 48.6618 131.367 47.4633 131.367ZM47.4633 119.281C46.2649 119.281 45.2856 118.299 45.2856 117.08V115.98C45.2856 114.769 46.2576 113.78 47.4633 113.78C48.6618 113.78 49.641 114.762 49.641 115.98V117.08C49.641 118.299 48.6618 119.281 47.4633 119.281Z" fill="url(#paint1_linear_546_76533)"/>
<path d="M47.4046 174C51.6101 174 55.0192 170.556 55.0192 166.306C55.0192 162.057 51.6101 158.613 47.4046 158.613C43.1992 158.613 39.79 162.057 39.79 166.306C39.79 170.556 43.1992 174 47.4046 174Z" fill="url(#paint2_linear_546_76533)"/>
<path d="M47.5 95.9858C21.2654 95.9858 0 74.4998 0 47.9929C0 21.4861 21.2654 0 47.5 0C73.7346 0 95 21.4861 95 47.9929C95 74.4998 73.7346 95.9858 47.5 95.9858Z" fill="url(#paint3_linear_546_76533)"/>
<path d="M47.5 85.9813C68.3778 85.9813 85.3027 68.8808 85.3027 47.7863C85.3027 26.6918 68.3778 9.59131 47.5 9.59131C26.6221 9.59131 9.69727 26.6918 9.69727 47.7863C9.69727 68.8808 26.6221 85.9813 47.5 85.9813Z" fill="url(#paint4_linear_546_76533)"/>
<path d="M28.998 54.0491C28.6483 54.4587 28.2386 54.7685 27.769 54.9783C27.3094 55.1881 26.8049 55.293 26.2553 55.293C25.536 55.293 24.8765 55.1282 24.277 54.7984C23.6776 54.4787 22.9932 53.9192 22.2238 53.1199C21.2547 53.04 20.3854 52.7602 19.6161 52.2806C18.8467 51.791 18.2473 51.1566 17.8176 50.3773C17.388 49.5879 17.1732 48.7137 17.1732 47.7545C17.1732 46.7354 17.418 45.8162 17.9075 44.9969C18.3971 44.1676 19.0715 43.5232 19.9308 43.0636C20.7901 42.594 21.7542 42.3592 22.8233 42.3592C23.8924 42.3592 24.8565 42.594 25.7158 43.0636C26.5751 43.5232 27.2495 44.1626 27.739 44.9819C28.2286 45.8012 28.4734 46.7254 28.4734 47.7545C28.4734 48.5838 28.3086 49.3532 27.9788 50.0625C27.6491 50.7619 27.1895 51.3614 26.6 51.861C26.0105 52.3506 25.3261 52.7053 24.5468 52.9251C24.8366 53.2348 25.1213 53.4596 25.4011 53.5995C25.6808 53.7394 25.9806 53.8093 26.3003 53.8093C26.9897 53.8093 27.5892 53.5295 28.0987 52.97L28.998 54.0491ZM19.1365 47.7545C19.1365 48.4539 19.2963 49.0884 19.6161 49.6579C19.9358 50.2174 20.3754 50.657 20.9349 50.9767C21.4944 51.2865 22.1239 51.4413 22.8233 51.4413C23.5227 51.4413 24.1522 51.2865 24.7117 50.9767C25.2712 50.657 25.7108 50.2174 26.0305 49.6579C26.3503 49.0884 26.5101 48.4539 26.5101 47.7545C26.5101 47.0551 26.3503 46.4257 26.0305 45.8662C25.7108 45.2967 25.2712 44.857 24.7117 44.5473C24.1522 44.2276 23.5227 44.0677 22.8233 44.0677C22.1239 44.0677 21.4944 44.2276 20.9349 44.5473C20.3754 44.857 19.9358 45.2967 19.6161 45.8662C19.2963 46.4257 19.1365 47.0551 19.1365 47.7545ZM33.2697 42.5091V53H31.3214V44.1427H29.1033V42.5091H33.2697ZM36.5348 50.6171C36.8845 50.6171 37.1743 50.732 37.4041 50.9618C37.6339 51.1916 37.7488 51.4913 37.7488 51.861C37.7488 52.0208 37.7238 52.1907 37.6738 52.3705C37.6339 52.5404 37.5439 52.8002 37.4041 53.1499L36.6397 55.263H35.4258L36.0252 52.97C35.8054 52.8801 35.6306 52.7402 35.5007 52.5504C35.3808 52.3506 35.3209 52.1208 35.3209 51.861C35.3209 51.4913 35.4358 51.1916 35.6656 50.9618C35.8954 50.732 36.1851 50.6171 36.5348 50.6171ZM50.7501 51.3514V53H43.0168V51.6961L47.1832 47.7395C47.6528 47.2899 47.9675 46.9003 48.1274 46.5706C48.2973 46.2309 48.3822 45.8961 48.3822 45.5664C48.3822 45.0768 48.2173 44.7022 47.8876 44.4424C47.5579 44.1826 47.0733 44.0527 46.4339 44.0527C45.3648 44.0527 44.5455 44.4174 43.976 45.1468L42.6122 44.0977C43.0218 43.5482 43.5713 43.1235 44.2607 42.8238C44.9601 42.5141 45.7395 42.3592 46.5987 42.3592C47.7377 42.3592 48.647 42.629 49.3264 43.1685C50.0058 43.708 50.3455 44.4424 50.3455 45.3716C50.3455 45.9411 50.2256 46.4756 49.9858 46.9752C49.746 47.4748 49.2864 48.0443 48.607 48.6837L45.8044 51.3514H50.7501ZM56.2069 53.1499C55.3677 53.1499 54.6183 52.9401 53.9589 52.5204C53.2995 52.0908 52.7799 51.4713 52.4002 50.662C52.0206 49.8427 51.8307 48.8736 51.8307 47.7545C51.8307 46.6355 52.0206 45.6713 52.4002 44.862C52.7799 44.0427 53.2995 43.4233 53.9589 43.0036C54.6183 42.574 55.3677 42.3592 56.2069 42.3592C57.0462 42.3592 57.7956 42.574 58.455 43.0036C59.1244 43.4233 59.649 44.0427 60.0286 44.862C60.4083 45.6713 60.5981 46.6355 60.5981 47.7545C60.5981 48.8736 60.4083 49.8427 60.0286 50.662C59.649 51.4713 59.1244 52.0908 58.455 52.5204C57.7956 52.9401 57.0462 53.1499 56.2069 53.1499ZM56.2069 51.4563C56.9563 51.4563 57.5458 51.1466 57.9754 50.5271C58.415 49.9077 58.6348 48.9835 58.6348 47.7545C58.6348 46.5256 58.415 45.6014 57.9754 44.9819C57.5458 44.3625 56.9563 44.0527 56.2069 44.0527C55.4676 44.0527 54.8781 44.3625 54.4385 44.9819C54.0088 45.6014 53.794 46.5256 53.794 47.7545C53.794 48.9835 54.0088 49.9077 54.4385 50.5271C54.8781 51.1466 55.4676 51.4563 56.2069 51.4563ZM69.44 51.3514V53H61.7067V51.6961L65.8731 47.7395C66.3427 47.2899 66.6574 46.9003 66.8173 46.5706C66.9871 46.2309 67.0721 45.8961 67.0721 45.5664C67.0721 45.0768 66.9072 44.7022 66.5775 44.4424C66.2478 44.1826 65.7632 44.0527 65.1238 44.0527C64.0547 44.0527 63.2354 44.4174 62.6659 45.1468L61.3021 44.0977C61.7117 43.5482 62.2612 43.1235 62.9506 42.8238C63.65 42.5141 64.4294 42.3592 65.2886 42.3592C66.4276 42.3592 67.3368 42.629 68.0163 43.1685C68.6957 43.708 69.0354 44.4424 69.0354 45.3716C69.0354 45.9411 68.9155 46.4756 68.6757 46.9752C68.4359 47.4748 67.9763 48.0443 67.2969 48.6837L64.4943 51.3514H69.44ZM75.0307 46.8403C75.9998 46.9602 76.7392 47.2899 77.2487 47.8295C77.7583 48.369 78.0131 49.0434 78.0131 49.8527C78.0131 50.4622 77.8582 51.0167 77.5485 51.5163C77.2388 52.0159 76.7692 52.4155 76.1397 52.7152C75.5202 53.005 74.7609 53.1499 73.8617 53.1499C73.1123 53.1499 72.388 53.045 71.6886 52.8351C70.9992 52.6153 70.4097 52.3156 69.9201 51.9359L70.7594 50.4222C71.139 50.742 71.5986 50.9967 72.1382 51.1866C72.6877 51.3664 73.2522 51.4563 73.8317 51.4563C74.5211 51.4563 75.0606 51.3165 75.4503 51.0367C75.85 50.7469 76.0498 50.3573 76.0498 49.8677C76.0498 49.3781 75.86 48.9985 75.4803 48.7287C75.1106 48.4489 74.5411 48.3091 73.7718 48.3091H72.8126V46.9752L75.1955 44.1427H70.4296V42.5091H77.5785V43.8129L75.0307 46.8403Z" fill="#3C3C3B"/>
<defs>
<linearGradient id="paint0_linear_546_76533" x1="45.3802" y1="103.679" x2="64.3674" y2="82.9238" gradientUnits="userSpaceOnUse">
<stop stop-color="#FFBE30"/>
<stop offset="1" stop-color="#FFE43A"/>
</linearGradient>
<linearGradient id="paint1_linear_546_76533" x1="45.2879" y1="134.664" x2="49.6383" y2="134.664" gradientUnits="userSpaceOnUse">
<stop stop-color="#FFBF45"/>
<stop offset="1" stop-color="#FFF29B"/>
</linearGradient>
<linearGradient id="paint2_linear_546_76533" x1="39.7832" y1="166.307" x2="55.0189" y2="166.307" gradientUnits="userSpaceOnUse">
<stop stop-color="#FFB700"/>
<stop offset="1" stop-color="#FFE436"/>
</linearGradient>
<linearGradient id="paint3_linear_546_76533" x1="0.00358077" y1="47.9968" x2="94.9966" y2="47.9968" gradientUnits="userSpaceOnUse">
<stop stop-color="#FFA700"/>
<stop offset="1" stop-color="#FFEC76"/>
</linearGradient>
<linearGradient id="paint4_linear_546_76533" x1="20.9924" y1="21.0008" x2="73.9518" y2="73.4162" gradientUnits="userSpaceOnUse">
<stop stop-color="#E5E6E1"/>
<stop offset="0.8446" stop-color="white"/>
</linearGradient>
</defs>
</svg>
