<svg width="18" height="10" viewBox="0 0 18 10" fill="none" xmlns="http://www.w3.org/2000/svg">
<path d="M5.48243 0.344727C7.99623 0.344727 10.0338 2.42036 10.0338 4.98051C10.0338 7.54073 7.99604 9.61617 5.48243 9.61617C2.96895 9.61617 0.93103 7.54073 0.93103 4.98051C0.93103 2.42042 2.96876 0.344727 5.48243 0.344727ZM12.7508 0.616257C14.0077 0.616257 15.0266 2.57003 15.0266 4.98051H15.0268C15.0268 7.39043 14.0079 9.34477 12.7511 9.34477C11.4941 9.34477 10.4753 7.39043 10.4753 4.98051C10.4753 2.57066 11.494 0.616257 12.7509 0.616257H12.7508ZM16.2686 1.07087C16.7105 1.07087 17.069 2.82128 17.069 4.98058C17.069 7.13917 16.7106 8.89029 16.2686 8.89029C15.8265 8.89029 15.4683 7.13969 15.4683 4.98058C15.4683 2.82141 15.8267 1.07087 16.2686 1.07087Z" fill="black"/>
</svg>
