<svg width="16" height="11" viewBox="0 0 16 11" fill="none" xmlns="http://www.w3.org/2000/svg">
<path d="M0 0H16V10.6667H0V0ZM8 2.66667C8.70724 2.66667 9.38552 2.94762 9.88562 3.44772C10.3857 3.94781 10.6667 4.62609 10.6667 5.33333C10.6667 6.04058 10.3857 6.71885 9.88562 7.21895C9.38552 7.71905 8.70724 8 8 8C7.29276 8 6.61448 7.71905 6.11438 7.21895C5.61428 6.71885 5.33333 6.04058 5.33333 5.33333C5.33333 4.62609 5.61428 3.94781 6.11438 3.44772C6.61448 2.94762 7.29276 2.66667 8 2.66667ZM3.55556 1.77778C3.55556 2.24927 3.36825 2.70146 3.03486 3.03486C2.70146 3.36825 2.24927 3.55556 1.77778 3.55556V7.11111C2.24927 7.11111 2.70146 7.29841 3.03486 7.63181C3.36825 7.96521 3.55556 8.41739 3.55556 8.88889H12.4444C12.4444 8.41739 12.6317 7.96521 12.9651 7.63181C13.2985 7.29841 13.7507 7.11111 14.2222 7.11111V3.55556C13.7507 3.55556 13.2985 3.36825 12.9651 3.03486C12.6317 2.70146 12.4444 2.24927 12.4444 1.77778H3.55556Z" fill="#231F20" fill-opacity="0.9"/>
</svg>
