<svg width="24" height="24" viewBox="0 0 24 24" fill="none" xmlns="http://www.w3.org/2000/svg">
<path d="M6.66675 12H17.3334V19.619H6.66675V12ZM12.0001 13.9048C12.4716 13.9048 12.9238 14.1054 13.2572 14.4627C13.5906 14.8199 13.7779 15.3043 13.7779 15.8095C13.7779 16.3147 13.5906 16.7992 13.2572 17.1564C12.9238 17.5136 12.4716 17.7143 12.0001 17.7143C11.5286 17.7143 11.0764 17.5136 10.743 17.1564C10.4096 16.7992 10.2223 16.3147 10.2223 15.8095C10.2223 15.3043 10.4096 14.8199 10.743 14.4627C11.0764 14.1054 11.5286 13.9048 12.0001 13.9048ZM9.03712 13.2698C9.03712 13.6066 8.91225 13.9296 8.68999 14.1678C8.46772 14.4059 8.16626 14.5397 7.85193 14.5397V17.0794C8.16626 17.0794 8.46772 17.2132 8.68999 17.4513C8.91225 17.6894 9.03712 18.0124 9.03712 18.3492H14.963C14.963 18.0124 15.0879 17.6894 15.3102 17.4513C15.5324 17.2132 15.8339 17.0794 16.1482 17.0794V14.5397C15.8339 14.5397 15.5324 14.4059 15.3102 14.1678C15.0879 13.9296 14.963 13.6066 14.963 13.2698H9.03712Z" fill="black"/>
<path d="M12 1.5L8 6.34615H11.3333V10H12.6667V6.34615H16L12 1.5Z" fill="black"/>
</svg>
