<svg width="95" height="174" fill="none" xmlns="http://www.w3.org/2000/svg"><path d="M76 85.464H47.407v22.173L76 85.464z" fill="url(#paint0_linear_477_27339)"/><path d="M47.463 155.542a2.19 2.19 0 01-2.177-2.201v-1.1c0-1.211.972-2.2 2.177-2.2a2.19 2.19 0 012.178 2.2v1.1a2.19 2.19 0 01-2.178 2.201zm0-12.087a2.19 2.19 0 01-2.177-2.201v-1.1c0-1.211.972-2.2 2.177-2.2a2.19 2.19 0 012.178 2.2v1.1a2.19 2.19 0 01-2.178 2.201zm0-12.087a2.19 2.19 0 01-2.177-2.2v-1.101c0-1.21.972-2.2 2.177-2.2a2.19 2.19 0 012.178 2.2v1.101c0 1.218-.98 2.2-2.178 2.2zm0-12.087a2.19 2.19 0 01-2.177-2.2v-1.1c0-1.211.972-2.201 2.177-2.201a2.19 2.19 0 012.178 2.201v1.1c0 1.218-.98 2.2-2.178 2.2z" fill="url(#paint1_linear_477_27339)"/><path d="M47.405 174c4.205 0 7.614-3.444 7.614-7.694 0-4.249-3.409-7.693-7.614-7.693-4.206 0-7.615 3.444-7.615 7.693 0 4.25 3.41 7.694 7.615 7.694z" fill="url(#paint2_linear_477_27339)"/><path d="M47.5 95.986C21.265 95.986 0 74.5 0 47.993S21.265 0 47.5 0 95 21.486 95 47.993 73.735 95.986 47.5 95.986z" fill="url(#paint3_linear_477_27339)"/><path d="M47.5 85.981c20.878 0 37.803-17.1 37.803-38.195 0-21.094-16.925-38.195-37.803-38.195-20.878 0-37.803 17.1-37.803 38.195S26.622 85.981 47.5 85.981z" fill="url(#paint4_linear_477_27339)"/><path d="M35.257 43.704c-.35.41-.76.72-1.229.93a3.6 3.6 0 01-1.514.314 4.04 4.04 0 01-1.978-.494c-.6-.32-1.284-.88-2.053-1.679-.97-.08-1.839-.36-2.608-.84a5.208 5.208 0 01-1.798-1.903c-.43-.789-.645-1.663-.645-2.622 0-1.02.245-1.938.735-2.758a5.092 5.092 0 012.023-1.933c.859-.47 1.823-.705 2.892-.705 1.07 0 2.034.235 2.893.705a5.124 5.124 0 012.023 1.918c.49.82.734 1.744.734 2.773 0 .83-.164 1.598-.494 2.308-.33.7-.79 1.299-1.379 1.798-.59.49-1.274.845-2.053 1.064.29.31.574.535.854.675s.58.21.9.21c.689 0 1.288-.28 1.798-.84l.899 1.08zm-9.861-6.294c0 .7.16 1.334.48 1.903.319.56.758 1 1.318 1.319.56.31 1.189.465 1.888.465.7 0 1.33-.155 1.889-.465.56-.32.999-.76 1.318-1.319.32-.57.48-1.204.48-1.903 0-.7-.16-1.329-.48-1.889a3.342 3.342 0 00-1.318-1.318 3.74 3.74 0 00-1.889-.48c-.7 0-1.329.16-1.888.48-.56.31-1 .749-1.319 1.318a3.74 3.74 0 00-.48 1.889zm14.133-5.246v10.491H37.58v-8.857h-2.218v-1.634h4.167zm2.246 5.545h4.121v1.56h-4.121v-1.56zm17.5 5.995c-.35.41-.76.72-1.23.93-.46.21-.964.314-1.513.314-.72 0-1.38-.165-1.979-.494-.6-.32-1.283-.88-2.053-1.679-.969-.08-1.838-.36-2.608-.84a5.21 5.21 0 01-1.798-1.903c-.43-.789-.645-1.663-.645-2.622 0-1.02.245-1.938.735-2.758a5.092 5.092 0 012.023-1.933c.86-.47 1.824-.705 2.893-.705 1.069 0 2.033.235 2.892.705a5.124 5.124 0 012.023 1.918c.49.82.735 1.744.735 2.773 0 .83-.165 1.598-.495 2.308-.33.7-.79 1.299-1.379 1.798-.59.49-1.274.845-2.053 1.064.29.31.575.535.854.675.28.14.58.21.9.21.689 0 1.288-.28 1.798-.84l.9 1.08zm-9.862-6.294c0 .7.16 1.334.48 1.903.32.56.759 1 1.318 1.319.56.31 1.19.465 1.889.465.699 0 1.328-.155 1.888-.465.56-.32 1-.76 1.319-1.319.32-.57.48-1.204.48-1.903 0-.7-.16-1.329-.48-1.889a3.344 3.344 0 00-1.319-1.318 3.736 3.736 0 00-1.888-.48c-.7 0-1.33.16-1.889.48a3.35 3.35 0 00-1.319 1.318 3.74 3.74 0 00-.48 1.889zm18.105 3.597v1.648h-7.734v-1.304l4.167-3.956c.47-.45.784-.84.944-1.17.17-.339.255-.674.255-1.003 0-.49-.165-.865-.495-1.124-.33-.26-.814-.39-1.454-.39-1.069 0-1.888.365-2.458 1.094l-1.363-1.049c.41-.55.959-.974 1.648-1.274.7-.31 1.479-.465 2.338-.465 1.14 0 2.048.27 2.728.81.68.54 1.019 1.274 1.019 2.203 0 .57-.12 1.104-.36 1.603-.24.5-.7 1.07-1.379 1.709l-2.802 2.668h4.946zm2.454-.735c.35 0 .64.115.87.345.23.23.344.53.344.9 0 .16-.025.329-.075.509-.04.17-.13.43-.27.78l-.764 2.112h-1.214l.6-2.293c-.22-.09-.395-.23-.525-.42-.12-.2-.18-.429-.18-.689 0-.37.115-.67.345-.899.23-.23.52-.345.87-.345zM37.47 59.007v1.648h-7.733v-1.304l4.166-3.956c.47-.45.785-.84.945-1.17.17-.339.254-.674.254-1.003 0-.49-.164-.865-.494-1.124-.33-.26-.814-.39-1.454-.39-1.069 0-1.888.365-2.458 1.094l-1.364-1.049c.41-.55.96-.974 1.649-1.274.7-.31 1.479-.465 2.338-.465 1.139 0 2.048.27 2.728.81.679.54 1.019 1.274 1.019 2.203 0 .57-.12 1.104-.36 1.603-.24.5-.7 1.07-1.379 1.709l-2.802 2.668h4.945zm5.457 1.798c-.84 0-1.588-.21-2.248-.63-.66-.429-1.179-1.048-1.559-1.858-.38-.819-.57-1.788-.57-2.907 0-1.12.19-2.083.57-2.893.38-.819.9-1.438 1.56-1.858.659-.43 1.408-.645 2.247-.645.84 0 1.589.215 2.248.645.67.42 1.194 1.039 1.574 1.858.38.81.57 1.774.57 2.893 0 1.119-.19 2.088-.57 2.907-.38.81-.904 1.43-1.574 1.859-.66.42-1.409.63-2.248.63zm0-1.693c.75 0 1.339-.31 1.769-.93.44-.62.66-1.543.66-2.772 0-1.23-.22-2.153-.66-2.773-.43-.62-1.02-.929-1.769-.929-.74 0-1.329.31-1.768.93-.43.619-.645 1.543-.645 2.772 0 1.229.215 2.153.645 2.772.44.62 1.029.93 1.768.93zm13.233-.105v1.648h-7.733v-1.304l4.166-3.956c.47-.45.785-.84.944-1.17.17-.339.255-.674.255-1.003 0-.49-.165-.865-.494-1.124-.33-.26-.815-.39-1.454-.39-1.07 0-1.888.365-2.458 1.094l-1.364-1.049c.41-.55.96-.974 1.649-1.274.7-.31 1.479-.465 2.338-.465 1.139 0 2.048.27 2.727.81.68.54 1.02 1.274 1.02 2.203 0 .57-.12 1.104-.36 1.603-.24.5-.7 1.07-1.379 1.709l-2.803 2.668h4.946zm8.723 0v1.648H57.15v-1.304l4.166-3.956c.47-.45.785-.84.944-1.17.17-.339.255-.674.255-1.003 0-.49-.165-.865-.494-1.124-.33-.26-.815-.39-1.454-.39-1.07 0-1.889.365-2.458 1.094l-1.364-1.049c.41-.55.96-.974 1.649-1.274.7-.31 1.479-.465 2.338-.465 1.139 0 2.048.27 2.727.81.68.54 1.02 1.274 1.02 2.203 0 .57-.12 1.104-.36 1.603-.24.5-.7 1.07-1.379 1.709l-2.803 2.668h4.946z" fill="#3C3C3B"/><defs><linearGradient id="paint0_linear_477_27339" x1="45.38" y1="103.679" x2="64.368" y2="82.924" gradientUnits="userSpaceOnUse"><stop stop-color="#FFBE30"/><stop offset="1" stop-color="#FFE43A"/></linearGradient><linearGradient id="paint1_linear_477_27339" x1="45.288" y1="134.665" x2="49.638" y2="134.665" gradientUnits="userSpaceOnUse"><stop stop-color="#FFBF45"/><stop offset="1" stop-color="#FFF29B"/></linearGradient><linearGradient id="paint2_linear_477_27339" x1="39.783" y1="166.307" x2="55.019" y2="166.307" gradientUnits="userSpaceOnUse"><stop stop-color="#FFB700"/><stop offset="1" stop-color="#FFE436"/></linearGradient><linearGradient id="paint3_linear_477_27339" x1=".004" y1="47.997" x2="94.997" y2="47.997" gradientUnits="userSpaceOnUse"><stop stop-color="#FFA700"/><stop offset="1" stop-color="#FFEC76"/></linearGradient><linearGradient id="paint4_linear_477_27339" x1="20.992" y1="21.001" x2="73.952" y2="73.416" gradientUnits="userSpaceOnUse"><stop stop-color="#E5E6E1"/><stop offset=".845" stop-color="#fff"/></linearGradient></defs></svg>