<svg width="95" height="174" fill="none" xmlns="http://www.w3.org/2000/svg"><path d="M76 85.464H47.407v22.173L76 85.464z" fill="url(#paint0_linear_477_27369)"/><path d="M47.463 155.541a2.19 2.19 0 01-2.177-2.2v-1.1c0-1.211.972-2.201 2.177-2.201a2.19 2.19 0 012.178 2.201v1.1c0 1.218-.98 2.2-2.178 2.2zm0-12.087a2.19 2.19 0 01-2.177-2.2v-1.1c0-1.211.972-2.201 2.177-2.201a2.19 2.19 0 012.178 2.201v1.1c0 1.218-.98 2.2-2.178 2.2zm0-12.087a2.19 2.19 0 01-2.177-2.2v-1.1c0-1.211.972-2.2 2.177-2.2a2.19 2.19 0 012.178 2.2v1.1c0 1.218-.98 2.2-2.178 2.2zm0-12.086a2.19 2.19 0 01-2.177-2.201v-1.1c0-1.211.972-2.2 2.177-2.2a2.19 2.19 0 012.178 2.2v1.1a2.19 2.19 0 01-2.178 2.201z" fill="url(#paint1_linear_477_27369)"/><path d="M47.405 174c4.205 0 7.614-3.444 7.614-7.694 0-4.249-3.409-7.693-7.614-7.693-4.206 0-7.615 3.444-7.615 7.693 0 4.25 3.41 7.694 7.615 7.694z" fill="url(#paint2_linear_477_27369)"/><path d="M47.5 95.986C21.265 95.986 0 74.5 0 47.993S21.265 0 47.5 0 95 21.486 95 47.993 73.735 95.986 47.5 95.986z" fill="url(#paint3_linear_477_27369)"/><path d="M47.5 85.981c20.878 0 37.803-17.1 37.803-38.195 0-21.094-16.925-38.195-37.803-38.195-20.878 0-37.803 17.1-37.803 38.195S26.622 85.981 47.5 85.981z" fill="url(#paint4_linear_477_27369)"/><path d="M28.998 54.05a3.46 3.46 0 01-1.229.928 3.6 3.6 0 01-1.514.315 4.035 4.035 0 01-1.978-.495c-.6-.32-1.284-.879-2.053-1.678-.97-.08-1.839-.36-2.608-.84a5.21 5.21 0 01-1.798-1.903c-.43-.79-.645-1.663-.645-2.623 0-1.019.245-1.938.735-2.757a5.092 5.092 0 012.023-1.933c.86-.47 1.823-.705 2.892-.705 1.07 0 2.034.235 2.893.705a5.123 5.123 0 012.023 1.918c.49.82.734 1.743.734 2.773 0 .829-.164 1.598-.494 2.307-.33.7-.79 1.3-1.379 1.799-.59.49-1.274.844-2.053 1.064.29.31.574.535.854.675s.58.21.9.21c.689 0 1.288-.28 1.798-.84l.899 1.08zm-9.861-6.295c0 .699.16 1.333.48 1.903.319.56.758.999 1.318 1.319.56.31 1.189.464 1.888.464.7 0 1.33-.155 1.889-.464.56-.32.999-.76 1.319-1.32.32-.569.48-1.203.48-1.902 0-.7-.16-1.33-.48-1.889a3.35 3.35 0 00-1.32-1.319c-.559-.32-1.188-.48-1.888-.48s-1.329.16-1.888.48c-.56.31-1 .75-1.319 1.32-.32.559-.48 1.188-.48 1.888zm14.133-5.246V53h-1.95v-8.857h-2.218v-1.634h4.167zm3.265 8.108c.35 0 .64.115.87.345.229.23.344.53.344.899 0 .16-.025.33-.075.51-.04.17-.13.43-.27.779l-.764 2.113h-1.214l.6-2.293c-.22-.09-.395-.23-.525-.42-.12-.2-.18-.43-.18-.689 0-.37.115-.67.345-.9.23-.229.52-.344.869-.344zm14.215.734V53h-7.733v-1.304l4.166-3.956c.47-.45.785-.84.944-1.17.17-.34.255-.674.255-1.004 0-.49-.165-.864-.494-1.124-.33-.26-.815-.39-1.454-.39-1.07 0-1.889.365-2.458 1.095l-1.364-1.05c.41-.549.96-.974 1.649-1.273.7-.31 1.478-.465 2.338-.465 1.139 0 2.048.27 2.727.81.68.539 1.02 1.273 1.02 2.203 0 .57-.12 1.104-.36 1.603-.24.5-.7 1.07-1.379 1.709l-2.803 2.667h4.946zm5.457 1.799c-.84 0-1.589-.21-2.248-.63-.66-.43-1.18-1.049-1.559-1.858-.38-.82-.57-1.788-.57-2.907 0-1.12.19-2.084.57-2.893.38-.82.9-1.439 1.559-1.858.66-.43 1.409-.645 2.248-.645.84 0 1.589.215 2.248.645.67.42 1.194 1.039 1.574 1.858.38.81.57 1.773.57 2.892 0 1.12-.19 2.089-.57 2.908-.38.81-.905 1.429-1.574 1.858-.66.42-1.409.63-2.248.63zm0-1.694c.75 0 1.339-.31 1.768-.929.44-.62.66-1.544.66-2.773 0-1.228-.22-2.153-.66-2.772-.43-.62-1.019-.93-1.768-.93-.74 0-1.329.31-1.769.93-.43.62-.644 1.544-.644 2.773 0 1.228.215 2.153.645 2.772.44.62 1.029.93 1.768.93zm13.233-.105V53h-7.733v-1.304l4.166-3.956c.47-.45.784-.84.944-1.17.17-.34.255-.674.255-1.004 0-.49-.165-.864-.495-1.124-.33-.26-.814-.39-1.453-.39-1.07 0-1.889.365-2.458 1.095l-1.364-1.05c.41-.549.96-.974 1.649-1.273.699-.31 1.478-.465 2.338-.465 1.139 0 2.048.27 2.727.81.68.539 1.02 1.273 1.02 2.203 0 .57-.12 1.104-.36 1.603-.24.5-.7 1.07-1.38 1.709l-2.802 2.667h4.946zm5.59-4.51c.97.12 1.71.449 2.219.989.51.539.764 1.213.764 2.023 0 .61-.155 1.164-.465 1.663-.31.5-.779.9-1.408 1.2-.62.289-1.38.434-2.278.434a7.51 7.51 0 01-2.173-.315c-.69-.22-1.28-.52-1.769-.9l.84-1.513c.379.32.839.575 1.378.765.55.18 1.114.27 1.694.27.69 0 1.229-.14 1.618-.42.4-.29.6-.68.6-1.17 0-.489-.19-.868-.57-1.138-.37-.28-.939-.42-1.708-.42h-.96v-1.334l2.383-2.832H70.43v-1.634h7.148v1.304l-2.547 3.027z" fill="#3C3C3B"/><defs><linearGradient id="paint0_linear_477_27369" x1="45.38" y1="103.679" x2="64.368" y2="82.924" gradientUnits="userSpaceOnUse"><stop stop-color="#FFBE30"/><stop offset="1" stop-color="#FFE43A"/></linearGradient><linearGradient id="paint1_linear_477_27369" x1="45.288" y1="134.664" x2="49.638" y2="134.664" gradientUnits="userSpaceOnUse"><stop stop-color="#FFBF45"/><stop offset="1" stop-color="#FFF29B"/></linearGradient><linearGradient id="paint2_linear_477_27369" x1="39.783" y1="166.307" x2="55.019" y2="166.307" gradientUnits="userSpaceOnUse"><stop stop-color="#FFB700"/><stop offset="1" stop-color="#FFE436"/></linearGradient><linearGradient id="paint3_linear_477_27369" x1=".004" y1="47.997" x2="94.997" y2="47.997" gradientUnits="userSpaceOnUse"><stop stop-color="#FFA700"/><stop offset="1" stop-color="#FFEC76"/></linearGradient><linearGradient id="paint4_linear_477_27369" x1="20.992" y1="21.001" x2="73.952" y2="73.416" gradientUnits="userSpaceOnUse"><stop stop-color="#E5E6E1"/><stop offset=".845" stop-color="#fff"/></linearGradient></defs></svg>