<svg width="95" height="174" fill="none" xmlns="http://www.w3.org/2000/svg"><path d="M48.958 157.755c-.866 0-1.57-.738-1.57-1.646v-.821c0-.908.704-1.645 1.57-1.645.866 0 1.57.737 1.57 1.645v.821c0 .908-.704 1.646-1.57 1.646zm0-9.045c-.866 0-1.57-.738-1.57-1.646v-.821c0-.908.704-1.645 1.57-1.645.866 0 1.57.737 1.57 1.645v.821c0 .908-.704 1.646-1.57 1.646zm0-9.045c-.866 0-1.57-.738-1.57-1.646v-.821c0-.908.704-1.645 1.57-1.645.866 0 1.57.737 1.57 1.645v.821c0 .912-.704 1.646-1.57 1.646zm0-9.045c-.866 0-1.57-.738-1.57-1.646v-.821c0-.907.704-1.645 1.57-1.645.866 0 1.57.738 1.57 1.645v.821c0 .912-.704 1.646-1.57 1.646zm0-9.041c-.866 0-1.57-.738-1.57-1.646v-.821c0-.908.704-1.645 1.57-1.645.866 0 1.57.737 1.57 1.645v.821c0 .908-.704 1.646-1.57 1.646z" fill="url(#paint0_linear_477_27306)"/><path d="M79.713 85.789H48.395v25.194l31.318-25.194z" fill="url(#paint1_linear_477_27306)"/><path d="M47.5 99.188C21.374 99.188.199 76.981.199 49.593S21.378 0 47.5 0c26.122 0 47.301 22.206 47.301 49.594 0 27.392-21.175 49.593-47.301 49.593z" fill="url(#paint2_linear_477_27306)"/><path d="M48.961 174c3.438 0 6.225-2.922 6.225-6.525 0-3.604-2.787-6.525-6.225-6.525-3.438 0-6.225 2.921-6.225 6.525 0 3.603 2.787 6.525 6.225 6.525z" fill="url(#paint3_linear_477_27306)"/><path d="M46.115 88.845c20.791 0 37.646-17.671 37.646-39.47 0-21.8-16.855-39.471-37.646-39.471-20.792 0-37.646 17.672-37.646 39.47 0 21.8 16.854 39.471 37.646 39.471z" fill="url(#paint4_linear_477_27306)"/><path d="M24.966 56.752c-.377.49-.836.865-1.378 1.121a3.988 3.988 0 01-1.76.386c-.864 0-1.644-.199-2.341-.596-.698-.385-1.495-1.074-2.391-2.067a6.383 6.383 0 01-2.823-1.069 6.026 6.026 0 01-1.926-2.207c-.454-.911-.681-1.916-.681-3.014 0-1.203.271-2.283.814-3.24a5.995 5.995 0 012.274-2.278c.974-.55 2.065-.824 3.271-.824 1.207 0 2.292.275 3.255.824a5.994 5.994 0 012.274 2.277c.554.958.83 2.038.83 3.241 0 1.425-.381 2.675-1.145 3.75a5.854 5.854 0 01-3.005 2.242c.276.304.542.52.797.648.265.14.548.21.846.21.72 0 1.35-.303 1.893-.91l1.196 1.506zm-10.577-7.446c0 .76.155 1.437.465 2.033a3.621 3.621 0 001.312 1.401c.553.327 1.173.49 1.86.49.686 0 1.305-.163 1.859-.49a3.503 3.503 0 001.295-1.401c.321-.596.482-1.273.482-2.033 0-.759-.16-1.436-.482-2.032a3.383 3.383 0 00-1.295-1.384 3.492 3.492 0 00-1.86-.508c-.686 0-1.306.17-1.86.508-.553.327-.99.788-1.311 1.384-.31.596-.465 1.273-.465 2.032zm19.808 3.82v2.312h-8.783v-1.84l4.483-4.467c.476-.479.797-.887.963-1.226.166-.35.249-.695.249-1.034 0-.49-.16-.864-.482-1.121-.31-.269-.769-.403-1.378-.403-.509 0-.968.105-1.378.315a2.61 2.61 0 00-1.03.911l-1.959-1.331a4.609 4.609 0 011.877-1.664c.797-.41 1.71-.614 2.74-.614.863 0 1.616.152 2.258.456.653.292 1.156.712 1.51 1.261.366.538.548 1.174.548 1.91 0 .666-.132 1.29-.398 1.874-.266.584-.78 1.25-1.544 1.998l-2.674 2.663h4.998zm2.817-.946c.464 0 .846.157 1.145.473.299.303.448.706.448 1.209 0 .233-.027.467-.083.7-.055.234-.177.584-.365 1.052l-.946 2.522h-1.644l.73-2.785a1.445 1.445 0 01-.664-.56 1.826 1.826 0 01-.232-.93c0-.502.15-.905.448-1.208.31-.316.697-.473 1.163-.473zm16.187.946v2.312h-8.784v-1.84l4.484-4.467c.475-.479.797-.887.963-1.226.166-.35.249-.695.249-1.034 0-.49-.16-.864-.482-1.121-.31-.269-.77-.403-1.378-.403-.51 0-.968.105-1.378.315a2.61 2.61 0 00-1.03.911l-1.959-1.331a4.609 4.609 0 011.876-1.664c.797-.41 1.71-.614 2.74-.614.863 0 1.616.152 2.258.456.653.292 1.157.712 1.511 1.261.365.538.548 1.174.548 1.91a4.48 4.48 0 01-.398 1.874c-.266.584-.78 1.25-1.545 1.998l-2.673 2.663h4.998zm6.059 2.522c-.963 0-1.821-.25-2.574-.753-.753-.502-1.345-1.226-1.777-2.172-.42-.958-.63-2.097-.63-3.417 0-1.32.21-2.452.63-3.398.432-.958 1.024-1.688 1.777-2.19.753-.503 1.61-.754 2.574-.754.963 0 1.82.252 2.573.754.753.502 1.34 1.232 1.76 2.19.432.946.648 2.079.648 3.398 0 1.32-.216 2.459-.648 3.417-.42.946-1.007 1.67-1.76 2.172-.752.502-1.61.753-2.573.753zm0-2.4c.708 0 1.262-.32 1.66-.963.41-.643.614-1.635.614-2.979 0-1.343-.204-2.335-.614-2.978-.398-.642-.952-.964-1.66-.964-.698 0-1.251.322-1.66.964-.4.642-.599 1.635-.599 2.978 0 1.344.2 2.336.598 2.979.41.642.963.963 1.66.963zm14.874-.122v2.312h-8.783v-1.84l4.483-4.467c.476-.479.797-.887.963-1.226.166-.35.249-.695.249-1.034 0-.49-.16-.864-.482-1.121-.31-.269-.769-.403-1.378-.403-.509 0-.968.105-1.378.315a2.61 2.61 0 00-1.03.911l-1.959-1.331a4.609 4.609 0 011.877-1.664c.797-.41 1.71-.614 2.74-.614.863 0 1.615.152 2.257.456.654.292 1.157.712 1.511 1.261.366.538.548 1.174.548 1.91 0 .666-.132 1.29-.398 1.874-.266.584-.78 1.25-1.544 1.998l-2.674 2.663h4.998zm5.593-9.951v12.263h-2.69v-9.986h-2.324v-2.277h5.014z" fill="#3C3C3B"/><defs><linearGradient id="paint0_linear_477_27306" x1="47.391" y1="137.61" x2="50.527" y2="137.61" gradientUnits="userSpaceOnUse"><stop stop-color="#FFBF45"/><stop offset="1" stop-color="#FFF29B"/></linearGradient><linearGradient id="paint1_linear_477_27306" x1="46.18" y1="106.487" x2="67.814" y2="83.697" gradientUnits="userSpaceOnUse"><stop stop-color="#FFBE30"/><stop offset="1" stop-color="#FFE43A"/></linearGradient><linearGradient id="paint2_linear_477_27306" x1=".199" y1="49.594" x2="94.803" y2="49.594" gradientUnits="userSpaceOnUse"><stop stop-color="#FFA700"/><stop offset="1" stop-color="#FFEC76"/></linearGradient><linearGradient id="paint3_linear_477_27306" x1="42.738" y1="167.476" x2="55.184" y2="167.476" gradientUnits="userSpaceOnUse"><stop stop-color="#FFB700"/><stop offset="1" stop-color="#FFE436"/></linearGradient><linearGradient id="paint4_linear_477_27306" x1="19.716" y1="21.696" x2="74.388" y2="73.84" gradientUnits="userSpaceOnUse"><stop stop-color="#E5E6E1"/><stop offset=".845" stop-color="#fff"/></linearGradient></defs></svg>