<svg width="95" height="174" fill="none" xmlns="http://www.w3.org/2000/svg"><path d="M76.962 84.01H48.397v21.876l28.565-21.875z" fill="url(#paint0_linear_477_29127)"/><path d="M47.808 83.644c19.985 0 36.186-16.174 36.186-36.125s-16.2-36.125-36.186-36.125c-19.985 0-36.185 16.174-36.185 36.125s16.2 36.125 36.185 36.125z" fill="#6B6853"/><path d="M47.5 85.564c-21.184 0-38.417-17.205-38.417-38.353 0-21.148 17.233-38.353 38.417-38.353 21.183 0 38.417 17.205 38.417 38.353 0 21.148-17.234 38.353-38.417 38.353zm0-75.478c-20.508 0-37.188 16.652-37.188 37.125S26.992 84.336 47.5 84.336c20.507 0 37.188-16.652 37.188-37.125S68.007 10.086 47.5 10.086z" fill="url(#paint1_linear_477_29127)"/><path d="M48.87 153.481a2.187 2.187 0 01-2.191-2.187V150.2c0-1.21.978-2.187 2.19-2.187s2.19.977 2.19 2.187v1.094a2.183 2.183 0 01-2.19 2.187zm0-12.034a2.186 2.186 0 01-2.191-2.187v-1.094c0-1.209.978-2.187 2.19-2.187s2.19.978 2.19 2.187v1.094a2.186 2.186 0 01-2.19 2.187zm0-12.04a2.186 2.186 0 01-2.191-2.187v-1.093c0-1.21.978-2.187 2.19-2.187s2.19.977 2.19 2.187v1.093a2.182 2.182 0 01-2.19 2.187zm0-12.034a2.186 2.186 0 01-2.191-2.187v-1.093c0-1.21.978-2.187 2.19-2.187s2.19.977 2.19 2.187v1.093a2.186 2.186 0 01-2.19 2.187z" fill="url(#paint2_linear_477_29127)"/><path d="M48.811 174c4.241 0 7.68-3.432 7.68-7.666 0-4.233-3.439-7.666-7.68-7.666-4.24 0-7.678 3.433-7.678 7.666 0 4.234 3.438 7.666 7.678 7.666z" fill="url(#paint3_linear_477_29127)"/><path d="M47.5 94.84C21.265 94.84 0 73.612 0 47.42 0 21.23 21.265 0 47.5 0S95 21.23 95 47.42c0 26.191-21.265 47.42-47.5 47.42z" fill="url(#paint4_linear_477_29127)"/><path d="M47.5 84.947c20.876 0 37.8-16.895 37.8-37.736 0-20.841-16.924-37.736-37.8-37.736-20.876 0-37.8 16.895-37.8 37.736 0 20.84 16.924 37.736 37.8 37.736z" fill="url(#paint5_linear_477_29127)"/><path d="M26.27 55.229a3.72 3.72 0 01-1.377 1.078 4.123 4.123 0 01-1.76.37c-.863 0-1.643-.19-2.34-.572-.697-.37-1.494-1.033-2.39-1.987-1.051-.135-1.992-.477-2.822-1.027a5.866 5.866 0 01-1.925-2.121c-.454-.876-.68-1.841-.68-2.896 0-1.156.27-2.194.813-3.115a5.882 5.882 0 012.274-2.188c.973-.528 2.063-.791 3.27-.791 1.206 0 2.29.263 3.253.79a5.882 5.882 0 012.274 2.19c.553.92.83 1.958.83 3.114 0 1.37-.382 2.57-1.146 3.603-.752 1.032-1.754 1.75-3.004 2.155.277.291.542.5.797.623.265.134.547.202.846.202.72 0 1.35-.292 1.892-.876l1.195 1.448zm-10.573-7.155c0 .73.155 1.38.465 1.953a3.54 3.54 0 001.311 1.347 3.697 3.697 0 001.86.471c.686 0 1.305-.157 1.858-.471a3.42 3.42 0 001.295-1.347c.32-.572.481-1.224.481-1.953 0-.73-.16-1.38-.481-1.953a3.305 3.305 0 00-1.295-1.33 3.597 3.597 0 00-1.859-.488c-.686 0-1.305.163-1.859.488-.553.314-.99.758-1.31 1.33-.31.572-.466 1.223-.466 1.953zm16.5-1.094c1.018.168 1.798.555 2.34 1.161.542.595.813 1.336.813 2.223a3.6 3.6 0 01-.53 1.902c-.355.572-.897 1.033-1.627 1.38-.72.348-1.605.522-2.656.522a9.331 9.331 0 01-2.423-.32c-.786-.224-1.455-.538-2.009-.942l1.046-2.088c.443.337.952.6 1.527.791a6.09 6.09 0 001.793.27c.675 0 1.206-.13 1.593-.387.387-.27.581-.646.581-1.128 0-.966-.725-1.448-2.174-1.448h-1.229v-1.802l2.39-2.744h-4.946v-2.188h8.133v1.767l-2.622 3.03zm5.939 3.855c.464 0 .846.151 1.145.454.299.292.448.68.448 1.162 0 .225-.028.45-.083.674-.055.224-.177.56-.365 1.01l-.946 2.424H36.69l.73-2.677a1.43 1.43 0 01-.663-.538 1.7 1.7 0 01-.233-.893c0-.482.15-.87.449-1.162.31-.303.697-.454 1.162-.454zm16.181.909v2.222h-8.78V52.2l4.482-4.293c.475-.46.796-.853.962-1.179.166-.337.25-.668.25-.993 0-.472-.161-.83-.482-1.078-.31-.258-.77-.387-1.378-.387a3.07 3.07 0 00-1.378.303 2.587 2.587 0 00-1.029.876l-1.958-1.28c.453-.684 1.079-1.218 1.875-1.6.797-.392 1.71-.588 2.74-.588.862 0 1.615.145 2.256.437.653.28 1.157.685 1.51 1.212.366.517.549 1.128.549 1.835 0 .64-.133 1.24-.399 1.802-.265.561-.78 1.2-1.543 1.92l-2.673 2.558h4.996zm6.057 2.424c-.963 0-1.82-.24-2.573-.724-.752-.482-1.344-1.178-1.776-2.087-.42-.92-.63-2.015-.63-3.283 0-1.268.21-2.357.63-3.266.432-.92 1.024-1.622 1.776-2.105.753-.482 1.61-.724 2.573-.724.962 0 1.82.242 2.572.724.753.483 1.34 1.184 1.76 2.105.431.909.647 1.998.647 3.266s-.215 2.363-.647 3.283c-.42.909-1.007 1.605-1.76 2.087-.752.483-1.61.724-2.572.724zm0-2.306c.708 0 1.261-.309 1.66-.926.41-.617.614-1.571.614-2.862 0-1.29-.205-2.245-.614-2.862-.399-.617-.952-.926-1.66-.926-.697 0-1.25.309-1.66.926-.398.617-.597 1.571-.597 2.862 0 1.29.199 2.245.597 2.862.41.617.963.926 1.66.926zm14.869-.118v2.222h-8.78V52.2l4.481-4.293c.476-.46.797-.853.963-1.179.166-.337.249-.668.249-.993 0-.472-.16-.83-.481-1.078-.31-.258-.77-.387-1.378-.387a3.07 3.07 0 00-1.378.303 2.58 2.58 0 00-1.029.876l-1.958-1.28c.453-.684 1.079-1.218 1.875-1.6.797-.392 1.71-.588 2.739-.588.863 0 1.615.145 2.257.437.653.28 1.157.685 1.51 1.212.366.517.549 1.128.549 1.835 0 .64-.133 1.24-.399 1.802-.265.561-.78 1.2-1.543 1.92l-2.673 2.558h4.996zm5.591-9.563v11.785h-2.689V44.37h-2.323v-2.188h5.012z" fill="#3C3C3B"/><defs><linearGradient id="paint0_linear_477_29127" x1="46.377" y1="101.983" x2="65.094" y2="81.277" gradientUnits="userSpaceOnUse"><stop stop-color="#FFBE30"/><stop offset="1" stop-color="#FFE43A"/></linearGradient><linearGradient id="paint1_linear_477_29127" x1="20.349" y1="20.105" x2="74.56" y2="74.408" gradientUnits="userSpaceOnUse"><stop stop-color="#fff"/><stop offset="1" stop-color="#E6E6E6"/></linearGradient><linearGradient id="paint2_linear_477_29127" x1="46.679" y1="132.692" x2="51.063" y2="132.692" gradientUnits="userSpaceOnUse"><stop stop-color="#FFBF45"/><stop offset="1" stop-color="#FFF29B"/></linearGradient><linearGradient id="paint3_linear_477_29127" x1="41.131" y1="166.332" x2="56.486" y2="166.332" gradientUnits="userSpaceOnUse"><stop stop-color="#FFB700"/><stop offset="1" stop-color="#FFE436"/></linearGradient><linearGradient id="paint4_linear_477_29127" x1=".002" y1="47.422" x2="94.999" y2="47.422" gradientUnits="userSpaceOnUse"><stop stop-color="#FFA700"/><stop offset="1" stop-color="#FFEC76"/></linearGradient><linearGradient id="paint5_linear_477_29127" x1="20.992" y1="20.747" x2="73.324" y2="73.167" gradientUnits="userSpaceOnUse"><stop stop-color="#E5E6E1"/><stop offset=".845" stop-color="#fff"/></linearGradient></defs></svg>