<svg width="95" height="174" fill="none" xmlns="http://www.w3.org/2000/svg"><path d="M76 85.464H47.407v22.173L76 85.464z" fill="url(#paint0_linear_477_27346)"/><path d="M47.463 155.542a2.19 2.19 0 01-2.177-2.201v-1.1c0-1.211.972-2.2 2.177-2.2a2.19 2.19 0 012.178 2.2v1.1a2.19 2.19 0 01-2.178 2.201zm0-12.087a2.19 2.19 0 01-2.177-2.201v-1.1c0-1.211.972-2.2 2.177-2.2a2.19 2.19 0 012.178 2.2v1.1a2.19 2.19 0 01-2.178 2.201zm0-12.087a2.19 2.19 0 01-2.177-2.2v-1.101c0-1.21.972-2.2 2.177-2.2a2.19 2.19 0 012.178 2.2v1.101c0 1.218-.98 2.2-2.178 2.2zm0-12.087a2.19 2.19 0 01-2.177-2.2v-1.1c0-1.211.972-2.201 2.177-2.201a2.19 2.19 0 012.178 2.201v1.1c0 1.218-.98 2.2-2.178 2.2z" fill="url(#paint1_linear_477_27346)"/><path d="M47.405 174c4.205 0 7.614-3.444 7.614-7.694 0-4.249-3.409-7.693-7.614-7.693-4.206 0-7.615 3.444-7.615 7.693 0 4.25 3.41 7.694 7.615 7.694z" fill="url(#paint2_linear_477_27346)"/><path d="M47.5 95.986C21.265 95.986 0 74.5 0 47.993S21.265 0 47.5 0 95 21.486 95 47.993 73.735 95.986 47.5 95.986z" fill="url(#paint3_linear_477_27346)"/><path d="M47.5 85.981c20.878 0 37.803-17.1 37.803-38.195 0-21.094-16.925-38.195-37.803-38.195-20.878 0-37.803 17.1-37.803 38.195S26.622 85.981 47.5 85.981z" fill="url(#paint4_linear_477_27346)"/><path d="M27.215 53.256c-.35.41-.76.72-1.23.93-.459.21-.963.314-1.513.314a4.03 4.03 0 01-1.978-.495c-.6-.32-1.284-.879-2.054-1.678-.969-.08-1.838-.36-2.607-.84a5.21 5.21 0 01-1.799-1.903c-.43-.789-.644-1.663-.644-2.622 0-1.02.245-1.939.734-2.758a5.093 5.093 0 012.023-1.933c.86-.47 1.824-.705 2.893-.705 1.069 0 2.033.235 2.892.705a5.128 5.128 0 012.024 1.918c.49.82.734 1.743.734 2.773 0 .829-.165 1.598-.495 2.308a5.298 5.298 0 01-1.378 1.798c-.59.49-1.274.844-2.054 1.064.29.31.575.535.855.675s.58.21.899.21c.69 0 1.289-.28 1.798-.84l.9 1.08zm-9.862-6.294c0 .699.16 1.333.48 1.903.32.56.759 1 1.319 1.319.56.31 1.188.464 1.888.464s1.329-.155 1.888-.464c.56-.32 1-.76 1.32-1.32a3.822 3.822 0 00.479-1.902c0-.7-.16-1.33-.48-1.889a3.35 3.35 0 00-1.319-1.319 3.736 3.736 0 00-1.888-.48c-.7 0-1.329.16-1.888.48-.56.31-1 .75-1.32 1.32-.319.559-.479 1.188-.479 1.888zm14.943-.915c.97.12 1.709.45 2.218.99.51.539.765 1.214.765 2.023 0 .61-.155 1.164-.465 1.663-.31.5-.78.9-1.409 1.2-.62.289-1.378.434-2.278.434a7.52 7.52 0 01-2.173-.315c-.69-.22-1.279-.52-1.768-.899l.84-1.514c.379.32.838.575 1.378.765.55.18 1.114.27 1.693.27.69 0 1.23-.14 1.619-.42.4-.29.6-.68.6-1.17 0-.489-.19-.868-.57-1.138-.37-.28-.94-.42-1.709-.42h-.959v-1.334l2.383-2.832h-4.766v-1.634h7.15v1.304l-2.549 3.027zm5.441 3.777c.35 0 .64.115.87.345.23.23.344.53.344.899 0 .16-.025.33-.075.51-.04.17-.13.43-.27.779l-.764 2.113h-1.214l.6-2.293c-.22-.09-.395-.23-.525-.42-.12-.2-.18-.43-.18-.689 0-.37.115-.67.345-.9.23-.229.52-.344.87-.344zm14.215.735v1.648H44.22v-1.304l4.166-3.956c.47-.45.785-.84.945-1.17.17-.34.255-.674.255-1.004 0-.49-.165-.864-.495-1.124-.33-.26-.814-.39-1.454-.39-1.069 0-1.888.365-2.458 1.095l-1.363-1.05c.41-.549.959-.973 1.648-1.273.7-.31 1.479-.465 2.338-.465 1.14 0 2.048.27 2.728.81.68.54 1.019 1.273 1.019 2.203 0 .57-.12 1.104-.36 1.603-.24.5-.7 1.07-1.379 1.709l-2.802 2.668h4.946zm5.457 1.798c-.839 0-1.588-.21-2.248-.63-.66-.43-1.179-1.049-1.558-1.858-.38-.82-.57-1.788-.57-2.907 0-1.12.19-2.084.57-2.893.38-.82.899-1.439 1.558-1.858.66-.43 1.409-.645 2.248-.645.84 0 1.589.215 2.248.645.67.42 1.194 1.039 1.574 1.858.38.81.57 1.773.57 2.893 0 1.119-.19 2.088-.57 2.907-.38.81-.904 1.429-1.574 1.858-.66.42-1.408.63-2.248.63zm0-1.694c.75 0 1.34-.31 1.769-.929.44-.62.66-1.544.66-2.772 0-1.23-.22-2.154-.66-2.773-.43-.62-1.02-.93-1.769-.93-.74 0-1.329.31-1.768.93-.43.62-.645 1.544-.645 2.773 0 1.228.215 2.153.645 2.772.44.62 1.029.93 1.768.93zm13.233-.104v1.648H62.91v-1.304l4.166-3.956c.47-.45.785-.84.945-1.17.17-.34.254-.674.254-1.004 0-.49-.165-.864-.494-1.124-.33-.26-.814-.39-1.454-.39-1.069 0-1.888.365-2.458 1.095l-1.364-1.05c.41-.549.96-.973 1.649-1.273.7-.31 1.479-.465 2.338-.465 1.139 0 2.048.27 2.728.81.679.54 1.019 1.273 1.019 2.203 0 .57-.12 1.104-.36 1.603-.24.5-.7 1.07-1.379 1.709l-2.802 2.668h4.945zm8.723 0v1.648h-7.733v-1.304l4.166-3.956c.47-.45.785-.84.945-1.17.17-.34.254-.674.254-1.004 0-.49-.165-.864-.494-1.124-.33-.26-.814-.39-1.454-.39-1.07 0-1.888.365-2.458 1.095l-1.364-1.05c.41-.549.96-.973 1.649-1.273.7-.31 1.479-.465 2.338-.465 1.139 0 2.048.27 2.728.81.679.54 1.019 1.273 1.019 2.203 0 .57-.12 1.104-.36 1.603-.24.5-.7 1.07-1.379 1.709l-2.802 2.668h4.945z" fill="#3C3C3B"/><defs><linearGradient id="paint0_linear_477_27346" x1="45.38" y1="103.679" x2="64.368" y2="82.924" gradientUnits="userSpaceOnUse"><stop stop-color="#FFBE30"/><stop offset="1" stop-color="#FFE43A"/></linearGradient><linearGradient id="paint1_linear_477_27346" x1="45.288" y1="134.665" x2="49.638" y2="134.665" gradientUnits="userSpaceOnUse"><stop stop-color="#FFBF45"/><stop offset="1" stop-color="#FFF29B"/></linearGradient><linearGradient id="paint2_linear_477_27346" x1="39.783" y1="166.307" x2="55.019" y2="166.307" gradientUnits="userSpaceOnUse"><stop stop-color="#FFB700"/><stop offset="1" stop-color="#FFE436"/></linearGradient><linearGradient id="paint3_linear_477_27346" x1=".004" y1="47.997" x2="94.997" y2="47.997" gradientUnits="userSpaceOnUse"><stop stop-color="#FFA700"/><stop offset="1" stop-color="#FFEC76"/></linearGradient><linearGradient id="paint4_linear_477_27346" x1="20.992" y1="21.001" x2="73.952" y2="73.416" gradientUnits="userSpaceOnUse"><stop stop-color="#E5E6E1"/><stop offset=".845" stop-color="#fff"/></linearGradient></defs></svg>