<svg width="95" height="174" fill="none" xmlns="http://www.w3.org/2000/svg"><path d="M76 85.464H47.407v22.173L76 85.464z" fill="url(#paint0_linear_477_27332)"/><path d="M47.463 155.541a2.19 2.19 0 01-2.177-2.2v-1.1c0-1.211.972-2.201 2.177-2.201a2.19 2.19 0 012.178 2.201v1.1c0 1.218-.98 2.2-2.178 2.2zm0-12.087a2.19 2.19 0 01-2.177-2.2v-1.1c0-1.211.972-2.201 2.177-2.201a2.19 2.19 0 012.178 2.201v1.1c0 1.218-.98 2.2-2.178 2.2zm0-12.087a2.19 2.19 0 01-2.177-2.2v-1.1c0-1.211.972-2.2 2.177-2.2a2.19 2.19 0 012.178 2.2v1.1c0 1.218-.98 2.2-2.178 2.2zm0-12.086a2.19 2.19 0 01-2.177-2.201v-1.1c0-1.211.972-2.2 2.177-2.2a2.19 2.19 0 012.178 2.2v1.1a2.19 2.19 0 01-2.178 2.201z" fill="url(#paint1_linear_477_27332)"/><path d="M47.405 174c4.205 0 7.614-3.444 7.614-7.694 0-4.249-3.409-7.693-7.614-7.693-4.206 0-7.615 3.444-7.615 7.693 0 4.25 3.41 7.694 7.615 7.694z" fill="url(#paint2_linear_477_27332)"/><path d="M47.5 95.986C21.265 95.986 0 74.5 0 47.993S21.265 0 47.5 0 95 21.486 95 47.993 73.735 95.986 47.5 95.986z" fill="url(#paint3_linear_477_27332)"/><path d="M47.5 85.981c20.878 0 37.803-17.1 37.803-38.195 0-21.094-16.925-38.195-37.803-38.195-20.878 0-37.803 17.1-37.803 38.195S26.622 85.981 47.5 85.981z" fill="url(#paint4_linear_477_27332)"/><path d="M25.907 54.602c-.373.449-.828.79-1.365 1.026a4.227 4.227 0 01-1.744.353c-.855 0-1.628-.182-2.32-.545-.69-.353-1.48-.983-2.368-1.892-1.042-.128-1.974-.454-2.796-.978a5.674 5.674 0 01-1.908-2.02c-.45-.833-.675-1.752-.675-2.756 0-1.1.269-2.09.806-2.966a5.732 5.732 0 012.254-2.083c.965-.503 2.045-.754 3.24-.754 1.196 0 2.27.251 3.225.754a5.733 5.733 0 012.253 2.083c.548.877.822 1.865.822 2.966 0 1.303-.378 2.447-1.134 3.43-.746.983-1.739 1.667-2.978 2.052.274.278.537.475.79.593.263.128.543.192.839.192.713 0 1.338-.278 1.875-.833l1.184 1.378zM15.43 47.79c0 .694.153 1.314.46 1.86.319.544.752.972 1.3 1.281.548.3 1.162.45 1.842.45.68 0 1.294-.15 1.843-.45a3.32 3.32 0 001.283-1.282c.318-.545.477-1.165.477-1.86 0-.694-.16-1.314-.477-1.859a3.21 3.21 0 00-1.283-1.266 3.678 3.678 0 00-1.843-.465c-.68 0-1.294.155-1.842.465a3.33 3.33 0 00-1.3 1.266c-.307.545-.46 1.165-.46 1.86zm21.725 3.254h-1.876V53.4H32.68v-2.356h-6.2v-1.747l5.428-7.117h2.797l-5.034 6.748h3.093v-2.1h2.516v2.1h1.876v2.116zm2.648-.625c.46 0 .839.144 1.135.432.296.278.444.647.444 1.106 0 .214-.027.428-.082.642-.055.213-.176.534-.362.961L40 55.868h-1.628l.723-2.548a1.408 1.408 0 01-.658-.513 1.57 1.57 0 01-.23-.85c0-.46.148-.828.444-1.106.307-.288.691-.432 1.152-.432zm16.037.865V53.4h-8.702v-1.683l4.441-4.087c.472-.439.79-.813.954-1.123a2.05 2.05 0 00.247-.945c0-.45-.159-.791-.477-1.026-.307-.246-.762-.369-1.365-.369-.505 0-.96.096-1.366.289-.405.181-.745.46-1.02.833l-1.94-1.218c.45-.652 1.069-1.16 1.858-1.523.79-.374 1.695-.56 2.715-.56.855 0 1.6.138 2.237.416.647.267 1.146.652 1.497 1.154.361.492.542 1.074.542 1.747 0 .61-.131 1.181-.394 1.715-.264.535-.774 1.144-1.53 1.828l-2.649 2.436h4.952zm6.002 2.308c-.954 0-1.804-.23-2.55-.689-.745-.46-1.332-1.122-1.76-1.988-.416-.876-.625-1.918-.625-3.125 0-1.208.209-2.244.625-3.11.428-.876 1.015-1.544 1.76-2.004.746-.459 1.596-.689 2.55-.689.954 0 1.804.23 2.55.69.745.459 1.327 1.127 1.743 2.003.428.866.642 1.902.642 3.11 0 1.207-.214 2.25-.642 3.125-.416.866-.998 1.529-1.743 1.988-.746.46-1.596.69-2.55.69zm0-2.196c.702 0 1.25-.294 1.645-.881.406-.588.608-1.496.608-2.725 0-1.23-.202-2.137-.608-2.725-.395-.588-.943-.882-1.645-.882-.69 0-1.24.294-1.645.882-.395.588-.592 1.496-.592 2.725s.197 2.137.592 2.725c.406.587.954.881 1.645.881zm14.736-.112V53.4h-8.702v-1.683l4.442-4.087c.471-.439.79-.813.954-1.123.164-.32.247-.635.247-.945 0-.45-.16-.791-.477-1.026-.307-.246-.763-.369-1.366-.369-.504 0-.96.096-1.365.289-.406.181-.746.46-1.02.833l-1.94-1.218c.449-.652 1.068-1.16 1.858-1.523.79-.374 1.694-.56 2.714-.56.855 0 1.601.138 2.237.416.647.267 1.146.652 1.497 1.154.362.492.543 1.074.543 1.747 0 .61-.132 1.181-.395 1.715-.263.535-.773 1.144-1.53 1.828l-2.648 2.436h4.951zm5.542-9.104V53.4h-2.666v-9.137h-2.303V42.18h4.968z" fill="#3C3C3B"/><defs><linearGradient id="paint0_linear_477_27332" x1="45.38" y1="103.68" x2="64.368" y2="82.924" gradientUnits="userSpaceOnUse"><stop stop-color="#FFBE30"/><stop offset="1" stop-color="#FFE43A"/></linearGradient><linearGradient id="paint1_linear_477_27332" x1="45.288" y1="134.664" x2="49.638" y2="134.664" gradientUnits="userSpaceOnUse"><stop stop-color="#FFBF45"/><stop offset="1" stop-color="#FFF29B"/></linearGradient><linearGradient id="paint2_linear_477_27332" x1="39.783" y1="166.307" x2="55.019" y2="166.307" gradientUnits="userSpaceOnUse"><stop stop-color="#FFB700"/><stop offset="1" stop-color="#FFE436"/></linearGradient><linearGradient id="paint3_linear_477_27332" x1=".004" y1="47.997" x2="94.997" y2="47.997" gradientUnits="userSpaceOnUse"><stop stop-color="#FFA700"/><stop offset="1" stop-color="#FFEC76"/></linearGradient><linearGradient id="paint4_linear_477_27332" x1="20.992" y1="21.001" x2="73.952" y2="73.416" gradientUnits="userSpaceOnUse"><stop stop-color="#E5E6E1"/><stop offset=".845" stop-color="#fff"/></linearGradient></defs></svg>