<svg width="69" height="68" viewBox="0 0 69 68" fill="none" xmlns="http://www.w3.org/2000/svg">
<path d="M12.238 54.9215V61.9043C12.238 64.4752 14.3222 66.5594 16.8932 66.5594C19.4642 66.5594 21.5484 64.4752 21.5484 61.9043V44.4474C21.5484 43.8046 21.0273 43.2836 20.3846 43.2836H13.4018C12.7591 43.2836 12.238 43.8046 12.238 44.4474V54.9215Z" fill="#DFB504"/>
<path d="M18.0571 26.8117C19.3522 26.5179 20.2995 25.4067 20.3847 24.0815C20.2995 22.7562 19.3522 21.645 18.0571 21.3512V26.8117Z" fill="#DFB504"/>
<path d="M13.4021 15.9347C13.4873 17.26 14.4346 18.3712 15.7297 18.665V13.2045C14.4346 13.4983 13.4873 14.6094 13.4021 15.9347Z" fill="#DFB504"/>
<path d="M16.8934 3.71484C7.89501 3.71484 0.600342 11.0095 0.600342 20.0079C0.600342 29.0064 7.89501 36.301 16.8934 36.301C25.8919 36.301 33.1865 29.0064 33.1865 20.0079C33.1865 11.0095 25.8919 3.71484 16.8934 3.71484ZM22.7124 24.0812C22.6001 26.69 20.6428 28.8474 18.0572 29.2124V29.3183C18.0572 29.961 17.5362 30.4821 16.8934 30.4821C16.2507 30.4821 15.7297 29.961 15.7297 29.3183V29.2124C13.1441 28.8474 11.1868 26.69 11.0745 24.0812C11.0745 23.4385 11.5955 22.9174 12.2383 22.9174C12.881 22.9174 13.4021 23.4385 13.4021 24.0812C13.4873 25.4065 14.4345 26.5177 15.7297 26.8115V21.0658C13.1441 20.7008 11.1868 18.5434 11.0745 15.9347C11.1868 13.3259 13.1441 11.1685 15.7297 10.8035V10.6976C15.7297 10.0549 16.2507 9.53381 16.8934 9.53381C17.5362 9.53381 18.0572 10.0549 18.0572 10.6976V10.8035C20.6428 11.1685 22.6001 13.3259 22.7124 15.9347C22.7124 16.5774 22.1914 17.0985 21.5486 17.0985C20.9059 17.0985 20.3848 16.5774 20.3848 15.9347C20.2996 14.6094 19.3524 13.4982 18.0572 13.2044V18.9501C20.6428 19.3151 22.6001 21.4725 22.7124 24.0812Z" fill="#DFB504"/>
<path d="M52.9707 32.6934V66.5597C52.9707 67.2025 52.4497 67.7235 51.807 67.7235H44.8242C44.1814 67.7235 43.6604 67.2025 43.6604 66.5597V46.5076C47.7951 42.6889 50.9829 37.959 52.9707 32.6934Z" fill="#DFB504"/>
<path d="M66.9363 25.8268H59.9536C59.3108 25.8268 58.7898 26.3478 58.7898 26.9906V66.5595C58.7898 67.2023 59.3108 67.7233 59.9536 67.7233H66.9363C67.5791 67.7233 68.1001 67.2023 68.1001 66.5595V26.9906C68.1001 26.3478 67.5791 25.8268 66.9363 25.8268Z" fill="#DFB504"/>
<path d="M37.8421 50.8834V66.5597C37.8421 67.2025 37.321 67.7235 36.6783 67.7235H29.6955C29.0528 67.7235 28.5317 67.2025 28.5317 66.5597V54.852C31.8119 53.9895 34.9484 52.6525 37.8421 50.8834Z" fill="#DFB504"/>
<path d="M26.2036 43.4233C36.5635 40.3418 43.665 30.8163 43.6605 20.0078V15.3527H37.8415C37.3873 15.3527 36.9745 15.0884 36.7844 14.6758C36.5944 14.2631 36.6618 13.7776 36.9571 13.4324L47.4312 0.630684C47.6523 0.372128 47.9755 0.223267 48.3157 0.223267C48.6559 0.223267 48.9791 0.372128 49.2002 0.630684L59.6743 13.4324C59.9696 13.7776 60.037 14.2631 59.8469 14.6758C59.6569 15.0884 59.2441 15.3527 58.7898 15.3527H52.9709V20.0078C52.9823 35.9573 41.8118 49.731 26.2036 53.013V43.4233Z" fill="#DFB504"/>
<path d="M20.3849 38.2909V40.956H13.4021V38.2909C15.7079 38.7409 18.079 38.7409 20.3849 38.2909Z" fill="#DFB504"/>
</svg>
