<svg width="74" height="75" viewBox="0 0 74 75" fill="none" xmlns="http://www.w3.org/2000/svg">
<path d="M52.1868 15.7502L52.2018 15.7653L59.7399 8.13465C58.0627 7.26306 51.1285 0.0543671 36.925 0.0393247C23.6396 0.0257427 14.94 7.68717 14.0605 8.1345L21.9086 16.0785C20.5904 18.9143 21.3673 21.7241 23.1284 23.5096C25.1175 25.5233 28.0612 25.896 30.4702 24.7453L36.9003 31.2539L43.0212 25.0581L43.0048 25.0431C40.4787 22.4812 40.4769 18.3152 43.0026 15.7499C45.5364 13.1873 49.6551 13.1873 52.1868 15.7502Z" fill="#DFB504"/>
<path d="M57.9876 22.2498C55.1868 20.9154 52.4109 21.7022 50.6471 23.4848C48.658 25.4984 48.2899 28.4784 49.4265 30.9172L42.9973 37.4267L49.1175 43.6231L49.1325 43.6065C51.6629 41.049 55.7781 41.0474 58.3124 43.6043C60.844 46.1692 60.844 50.3388 58.3124 52.9017L58.2973 52.9169L65.8349 60.5481C70.9996 52.2096 73.797 47.5919 73.8005 37.4265C73.8047 23.9769 66.2771 15.1948 65.8349 14.3049L57.9876 22.2498Z" fill="#DFB504"/>
<path d="M1.74318e-06 37.4265C-0.00418186 50.8761 7.52342 59.658 7.96559 60.5481L15.8127 52.6032C18.6136 53.9376 21.3895 53.1509 23.1532 51.3683C25.1423 49.3546 25.5105 46.3746 24.3738 43.9358L30.803 37.4265L24.6828 31.23L24.6678 31.2464C22.1375 33.8036 18.0223 33.8052 15.488 31.2486C12.9563 28.6836 12.9563 24.5141 15.488 21.9512L15.503 21.9361L7.96544 14.3049C2.80085 22.6431 0.00331978 27.2609 1.74318e-06 37.4265Z" fill="#DFB504"/>
<path d="M50.672 51.3429C48.6829 49.3292 45.7392 48.9565 43.3302 50.1072L36.9002 43.5986L30.7792 49.7944L30.7954 49.8096C33.3214 52.3712 33.3233 56.5372 30.7976 59.1027C28.2639 61.6656 24.1452 61.6656 21.6135 59.1027L21.5987 59.0875L14.0605 66.7182C22.3085 71.9538 26.8699 74.7841 36.925 74.7808C50.1841 74.7762 58.8589 67.1667 59.7398 66.7182L51.8917 58.7741C53.21 55.9384 52.4329 53.1284 50.672 51.3429Z" fill="#DFB504"/>
</svg>
