<svg width="75" height="76" viewBox="0 0 75 76" fill="none" xmlns="http://www.w3.org/2000/svg">
<circle cx="37.35" cy="37.7372" r="34.2" stroke="#DFB504" stroke-width="6.3"/>
<path d="M3.59961 21.5374L68.3996 54.8374" stroke="#DFB504" stroke-width="3.6"/>
<path d="M30.6531 31.1409H33.7754V48.6957H30.6531V31.1409Z" fill="#DFB504"/>
<path d="M30.6531 51.1162H44.8621V55.0992H30.6531V51.1162Z" fill="#DFB504"/>
<path d="M36.1965 31.1409H39.3188V48.6957H36.1965V31.1409Z" fill="#DFB504"/>
<path d="M41.74 31.1409H44.8624V48.6957H41.74V31.1409Z" fill="#DFB504"/>
<path d="M47.9612 27.6843L37.758 23.5806L27.5547 27.6843V28.7199H47.9612V27.6843Z" fill="#DFB504"/>
<path d="M17.0991 55.0995H28.2323V31.1409H17.0991V55.0995ZM21.4552 34.645H23.8761V41.1478H21.4552V34.645ZM21.4552 44.6891H23.8761V51.1919H21.4552V44.6891Z" fill="#DFB504"/>
<path d="M47.2834 31.1409V55.0995H58.4168V31.1409H47.2834ZM54.0606 51.1919H51.6397V44.6891H54.0606V51.1919ZM54.0606 41.1478H51.6397V34.645H54.0606V41.1478Z" fill="#DFB504"/>
<path d="M38.9683 21.458V18.9592L44.9584 19.0305V13.8872H38.9683H36.5474V21.458L37.7579 20.9711L38.9683 21.458Z" fill="#DFB504"/>
</svg>
