<svg width="67" height="75" viewBox="0 0 67 75" fill="none" xmlns="http://www.w3.org/2000/svg">
<path d="M7.50515 41.0997H10.1409C10.8687 41.0997 11.4587 41.6898 11.4587 42.4176V50.3248C11.4587 51.0526 10.8687 51.6426 10.1409 51.6426H7.50515C6.77732 51.6426 6.18729 51.0526 6.18729 50.3248V42.4176C6.18729 41.6898 6.77732 41.0997 7.50515 41.0997Z" fill="#DFB504"/>
<path d="M7.50515 14.7424H10.1409C10.8687 14.7424 11.4587 15.3325 11.4587 16.0603V23.9675C11.4587 24.6953 10.8687 25.2853 10.1409 25.2853H7.50515C6.77732 25.2853 6.18729 24.6953 6.18729 23.9675V16.0603C6.18729 15.3325 6.77732 14.7424 7.50515 14.7424Z" fill="#DFB504"/>
<path d="M31.8447 38.0689C29.1571 36.9535 27.8816 33.8713 28.9951 31.1829C30.1087 28.4944 33.1899 27.2168 35.8791 28.3284C38.5683 29.4401 39.8481 32.5205 38.7384 35.2104C37.6231 37.9025 34.5377 39.1818 31.8447 38.0689Z" fill="#DFB504"/>
<path d="M61.3174 71.4106C61.3174 72.8663 60.1373 74.0464 58.6817 74.0464H45.7231C44.2674 74.0464 43.0874 72.8663 43.0874 71.4106V68.7749H61.3174V71.4106Z" fill="#DFB504"/>
<path d="M24.6375 71.4106C24.6375 72.8663 23.4574 74.0464 22.0017 74.0464H9.04317C7.5875 74.0464 6.40744 72.8663 6.40744 71.4106V68.7749H24.6375V71.4106Z" fill="#DFB504"/>
<path d="M4.86989 0.246216H62.6319C64.8154 0.246216 66.5854 2.0163 66.5854 4.19981V62.1858C66.5854 64.3693 64.8154 66.1394 62.6319 66.1394H4.86989C2.68638 66.1394 0.916298 64.3693 0.916298 62.1858V4.19981C0.916298 2.0163 2.68638 0.246216 4.86989 0.246216ZM3.55202 23.9678C3.55202 26.1513 5.32211 27.9214 7.50562 27.9214V38.4643C5.32211 38.4643 3.55202 40.2344 3.55202 42.4179V50.3251C3.55202 52.5086 5.32211 54.2786 7.50562 54.2786V55.5965C7.50562 57.78 9.2757 59.5501 11.4592 59.5501H56.2666C58.4501 59.5501 60.2202 57.78 60.2202 55.5965V43.7357C60.2202 43.0079 59.6301 42.4179 58.9023 42.4179C58.1745 42.4179 57.5844 43.0079 57.5844 43.7357V55.5965C57.5844 56.3243 56.9944 56.9144 56.2666 56.9144H11.4592C10.7314 56.9144 10.1413 56.3243 10.1413 55.5965V54.2786C12.3249 54.2786 14.0949 52.5086 14.0949 50.3251V42.4179C14.0949 40.2344 12.3249 38.4643 10.1413 38.4643V27.9214C12.3249 27.9214 14.0949 26.1513 14.0949 23.9678V16.0606C14.0949 13.8771 12.3249 12.107 10.1413 12.107V10.7891C10.1413 10.0613 10.7314 9.47126 11.4592 9.47126H56.2666C56.9944 9.47126 57.5844 10.0613 57.5844 10.7891V37.1464C57.5844 37.8742 58.1745 38.4643 58.9023 38.4643C59.6301 38.4643 60.2202 37.8742 60.2202 37.1464V10.7891C60.2202 8.60562 58.4501 6.83554 56.2666 6.83554H11.4592C9.2757 6.83554 7.50562 8.60562 7.50562 10.7891V12.107C5.32211 12.107 3.55202 13.8771 3.55202 16.0606V23.9678ZM47.0415 14.7427H52.313V20.0142C52.313 20.742 52.903 21.332 53.6308 21.332C54.3587 21.332 54.9487 20.742 54.9487 20.0142V13.4249C54.9487 12.697 54.3587 12.107 53.6308 12.107H47.0415C46.3137 12.107 45.7237 12.697 45.7237 13.4249C45.7237 14.1527 46.3137 14.7427 47.0415 14.7427ZM39.9145 18.583C32.9442 15.6956 24.9049 18.1341 20.7132 24.4073C16.5216 30.6804 17.3449 39.041 22.6799 44.3759C28.0148 49.7108 36.3753 50.5342 42.6484 46.3425C48.9216 42.1508 51.3601 34.1115 48.4727 27.1412C46.8779 23.2596 43.7961 20.1778 39.9145 18.583Z" fill="#DFB504"/>
<path d="M45.3284 36.5152C44.8913 36.3229 44.3843 36.382 44.0032 36.6699C43.6222 36.9577 43.4266 37.4292 43.4921 37.9022C43.5576 38.3753 43.8739 38.7759 44.3189 38.9493L45.476 39.429C44.257 41.7139 42.3863 43.585 40.1017 44.8046L39.622 43.6462C39.4486 43.2012 39.048 42.8849 38.5749 42.8194C38.1019 42.7539 37.6304 42.9495 37.3426 43.3305C37.0547 43.7116 36.9956 44.2185 37.1879 44.6557L37.6663 45.8127C35.1885 46.5665 32.5426 46.5665 30.0649 45.8127L30.5432 44.6557C30.7356 44.2185 30.6764 43.7116 30.3886 43.3305C30.1008 42.9495 29.6293 42.7539 29.1562 42.8194C28.6832 42.8849 28.2826 43.2012 28.1092 43.6462L27.6295 44.8033C25.3445 43.5843 23.4734 41.7136 22.2539 39.429L23.4123 38.9493C23.8572 38.7759 24.1735 38.3753 24.239 37.9022C24.3045 37.4292 24.109 36.9577 23.7279 36.6699C23.3469 36.382 22.8399 36.3229 22.4028 36.5152L21.2457 36.9936C20.4919 34.5158 20.4919 31.8699 21.2457 29.3922L22.4028 29.8705C22.8399 30.0629 23.3469 30.0037 23.7279 29.7159C24.109 29.4281 24.3045 28.9566 24.239 28.4835C24.1735 28.0105 23.8572 27.6099 23.4123 27.4365L22.2552 26.9568C23.4742 24.6718 25.3448 22.8007 27.6295 21.5812L28.1092 22.7396C28.2826 23.1845 28.6832 23.5008 29.1562 23.5663C29.6293 23.6318 30.1008 23.4363 30.3886 23.0552C30.6764 22.6742 30.7356 22.1672 30.5432 21.7301L30.0649 20.573C32.5426 19.8192 35.1885 19.8192 37.6663 20.573L37.1879 21.7301C36.9956 22.1672 37.0547 22.6742 37.3426 23.0552C37.6304 23.4363 38.1019 23.6318 38.5749 23.5663C39.048 23.5008 39.4486 23.1845 39.622 22.7396L40.1017 21.5825C42.3866 22.8015 44.2577 24.6721 45.4773 26.9568L44.3189 27.4365C43.8739 27.6099 43.5576 28.0105 43.4921 28.4835C43.4266 28.9566 43.6222 29.4281 44.0032 29.7159C44.3843 30.0037 44.8913 30.0629 45.3284 29.8705L46.4854 29.3922C47.2392 31.8699 47.2392 34.5158 46.4854 36.9936L45.3284 36.5152ZM36.894 25.888C32.8605 24.2153 28.2347 26.1288 26.5615 30.162C24.8882 34.1953 26.8011 38.8214 30.8341 40.4952C34.8672 42.169 39.4935 40.2568 41.1679 36.224C42.8389 32.1896 40.9263 27.5641 36.894 25.888Z" fill="#DFB504"/>
</svg>
