<svg width="75" height="76" viewBox="0 0 75 76" fill="none" xmlns="http://www.w3.org/2000/svg">
<g clip-path="url(#clip0_440_28800)">
<path d="M48.4223 35.462V21.5253C48.4223 20.9551 47.9677 20.4929 47.4069 20.4929H20.8155C20.2547 20.4929 19.8 20.9551 19.8 21.5253V49.2095C19.8 50.1256 20.5257 50.8723 21.4234 50.8861C22.3149 50.8668 23.0386 50.1187 23.0386 49.2095V39.0133C23.0386 38.9989 23.0386 38.9844 23.0393 38.97C23.1205 37.003 24.7019 35.462 26.6393 35.462H48.4223ZM38.62 25.698C38.2633 25.2576 38.3255 24.6072 38.7588 24.2445C39.1914 23.8825 39.8318 23.9458 40.1878 24.3856L41.7103 26.2658L43.2321 24.3856C43.5882 23.9458 44.2286 23.8825 44.6611 24.2445C45.0944 24.6072 45.1567 25.2576 44.8006 25.698L43.0256 27.8908L44.8006 30.0842C45.1567 30.5246 45.0944 31.175 44.6611 31.537C44.2284 31.8998 43.5883 31.8361 43.2321 31.3959L41.7103 29.5157L40.1878 31.3959C39.8326 31.8363 39.1912 31.8995 38.7588 31.537C38.3255 31.175 38.2633 30.5246 38.62 30.0842L40.395 27.8908L38.62 25.698ZM30.0139 27.3863C30.0139 25.5246 31.5039 24.0091 33.3357 24.0091C35.1669 24.0091 36.6569 25.5246 36.6569 27.3863V30.7401C36.6569 31.3106 36.2026 31.7724 35.6414 31.7724C35.0809 31.7724 34.626 31.3106 34.626 30.7401V29.9389H32.0448V30.7401C32.0448 31.3106 31.5899 31.7724 31.0293 31.7724C30.4688 31.7724 30.0139 31.3106 30.0139 30.7401V27.3863ZM25.6218 31.7724C25.0613 31.7724 24.6064 31.3106 24.6064 30.7401V26.0738H23.3161C22.7549 26.0738 22.3007 25.612 22.3007 25.0415C22.3007 24.4716 22.7549 24.0091 23.3161 24.0091H27.9282C28.4894 24.0091 28.9437 24.4716 28.9437 25.0415C28.9437 25.612 28.4894 26.0738 27.9282 26.0738H26.6373V30.7401C26.6373 31.3106 26.183 31.7724 25.6218 31.7724Z" fill="#DFB504"/>
<path d="M26.6452 37.5266H26.6384C25.799 37.5266 25.1132 38.1887 25.0685 39.0373V49.2094C25.0685 49.8109 24.9264 50.3808 24.6746 50.8866H28.2177V39.1261C28.2177 38.2438 27.5123 37.5266 26.6452 37.5266Z" fill="#DFB504"/>
<path d="M34.6257 27.3863C34.6257 26.663 34.0469 26.0739 33.3354 26.0739C32.6232 26.0739 32.0444 26.663 32.0444 27.3863V27.8743H34.6257V27.3863Z" fill="#DFB504"/>
<path d="M52.7513 37.5266C50.0544 37.5266 32.0298 37.5266 29.8872 37.5266C30.1187 38.0098 30.2487 38.5528 30.2487 39.1261V54.5604C30.2487 55.1306 30.7033 55.5928 31.2641 55.5928H53.3084C53.8692 55.5928 54.3238 55.1306 54.3238 54.5604V39.1261C54.3238 38.2438 53.6185 37.5266 52.7513 37.5266ZM34.46 42.8178H42.3289C42.8901 42.8178 43.3444 43.2796 43.3444 43.8501C43.3444 44.42 42.8901 44.8825 42.3289 44.8825C40.5489 44.8825 36.1434 44.8825 34.46 44.8825C33.8995 44.8825 33.4446 44.42 33.4446 43.8501C33.4446 43.2796 33.8995 42.8178 34.46 42.8178ZM42.3783 50.4558C42.3291 50.4579 42.8087 50.4572 34.46 50.4572C33.8995 50.4572 33.4446 49.9947 33.4446 49.4248C33.4446 48.8543 33.8995 48.3925 34.46 48.3925H42.3289C42.891 48.3925 43.3444 48.8552 43.3444 49.4248C43.3444 49.9802 42.9132 50.4305 42.3783 50.4558ZM50.8843 50.4572H47.0256C46.4644 50.4572 46.0102 49.9947 46.0102 49.4248C46.0102 48.8614 46.4581 48.3925 47.0256 48.3925H50.8843C51.4448 48.3925 51.8997 48.8543 51.8997 49.4248C51.8997 49.9947 51.4448 50.4572 50.8843 50.4572ZM50.8843 44.8825C50.4533 44.8825 47.4982 44.8825 47.0256 44.8825C46.4644 44.8825 46.0102 44.42 46.0102 43.8501C46.0102 43.2796 46.4644 42.8178 47.0256 42.8178H50.8843C51.4448 42.8178 51.8997 43.2796 51.8997 43.8501C51.8997 44.42 51.4448 44.8825 50.8843 44.8825Z" fill="#DFB504"/>
</g>
<circle cx="37.35" cy="38.0429" r="34.2" stroke="#DFB504" stroke-width="6.3"/>
<path d="M3.59961 21.8429L68.3996 55.1429" stroke="#DFB504" stroke-width="3.6"/>
<defs>
<clipPath id="clip0_440_28800">
<rect width="34.5246" height="35.1" fill="white" transform="translate(19.8 20.4929)"/>
</clipPath>
</defs>
</svg>
