<svg width="74" height="65" viewBox="0 0 74 65" fill="none" xmlns="http://www.w3.org/2000/svg">
<path d="M64.4763 49.2374H61.3207C61.1335 48.4731 60.5809 47.8346 59.8074 47.589C53.9075 45.7073 47.4214 45.7073 41.5215 47.589C40.748 47.8346 40.1954 48.4731 40.0082 49.2374H33.6939C33.5067 48.4731 32.9541 47.8346 32.1806 47.589C26.2807 45.7073 19.7946 45.7073 13.8947 47.589C13.1181 47.8346 12.5686 48.4731 12.3814 49.2374H9.22272C7.52521 49.2374 6.15308 50.6126 6.15308 52.307C6.15308 54.0015 7.52521 55.3767 9.22272 55.3767H12.2924V55.9937C12.2924 59.7786 15.0857 62.9679 18.9351 63.5849L24.5617 64.4812C24.9945 64.5519 25.4274 64.5856 25.8602 64.5856C27.7726 64.5856 29.6266 63.9134 31.0878 62.6671C32.8007 61.2059 33.7799 59.1032 33.7799 56.8931V55.3767H39.9192V56.8931C39.9192 59.1032 40.8984 61.2059 42.6112 62.6671C44.0755 63.9134 45.9264 64.5856 47.8388 64.5856C48.2717 64.5856 48.7045 64.5519 49.1373 64.4812L54.764 63.5849C58.6133 62.971 61.4067 59.7786 61.4067 55.9937V55.3767H64.4763C66.1738 55.3767 67.5459 54.0015 67.5459 52.307C67.5459 50.6126 66.1738 49.2374 64.4763 49.2374Z" fill="#DFB504"/>
<path d="M52.1974 16.5979V12.2022C52.1974 9.27678 50.7239 6.60312 48.2529 5.04375C45.7787 3.48437 42.7367 3.3094 40.103 4.57716L39.1514 4.85036C39.1514 2.24423 37.0333 0.123108 34.4303 0.123108H29.9424C25.2858 0.123108 21.5009 3.91719 21.5009 8.57998V16.5979C8.82944 18.541 0.0134277 22.7955 0.0134277 27.7499C0.0134277 34.5307 16.5066 40.0285 36.8491 40.0285C57.1917 40.0285 73.6849 34.5307 73.6849 27.7499C73.6849 22.7955 64.8688 18.541 52.1974 16.5979Z" fill="#DFB504"/>
</svg>
