<svg width="150" height="50" fill="none" xmlns="http://www.w3.org/2000/svg"><path d="M138.055 0H11.952c-.46 0-.914 0-1.372.003-.384.002-.765.01-1.152.016a16.61 16.61 0 00-2.512.22 8.37 8.37 0 00-2.383.784 8.07 8.07 0 00-3.506 3.5 8.235 8.235 0 00-.783 2.379c-.14.827-.215 1.664-.225 2.502-.012.384-.013.768-.019 1.152v28.892c.006.388.007.764.019 1.153.01.838.085 1.675.225 2.502.137.829.402 1.631.783 2.38a7.76 7.76 0 001.477 2.018 7.864 7.864 0 002.029 1.474 8.41 8.41 0 002.383.788c.83.136 1.67.21 2.512.221.387.009.768.014 1.152.014.458.002.912.002 1.372.002h126.103c.45 0 .908 0 1.359-.002.382 0 .773-.005 1.155-.014.84-.01 1.678-.084 2.507-.22a8.537 8.537 0 002.392-.79 7.85 7.85 0 002.027-1.473 8.007 8.007 0 001.482-2.018c.378-.75.64-1.552.776-2.38a16.93 16.93 0 00.232-2.502c.005-.389.005-.765.005-1.153.01-.454.01-.906.01-1.367v-26.16c0-.458 0-.913-.01-1.365 0-.384 0-.768-.005-1.152a16.93 16.93 0 00-.232-2.502 8.284 8.284 0 00-.776-2.38 8.095 8.095 0 00-3.509-3.499 8.492 8.492 0 00-2.392-.784 16.388 16.388 0 00-2.507-.22c-.382-.007-.773-.014-1.155-.017C138.963 0 138.505 0 138.055 0z" fill="#A6A6A6"/><path d="M10.585 48.906c-.382 0-.755-.005-1.133-.013a15.951 15.951 0 01-2.343-.204 7.392 7.392 0 01-2.077-.685 6.774 6.774 0 01-1.751-1.27A6.651 6.651 0 012 44.987a7.137 7.137 0 01-.68-2.072 15.473 15.473 0 01-.209-2.343c-.008-.264-.018-1.142-.018-1.142V10.556s.01-.865.018-1.119c.01-.784.08-1.566.208-2.34A7.18 7.18 0 012 5.02a6.717 6.717 0 011.273-1.748 6.975 6.975 0 011.758-1.278 7.314 7.314 0 012.073-.68 15.821 15.821 0 012.35-.205l1.132-.015h128.821l1.145.016c.78.009 1.559.077 2.329.203a7.474 7.474 0 012.095.685 7.002 7.002 0 013.027 3.025c.326.65.553 1.344.671 2.06.13.78.203 1.57.218 2.36.003.354.003.734.003 1.113.01.468.01.914.01 1.364v26.161c0 .454 0 .897-.01 1.344 0 .407 0 .779-.005 1.162-.014.777-.086 1.55-.214 2.317a7.15 7.15 0 01-.677 2.087 6.838 6.838 0 01-1.273 1.733 6.778 6.778 0 01-1.754 1.278 7.356 7.356 0 01-2.091.687c-.775.126-1.558.194-2.343.204a49.23 49.23 0 01-1.125.013l-1.359.003-127.469-.003z" fill="#000"/><path d="M31.048 25.376a6.173 6.173 0 012.954-5.19 6.363 6.363 0 00-5.003-2.697c-2.105-.22-4.146 1.256-5.219 1.256-1.093 0-2.745-1.234-4.523-1.198a6.678 6.678 0 00-3.254.968 6.653 6.653 0 00-2.353 2.442c-2.424 4.186-.616 10.337 1.707 13.72 1.161 1.657 2.52 3.507 4.296 3.442 1.739-.072 2.388-1.106 4.487-1.106 2.08 0 2.688 1.106 4.501 1.064 1.866-.03 3.041-1.664 4.163-3.336a13.689 13.689 0 001.903-3.866 5.99 5.99 0 01-2.66-2.2 5.965 5.965 0 01-1-3.299zm-3.424-10.112A6.08 6.08 0 0029.02 10.9 6.22 6.22 0 0025 12.976a5.79 5.79 0 00-1.434 4.202 5.15 5.15 0 004.057-1.913zm25.402 18.659h-5.933l-1.425 4.196h-2.513l5.62-15.523h2.61l5.62 15.523H54.45l-1.424-4.196zm-5.319-1.936h4.703l-2.318-6.81h-.065l-2.32 6.81zm21.436.475c0 3.517-1.888 5.777-4.736 5.777a3.856 3.856 0 01-3.57-1.98h-.055v5.605h-2.33v-15.06h2.256v1.881h.042a4.02 4.02 0 013.614-2c2.88 0 4.779 2.27 4.779 5.777zm-2.394 0c0-2.291-1.188-3.797-3-3.797-1.78 0-2.977 1.538-2.977 3.797 0 2.28 1.198 3.808 2.977 3.808 1.812 0 3-1.496 3-3.808zm14.885 0c0 3.517-1.887 5.777-4.736 5.777a3.857 3.857 0 01-3.57-1.98h-.055v5.605h-2.33V26.803H73.2v1.882h.043a4.02 4.02 0 013.613-2c2.88 0 4.78 2.27 4.78 5.777zm-2.394 0c0-2.291-1.188-3.797-3-3.797-1.78 0-2.976 1.538-2.976 3.797 0 2.28 1.197 3.808 2.977 3.808 1.811 0 2.999-1.496 2.999-3.808zm10.65 1.333c.173 1.54 1.672 2.55 3.721 2.55 1.964 0 3.376-1.01 3.376-2.398 0-1.205-.852-1.927-2.869-2.421l-2.017-.485c-2.858-.688-4.186-2.021-4.186-4.184 0-2.678 2.341-4.518 5.664-4.518 3.29 0 5.545 1.84 5.62 4.518h-2.351c-.14-1.55-1.425-2.484-3.302-2.484-1.876 0-3.16.946-3.16 2.323 0 1.097.82 1.743 2.826 2.237l1.715.42c3.194.753 4.521 2.032 4.521 4.303 0 2.904-2.32 4.723-6.01 4.723-3.451 0-5.782-1.776-5.933-4.584h2.385zm14.586-9.67v2.678h2.158v1.84h-2.158v6.239c0 .969.432 1.42 1.38 1.42a7.31 7.31 0 00.767-.053v1.829c-.427.079-.86.115-1.294.107-2.298 0-3.194-.86-3.194-3.055v-6.487h-1.65v-1.84h1.65v-2.678h2.341zm3.407 8.337c0-3.56 2.103-5.798 5.383-5.798 3.29 0 5.384 2.237 5.384 5.798 0 3.57-2.083 5.798-5.384 5.798s-5.383-2.227-5.383-5.798zm8.393 0c0-2.443-1.123-3.884-3.01-3.884-1.888 0-3.009 1.452-3.009 3.884 0 2.452 1.121 3.883 3.009 3.883 1.887 0 3.01-1.43 3.01-3.883zm4.294-5.659h2.222v1.926h.054a2.698 2.698 0 011.001-1.505 2.713 2.713 0 011.729-.54c.268 0 .536.029.798.087v2.173a3.267 3.267 0 00-1.047-.14 2.354 2.354 0 00-1.814.745 2.338 2.338 0 00-.613 1.858v6.713h-2.33V26.803zm16.544 7.993c-.313 2.054-2.319 3.464-4.886 3.464-3.302 0-5.351-2.205-5.351-5.744 0-3.55 2.06-5.852 5.253-5.852 3.14 0 5.114 2.15 5.114 5.582v.796h-8.015v.14a2.941 2.941 0 001.828 2.99c.388.158.805.231 1.224.216a2.576 2.576 0 001.576-.363 2.558 2.558 0 001.045-1.229h2.212zm-7.874-3.378h5.673a2.717 2.717 0 00-1.686-2.668 2.735 2.735 0 00-1.097-.204 2.88 2.88 0 00-2.046.836 2.874 2.874 0 00-.844 2.036zM46.051 14.067h1a1.26 1.26 0 001.284-.691 1.25 1.25 0 00.127-.498c0-.688-.52-1.132-1.4-1.132a1.336 1.336 0 00-1.509 1.168h-1.098a2.332 2.332 0 01.846-1.664 2.345 2.345 0 011.797-.517c1.473 0 2.51.822 2.51 2.005a1.73 1.73 0 01-1.36 1.706v.088c.46.02.894.222 1.206.56.312.338.477.785.458 1.244a2.487 2.487 0 01-1.808 2.143 2.5 2.5 0 01-.985.074 2.49 2.49 0 01-2.515-1.263 2.472 2.472 0 01-.294-.944h1.115c.067.714.724 1.174 1.694 1.174s1.602-.517 1.602-1.246c0-.739-.596-1.194-1.638-1.194h-1.032v-1.013zm5.129 2.713c0-1.013.757-1.597 2.099-1.68l1.528-.088v-.486c0-.594-.392-.93-1.155-.93-.622 0-1.052.228-1.176.626h-1.079c.114-.967 1.027-1.587 2.308-1.587 1.415 0 2.213.703 2.213 1.892v3.845h-1.074v-.79h-.088a1.897 1.897 0 01-1.695.883 1.708 1.708 0 01-1.733-.995 1.695 1.695 0 01-.149-.69zm3.627-.48v-.471l-1.378.088c-.777.052-1.13.316-1.13.812 0 .506.44.801 1.047.801a1.335 1.335 0 001.321-.72c.08-.16.128-.333.14-.51zm4.067-2.621v4.693H57.76v-5.628h3.717v.935h-2.603zm9.354 1.877c0 1.788-.907 2.909-2.332 2.909a1.845 1.845 0 01-1.737-.945h-.089v2.724h-1.113v-7.5h1.072v.93h.083a1.958 1.958 0 011.773-1.024c1.436 0 2.343 1.117 2.343 2.905zm-1.146 0c0-1.19-.564-1.908-1.508-1.908-.938 0-1.524.734-1.524 1.912 0 1.173.586 1.908 1.519 1.908.948 0 1.513-.719 1.513-1.912zm2.629 4.832v-.956c.12.015.242.022.364.02a.967.967 0 001.02-.785l.084-.274-2.043-5.65h1.213l1.415 4.472h.088l1.41-4.471h1.182l-2.105 5.861c-.482 1.37-1.016 1.809-2.166 1.809-.093 0-.358-.01-.462-.026zm5.6-3.613h1.11c.108.496.575.755 1.227.755.742 0 1.198-.326 1.198-.832 0-.543-.41-.802-1.198-.802h-.844v-.863h.83c.673 0 1.016-.258 1.016-.728 0-.414-.332-.73-1.016-.73-.623 0-1.079.264-1.151.709h-1.074a1.982 1.982 0 012.224-1.649c1.342 0 2.11.605 2.11 1.556a1.154 1.154 0 01-.891 1.152v.088a1.267 1.267 0 011.104 1.267c0 1.07-.913 1.778-2.308 1.778-1.232 0-2.234-.564-2.337-1.7zm6.249 1.597v-5.628h1.104v3.871h.088l2.602-3.871h1.104v5.628h-1.104V14.48h-.084l-2.606 3.892H81.56zm10.98-4.693h-1.777v4.693h-1.115V13.68h-1.777v-.935h4.67v.935zm6 3.174c-.15.514-.48.959-.926 1.257a2.3 2.3 0 01-1.52.371 2.57 2.57 0 01-1.978-.85 2.555 2.555 0 01-.63-2.055 2.59 2.59 0 011.52-2.716 2.61 2.61 0 011.083-.225c1.57 0 2.52 1.07 2.52 2.838v.387h-3.986v.063a1.482 1.482 0 00.897 1.492c.192.082.398.123.606.12a1.354 1.354 0 001.341-.682h1.074zm-3.918-1.814h2.85a1.354 1.354 0 00-.834-1.354 1.365 1.365 0 00-.554-.104 1.445 1.445 0 00-1.356.897 1.435 1.435 0 00-.105.56zm8.642-2.295h2.545c1.104 0 1.752.558 1.752 1.431a1.21 1.21 0 01-.954 1.189v.088a1.285 1.285 0 011.207 1.298c0 .982-.74 1.622-1.979 1.622h-2.571v-5.628zm1.104.852v1.458h1.105c.673 0 .995-.258.995-.734 0-.44-.281-.724-.872-.724h-1.228zm0 2.275v1.649h1.321c.659 0 1.011-.29 1.011-.822 0-.564-.399-.827-1.15-.827h-1.182z" fill="#fff"/></svg>