<svg width="173" height="50" fill="none" xmlns="http://www.w3.org/2000/svg"><path d="M166.593 50H6.407C2.883 50 0 47.187 0 43.75V6.25C0 2.812 2.883 0 6.407 0h160.186C170.117 0 173 2.813 173 6.25v37.5c0 3.438-2.883 6.25-6.407 6.25z" fill="#000"/><path d="M166.593 0H6.407C2.883 0 0 2.813 0 6.25v37.5C0 47.188 2.883 50 6.407 50h160.186c3.524 0 6.407-2.813 6.407-6.25V6.25c0-3.438-2.883-6.25-6.407-6.25zm0 1c2.968 0 5.382 2.356 5.382 5.25v37.5c0 2.895-2.414 5.25-5.382 5.25H6.407c-2.967 0-5.382-2.355-5.382-5.25V6.25C1.025 3.356 3.44 1 6.407 1h160.186z" fill="#A6A6A6"/><path d="M137.036 37.5h2.392V21.874h-2.392V37.5zm21.538-9.997l-2.741 6.774h-.082l-2.845-6.774h-2.575l4.266 9.469-2.433 5.267h2.495l6.574-14.736h-2.659zm-13.56 8.222c-.785 0-1.876-.382-1.876-1.327 0-1.206 1.36-1.668 2.534-1.668 1.052 0 1.546.22 2.185.523-.186 1.447-1.463 2.472-2.843 2.472zm.288-8.564c-1.731 0-3.524.744-4.266 2.392l2.122.865c.454-.865 1.298-1.146 2.185-1.146 1.237 0 2.494.724 2.514 2.01v.16c-.433-.24-1.359-.602-2.494-.602-2.287 0-4.617 1.226-4.617 3.518 0 2.09 1.876 3.438 3.978 3.438 1.608 0 2.494-.704 3.051-1.528h.082v1.206h2.308v-5.991c0-2.774-2.122-4.322-4.863-4.322zm-14.778 2.244h-3.401v-5.357h3.401a2.741 2.741 0 012.803 2.679c0 1.21-1.015 2.678-2.803 2.678zm-.062-7.531h-5.729V37.5h2.39v-5.92h3.339c2.651 0 5.256-1.872 5.256-4.853 0-2.982-2.605-4.853-5.256-4.853zM99.219 35.728c-1.652 0-3.035-1.35-3.035-3.202 0-1.873 1.383-3.242 3.035-3.242 1.631 0 2.911 1.37 2.911 3.242 0 1.853-1.28 3.202-2.911 3.202zm2.745-7.35h-.082c-.537-.625-1.57-1.188-2.87-1.188-2.725 0-5.223 2.335-5.223 5.336 0 2.98 2.498 5.296 5.223 5.296 1.3 0 2.333-.564 2.87-1.208h.082v.765c0 2.035-1.114 3.122-2.91 3.122-1.466 0-2.375-1.027-2.747-1.893l-2.085.846c.6 1.41 2.189 3.141 4.831 3.141 2.808 0 5.182-1.611 5.182-5.538v-9.545h-2.271v.866zm3.923 9.122h2.395V21.873h-2.395V37.5zm5.925-5.155a2.948 2.948 0 012.849-3.101c.95 0 1.755.463 2.023 1.128l-4.872 1.973zm7.432-1.772c-.453-1.189-1.837-3.383-4.666-3.383-2.807 0-5.14 2.154-5.14 5.316 0 2.98 2.312 5.316 5.409 5.316 2.498 0 3.944-1.49 4.542-2.356l-1.858-1.208c-.619.886-1.466 1.47-2.684 1.47-1.218 0-2.085-.544-2.643-1.61l7.288-2.941-.248-.604zM61.183 28.82v2.255h5.533c-.166 1.269-.6 2.195-1.26 2.84-.805.785-2.064 1.65-4.273 1.65-3.407 0-6.07-2.677-6.07-6s2.663-6.001 6.07-6.001c1.837 0 3.179.705 4.17 1.61l1.63-1.59c-1.382-1.29-3.22-2.276-5.8-2.276-4.666 0-8.589 3.706-8.589 8.257s3.923 8.256 8.589 8.256c2.519 0 4.418-.805 5.904-2.316 1.528-1.49 2.003-3.584 2.003-5.275 0-.524-.041-1.007-.124-1.41h-7.783zm14.197 6.907c-1.652 0-3.076-1.33-3.076-3.222 0-1.913 1.424-3.222 3.076-3.222 1.651 0 3.076 1.309 3.076 3.222 0 1.893-1.425 3.222-3.076 3.222zm0-8.538c-3.014 0-5.471 2.235-5.471 5.316 0 3.06 2.457 5.316 5.471 5.316 3.014 0 5.47-2.255 5.47-5.316 0-3.081-2.456-5.316-5.47-5.316zm11.935 8.538c-1.651 0-3.076-1.33-3.076-3.222 0-1.913 1.424-3.222 3.076-3.222 1.651 0 3.076 1.309 3.076 3.222 0 1.893-1.425 3.222-3.076 3.222zm0-8.538c-3.015 0-5.47 2.235-5.47 5.316 0 3.06 2.455 5.316 5.47 5.316 3.014 0 5.47-2.255 5.47-5.316 0-3.081-2.456-5.316-5.47-5.316z" fill="#fff"/><path d="M13.468 40.487l-.095-.089c-.373-.385-.593-.983-.593-1.756v.182-27.652.19c0-.838.257-1.47.687-1.848l15.877 15.487-15.876 15.486zM12.78 11.17zm.005-.205v-.003.003zm0-.008v-.002.002z" fill="url(#paint0_linear_2311_7959)"/><path d="M34.636 30.348l.12-.067 6.27-3.475c.598-.331.997-.733 1.196-1.159-.199.426-.597.828-1.195 1.16l-6.27 3.475-.121.066zm.001-.183L29.344 25l5.293-5.163 6.39 3.54c.811.45 1.267 1.03 1.343 1.622v.003c-.076.59-.532 1.17-1.343 1.62l-6.39 3.542z" fill="url(#paint1_linear_2311_7959)"/><path d="M14.6 41.077a1.675 1.675 0 00.001 0zm0-.183c-.443 0-.83-.141-1.131-.407L29.343 25l5.293 5.164-18.6 10.31c-.515.284-1.003.419-1.436.419zm-1.136-.227a1.738 1.738 0 01-.083-.079l.083.079z" fill="url(#paint2_linear_2311_7959)"/><path d="M29.344 25L13.467 9.515a1.675 1.675 0 011.131-.406c.435 0 .923.136 1.438.42l18.6 10.31L29.345 25zm5.412-5.279L16.036 9.346c-.515-.285-1.003-.42-1.438-.42h-.005.007c.434 0 .921.134 1.436.42l18.72 10.375z" fill="url(#paint3_linear_2311_7959)"/><path d="M14.718 41.074c.403-.023.85-.158 1.318-.417l18.6-10.309-18.6 10.309c-.468.26-.915.394-1.318.417zm-1.25-.404l-.004-.003a.034.034 0 01.004.003zm-.087-.082l-.008-.007.008.007z" fill="#000"/><path d="M34.636 30.348l.12-.067-.12.067z" fill="url(#paint4_linear_2311_7959)"/><path d="M14.601 41.077c-.443 0-.83-.142-1.133-.407a.034.034 0 00-.004-.003l-.083-.079-.008-.008.095-.093c.302.266.69.407 1.133.407.433 0 .92-.135 1.435-.42l18.601-10.309.12.116-.121.067-18.6 10.309c-.469.259-.915.394-1.318.417l-.117.003z" fill="url(#paint5_linear_2311_7959)"/><path d="M13.372 40.58c-.372-.384-.592-.982-.592-1.756 0 .774.22 1.371.592 1.756z" fill="#000"/><path d="M13.372 40.58c-.372-.385-.592-.982-.592-1.756v-.182c0 .773.22 1.371.592 1.756l.095.089-.095.093z" fill="url(#paint6_linear_2311_7959)"/><path d="M13.373 40.58l.095-.094-.095.094z" fill="url(#paint7_linear_2311_7959)"/><path d="M42.222 25.648c.098-.212.148-.428.148-.645v-.001c0 .217-.05.434-.148.646z" fill="#000"/><path d="M34.756 30.281l-.119-.116 6.39-3.542c.811-.45 1.267-1.03 1.343-1.62 0 .217-.05.433-.148.644-.2.426-.598.828-1.196 1.159l-6.27 3.475z" fill="url(#paint8_linear_2311_7959)"/><path d="M42.37 25c0-.654-.449-1.307-1.343-1.803l-6.27-3.476h-.001l6.27 3.475c.896.496 1.345 1.151 1.344 1.805z" fill="#404040"/><path d="M42.37 25c-.076-.592-.532-1.171-1.343-1.621l-6.39-3.541.119-.116 6.27 3.475c.895.496 1.343 1.15 1.344 1.803z" fill="url(#paint9_linear_2311_7959)"/><path d="M12.78 11.172v-.001.001zm.005-.203v-.003.003zm0-.006v-.005.005zm0-.007c.075-1.284.79-2.026 1.803-2.03a1.672 1.672 0 00-1.12.406l-.004.003a1.666 1.666 0 00-.091.087c-.336.347-.549.867-.587 1.534z" fill="#404040"/><path d="M12.78 11.362v-.191c0-.07.002-.136.005-.202v-.013c.04-.667.251-1.187.587-1.534l.094.092c-.43.379-.686 1.01-.686 1.848zm.683-2.027l.004-.004-.004.004z" fill="url(#paint10_linear_2311_7959)"/><path d="M34.637 19.838l-18.6-10.31c-.516-.284-1.004-.42-1.439-.42-.443 0-.83.14-1.131.406l-.094-.092c.03-.03.06-.06.091-.087l.004-.003a1.67 1.67 0 011.12-.406h.01c.435 0 .923.135 1.438.42l18.72 10.375-.12.117z" fill="url(#paint11_linear_2311_7959)"/><path d="M55.74 12.459c.015 1.186-.229 2.143-.73 2.87h3.888V9.67H55.74v2.788zm-1.772 5.383h-.945v-2.513h.752c.666-.56.991-1.516.978-2.87V8.75h5.133v6.579h.859v2.513H59.8V16.25h-5.832v1.592z" fill="#fff"/><path d="M55.74 12.458l-.128.002.001.1c0 1.123-.24 2.02-.709 2.699l-.134.194h4.256V9.546h-3.414v2.913h.256V9.795h2.902v5.408h-3.76v.124l.107.07c.504-.732.752-1.68.752-2.837v-.104l-.129.001h.128-.128zm-1.772 5.384v-.125h-.816v-2.263h.671l.036-.03c.693-.584 1.023-1.555 1.023-2.884v-.083.001-3.583h4.876v6.579h.859v2.263h-.689v-1.592H53.84v1.717h.128v-.125.125h.128v-1.467h5.576v1.592h1.201v-2.763h-.858v-6.58h-5.39v3.916c0 1.294-.321 2.181-.933 2.693l.084.095v-.124h-.881v2.763h1.201v-.125h-.128zm9.573-3.189c.57.562 1.266.843 2.09.843.823 0 1.52-.281 2.088-.843.57-.562.855-1.28.855-2.153s-.286-1.59-.855-2.153c-.569-.562-1.265-.843-2.089-.843-.823 0-1.52.281-2.089.843-.568.562-.853 1.28-.853 2.153s.285 1.59.853 2.153zm4.909.628c-.756.758-1.696 1.136-2.82 1.136-1.124 0-2.064-.378-2.818-1.136-.756-.758-1.133-1.685-1.133-2.781s.377-2.024 1.133-2.78c.754-.76 1.694-1.138 2.818-1.138 1.118 0 2.055.38 2.814 1.142.759.761 1.138 1.687 1.138 2.776 0 1.096-.378 2.023-1.132 2.78z" fill="#fff"/><path d="M63.541 14.653l-.09.088c.59.584 1.326.88 2.18.88.852 0 1.59-.296 2.179-.88.594-.585.893-1.342.892-2.241.001-.9-.298-1.656-.892-2.241-.589-.584-1.327-.881-2.18-.88-.853-.001-1.59.296-2.18.88-.592.585-.891 1.342-.89 2.24-.001.9.298 1.656.89 2.242l.091-.088.092-.088c-.544-.54-.815-1.219-.817-2.065.002-.847.273-1.526.817-2.065.548-.54 1.203-.804 1.997-.806.794.002 1.45.266 1.998.806l.002.002-.002-.002c.545.54.816 1.218.818 2.065-.002.846-.273 1.525-.818 2.065-.547.54-1.204.804-1.998.805-.793-.001-1.449-.266-1.997-.805l-.092.088zm4.909.627l-.092-.086c-.734.734-1.633 1.097-2.728 1.098-1.094-.001-1.993-.364-2.726-1.098-.733-.737-1.095-1.626-1.096-2.694.001-1.069.363-1.957 1.096-2.694.733-.734 1.632-1.098 2.726-1.1 1.088.002 1.985.367 2.723 1.105.736.74 1.1 1.628 1.101 2.689-.001 1.068-.364 1.957-1.096 2.694l.092.086.092.087c.777-.778 1.17-1.743 1.169-2.867 0-1.118-.393-2.081-1.174-2.863-.781-.785-1.76-1.182-2.907-1.18-1.153-.002-2.134.393-2.91 1.175-.778.778-1.17 1.744-1.169 2.868 0 1.124.39 2.09 1.17 2.868.775.781 1.756 1.175 2.91 1.174 1.152.001 2.133-.393 2.91-1.175l-.091-.087zm6.106 1.138c-1.131 0-2.08-.374-2.846-1.122-.767-.747-1.148-1.679-1.148-2.796 0-1.117.381-2.05 1.148-2.796.766-.748 1.715-1.122 2.846-1.122 1.159 0 2.101.409 2.824 1.226l-.688.65c-.521-.636-1.235-.954-2.136-.954-.838 0-1.546.276-2.121.828-.577.552-.865 1.274-.865 2.168 0 .893.288 1.617.865 2.168.575.552 1.283.828 2.121.828.924 0 1.71-.363 2.363-1.09l.687.67a3.72 3.72 0 01-1.322.98 4.118 4.118 0 01-1.728.361z" fill="#fff"/><path d="M74.555 16.417v-.125c-1.102-.001-2.01-.36-2.755-1.084-.743-.725-1.11-1.619-1.111-2.708 0-1.09.368-1.983 1.111-2.708.744-.725 1.653-1.084 2.755-1.085 1.129.002 2.026.391 2.727 1.182l.098-.082-.09-.09-.688.65.09.09.1-.078c-.544-.665-1.305-1.002-2.237-1-.867 0-1.614.29-2.21.863-.604.576-.905 1.339-.904 2.258-.001.919.3 1.682.903 2.257.598.574 1.344.864 2.211.863.959.002 1.79-.382 2.46-1.131l-.097-.083-.09.089.686.67.091-.089-.099-.08c-.34.398-.762.713-1.277.946a3.99 3.99 0 01-1.674.35v.25a4.25 4.25 0 001.782-.373 3.852 3.852 0 001.367-1.013l.074-.087-.77-.75-.096-.096-.09.101c-.634.704-1.378 1.045-2.267 1.046-.81-.001-1.477-.262-2.031-.792-.551-.527-.825-1.21-.826-2.078 0-.868.275-1.55.826-2.079.554-.53 1.222-.79 2.031-.792.87.002 1.536.3 2.036.906l.088.108.79-.746.087-.082-.08-.09c-.744-.843-1.731-1.27-2.92-1.268-1.161-.001-2.15.388-2.937 1.158-.791.768-1.188 1.74-1.186 2.885-.002 1.144.395 2.116 1.186 2.885.787.77 1.776 1.158 2.936 1.157v-.125zm7.046-.167h-.988V9.67h-2.148v-.92h5.284v.921H81.6v6.579z" fill="#fff"/><path d="M81.602 16.25v-.125h-.86V9.546h-2.148v-.67h5.027v.67h-2.148v6.704h.129v-.125.125h.128V9.796h2.147V8.625h-5.54v1.171h2.148v6.58h1.245v-.126h-.128zm8.93-7.5l-2.91 6.327c-.401.894-.997 1.34-1.792 1.34-.236 0-.49-.055-.764-.167l.258-.89c.165.09.337.136.516.136.23 0 .407-.044.532-.13.125-.088.241-.248.349-.478l.28-.598-2.589-5.54h1.16l1.9 4.305h.043l1.857-4.305h1.16z" fill="#fff"/><path d="M90.532 8.75l-.117-.052-2.91 6.328c-.395.867-.935 1.262-1.675 1.266-.216 0-.453-.05-.714-.158l-.05.116.124.034.257-.89-.123-.035-.062.109c.182.1.376.153.578.152.245 0 .45-.045.606-.153.155-.11.278-.287.392-.527l.279-.598.024-.052-2.53-5.415h.877l1.9 4.305h.212l1.857-4.305h1.075v-.25h-1.245l-1.89 4.382.118.048v-.125h-.042v.125l.117-.05-1.933-4.38h-1.445l2.647 5.665-.255.546c-.101.22-.21.361-.307.427-.093.066-.244.108-.457.107a.918.918 0 01-.453-.12l-.142-.078-.302 1.044-.03.106.104.043c.285.117.556.177.813.177.85.004 1.502-.495 1.91-1.415l2.99-6.502h-.198v.125zm1.118 7.5v-7.5h5.564v7.5h-.989V9.67h-3.587v6.579h-.987z" fill="#fff"/><path d="M91.65 16.25h.129V8.875h5.306v7.25h-.732V9.546H92.51v6.58h-.86v.124h.129-.128v.125h1.115V9.796h3.33v6.58h1.246v-7.75h-5.82v7.75h.129v-.126zm7.325 0v-7.5h.987v3.215h3.845V8.75h.988v7.5h-.988v-3.384h-3.845v3.384h-.987z" fill="#fff"/><path d="M98.975 16.25h.128V8.875h.731v3.215h4.101V8.875h.732v7.25h-.732v-3.384h-4.1v3.384h-.86v.125h.128-.128v.125h1.116v-3.384h3.588v3.384h1.245v-7.75h-1.245v3.215h-3.588V8.625h-1.244v7.75h.128v-.125zm8.961-1.597c.57.562 1.265.843 2.089.843.823 0 1.52-.281 2.088-.843.57-.562.855-1.28.855-2.153s-.285-1.59-.855-2.153c-.568-.562-1.265-.843-2.088-.843-.824 0-1.519.281-2.089.843-.568.562-.854 1.28-.854 2.153s.286 1.59.854 2.153zm4.908.628c-.755.758-1.695 1.136-2.819 1.136-1.124 0-2.064-.378-2.818-1.136-.756-.758-1.133-1.685-1.133-2.781s.377-2.024 1.133-2.78c.754-.76 1.694-1.138 2.818-1.138 1.118 0 2.055.38 2.814 1.142.758.761 1.138 1.687 1.138 2.776 0 1.096-.378 2.023-1.133 2.78z" fill="#fff"/><path d="M107.936 14.653l-.091.088c.59.584 1.326.88 2.18.88.853 0 1.59-.296 2.18-.88.593-.585.892-1.342.891-2.241.001-.9-.298-1.656-.891-2.241-.59-.584-1.327-.881-2.18-.88-.854-.001-1.59.296-2.18.88-.593.585-.892 1.342-.891 2.24-.001.9.298 1.656.891 2.242l.091-.088.091-.088c-.543-.54-.815-1.219-.817-2.065.002-.847.274-1.526.817-2.065.548-.54 1.204-.804 1.998-.806.793.002 1.45.266 1.997.806l.004.004-.004-.004c.545.54.817 1.218.818 2.065-.001.846-.273 1.525-.818 2.065-.547.54-1.204.804-1.997.805-.794-.001-1.45-.266-1.998-.805l-.091.088zm4.908.627l-.092-.086c-.734.734-1.633 1.097-2.727 1.098-1.095-.001-1.994-.364-2.727-1.098l-.004-.004.004.004c-.733-.737-1.095-1.626-1.096-2.694.001-1.069.363-1.957 1.096-2.694.733-.734 1.632-1.098 2.727-1.1 1.087.002 1.984.367 2.722 1.105.736.74 1.1 1.628 1.101 2.689-.001 1.068-.364 1.957-1.096 2.694l.092.086.092.087c.777-.778 1.17-1.743 1.169-2.867.001-1.118-.393-2.081-1.174-2.863-.781-.785-1.759-1.182-2.906-1.18-1.154-.002-2.134.393-2.911 1.175-.778.778-1.17 1.744-1.169 2.868-.001 1.124.391 2.09 1.169 2.868.777.781 1.757 1.175 2.911 1.174 1.153.001 2.134-.393 2.911-1.175l-.092-.087zm6.159.048h1.988c.379 0 .687-.129.924-.388.236-.258.354-.54.354-.848 0-.308-.122-.588-.366-.843-.242-.255-.562-.383-.956-.383h-1.944v2.462zm0-3.363h1.794c.373 0 .672-.12.897-.361.226-.24.339-.504.339-.79a1.13 1.13 0 00-.328-.786c-.218-.238-.506-.357-.864-.357h-1.838v2.294zm-.986 4.285v-7.5h2.78c.601 0 1.123.194 1.563.58.44.39.661.876.661 1.462 0 .356-.095.67-.286.943a1.77 1.77 0 01-.756.618v.042c.378.125.691.342.934.65.242.307.365.663.365 1.068 0 .614-.23 1.124-.693 1.529a2.4 2.4 0 01-1.638.608h-2.93z" fill="#fff"/><path d="M119.004 15.329v.125h1.987c.409.001.761-.145 1.019-.43.254-.275.388-.593.387-.932.001-.34-.138-.656-.4-.928-.265-.281-.628-.424-1.049-.423h-2.073v2.713h.129v-.125h.128V12.99h1.816c.366.002.642.115.862.343.226.238.329.484.331.758-.002.276-.103.525-.322.765-.214.232-.478.345-.828.347h-1.987v.125h.128-.128zm0-3.364v.125h1.794c.399.002.743-.133.992-.402.242-.257.371-.555.371-.874a1.26 1.26 0 00-.361-.87c-.24-.264-.573-.4-.959-.398h-1.966v2.544h.129v-.125h.128V9.796h1.709c.33.002.573.105.768.315l.001.001h-.001c.201.219.295.447.296.702-.001.253-.098.482-.305.706-.203.214-.458.319-.802.32h-1.794v.125h.128-.128zm-.987 4.285h.128V8.875h2.653a2.158 2.158 0 011.476.549c.416.368.618.813.619 1.369 0 .334-.089.62-.263.872a1.652 1.652 0 01-.705.575l-.074.033v.212l.086.028c.357.12.646.32.875.608l.001.002-.001-.002c.226.287.338.612.338.992a1.819 1.819 0 01-.651 1.436c-.44.386-.949.575-1.551.576h-2.931v.125h.128-.128v.125h2.931a2.532 2.532 0 001.723-.64c.487-.424.737-.977.736-1.622a1.798 1.798 0 00-.392-1.145l-.002-.001h.002a2.084 2.084 0 00-.995-.69l-.041.118h.128v-.041h-.128l.053.113c.334-.148.608-.37.81-.662.205-.293.307-.635.307-1.012a1.992 1.992 0 00-.703-1.555l-.003-.002.003.002a2.423 2.423 0 00-1.648-.613h-2.909v7.75h.128v-.125z" fill="#fff"/><defs><linearGradient id="paint0_linear_2311_7959" x1="27.936" y1="10.887" x2="6.964" y2="32.387" gradientUnits="userSpaceOnUse"><stop stop-color="#00A0FF"/><stop offset=".007" stop-color="#00A1FF"/><stop offset=".26" stop-color="#00BEFF"/><stop offset=".512" stop-color="#00D2FF"/><stop offset=".76" stop-color="#00DFFF"/><stop offset="1" stop-color="#00E3FF"/></linearGradient><linearGradient id="paint1_linear_2311_7959" x1="43.358" y1="25.002" x2="12.351" y2="25.002" gradientUnits="userSpaceOnUse"><stop stop-color="#FFE000"/><stop offset=".409" stop-color="#FFBD00"/><stop offset=".775" stop-color="orange"/><stop offset="1" stop-color="#FF9C00"/></linearGradient><linearGradient id="paint2_linear_2311_7959" x1="31.816" y1="27.87" x2="3.377" y2="57.025" gradientUnits="userSpaceOnUse"><stop stop-color="#FF3A44"/><stop offset="1" stop-color="#C31162"/></linearGradient><linearGradient id="paint3_linear_2311_7959" x1="9.352" y1=".22" x2="22.051" y2="13.239" gradientUnits="userSpaceOnUse"><stop stop-color="#32A071"/><stop offset=".069" stop-color="#2DA771"/><stop offset=".476" stop-color="#15CF74"/><stop offset=".801" stop-color="#06E775"/><stop offset="1" stop-color="#00F076"/></linearGradient><linearGradient id="paint4_linear_2311_7959" x1="43.377" y1="24.963" x2="12.303" y2="24.963" gradientUnits="userSpaceOnUse"><stop stop-color="#CCB300"/><stop offset=".409" stop-color="#CC9700"/><stop offset=".775" stop-color="#CC8400"/><stop offset="1" stop-color="#CC7D00"/></linearGradient><linearGradient id="paint5_linear_2311_7959" x1="31.816" y1="27.87" x2="3.376" y2="57.025" gradientUnits="userSpaceOnUse"><stop stop-color="#CC2E36"/><stop offset="1" stop-color="#9C0E4E"/></linearGradient><linearGradient id="paint6_linear_2311_7959" x1="27.916" y1="10.887" x2="6.943" y2="32.359" gradientUnits="userSpaceOnUse"><stop stop-color="#008DE0"/><stop offset=".007" stop-color="#008DE0"/><stop offset=".26" stop-color="#00A7E0"/><stop offset=".512" stop-color="#00B8E0"/><stop offset=".76" stop-color="#00C4E0"/><stop offset="1" stop-color="#00C7E0"/></linearGradient><linearGradient id="paint7_linear_2311_7959" x1="31.801" y1="27.816" x2="3.237" y2="56.951" gradientUnits="userSpaceOnUse"><stop stop-color="#E0333C"/><stop offset="1" stop-color="#AB0F56"/></linearGradient><linearGradient id="paint8_linear_2311_7959" x1="43.358" y1="25.002" x2="12.35" y2="25.002" gradientUnits="userSpaceOnUse"><stop stop-color="#E0C500"/><stop offset=".409" stop-color="#E0A600"/><stop offset=".775" stop-color="#E09100"/><stop offset="1" stop-color="#E08900"/></linearGradient><linearGradient id="paint9_linear_2311_7959" x1="43.358" y1="25.002" x2="12.35" y2="25.002" gradientUnits="userSpaceOnUse"><stop stop-color="#FFE840"/><stop offset=".409" stop-color="#FFCE40"/><stop offset=".775" stop-color="#FFBC40"/><stop offset="1" stop-color="#FFB540"/></linearGradient><linearGradient id="paint10_linear_2311_7959" x1="27.916" y1="10.887" x2="6.943" y2="32.359" gradientUnits="userSpaceOnUse"><stop stop-color="#40B8FF"/><stop offset=".007" stop-color="#40B9FF"/><stop offset=".26" stop-color="#40CEFF"/><stop offset=".512" stop-color="#40DDFF"/><stop offset=".76" stop-color="#40E7FF"/><stop offset="1" stop-color="#40EAFF"/></linearGradient><linearGradient id="paint11_linear_2311_7959" x1="9.351" y1=".22" x2="22.051" y2="13.239" gradientUnits="userSpaceOnUse"><stop stop-color="#65B895"/><stop offset=".069" stop-color="#62BD95"/><stop offset=".476" stop-color="#50DB97"/><stop offset=".801" stop-color="#44ED98"/><stop offset="1" stop-color="#40F498"/></linearGradient></defs></svg>